<svg width="44" height="44" viewBox="0 0 44 44" fill="none" xmlns="http://www.w3.org/2000/svg">
<path d="M8.90942 5.39307V38.6069H25.7489C25.3919 37.7467 25.1948 36.8033 25.1948 35.814C25.1948 35.7447 25.1958 35.6757 25.1977 35.6069H11.9094V8.39307H22.9491L22.949 17.7869H31.8022V28.5548C32.0272 28.5339 32.2551 28.5232 32.4856 28.5232C33.2954 28.5232 34.0744 28.6552 34.8022 28.8989V15.9169L24.2783 5.39307H8.90942Z" fill="white"/>
<path d="M20.7386 21.8908H23.7905V32.7768H20.7386V21.8908Z" fill="white"/>
<path d="M17.7702 23.7379H14.7182V32.7769H17.7702V23.7379Z" fill="white"/>
<path d="M39.5204 33.0648L32.4572 40.128L27.5129 35.1837L29.6319 33.0648L32.4572 35.89L37.4014 30.9458L39.5204 33.0648Z" fill="white"/>
</svg>
