<?xml version="1.0" encoding="utf-8"?>
<!-- Generator: Adobe Illustrator 22.1.0, SVG Export Plug-In . SVG Version: 6.00 Build 0)  -->
<svg version="1.1" id="Ebene_1" xmlns="http://www.w3.org/2000/svg" xmlns:xlink="http://www.w3.org/1999/xlink" x="0px" y="0px"
	 viewBox="0 0 461.8 64.5" style="enable-background:new 0 0 461.8 64.5;" xml:space="preserve">
<style type="text/css">
	.st0{fill:#FFFFFF;}
	.st1{fill:#808285;}
</style>
<g>
	<path class="st0" d="M27.4,30.2H17.2V34h10.2c9,0,9.4,1.2,10.7,7.9h2.8v-19h-2.8C36.8,29.3,36.4,30.2,27.4,30.2z"/>
	<path class="st0" d="M0.3,0v2.8l16.9,3.8c0-2.9,0.3-3.1,3.2-3.1h7.5c7.5,0,9.7,0.8,11.3,3.6c1.4,2.1,2,4,2.8,7.9l3-0.4
		c-0.5-4.7-1-11-1-14.6H0.3z"/>
	<rect y="61.7" class="st0" width="17.4" height="2.8"/>
	<path class="st0" d="M67.1,55.7L60.8,56c-2.9,3.8-6,5.1-11.6,5.7v2.8h22.7v-2.8C65.3,60.9,64.8,59.9,67.1,55.7z"/>
	<path class="st0" d="M91.8,8.9l4.4,1.5c4.5-5.9,6.3-6.8,13.7-7.6V0H87.2v2.8C93.8,3.6,94.3,4.6,91.8,8.9z"/>
	<path class="st0" d="M99.8,52.6c-4.4-6.7-9.5-14.7-14.5-22.6l-4.9,7.6C86,46.3,90,53,92.3,56.8c1.9,3.3,1.2,4.2-5,4.9v2.8h26.1
		v-2.8C106.6,61,104.3,59.5,99.8,52.6z"/>
	<path class="st0" d="M70.7,7c-1.5-2.6-1.3-3.5,4.7-4.2V0H51.1v2.8c7,0.8,8.4,1.9,12.6,8.3c3.2,5.1,7.5,11.8,12.2,19.4l5-7.5
		C77,17.2,73.7,12,70.7,7z"/>
</g>
<g>
	<path class="st0" d="M168.2,0C180.1,0,189,7.5,189,18.1s-8.9,18.1-20.8,18.1h-35.8v28.1h-1.8V0H168.2z M168,34.5
		c10.9,0,19.2-6.7,19.2-16.5c0-10-8.3-16.5-19.2-16.5h-35.6v33H168z"/>
	<path class="st0" d="M263.6,64.3l-19.2-29.3h-0.6h-35.6v29.3h-1.8V0h37.5c11.9,0,20.8,7.5,20.8,17.5c0,9.2-7.7,16.3-18.3,17.4
		l19.2,29.4H263.6z M243.7,33.3c10.7,0,19.2-6.5,19.2-15.9c0-9.5-8.5-16-19.2-16h-35.5v31.8H243.7z"/>
	<path class="st0" d="M286.1,0v64.3h-1.8V0H286.1z"/>
	<path class="st0" d="M385.6,0v64.3h-1.7V2.4l-36.2,61.9h-1.8L309.8,2.4v61.9H308V0h2.6l36.3,62.3L383.3,0H385.6z"/>
	<path class="st0" d="M461.8,62.7v1.6h-54.7V0h54.5v1.5h-52.8v29.7h47.5v1.6h-47.5v29.9H461.8z"/>
</g>
</svg>
