<svg width="24" height="25" viewBox="0 0 24 25" fill="none" xmlns="http://www.w3.org/2000/svg">
<path fill-rule="evenodd" clip-rule="evenodd" d="M1 3.36535C1 2.87788 1.19365 2.41038 1.53834 2.06568C1.88303 1.72099 2.35053 1.52735 2.838 1.52735H21.16C21.4016 1.52695 21.6409 1.57421 21.8641 1.66641C22.0874 1.75862 22.2903 1.89396 22.4612 2.06468C22.6322 2.23541 22.7677 2.43817 22.8602 2.66136C22.9526 2.88454 23.0001 3.12377 23 3.36535V21.6873C23.0003 21.929 22.9529 22.1683 22.8606 22.3916C22.7683 22.6149 22.6328 22.8178 22.462 22.9887C22.2912 23.1596 22.0884 23.2951 21.8651 23.3875C21.6419 23.48 21.4026 23.5275 21.161 23.5273H2.838C2.59655 23.5273 2.35746 23.4798 2.1344 23.3873C1.91134 23.2949 1.70867 23.1594 1.53798 22.9887C1.3673 22.8179 1.23193 22.6151 1.13962 22.392C1.04731 22.1689 0.999869 21.9298 1 21.6883V3.36535ZM9.708 9.91535H12.687V11.4113C13.117 10.5513 14.217 9.77735 15.87 9.77735C19.039 9.77735 19.79 11.4903 19.79 14.6333V20.4553H16.583V15.3493C16.583 13.5593 16.153 12.5493 15.061 12.5493C13.546 12.5493 12.916 13.6383 12.916 15.3493V20.4553H9.708V9.91535ZM4.208 20.3183H7.416V9.77735H4.208V20.3173V20.3183ZM7.875 6.33935C7.88105 6.61402 7.83217 6.88713 7.73124 7.14266C7.63031 7.39819 7.47935 7.63098 7.28723 7.82738C7.09511 8.02378 6.8657 8.17982 6.61246 8.28635C6.35921 8.39289 6.08724 8.44776 5.8125 8.44776C5.53776 8.44776 5.26579 8.39289 5.01255 8.28635C4.7593 8.17982 4.52989 8.02378 4.33777 7.82738C4.14565 7.63098 3.99469 7.39819 3.89376 7.14266C3.79283 6.88713 3.74395 6.61402 3.75 6.33935C3.76187 5.8002 3.98439 5.28714 4.36989 4.91003C4.75539 4.53293 5.27322 4.32176 5.8125 4.32176C6.35178 4.32176 6.86961 4.53293 7.25512 4.91003C7.64062 5.28714 7.86313 5.8002 7.875 6.33935V6.33935Z" fill="#15162D"/>
</svg>
