<svg width="26" height="25" viewBox="0 0 26 25" fill="none" xmlns="http://www.w3.org/2000/svg">
<g clip-path="url(#clip0_702_647)">
<path d="M5.3793 0C2.85058 0 0.814453 2.03612 0.814453 4.56485V20.4352C0.814453 22.9639 2.85058 25 5.3793 25H13.9809V15.2266H11.3965V11.7078H13.9809V8.70158C13.9809 6.3397 15.5079 4.1711 19.0254 4.1711C20.4496 4.1711 21.5028 4.30783 21.5028 4.30783L21.4199 7.59378C21.4199 7.59378 20.3459 7.58363 19.1738 7.58363C17.9054 7.58363 17.702 8.16807 17.702 9.13832V11.7079H21.5207L21.3543 15.2266H17.702V25.0001H21.2496C23.7783 25.0001 25.8145 22.9639 25.8145 20.4352V4.56488C25.8145 2.03615 23.7783 2.5e-05 21.2496 2.5e-05H5.37928L5.3793 0Z" fill="white"/>
</g>
<defs>
<clipPath id="clip0_702_647">
<rect width="25" height="25" fill="white" transform="translate(0.814453)"/>
</clipPath>
</defs>
</svg>
