<svg width="44" height="44" viewBox="0 0 44 44" fill="none" xmlns="http://www.w3.org/2000/svg">
<path d="M14.668 18.6473C14.668 20.5918 15.4404 22.457 16.8156 23.8321C18.1905 25.207 20.0556 25.9794 22.0002 25.9794C23.9448 25.9794 25.8099 25.207 27.1848 23.8321C28.56 22.4569 29.3324 20.5918 29.3324 18.6473C29.3324 16.7028 28.56 14.8376 27.1848 13.4627C25.8099 12.0875 23.9448 11.315 22.0002 11.315C20.0565 11.3179 18.1932 12.0915 16.8188 13.4658C15.4445 14.8404 14.6708 16.7036 14.668 18.6473ZM22.0002 13.7553C23.2977 13.7553 24.542 14.2706 25.4595 15.188C26.3769 16.1055 26.8922 17.3498 26.8922 18.6473C26.8922 19.9448 26.3769 21.1891 25.4595 22.1065C24.542 23.024 23.2977 23.5392 22.0002 23.5392C20.7027 23.5392 19.4584 23.024 18.5409 22.1065C17.6235 21.1891 17.1082 19.9448 17.1082 18.6473C17.1082 17.3498 17.6235 16.1055 18.5409 15.188C19.4584 14.2705 20.7027 13.7553 22.0002 13.7553Z" fill="white"/>
<path d="M31.005 9.48227C32.5163 9.55448 33.8946 10.3678 34.6881 11.6558C35.4818 12.9441 35.5886 14.5408 34.9735 15.9232C34.3584 17.3053 33.1006 18.2949 31.6123 18.5674L31.9331 20.9845V20.9848C34.1794 20.6897 36.1447 19.3268 37.2092 17.3268C38.2736 15.3265 38.3056 12.9354 37.2955 10.9072C36.2854 8.87892 34.3575 7.46403 32.1199 7.10845C29.8822 6.75286 27.6105 7.50058 26.0216 9.11571L27.7285 10.8341C28.5954 9.96239 29.7757 9.47535 31.005 9.48227Z" fill="white"/>
<path d="M38.5431 24.7079C37.4003 23.5586 35.8448 22.915 34.2239 22.9207L30.5578 22.9207V25.361H34.2239C35.1963 25.361 36.1287 25.7471 36.8163 26.4346C37.5039 27.1222 37.8899 28.0546 37.8899 29.027L37.8899 30.2529L30.9358 30.2529C30.4142 29.3159 29.6492 28.5371 28.7214 27.9986C27.7939 27.4603 26.7383 27.1824 25.6658 27.1939H18.3336C17.2611 27.1824 16.2055 27.4603 15.278 27.9986C14.3502 28.5372 13.5852 29.316 13.0637 30.2529H6.10948V29.027C6.10948 28.0546 6.49557 27.1222 7.18315 26.4346C7.87074 25.7471 8.80316 25.361 9.77556 25.361H13.4416L13.4416 22.9207H9.77556C8.15585 22.9207 6.60286 23.564 5.45753 24.7093C4.3125 25.8544 3.66895 27.4076 3.66895 29.027L3.66895 31.4673C3.66895 31.7924 3.79812 32.1042 4.02799 32.3341C4.25814 32.564 4.56972 32.6932 4.89485 32.6932H12.2849C12.2555 32.8946 12.2365 33.0971 12.2276 33.3005L12.2276 35.7522C12.2276 36.0773 12.3568 36.3892 12.5867 36.6191C12.8165 36.849 13.1284 36.9782 13.4535 36.9782H30.558C30.8811 36.975 31.1901 36.8447 31.4173 36.6151C31.6449 36.3855 31.7724 36.0754 31.7724 35.7523V33.312C31.7634 33.1086 31.7444 32.9061 31.7151 32.7047L39.1051 32.7047C39.4302 32.7047 39.7418 32.5755 39.972 32.3457C40.2019 32.1158 40.331 31.8039 40.331 31.4788L40.331 29.0271C40.3368 27.4062 39.6929 25.8506 38.5436 24.7079L38.5431 24.7079ZM29.3773 34.5262H14.6672V33.3119C14.6672 32.3395 15.0533 31.407 15.7409 30.7194C16.4285 30.0319 17.3609 29.6455 18.3333 29.6455H25.6655C26.6379 29.6455 27.5703 30.0319 28.2579 30.7194C28.9455 31.407 29.3316 32.3395 29.3316 33.3119L29.3773 34.5262Z" fill="white"/>
<path d="M12.0667 20.996L12.3874 18.567C10.884 18.3098 9.60715 17.321 8.98143 15.9297C8.35569 14.5386 8.46328 12.9272 9.26825 11.6315C10.0732 10.336 11.4702 9.52587 12.9948 9.47034C14.2259 9.46631 15.4065 9.95769 16.2713 10.8337L18.0128 9.11535C16.4227 7.51118 14.1571 6.77122 11.9266 7.12768C9.69609 7.48413 7.77397 8.89359 6.76305 10.9131C5.75206 12.9331 5.77629 15.3163 6.82778 17.3155C7.87928 19.3145 9.82961 20.6847 12.0667 20.996L12.0667 20.996Z" fill="white"/>
</svg>
