<svg width="44" height="44" viewBox="0 0 44 44" fill="none" xmlns="http://www.w3.org/2000/svg">
<path d="M17.8596 6.2085L20.7332 8.86743V0.245605L23.2664 0.23291V8.86743L26.1399 6.2085L28.0159 8.23584L21.9998 13.8025L15.9836 8.23584L17.8596 6.2085Z" fill="white"/>
<path d="M12.1809 16.9502C12.4226 16.9336 12.6663 16.9204 12.9128 16.9114C13.1711 16.9019 13.4329 16.897 13.6985 16.897C16.7146 16.897 19.3914 17.4934 21.0935 18.4197C21.4954 18.6384 21.8425 18.8752 22.1267 19.1265C20.0886 19.8381 19.468 20.8054 19.1008 21.6045C18.6477 22.5908 19.1008 24.0122 19.1008 24.0122C17.4504 24.5789 15.4314 24.6558 13.6985 24.6558C10.8083 24.6558 8.22192 24.1079 6.51392 23.2446C6.4231 23.1963 6.33472 23.1089 6.24976 23.104C5.08032 22.4543 4.38794 21.6492 4.38794 20.7764C4.38794 19.0889 6.97876 17.6487 10.595 17.1201C11.1042 17.0425 11.6326 16.9844 12.1809 16.9502Z" fill="white"/>
<path d="M12.6965 29.2888C12.9675 28.5278 13.7693 27.8381 14.9402 27.2886C16.446 26.5039 16.2908 26.0723 15.7654 26.1182C15.0935 26.1772 14.4021 26.2075 13.6985 26.2075C10.9734 26.2075 8.43433 25.7517 6.51831 24.9517C5.72729 24.6218 4.99146 24.2146 4.38794 23.7151V25.4316C4.38794 26.3047 5.08032 27.1096 6.24976 27.7593C7.75952 28.5957 10.0642 29.1711 12.6965 29.2888Z" fill="white"/>
<path d="M12.6116 30.8271C10.1917 30.7473 8.24585 30.3284 6.51831 29.6069C5.72729 29.2771 4.99146 28.8699 4.38794 28.3704V30.0869C4.38794 32.075 7.6853 33.6897 12.3074 33.917L12.6116 30.8271Z" fill="white"/>
<path d="M37.7502 25.146C38.9187 24.4963 39.6121 23.6917 39.6121 22.8184C39.6121 20.676 35.4417 18.939 30.3015 18.939C25.1179 18.939 20.991 20.676 20.991 22.8184C20.991 23.6917 21.6843 24.4963 22.8533 25.146L22.9065 25.175C23.2991 25.1558 23.6921 25.146 24.0945 25.146C26.8201 25.146 29.3611 25.6018 31.2761 26.4021C31.4607 26.4795 31.6448 26.562 31.8196 26.6445C34.239 26.4795 36.3391 25.9268 37.7502 25.146Z" fill="white"/>
<path d="M24.0945 26.6978C23.906 26.6978 23.7195 26.7004 23.5349 26.7053C23.2107 26.7139 22.8918 26.7295 22.5769 26.7512C22.0286 26.7852 21.5002 26.8433 20.991 26.9209C17.3748 27.4495 14.7839 28.8896 14.7839 30.5771C14.7839 31.4502 15.4763 32.2551 16.6458 32.9048C16.7307 32.9097 16.8191 32.9971 16.9099 33.0454C18.6179 33.9087 21.2043 34.4565 24.0945 34.4565C27.1399 34.4565 29.8459 33.8457 31.5432 32.9048C31.55 32.9001 31.5574 32.8965 31.5647 32.8928C31.572 32.8892 31.5793 32.8855 31.5867 32.8806C31.5916 32.8757 31.6013 32.8708 31.6062 32.8708C32.4402 32.3713 33.0803 31.7847 33.3035 31.1445C33.3713 30.9602 33.405 30.7275 33.405 30.5771C33.405 29.6897 32.6921 28.8752 31.4895 28.2205C29.7874 27.2942 27.1106 26.6978 24.0945 26.6978Z" fill="white"/>
<path d="M37.4832 26.9937C36.4167 27.4348 35.1604 27.7744 33.7883 27.9878C34.4431 28.6423 34.9568 29.5151 34.9568 30.5771C34.9568 30.6179 34.9558 30.6587 34.9539 30.699L34.947 30.8342C35.9172 30.6016 36.7756 30.3008 37.488 29.9419C38.8123 29.2727 39.6121 28.4097 39.6121 27.4736V25.7571C39.0061 26.2566 38.2737 26.6638 37.4832 26.9937Z" fill="white"/>
<path d="M31.5432 37.5603C32.7117 36.9104 33.405 36.1055 33.405 35.2324V33.5159C33.3372 33.5693 33.2693 33.6274 33.1965 33.6807C33.1028 33.75 33.0076 33.8181 32.9099 33.8848L32.7991 33.959C32.658 34.0515 32.5129 34.1401 32.3625 34.2239C32.0183 34.418 31.6545 34.5972 31.2761 34.7524C29.3611 35.5525 26.8201 36.0083 24.0945 36.0083C21.3694 36.0083 18.8303 35.5525 16.9143 34.7524C16.1233 34.4226 15.3875 34.0154 14.7839 33.5159V35.2324C14.7839 36.1055 15.4763 36.9104 16.6458 37.5603C18.3445 38.501 21.0491 39.1121 24.0945 39.1121C26.9846 39.1121 29.5696 38.564 31.281 37.7009C31.3347 37.6709 31.3884 37.6262 31.4421 37.5952C31.4758 37.5759 31.5095 37.562 31.5432 37.5603Z" fill="white"/>
<path d="M37.4832 31.6489C37.1628 31.7825 36.8181 31.8987 36.4602 32.0066C35.9734 32.1536 35.4626 32.2852 34.9568 32.4248V35.2324C34.9568 35.3198 34.9519 35.407 34.947 35.4895C36.7073 35.0676 38.0994 34.418 38.8899 33.6274C38.9709 33.5461 39.0457 33.4639 39.113 33.3811C39.1555 33.3296 39.1951 33.2776 39.2317 33.2253C39.3376 33.0752 39.4216 32.9231 39.4836 32.7698C39.5691 32.5576 39.6121 32.3433 39.6121 32.1289V30.4124C39.0061 30.9119 38.2737 31.3191 37.4832 31.6489Z" fill="white"/>
<path d="M31.2761 39.4077C29.3611 40.2078 26.8201 40.6638 24.0945 40.6638C21.3694 40.6638 18.8303 40.2078 16.9143 39.4077C16.1233 39.0781 15.3875 38.6707 14.7839 38.1711V39.8879C14.7839 42.0312 18.9524 43.7673 24.0945 43.7673C29.2346 43.7673 33.405 42.0312 33.405 39.8879V38.1711C33.261 38.29 33.1096 38.4036 32.9524 38.5122C32.7571 38.6467 32.5525 38.7737 32.3396 38.8931C32.2185 38.9612 32.0945 39.0271 31.9685 39.0906C31.7444 39.2034 31.5129 39.3091 31.2761 39.4077Z" fill="white"/>
</svg>
