<svg width="768" height="515" viewBox="0 0 768 515" fill="none" xmlns="http://www.w3.org/2000/svg">
<g clip-path="url(#clip0_123_930)">
<path d="M352.128 424.848C352.128 424.848 397.934 388.185 415.804 376.163C433.674 364.142 460.88 304.557 436.665 220.929C412.449 137.301 439.254 19.871 468.32 0.389656" stroke="url(#paint0_linear_123_930)" stroke-miterlimit="10"/>
<path d="M455.082 0.389687C442.901 8.5599 430.027 38.7916 423.973 74.819C417.846 111.164 418.649 154.801 423.098 197.036C423.973 205.281 425.578 213.283 427.584 220.967C438.999 264.903 442.464 300.556 435.935 328.769C430.064 353.223 419.488 369.713 410.698 375.995C393.011 388.615 348.992 423.764 349.028 425.203" stroke="url(#paint1_linear_123_930)" stroke-miterlimit="10"/>
<path d="M441.807 0.389656C430.574 7.9242 417.481 39.6328 413.105 75.0246C408.656 110.734 413.069 153.044 414.965 197.054C415.33 205.355 416.679 213.357 418.503 221.004C428.641 265.164 437.211 299.341 430.683 328.544C425.322 352.625 414.637 369.021 405.556 375.846C388.014 389.026 345.782 422.679 345.891 425.596" stroke="url(#paint2_linear_123_930)" stroke-miterlimit="10"/>
<path d="M428.568 0.389656C418.284 7.30723 404.972 40.4742 402.237 75.2677C399.466 110.342 405.082 151.305 406.832 197.11C407.161 205.449 407.854 213.451 409.385 221.06C418.466 265.426 431.778 298.126 425.395 328.32C420.399 352.008 409.714 368.33 400.377 375.696C382.981 389.438 342.573 421.614 342.719 425.97" stroke="url(#paint3_linear_123_930)" stroke-miterlimit="10"/>
<path d="M415.33 0.389686C405.958 6.67159 392.427 41.2968 391.406 75.4734C390.312 109.893 402.165 149.51 398.737 197.11C398.117 205.505 399.028 213.488 400.341 221.079C408.219 265.651 426.417 296.873 420.181 328.058C415.549 351.372 404.864 367.582 395.309 375.509C378.022 389.793 339.474 420.492 339.656 426.306" stroke="url(#paint4_linear_123_930)" stroke-miterlimit="10"/>
<path d="M402.092 0.389655C393.668 6.03589 379.919 42.1381 380.539 75.6977C381.122 109.482 396.841 147.753 390.604 197.148C389.547 205.58 390.13 213.582 391.261 221.116C397.898 265.912 420.984 295.639 414.966 327.834C410.663 350.755 400.014 366.89 390.203 375.359C373.026 390.204 336.338 419.426 336.593 426.68" stroke="url(#paint5_linear_123_930)" stroke-miterlimit="10"/>
<path d="M388.816 0.389655C381.304 5.41892 367.372 42.9795 369.67 75.9221C371.931 109.07 391.588 145.976 382.471 197.185C380.975 205.655 381.267 213.657 382.179 221.172C387.576 266.193 415.549 294.424 409.714 327.609C405.738 350.138 395.089 366.18 385.06 375.21C367.956 390.578 333.164 418.342 333.455 427.054" stroke="url(#paint6_linear_123_930)" stroke-miterlimit="10"/>
<path d="M375.578 0.389655C369.014 4.78325 354.863 43.8021 358.839 76.1464C362.777 108.659 386.446 144.219 374.375 197.204C372.442 205.729 372.442 213.731 373.135 221.191C377.292 266.417 410.151 293.171 404.499 327.348C400.852 349.503 390.239 365.432 379.954 375.023C362.923 390.933 330.028 417.239 330.356 427.391" stroke="url(#paint7_linear_123_930)" stroke-miterlimit="10"/>
<path d="M362.34 0.389654C356.724 4.16627 342.355 44.6434 347.971 76.3708C353.587 108.248 381.304 142.443 366.206 197.241C363.835 205.804 363.507 213.806 363.981 221.247C366.899 266.697 404.608 291.956 399.174 327.142C395.819 348.904 385.243 364.74 374.74 374.892C357.781 391.345 326.782 416.173 327.147 427.802" stroke="url(#paint8_linear_123_930)" stroke-miterlimit="10"/>
<path d="M349.101 0.389654C344.433 3.53061 329.845 45.4847 337.139 76.5951C344.397 107.836 376.308 140.704 358.109 197.279C355.337 205.898 354.681 213.9 354.936 221.303C356.577 266.978 399.174 290.741 393.995 326.918C390.932 348.287 380.356 364.03 369.706 374.742C352.785 391.719 323.718 415.107 324.119 428.176" stroke="url(#paint9_linear_123_930)" stroke-miterlimit="10"/>
<path d="M335.826 0.389654C332.069 2.89494 317.299 46.3074 326.271 76.8195C335.206 107.425 371.347 138.965 349.976 197.316C346.803 205.991 345.782 213.974 345.855 221.341C346.22 267.221 393.667 289.507 388.743 326.675C385.972 347.652 375.432 363.282 364.564 374.574C347.678 392.074 320.545 414.004 321.019 428.531" stroke="url(#paint10_linear_123_930)" stroke-miterlimit="10"/>
<path d="M322.588 0.389653C319.78 2.27796 304.755 47.1487 315.404 77.0438C326.016 107.032 366.461 137.245 341.844 197.354C338.27 206.066 336.921 214.049 336.775 221.397C335.827 267.501 388.124 288.292 383.493 326.469C380.976 347.054 370.509 362.59 359.423 374.443C342.574 392.485 317.373 412.957 317.884 428.924" stroke="url(#paint11_linear_123_930)" stroke-miterlimit="10"/>
<path d="M309.349 0.389645C307.489 1.64229 292.245 47.99 304.572 77.2682C316.862 106.602 361.647 135.525 333.747 197.372C329.809 206.141 328.058 214.124 327.73 221.415C325.323 267.744 382.617 287.039 378.277 326.207C376.052 346.418 365.585 361.842 354.316 374.256C337.504 392.822 314.236 411.836 314.783 429.26" stroke="url(#paint12_linear_123_930)" stroke-miterlimit="10"/>
<path d="M296.074 0.389645C295.126 1.02531 279.699 48.8126 293.667 77.4925C307.635 106.191 356.796 133.824 325.578 197.41C321.238 206.234 319.123 214.199 318.576 221.471C314.892 268.006 376.854 285.805 372.952 325.983C370.91 345.801 360.516 361.113 349.101 374.107C332.215 393.177 310.953 410.77 311.573 429.634" stroke="url(#paint13_linear_123_930)" stroke-miterlimit="10"/>
<path d="M282.835 0.389645C282.835 0.389645 267.19 49.654 282.835 77.7169C298.481 105.78 352.127 132.141 317.481 197.428C282.288 263.8 371.967 278.196 367.773 325.74C363.579 373.284 307.452 395.626 308.546 429.99" stroke="url(#paint14_linear_123_930)" stroke-miterlimit="10"/>
<path d="M985.343 70.0147C985.343 70.0147 933.986 101.349 874.405 129.589C783.759 172.551 799.967 110.057 704.637 198.684C612.65 284.233 633.405 356.18 588.989 368.014C544.572 379.848 525.613 366.502 505.194 433.378" stroke="url(#paint15_linear_123_930)" stroke-miterlimit="10"/>
<path d="M980.16 61.3011C980.16 61.3011 930.071 99.1333 869.32 124.338C779.822 161.473 792.54 107.422 701.852 193.903C614.273 277.519 631.212 349.528 586.014 360.359C540.815 371.191 522.406 366.479 503.493 431.223" stroke="url(#paint16_linear_123_930)" stroke-miterlimit="10"/>
<path d="M975.014 52.6052C975.014 52.6052 926.264 96.9709 864.272 119.105C776.056 150.603 785.13 104.814 699.103 189.141C615.934 270.822 629.074 342.882 583.076 352.722C537.074 362.602 519.236 366.474 501.81 429.097" stroke="url(#paint17_linear_123_930)" stroke-miterlimit="10"/>
<path d="M969.846 43.9203C969.846 43.9203 922.539 94.9125 859.203 113.882C772.407 139.894 777.701 102.179 696.316 184.36C617.576 264.098 626.899 336.219 580.116 345.096C533.333 353.973 516.045 366.48 500.125 426.97" stroke="url(#paint18_linear_123_930)" stroke-miterlimit="10"/>
<path d="M964.683 35.1957C964.683 35.1957 918.889 92.8893 854.155 108.649C768.931 129.392 770.292 99.5713 693.587 179.587C619.255 257.39 624.78 329.562 577.197 337.448C529.614 345.334 512.913 366.453 498.461 424.833" stroke="url(#paint19_linear_123_930)" stroke-miterlimit="10"/>
<path d="M959.516 26.5107C959.516 26.5107 915.299 91.0206 849.105 103.416C765.551 119.063 762.899 96.953 690.836 174.824C620.913 250.694 622.621 322.927 574.257 329.811C525.892 336.694 509.74 366.447 496.795 422.695" stroke="url(#paint20_linear_123_930)" stroke-miterlimit="10"/>
<path d="M954.368 17.8148C954.368 17.8148 911.831 89.2733 844.055 98.1827C762.304 108.963 755.487 94.3457 688.069 170.032C622.555 243.969 620.465 316.253 571.317 322.173C522.168 328.094 506.552 366.413 495.111 420.569" stroke="url(#paint21_linear_123_930)" stroke-miterlimit="10"/>
<path d="M949.222 9.11901C949.222 9.11901 908.432 87.6411 839.024 92.9783C759.173 99.1042 748.113 91.7564 685.337 165.298C624.252 237.291 618.345 309.636 568.395 314.565C518.446 319.494 503.398 366.437 493.48 418.489" stroke="url(#paint22_linear_123_930)" stroke-miterlimit="10"/>
<path d="M944.039 0.405435C944.039 0.405435 905.056 86.1851 833.939 87.7274C756.05 89.3926 740.667 89.1315 682.571 160.507C625.894 230.566 616.189 302.961 565.439 306.899C514.689 310.837 500.229 366.392 491.779 416.334" stroke="url(#paint23_linear_123_930)" stroke-miterlimit="10"/>
<path d="M938.891 -8.2905C938.891 -8.2905 901.758 84.9518 828.909 82.4832C753.04 79.9215 733.276 86.4736 679.823 155.705C627.555 223.83 614.033 296.287 562.518 299.251C510.984 302.226 497.076 366.375 490.133 414.185" stroke="url(#paint24_linear_123_930)" stroke-miterlimit="10"/>
<path d="M933.725 -16.9753C933.725 -16.9753 898.504 83.9238 823.841 77.2611C750.054 70.6666 725.847 83.8775 677.054 150.953C629.196 217.145 611.876 289.652 559.561 291.625C507.245 293.597 493.886 366.381 488.431 412.07" stroke="url(#paint25_linear_123_930)" stroke-miterlimit="10"/>
<path d="M928.561 -25.6999C928.561 -25.6999 895.272 83.1116 818.792 72.0279C747.091 61.6276 718.455 81.2592 674.304 146.19C630.874 210.437 609.737 283.007 556.621 283.988C503.505 284.969 490.734 366.365 486.765 409.933" stroke="url(#paint26_linear_123_930)" stroke-miterlimit="10"/>
<path d="M923.395 -34.3849C923.395 -34.3849 892.038 82.6454 813.724 66.8056C744.083 52.7295 711.045 78.6519 671.538 141.399C632.517 203.712 607.582 276.332 553.682 276.35C499.782 276.369 487.544 366.37 485.082 407.806" stroke="url(#paint27_linear_123_930)" stroke-miterlimit="10"/>
<path d="M918.247 -43.0802C918.247 -43.0802 888.807 82.407 808.674 61.573C741.046 44.0018 703.633 76.0454 668.788 136.637C634.176 197.017 605.424 269.698 550.723 268.725C496.023 267.751 484.372 366.366 483.397 405.68" stroke="url(#paint28_linear_123_930)" stroke-miterlimit="10"/>
<path d="M913.081 -51.7652C913.081 -51.7652 885.487 82.4497 803.626 56.3397C737.912 35.3679 696.242 73.4271 666.039 131.874C635.836 190.321 603.286 263.052 547.785 261.088C492.284 259.123 481.185 366.332 481.714 403.554" stroke="url(#paint29_linear_123_930)" stroke-miterlimit="10"/>
<path d="M-200.058 -60.4071C-200.058 -60.4071 -163.669 -32.415 -94.2292 -35.5731C-22.5088 -38.8036 45.1524 111.875 130.331 161.053C215.51 210.231 238.621 201.274 274.587 262.697C308.497 320.607 285.761 377.122 314.988 427.108" stroke="url(#paint30_linear_123_930)" stroke-miterlimit="10"/>
<path d="M-203.196 -54.9727C-203.196 -54.9727 -174.228 -32.204 -114.423 -32.6653C-108.772 -32.7065 -102.881 -32.7968 -96.7468 -33.0468C-24.3843 -36.1318 42.737 118.102 125.438 166.75C207.238 214.654 232.505 207.204 269.179 267.347C302.973 322.786 283.726 377.974 312.631 428.413" stroke="url(#paint31_linear_123_930)" stroke-miterlimit="10"/>
<path d="M-206.349 -49.5105C-206.349 -49.5105 -178.685 -27.1565 -116.986 -29.903C-111.267 -30.1675 -105.382 -30.299 -99.2702 -30.5622C-26.2884 -33.5148 40.2995 124.315 120.523 172.434C198.967 219.076 226.366 213.12 263.75 271.983C297.41 324.98 281.707 378.798 310.258 429.746" stroke="url(#paint32_linear_123_930)" stroke-miterlimit="10"/>
<path d="M-209.503 -44.048C-209.503 -44.048 -183.136 -22.0674 -119.565 -27.1123C-113.816 -27.585 -107.899 -27.7729 -101.804 -28.0078C-28.1798 -30.8151 37.7381 130.796 115.614 178.16C190.55 223.752 220.195 219.093 258.304 276.648C291.792 327.218 279.656 379.679 307.862 431.066" stroke="url(#paint33_linear_123_930)" stroke-miterlimit="10"/>
<path d="M-212.656 -38.5853C-212.656 -38.5853 -187.619 -16.9219 -122.128 -24.3495C-116.343 -24.9892 -110.423 -25.2877 -104.327 -25.5227C-30.0612 -28.1845 35.268 137.066 110.699 183.844C182.223 228.218 214.002 225.053 252.874 281.284C286.152 329.443 277.637 380.503 305.483 432.358" stroke="url(#paint34_linear_123_930)" stroke-miterlimit="10"/>
<path d="M-215.811 -33.123C-215.811 -33.123 -192.12 -11.7486 -124.685 -21.5459C-118.871 -22.3939 -112.918 -22.7487 -106.839 -22.9555C-31.9373 -25.5131 32.8033 143.377 105.811 189.583C173.964 232.723 207.813 231.054 247.472 285.975C280.523 331.749 275.631 381.41 303.132 433.704" stroke="url(#paint35_linear_123_930)" stroke-miterlimit="10"/>
<path d="M-218.965 -27.6604C-218.965 -27.6604 -196.629 -6.5055 -127.249 -18.7832C-121.382 -19.8263 -115.419 -20.2506 -109.363 -20.4705C-33.8352 -22.8544 30.3556 149.66 100.88 195.295C165.638 237.189 201.548 237.085 242.02 290.598C274.82 333.976 273.567 382.208 300.73 434.983" stroke="url(#paint36_linear_123_930)" stroke-miterlimit="10"/>
<path d="M-222.118 -22.198C-222.118 -22.198 -201.131 -1.22145 -129.827 -15.9926C-123.925 -17.2027 -117.959 -17.7376 -111.918 -17.9294C-35.7487 -20.1679 27.8859 155.93 95.9486 201.008C157.312 241.654 195.244 243.131 236.574 295.263C269.092 336.3 271.516 383.088 298.357 436.316" stroke="url(#paint37_linear_123_930)" stroke-miterlimit="10"/>
<path d="M-225.272 -16.7356C-225.272 -16.7356 -205.612 4.07584 -132.391 -13.2301C-126.437 -14.6353 -120.46 -15.2396 -114.42 -15.4314C-37.6083 -17.5244 25.4702 162.157 91.0779 206.718C149.085 246.103 188.985 249.204 231.189 299.925C263.409 338.65 269.542 383.939 296.023 437.634" stroke="url(#paint38_linear_123_930)" stroke-miterlimit="10"/>
<path d="M-228.409 -11.3016C-228.409 -11.3016 -210.086 9.41406 -134.954 -10.4678C-128.986 -12.0532 -122.984 -12.7551 -116.96 -12.9187C-39.4834 -14.8531 23.0162 168.398 86.1626 212.402C140.808 250.484 182.641 255.265 225.737 304.548C257.619 340.976 267.484 384.778 293.621 438.912" stroke="url(#paint39_linear_123_930)" stroke-miterlimit="10"/>
<path d="M-231.563 -5.83899C-231.563 -5.83899 -214.57 14.8221 -137.517 -7.70518C-131.513 -9.45749 -125.485 -10.257 -119.477 -10.3924C-41.4041 -12.2076 20.6173 174.597 81.2307 218.114C132.514 254.893 176.233 261.439 220.291 309.213C251.802 343.4 265.449 385.63 291.225 440.232" stroke="url(#paint40_linear_123_930)" stroke-miterlimit="10"/>
<path d="M-234.716 -0.376493C-234.716 -0.376493 -219.046 20.2713 -140.073 -4.90135C-134.017 -6.84879 -127.979 -7.71768 -121.994 -7.86623C-43.2788 -9.53595 18.2189 180.796 76.3385 223.812C124.282 259.301 169.825 267.612 214.884 313.863C246.003 345.795 263.437 386.496 288.852 441.565" stroke="url(#paint41_linear_123_930)" stroke-miterlimit="10"/>
<path d="M-237.871 5.08627C-237.871 5.08627 -223.517 25.7621 -142.636 -2.1385C-136.545 -4.25293 -130.503 -5.23249 -124.512 -5.33978C-45.1543 -6.86404 15.836 186.967 71.4292 229.538C116.027 263.696 163.391 273.884 209.476 318.512C240.193 348.26 261.418 387.32 286.518 442.883" stroke="url(#paint42_linear_123_930)" stroke-miterlimit="10"/>
<path d="M-241.024 10.5485C-241.024 10.5485 -227.965 31.2654 -145.215 0.651952C-139.065 -1.61636 -133.02 -2.7066 -127.051 -2.82699C-47.0519 -4.20578 13.5512 192.968 66.5367 235.235C107.909 267.906 156.901 280.199 204.047 323.149C234.322 350.727 259.384 388.172 284.139 444.175" stroke="url(#paint43_linear_123_930)" stroke-miterlimit="10"/>
<path d="M-244.177 16.0108C-244.177 16.0108 -232.407 36.81 -147.778 3.41431C-57.8595 -32.0704 7.39681 196.134 61.6051 240.947C123.095 291.803 217.851 297.667 281.743 445.494" stroke="url(#paint44_linear_123_930)" stroke-miterlimit="10"/>
<rect x="275.002" y="7.62939e-06" width="194.772" height="152.264" fill="white"/>
<rect y="7.62939e-06" width="768" height="155" fill="url(#paint45_linear_123_930)"/>
<rect x="768.002" y="7.62939e-06" width="515" height="155" transform="rotate(90 768.002 7.62939e-06)" fill="url(#paint46_linear_123_930)"/>
<rect y="515" width="515" height="155" transform="rotate(-90 0 515)" fill="url(#paint47_linear_123_930)"/>
</g>
<defs>
<linearGradient id="paint0_linear_123_930" x1="387.241" y1="244.467" x2="432.979" y2="244.428" gradientUnits="userSpaceOnUse">
<stop stop-color="#0F1831"/>
<stop offset="1" stop-color="#3246FF"/>
</linearGradient>
<linearGradient id="paint1_linear_123_930" x1="381.078" y1="244.671" x2="422.824" y2="244.639" gradientUnits="userSpaceOnUse">
<stop stop-color="#0F1831"/>
<stop offset="1" stop-color="#3246FF"/>
</linearGradient>
<linearGradient id="paint2_linear_123_930" x1="374.877" y1="244.897" x2="412.632" y2="244.87" gradientUnits="userSpaceOnUse">
<stop stop-color="#0F1831"/>
<stop offset="1" stop-color="#3246FF"/>
</linearGradient>
<linearGradient id="paint3_linear_123_930" x1="368.662" y1="245.112" x2="402.456" y2="245.091" gradientUnits="userSpaceOnUse">
<stop stop-color="#0F1831"/>
<stop offset="1" stop-color="#3246FF"/>
</linearGradient>
<linearGradient id="paint4_linear_123_930" x1="364.376" y1="245.306" x2="396.577" y2="245.286" gradientUnits="userSpaceOnUse">
<stop stop-color="#0F1831"/>
<stop offset="1" stop-color="#3246FF"/>
</linearGradient>
<linearGradient id="paint5_linear_123_930" x1="360.576" y1="245.521" x2="391.817" y2="245.502" gradientUnits="userSpaceOnUse">
<stop stop-color="#0F1831"/>
<stop offset="1" stop-color="#3246FF"/>
</linearGradient>
<linearGradient id="paint6_linear_123_930" x1="356.74" y1="245.736" x2="387.072" y2="245.718" gradientUnits="userSpaceOnUse">
<stop stop-color="#0F1831"/>
<stop offset="1" stop-color="#3246FF"/>
</linearGradient>
<linearGradient id="paint7_linear_123_930" x1="352.957" y1="245.929" x2="382.4" y2="245.913" gradientUnits="userSpaceOnUse">
<stop stop-color="#0F1831"/>
<stop offset="1" stop-color="#3246FF"/>
</linearGradient>
<linearGradient id="paint8_linear_123_930" x1="349.073" y1="246.166" x2="377.637" y2="246.15" gradientUnits="userSpaceOnUse">
<stop stop-color="#0F1831"/>
<stop offset="1" stop-color="#3246FF"/>
</linearGradient>
<linearGradient id="paint9_linear_123_930" x1="345.365" y1="246.381" x2="373.044" y2="246.366" gradientUnits="userSpaceOnUse">
<stop stop-color="#0F1831"/>
<stop offset="1" stop-color="#3246FF"/>
</linearGradient>
<linearGradient id="paint10_linear_123_930" x1="341.589" y1="246.585" x2="368.391" y2="246.572" gradientUnits="userSpaceOnUse">
<stop stop-color="#0F1831"/>
<stop offset="1" stop-color="#3246FF"/>
</linearGradient>
<linearGradient id="paint11_linear_123_930" x1="333.44" y1="246.811" x2="361.839" y2="246.796" gradientUnits="userSpaceOnUse">
<stop stop-color="#0F1831"/>
<stop offset="1" stop-color="#3246FF"/>
</linearGradient>
<linearGradient id="paint12_linear_123_930" x1="323.589" y1="247.004" x2="354.571" y2="246.986" gradientUnits="userSpaceOnUse">
<stop stop-color="#0F1831"/>
<stop offset="1" stop-color="#3246FF"/>
</linearGradient>
<linearGradient id="paint13_linear_123_930" x1="313.617" y1="247.219" x2="347.188" y2="247.198" gradientUnits="userSpaceOnUse">
<stop stop-color="#0F1831"/>
<stop offset="1" stop-color="#3246FF"/>
</linearGradient>
<linearGradient id="paint14_linear_123_930" x1="303.694" y1="247.424" x2="339.922" y2="247.399" gradientUnits="userSpaceOnUse">
<stop stop-color="#0F1831"/>
<stop offset="1" stop-color="#3246FF"/>
</linearGradient>
<linearGradient id="paint15_linear_123_930" x1="685.648" y1="238.095" x2="707.923" y2="276.624" gradientUnits="userSpaceOnUse">
<stop stop-color="#0F1831"/>
<stop offset="1" stop-color="#3246FF"/>
</linearGradient>
<linearGradient id="paint16_linear_123_930" x1="682.697" y1="233.551" x2="705.734" y2="273.395" gradientUnits="userSpaceOnUse">
<stop stop-color="#0F1831"/>
<stop offset="1" stop-color="#3246FF"/>
</linearGradient>
<linearGradient id="paint17_linear_123_930" x1="679.736" y1="228.967" x2="703.554" y2="270.162" gradientUnits="userSpaceOnUse">
<stop stop-color="#0F1831"/>
<stop offset="1" stop-color="#3246FF"/>
</linearGradient>
<linearGradient id="paint18_linear_123_930" x1="676.715" y1="224.304" x2="701.344" y2="266.897" gradientUnits="userSpaceOnUse">
<stop stop-color="#0F1831"/>
<stop offset="1" stop-color="#3246FF"/>
</linearGradient>
<linearGradient id="paint19_linear_123_930" x1="673.691" y1="219.586" x2="699.143" y2="263.602" gradientUnits="userSpaceOnUse">
<stop stop-color="#0F1831"/>
<stop offset="1" stop-color="#3246FF"/>
</linearGradient>
<linearGradient id="paint20_linear_123_930" x1="670.62" y1="214.81" x2="696.917" y2="260.285" gradientUnits="userSpaceOnUse">
<stop stop-color="#0F1831"/>
<stop offset="1" stop-color="#3246FF"/>
</linearGradient>
<linearGradient id="paint21_linear_123_930" x1="667.518" y1="209.986" x2="694.676" y2="256.947" gradientUnits="userSpaceOnUse">
<stop stop-color="#0F1831"/>
<stop offset="1" stop-color="#3246FF"/>
</linearGradient>
<linearGradient id="paint22_linear_123_930" x1="664.431" y1="205.16" x2="692.468" y2="253.637" gradientUnits="userSpaceOnUse">
<stop stop-color="#0F1831"/>
<stop offset="1" stop-color="#3246FF"/>
</linearGradient>
<linearGradient id="paint23_linear_123_930" x1="661.266" y1="200.245" x2="690.186" y2="250.246" gradientUnits="userSpaceOnUse">
<stop stop-color="#0F1831"/>
<stop offset="1" stop-color="#3246FF"/>
</linearGradient>
<linearGradient id="paint24_linear_123_930" x1="658.132" y1="195.315" x2="687.943" y2="246.855" gradientUnits="userSpaceOnUse">
<stop stop-color="#0F1831"/>
<stop offset="1" stop-color="#3246FF"/>
</linearGradient>
<linearGradient id="paint25_linear_123_930" x1="654.959" y1="190.409" x2="685.661" y2="243.487" gradientUnits="userSpaceOnUse">
<stop stop-color="#0F1831"/>
<stop offset="1" stop-color="#3246FF"/>
</linearGradient>
<linearGradient id="paint26_linear_123_930" x1="651.814" y1="185.485" x2="683.408" y2="240.102" gradientUnits="userSpaceOnUse">
<stop stop-color="#0F1831"/>
<stop offset="1" stop-color="#3246FF"/>
</linearGradient>
<linearGradient id="paint27_linear_123_930" x1="648.641" y1="180.555" x2="681.133" y2="236.721" gradientUnits="userSpaceOnUse">
<stop stop-color="#0F1831"/>
<stop offset="1" stop-color="#3246FF"/>
</linearGradient>
<linearGradient id="paint28_linear_123_930" x1="644.838" y1="174.518" x2="678.588" y2="232.853" gradientUnits="userSpaceOnUse">
<stop stop-color="#0F1831"/>
<stop offset="1" stop-color="#3246FF"/>
</linearGradient>
<linearGradient id="paint29_linear_123_930" x1="640.663" y1="167.851" x2="675.878" y2="228.713" gradientUnits="userSpaceOnUse">
<stop stop-color="#0F1831"/>
<stop offset="1" stop-color="#3246FF"/>
</linearGradient>
<linearGradient id="paint30_linear_123_930" x1="92.1264" y1="226.83" x2="132.45" y2="156.836" gradientUnits="userSpaceOnUse">
<stop stop-color="#0F1831"/>
<stop offset="1" stop-color="#3246FF"/>
</linearGradient>
<linearGradient id="paint31_linear_123_930" x1="90.0836" y1="228.771" x2="130.151" y2="159.222" gradientUnits="userSpaceOnUse">
<stop stop-color="#0F1831"/>
<stop offset="1" stop-color="#3246FF"/>
</linearGradient>
<linearGradient id="paint32_linear_123_930" x1="88.0361" y1="230.721" x2="127.863" y2="161.591" gradientUnits="userSpaceOnUse">
<stop stop-color="#0F1831"/>
<stop offset="1" stop-color="#3246FF"/>
</linearGradient>
<linearGradient id="paint33_linear_123_930" x1="85.9647" y1="232.682" x2="125.536" y2="163.995" gradientUnits="userSpaceOnUse">
<stop stop-color="#0F1831"/>
<stop offset="1" stop-color="#3246FF"/>
</linearGradient>
<linearGradient id="paint34_linear_123_930" x1="83.9175" y1="234.601" x2="123.244" y2="166.341" gradientUnits="userSpaceOnUse">
<stop stop-color="#0F1831"/>
<stop offset="1" stop-color="#3246FF"/>
</linearGradient>
<linearGradient id="paint35_linear_123_930" x1="81.8772" y1="236.566" x2="120.956" y2="168.736" gradientUnits="userSpaceOnUse">
<stop stop-color="#0F1831"/>
<stop offset="1" stop-color="#3246FF"/>
</linearGradient>
<linearGradient id="paint36_linear_123_930" x1="79.8174" y1="238.477" x2="118.652" y2="171.072" gradientUnits="userSpaceOnUse">
<stop stop-color="#0F1831"/>
<stop offset="1" stop-color="#3246FF"/>
</linearGradient>
<linearGradient id="paint37_linear_123_930" x1="77.7662" y1="240.434" x2="116.354" y2="173.457" gradientUnits="userSpaceOnUse">
<stop stop-color="#0F1831"/>
<stop offset="1" stop-color="#3246FF"/>
</linearGradient>
<linearGradient id="paint38_linear_123_930" x1="75.749" y1="242.36" x2="114.098" y2="175.798" gradientUnits="userSpaceOnUse">
<stop stop-color="#0F1831"/>
<stop offset="1" stop-color="#3246FF"/>
</linearGradient>
<linearGradient id="paint39_linear_123_930" x1="73.6892" y1="244.27" x2="111.794" y2="178.133" gradientUnits="userSpaceOnUse">
<stop stop-color="#0F1831"/>
<stop offset="1" stop-color="#3246FF"/>
</linearGradient>
<linearGradient id="paint40_linear_123_930" x1="71.6322" y1="246.206" x2="109.5" y2="180.48" gradientUnits="userSpaceOnUse">
<stop stop-color="#0F1831"/>
<stop offset="1" stop-color="#3246FF"/>
</linearGradient>
<linearGradient id="paint41_linear_123_930" x1="69.5896" y1="248.148" x2="107.222" y2="182.831" gradientUnits="userSpaceOnUse">
<stop stop-color="#0F1831"/>
<stop offset="1" stop-color="#3246FF"/>
</linearGradient>
<linearGradient id="paint42_linear_123_930" x1="67.5713" y1="250.076" x2="104.963" y2="185.178" gradientUnits="userSpaceOnUse">
<stop stop-color="#0F1831"/>
<stop offset="1" stop-color="#3246FF"/>
</linearGradient>
<linearGradient id="paint43_linear_123_930" x1="65.5295" y1="251.986" x2="102.683" y2="187.502" gradientUnits="userSpaceOnUse">
<stop stop-color="#0F1831"/>
<stop offset="1" stop-color="#3246FF"/>
</linearGradient>
<linearGradient id="paint44_linear_123_930" x1="63.4759" y1="253.916" x2="100.397" y2="189.835" gradientUnits="userSpaceOnUse">
<stop stop-color="#0F1831"/>
<stop offset="1" stop-color="#3246FF"/>
</linearGradient>
<linearGradient id="paint45_linear_123_930" x1="384" y1="7.62939e-06" x2="384" y2="155" gradientUnits="userSpaceOnUse">
<stop stop-color="white"/>
<stop offset="1" stop-color="white" stop-opacity="0"/>
</linearGradient>
<linearGradient id="paint46_linear_123_930" x1="1025.5" y1="7.62939e-06" x2="1025.5" y2="155" gradientUnits="userSpaceOnUse">
<stop stop-color="white"/>
<stop offset="1" stop-color="white" stop-opacity="0"/>
</linearGradient>
<linearGradient id="paint47_linear_123_930" x1="257.5" y1="515" x2="257.5" y2="670" gradientUnits="userSpaceOnUse">
<stop stop-color="white"/>
<stop offset="1" stop-color="white" stop-opacity="0"/>
</linearGradient>
<clipPath id="clip0_123_930">
<rect width="768" height="515" fill="white"/>
</clipPath>
</defs>
</svg>
