<svg width="768" height="611" viewBox="0 0 768 611" fill="none" xmlns="http://www.w3.org/2000/svg">
<path d="M-200.455 35.2032C-200.455 35.2032 -164.066 63.1953 -94.6266 60.0372C-22.9063 56.8067 44.755 207.485 129.934 256.663C215.112 305.841 238.224 296.884 274.189 358.308C308.1 416.217 285.363 472.732 314.59 522.719" stroke="url(#paint0_linear_101_747)" stroke-miterlimit="10"/>
<path d="M-203.593 40.6376C-203.593 40.6376 -174.626 63.4063 -114.821 62.945C-109.17 62.9038 -103.279 62.8136 -97.1442 62.5635C-24.7818 59.4785 42.3396 213.712 125.041 262.361C206.841 310.264 232.107 302.814 268.782 362.957C302.575 418.396 283.328 473.584 312.233 524.024" stroke="url(#paint1_linear_101_747)" stroke-miterlimit="10"/>
<path d="M-206.747 46.0998C-206.747 46.0998 -179.083 68.4538 -117.383 65.7073C-111.664 65.4428 -105.78 65.3113 -99.6677 65.0481C-26.6858 62.0955 39.9021 219.926 120.125 268.045C198.57 314.686 225.969 308.73 263.352 367.593C297.013 420.591 281.31 474.408 309.861 525.356" stroke="url(#paint2_linear_101_747)" stroke-miterlimit="10"/>
<path d="M-209.9 51.5623C-209.9 51.5623 -183.533 73.5429 -119.963 68.498C-114.214 68.0253 -108.297 67.8374 -102.201 67.6025C-28.5772 64.7953 37.3407 226.406 115.216 273.77C190.152 319.362 219.798 314.703 257.906 372.258C291.395 422.828 279.258 475.289 307.465 526.676" stroke="url(#paint3_linear_101_747)" stroke-miterlimit="10"/>
<path d="M-213.054 57.0251C-213.054 57.0251 -188.017 78.6885 -122.526 71.2608C-116.741 70.6211 -110.82 70.3226 -104.725 70.0876C-30.4587 67.4259 34.8705 232.676 110.301 279.455C181.826 323.828 213.604 320.663 252.477 376.895C285.754 425.053 277.24 476.113 305.086 527.968" stroke="url(#paint4_linear_101_747)" stroke-miterlimit="10"/>
<path d="M-216.208 62.4873C-216.208 62.4873 -192.517 83.8617 -125.083 74.0644C-119.269 73.2164 -113.316 72.8616 -107.236 72.6548C-32.3347 70.0972 32.4058 238.987 105.414 285.193C173.567 328.333 207.416 326.664 247.075 381.585C280.125 427.36 275.233 477.02 302.734 529.314" stroke="url(#paint5_linear_101_747)" stroke-miterlimit="10"/>
<path d="M-219.362 67.9499C-219.362 67.9499 -197.026 89.1048 -127.646 76.8271C-121.78 75.784 -115.817 75.3598 -109.76 75.1398C-34.2326 72.7559 29.9582 245.27 100.482 290.906C165.24 332.799 201.15 332.695 241.622 386.209C274.423 429.586 273.169 477.818 300.332 530.593" stroke="url(#paint6_linear_101_747)" stroke-miterlimit="10"/>
<path d="M-222.515 73.4123C-222.515 73.4123 -201.529 94.3889 -130.225 79.6177C-124.322 78.4076 -118.356 77.8727 -112.316 77.6809C-36.1462 75.4425 27.4885 251.54 95.5511 296.618C156.914 337.265 194.847 338.741 236.177 390.873C268.695 431.91 271.118 478.698 297.96 531.926" stroke="url(#paint7_linear_101_747)" stroke-miterlimit="10"/>
<path d="M-225.67 78.8748C-225.67 78.8748 -206.01 99.6862 -132.788 82.3803C-126.834 80.975 -120.858 80.3707 -114.818 80.1789C-38.0058 78.0859 25.0727 257.767 90.6804 302.328C148.688 341.713 188.587 344.814 230.792 395.536C263.011 434.261 269.144 479.549 295.625 533.244" stroke="url(#paint8_linear_101_747)" stroke-miterlimit="10"/>
<path d="M-228.807 84.3087C-228.807 84.3087 -210.483 105.024 -135.351 85.1425C-129.384 83.5572 -123.382 82.8553 -117.357 82.6916C-39.8809 80.7572 22.6188 264.009 85.7651 308.012C140.41 346.094 182.244 350.875 225.339 400.159C257.221 436.586 267.087 480.388 293.223 534.522" stroke="url(#paint9_linear_101_747)" stroke-miterlimit="10"/>
<path d="M-231.961 89.7713C-231.961 89.7713 -214.967 110.432 -137.914 87.9051C-131.911 86.1528 -125.883 85.3533 -119.875 85.2179C-41.8015 83.4027 20.2198 270.207 80.8333 313.725C132.116 350.504 175.836 357.049 219.893 404.823C251.405 439.01 265.052 481.24 290.827 535.842" stroke="url(#paint10_linear_101_747)" stroke-miterlimit="10"/>
<path d="M-235.114 95.2338C-235.114 95.2338 -219.444 115.882 -140.47 90.709C-134.415 88.7615 -128.377 87.8926 -122.392 87.7441C-43.6762 86.0744 17.8215 276.406 75.9411 319.422C123.885 354.911 169.428 363.223 214.486 409.473C245.605 441.405 263.04 482.106 288.455 537.175" stroke="url(#paint11_linear_101_747)" stroke-miterlimit="10"/>
<path d="M-238.268 100.697C-238.268 100.697 -223.915 121.372 -143.034 93.4718C-136.942 91.3574 -130.901 90.3778 -124.909 90.2705C-45.5518 88.7463 15.4385 282.577 71.0317 325.148C115.629 359.306 162.993 369.495 209.079 414.123C239.795 443.87 261.021 482.93 286.121 538.493" stroke="url(#paint12_linear_101_747)" stroke-miterlimit="10"/>
<path d="M-241.421 106.159C-241.421 106.159 -228.363 126.876 -145.613 96.2623C-139.463 93.9939 -133.418 92.9037 -127.449 92.7833C-47.4494 91.4045 13.1538 288.578 66.1393 330.845C107.511 363.516 156.504 375.809 203.649 418.759C233.924 446.337 258.986 483.783 283.741 539.785" stroke="url(#paint13_linear_101_747)" stroke-miterlimit="10"/>
<path d="M-244.575 111.621C-244.575 111.621 -232.804 132.42 -148.176 99.0246C-58.257 63.5399 6.99935 291.745 61.2077 336.557C122.697 387.413 217.453 393.278 281.346 541.105" stroke="url(#paint14_linear_101_747)" stroke-miterlimit="10"/>
<path d="M984.945 165.625C984.945 165.625 933.589 196.959 874.008 225.199C783.362 268.161 799.57 205.668 704.24 294.294C612.253 379.843 633.008 451.79 588.591 463.624C544.175 475.459 525.216 462.113 504.796 528.989" stroke="url(#paint15_linear_101_747)" stroke-miterlimit="10"/>
<path d="M979.763 156.911C979.763 156.911 929.674 194.744 868.924 219.948C779.425 257.083 792.143 203.032 701.455 289.514C613.877 373.129 630.815 445.138 585.617 455.97C540.419 466.801 522.01 462.09 503.097 526.833" stroke="url(#paint16_linear_101_747)" stroke-miterlimit="10"/>
<path d="M974.615 148.216C974.615 148.216 925.865 192.581 863.874 214.715C775.658 246.213 784.731 200.425 698.705 284.751C615.536 366.433 628.676 438.492 582.677 448.332C536.676 458.212 518.838 462.084 501.412 524.707" stroke="url(#paint17_linear_101_747)" stroke-miterlimit="10"/>
<path d="M969.449 139.531C969.449 139.531 922.142 190.523 858.806 209.493C772.01 235.504 777.304 197.789 695.919 279.971C617.178 359.708 626.501 431.829 579.719 440.706C532.936 449.584 515.647 462.09 499.728 522.581" stroke="url(#paint18_linear_101_747)" stroke-miterlimit="10"/>
<path d="M964.285 130.806C964.285 130.806 918.49 188.5 853.757 204.26C768.532 225.003 769.893 195.182 693.189 275.197C618.857 353.001 624.382 425.172 576.799 433.058C529.215 440.944 512.514 462.063 498.063 520.443" stroke="url(#paint19_linear_101_747)" stroke-miterlimit="10"/>
<path d="M959.118 122.121C959.118 122.121 914.902 186.631 848.708 199.026C765.153 214.673 762.501 192.563 690.439 270.434C620.516 346.304 622.224 418.537 573.859 425.421C525.494 432.304 509.343 462.057 496.398 518.306" stroke="url(#paint20_linear_101_747)" stroke-miterlimit="10"/>
<path d="M953.971 113.425C953.971 113.425 911.435 184.884 843.659 193.793C761.908 204.574 755.091 189.956 687.673 265.643C622.159 339.579 620.069 411.863 570.92 417.784C521.771 423.704 506.155 462.023 494.714 516.179" stroke="url(#paint21_linear_101_747)" stroke-miterlimit="10"/>
<path d="M948.823 104.729C948.823 104.729 908.033 183.251 838.626 188.589C758.775 194.714 747.715 187.367 684.939 260.909C623.853 332.901 617.946 405.246 567.997 410.175C518.047 415.104 503 462.047 493.082 514.099" stroke="url(#paint22_linear_101_747)" stroke-miterlimit="10"/>
<path d="M943.641 96.0158C943.641 96.0158 904.659 181.795 833.542 183.338C755.653 185.003 740.269 184.742 682.173 256.117C625.497 326.176 615.792 398.572 565.042 402.509C514.292 406.447 499.831 462.002 491.382 511.944" stroke="url(#paint23_linear_101_747)" stroke-miterlimit="10"/>
<path d="M938.494 87.3198C938.494 87.3198 901.362 180.562 828.512 178.094C752.643 175.532 732.88 182.084 679.426 251.315C627.159 319.44 613.637 391.897 562.122 394.861C510.588 397.836 496.68 461.986 489.736 509.796" stroke="url(#paint24_linear_101_747)" stroke-miterlimit="10"/>
<path d="M933.328 78.6351C933.328 78.6351 898.107 179.534 823.444 172.871C749.657 166.277 725.45 179.488 676.657 246.563C628.799 312.755 611.479 385.263 559.163 387.235C506.848 389.208 493.489 461.991 488.033 507.68" stroke="url(#paint25_linear_101_747)" stroke-miterlimit="10"/>
<path d="M928.164 69.9104C928.164 69.9104 894.875 178.722 818.395 167.638C746.694 157.238 718.058 176.87 673.908 241.801C630.477 306.048 609.34 378.617 556.224 379.598C503.108 380.579 490.337 461.975 486.369 505.543" stroke="url(#paint26_linear_101_747)" stroke-miterlimit="10"/>
<path d="M922.998 61.2254C922.998 61.2254 891.641 178.256 813.327 162.416C743.686 148.34 710.647 174.262 671.141 237.009C632.12 299.323 607.185 371.943 553.285 371.961C499.385 371.979 487.146 461.981 484.684 503.416" stroke="url(#paint27_linear_101_747)" stroke-miterlimit="10"/>
<path d="M917.85 52.5301C917.85 52.5301 888.411 178.017 808.278 157.183C740.649 139.612 703.237 171.656 668.391 232.247C633.779 292.627 605.027 365.308 550.327 364.335C495.626 363.362 483.975 461.976 483.001 501.291" stroke="url(#paint28_linear_101_747)" stroke-miterlimit="10"/>
<path d="M912.684 43.8451C912.684 43.8451 885.089 178.06 803.229 151.95C737.514 130.978 695.845 169.037 665.641 227.484C635.438 285.931 602.888 358.663 547.387 356.698C491.886 354.733 480.787 461.942 481.317 499.164" stroke="url(#paint29_linear_101_747)" stroke-miterlimit="10"/>
<path d="M351.246 520.458C351.246 520.458 397.052 483.795 414.922 471.774C432.792 459.752 459.999 400.167 435.783 316.54C411.567 232.912 438.372 115.481 467.438 96" stroke="url(#paint30_linear_101_747)" stroke-miterlimit="10"/>
<path d="M454.2 96C442.019 104.17 429.146 134.402 423.092 170.429C416.965 206.775 417.767 250.411 422.216 292.646C423.092 300.891 424.696 308.893 426.702 316.577C438.117 360.513 441.582 396.167 435.054 424.379C429.182 448.834 418.606 465.324 409.817 471.605C392.129 484.225 348.11 519.374 348.146 520.814" stroke="url(#paint31_linear_101_747)" stroke-miterlimit="10"/>
<path d="M440.925 96C429.692 103.535 416.6 135.243 412.223 170.635C407.774 206.345 412.187 248.654 414.083 292.665C414.448 300.966 415.797 308.968 417.621 316.614C427.759 360.775 436.33 394.951 429.802 424.155C424.44 448.235 413.755 464.632 404.674 471.456C387.132 484.637 344.9 518.29 345.01 521.206" stroke="url(#paint32_linear_101_747)" stroke-miterlimit="10"/>
<path d="M427.687 96C417.402 102.918 404.091 136.085 401.355 170.878C398.584 205.952 404.2 246.915 405.951 292.721C406.279 301.059 406.972 309.061 408.503 316.671C417.584 361.036 430.896 393.736 424.514 423.93C419.517 447.618 408.832 463.94 399.495 471.306C382.099 485.048 341.691 517.224 341.837 521.58" stroke="url(#paint33_linear_101_747)" stroke-miterlimit="10"/>
<path d="M414.448 96C405.075 102.282 391.545 136.907 390.524 171.084C389.429 205.503 401.282 245.12 397.854 292.721C397.234 301.115 398.146 309.099 399.459 316.689C407.336 361.261 425.534 392.483 419.298 423.669C414.666 446.983 403.981 463.192 394.426 471.119C377.139 485.403 338.591 516.102 338.773 521.917" stroke="url(#paint34_linear_101_747)" stroke-miterlimit="10"/>
<path d="M401.21 96C392.785 101.646 379.036 137.748 379.656 171.308C380.24 205.092 395.958 243.363 389.722 292.758C388.664 301.19 389.248 309.192 390.378 316.727C397.016 361.523 420.101 391.249 414.083 423.444C409.78 446.366 399.131 462.5 389.32 470.97C372.143 485.814 335.455 515.037 335.71 522.291" stroke="url(#paint35_linear_101_747)" stroke-miterlimit="10"/>
<path d="M387.935 96C380.422 101.029 366.49 138.59 368.788 171.532C371.049 204.681 390.706 241.587 381.589 292.796C380.094 301.265 380.385 309.267 381.297 316.783C386.695 361.803 414.667 390.034 408.832 423.22C404.857 445.749 394.207 461.79 384.178 470.82C367.074 486.188 332.282 513.952 332.574 522.665" stroke="url(#paint36_linear_101_747)" stroke-miterlimit="10"/>
<path d="M374.696 96C368.132 100.394 353.982 139.412 357.957 171.757C361.895 204.269 385.564 239.829 373.493 292.814C371.56 301.34 371.56 309.342 372.253 316.801C376.41 362.027 409.27 388.782 403.617 422.958C399.97 445.113 389.357 461.042 379.073 470.633C362.041 486.544 329.146 512.849 329.474 523.001" stroke="url(#paint37_linear_101_747)" stroke-miterlimit="10"/>
<path d="M361.457 96C355.841 99.7766 341.472 140.254 347.088 171.981C352.704 203.858 380.421 238.053 365.323 292.852C362.952 301.414 362.624 309.416 363.098 316.858C366.016 362.308 403.725 387.566 398.292 422.752C394.936 444.515 384.36 460.35 373.857 470.502C356.898 486.955 325.899 511.783 326.264 523.412" stroke="url(#paint38_linear_101_747)" stroke-miterlimit="10"/>
<path d="M348.219 96C343.551 99.1409 328.963 141.095 336.257 172.205C343.515 203.447 375.426 236.315 357.227 292.889C354.456 301.508 353.799 309.51 354.054 316.914C355.696 362.588 398.292 386.351 393.113 422.528C390.05 443.898 379.474 459.64 368.825 470.353C351.903 487.329 322.836 510.718 323.238 523.786" stroke="url(#paint39_linear_101_747)" stroke-miterlimit="10"/>
<path d="M334.944 96C331.188 98.5053 316.417 141.918 325.389 172.43C334.324 203.035 370.465 234.576 349.094 292.926C345.921 301.601 344.9 309.585 344.973 316.951C345.338 362.831 392.785 385.117 387.861 422.285C385.09 443.262 374.55 458.892 363.682 470.185C346.797 487.684 319.663 509.615 320.137 524.142" stroke="url(#paint40_linear_101_747)" stroke-miterlimit="10"/>
<path d="M321.706 96C318.897 97.8883 303.872 142.759 314.521 172.654C325.134 202.643 365.579 232.856 340.962 292.964C337.387 301.676 336.038 309.659 335.892 317.007C334.944 363.112 387.242 383.902 382.61 422.079C380.093 442.664 369.627 458.2 358.54 470.054C341.691 488.095 316.49 508.568 317.001 524.534" stroke="url(#paint41_linear_101_747)" stroke-miterlimit="10"/>
<path d="M308.467 96C306.607 97.2526 291.363 143.6 303.69 172.879C315.98 202.213 360.765 231.136 332.866 292.983C328.927 301.751 327.176 309.734 326.848 317.026C324.441 363.355 381.735 382.649 377.395 421.818C375.17 442.028 364.704 457.452 353.435 469.867C336.622 488.432 313.354 507.446 313.901 524.871" stroke="url(#paint42_linear_101_747)" stroke-miterlimit="10"/>
<path d="M295.192 96C294.244 96.6357 278.817 144.423 292.785 173.103C306.753 201.801 355.914 229.434 324.696 293.02C320.356 301.845 318.241 309.809 317.694 317.082C314.01 363.617 375.972 381.415 372.07 421.593C370.028 441.411 359.634 456.723 348.219 469.717C331.333 488.787 310.072 506.38 310.692 525.245" stroke="url(#paint43_linear_101_747)" stroke-miterlimit="10"/>
<path d="M281.954 96C281.954 96 266.309 145.264 281.954 173.327C297.6 201.39 351.247 227.752 316.6 293.039C281.407 359.41 371.086 373.806 366.892 421.35C362.698 468.895 306.571 491.236 307.665 525.6" stroke="url(#paint44_linear_101_747)" stroke-miterlimit="10"/>
<rect y="96" width="768" height="155" fill="url(#paint45_linear_101_747)"/>
<rect y="611" width="515" height="155" transform="rotate(-90 0 611)" fill="url(#paint46_linear_101_747)"/>
<rect x="768" y="96" width="515" height="155" transform="rotate(90 768 96)" fill="url(#paint47_linear_101_747)"/>
<defs>
<linearGradient id="paint0_linear_101_747" x1="91.7289" y1="322.44" x2="132.052" y2="252.447" gradientUnits="userSpaceOnUse">
<stop stop-color="#0F1831"/>
<stop offset="1" stop-color="#3246FF"/>
</linearGradient>
<linearGradient id="paint1_linear_101_747" x1="89.6861" y1="324.381" x2="129.754" y2="254.832" gradientUnits="userSpaceOnUse">
<stop stop-color="#0F1831"/>
<stop offset="1" stop-color="#3246FF"/>
</linearGradient>
<linearGradient id="paint2_linear_101_747" x1="87.6386" y1="326.331" x2="127.465" y2="257.201" gradientUnits="userSpaceOnUse">
<stop stop-color="#0F1831"/>
<stop offset="1" stop-color="#3246FF"/>
</linearGradient>
<linearGradient id="paint3_linear_101_747" x1="85.5672" y1="328.292" x2="125.139" y2="259.606" gradientUnits="userSpaceOnUse">
<stop stop-color="#0F1831"/>
<stop offset="1" stop-color="#3246FF"/>
</linearGradient>
<linearGradient id="paint4_linear_101_747" x1="83.52" y1="330.211" x2="122.846" y2="261.951" gradientUnits="userSpaceOnUse">
<stop stop-color="#0F1831"/>
<stop offset="1" stop-color="#3246FF"/>
</linearGradient>
<linearGradient id="paint5_linear_101_747" x1="81.4798" y1="332.177" x2="120.558" y2="264.347" gradientUnits="userSpaceOnUse">
<stop stop-color="#0F1831"/>
<stop offset="1" stop-color="#3246FF"/>
</linearGradient>
<linearGradient id="paint6_linear_101_747" x1="79.4199" y1="334.087" x2="118.254" y2="266.682" gradientUnits="userSpaceOnUse">
<stop stop-color="#0F1831"/>
<stop offset="1" stop-color="#3246FF"/>
</linearGradient>
<linearGradient id="paint7_linear_101_747" x1="77.3688" y1="336.044" x2="115.957" y2="269.067" gradientUnits="userSpaceOnUse">
<stop stop-color="#0F1831"/>
<stop offset="1" stop-color="#3246FF"/>
</linearGradient>
<linearGradient id="paint8_linear_101_747" x1="75.3515" y1="337.97" x2="113.7" y2="271.409" gradientUnits="userSpaceOnUse">
<stop stop-color="#0F1831"/>
<stop offset="1" stop-color="#3246FF"/>
</linearGradient>
<linearGradient id="paint9_linear_101_747" x1="73.2918" y1="339.88" x2="111.396" y2="273.744" gradientUnits="userSpaceOnUse">
<stop stop-color="#0F1831"/>
<stop offset="1" stop-color="#3246FF"/>
</linearGradient>
<linearGradient id="paint10_linear_101_747" x1="71.2347" y1="341.816" x2="109.103" y2="276.09" gradientUnits="userSpaceOnUse">
<stop stop-color="#0F1831"/>
<stop offset="1" stop-color="#3246FF"/>
</linearGradient>
<linearGradient id="paint11_linear_101_747" x1="69.1921" y1="343.758" x2="106.825" y2="278.441" gradientUnits="userSpaceOnUse">
<stop stop-color="#0F1831"/>
<stop offset="1" stop-color="#3246FF"/>
</linearGradient>
<linearGradient id="paint12_linear_101_747" x1="67.1739" y1="345.687" x2="104.566" y2="280.788" gradientUnits="userSpaceOnUse">
<stop stop-color="#0F1831"/>
<stop offset="1" stop-color="#3246FF"/>
</linearGradient>
<linearGradient id="paint13_linear_101_747" x1="65.132" y1="347.596" x2="102.286" y2="283.112" gradientUnits="userSpaceOnUse">
<stop stop-color="#0F1831"/>
<stop offset="1" stop-color="#3246FF"/>
</linearGradient>
<linearGradient id="paint14_linear_101_747" x1="63.0784" y1="349.526" x2="100" y2="285.446" gradientUnits="userSpaceOnUse">
<stop stop-color="#0F1831"/>
<stop offset="1" stop-color="#3246FF"/>
</linearGradient>
<linearGradient id="paint15_linear_101_747" x1="685.25" y1="333.705" x2="707.525" y2="372.234" gradientUnits="userSpaceOnUse">
<stop stop-color="#0F1831"/>
<stop offset="1" stop-color="#3246FF"/>
</linearGradient>
<linearGradient id="paint16_linear_101_747" x1="682.301" y1="329.162" x2="705.337" y2="369.005" gradientUnits="userSpaceOnUse">
<stop stop-color="#0F1831"/>
<stop offset="1" stop-color="#3246FF"/>
</linearGradient>
<linearGradient id="paint17_linear_101_747" x1="679.337" y1="324.578" x2="703.156" y2="365.772" gradientUnits="userSpaceOnUse">
<stop stop-color="#0F1831"/>
<stop offset="1" stop-color="#3246FF"/>
</linearGradient>
<linearGradient id="paint18_linear_101_747" x1="676.317" y1="319.914" x2="700.946" y2="362.507" gradientUnits="userSpaceOnUse">
<stop stop-color="#0F1831"/>
<stop offset="1" stop-color="#3246FF"/>
</linearGradient>
<linearGradient id="paint19_linear_101_747" x1="673.292" y1="315.196" x2="698.745" y2="359.213" gradientUnits="userSpaceOnUse">
<stop stop-color="#0F1831"/>
<stop offset="1" stop-color="#3246FF"/>
</linearGradient>
<linearGradient id="paint20_linear_101_747" x1="670.222" y1="310.42" x2="696.52" y2="355.895" gradientUnits="userSpaceOnUse">
<stop stop-color="#0F1831"/>
<stop offset="1" stop-color="#3246FF"/>
</linearGradient>
<linearGradient id="paint21_linear_101_747" x1="667.121" y1="305.596" x2="694.28" y2="352.557" gradientUnits="userSpaceOnUse">
<stop stop-color="#0F1831"/>
<stop offset="1" stop-color="#3246FF"/>
</linearGradient>
<linearGradient id="paint22_linear_101_747" x1="664.033" y1="300.77" x2="692.069" y2="349.247" gradientUnits="userSpaceOnUse">
<stop stop-color="#0F1831"/>
<stop offset="1" stop-color="#3246FF"/>
</linearGradient>
<linearGradient id="paint23_linear_101_747" x1="660.869" y1="295.855" x2="689.788" y2="345.856" gradientUnits="userSpaceOnUse">
<stop stop-color="#0F1831"/>
<stop offset="1" stop-color="#3246FF"/>
</linearGradient>
<linearGradient id="paint24_linear_101_747" x1="657.735" y1="290.925" x2="687.547" y2="342.465" gradientUnits="userSpaceOnUse">
<stop stop-color="#0F1831"/>
<stop offset="1" stop-color="#3246FF"/>
</linearGradient>
<linearGradient id="paint25_linear_101_747" x1="654.561" y1="286.02" x2="685.264" y2="339.098" gradientUnits="userSpaceOnUse">
<stop stop-color="#0F1831"/>
<stop offset="1" stop-color="#3246FF"/>
</linearGradient>
<linearGradient id="paint26_linear_101_747" x1="651.417" y1="281.096" x2="683.012" y2="335.713" gradientUnits="userSpaceOnUse">
<stop stop-color="#0F1831"/>
<stop offset="1" stop-color="#3246FF"/>
</linearGradient>
<linearGradient id="paint27_linear_101_747" x1="648.244" y1="276.166" x2="680.736" y2="332.331" gradientUnits="userSpaceOnUse">
<stop stop-color="#0F1831"/>
<stop offset="1" stop-color="#3246FF"/>
</linearGradient>
<linearGradient id="paint28_linear_101_747" x1="644.442" y1="270.128" x2="678.192" y2="328.464" gradientUnits="userSpaceOnUse">
<stop stop-color="#0F1831"/>
<stop offset="1" stop-color="#3246FF"/>
</linearGradient>
<linearGradient id="paint29_linear_101_747" x1="640.265" y1="263.461" x2="675.48" y2="324.324" gradientUnits="userSpaceOnUse">
<stop stop-color="#0F1831"/>
<stop offset="1" stop-color="#3246FF"/>
</linearGradient>
<linearGradient id="paint30_linear_101_747" x1="386.36" y1="340.077" x2="432.097" y2="340.038" gradientUnits="userSpaceOnUse">
<stop stop-color="#0F1831"/>
<stop offset="1" stop-color="#3246FF"/>
</linearGradient>
<linearGradient id="paint31_linear_101_747" x1="380.196" y1="340.282" x2="421.942" y2="340.249" gradientUnits="userSpaceOnUse">
<stop stop-color="#0F1831"/>
<stop offset="1" stop-color="#3246FF"/>
</linearGradient>
<linearGradient id="paint32_linear_101_747" x1="373.995" y1="340.507" x2="411.751" y2="340.481" gradientUnits="userSpaceOnUse">
<stop stop-color="#0F1831"/>
<stop offset="1" stop-color="#3246FF"/>
</linearGradient>
<linearGradient id="paint33_linear_101_747" x1="367.78" y1="340.722" x2="401.574" y2="340.701" gradientUnits="userSpaceOnUse">
<stop stop-color="#0F1831"/>
<stop offset="1" stop-color="#3246FF"/>
</linearGradient>
<linearGradient id="paint34_linear_101_747" x1="363.494" y1="340.916" x2="395.694" y2="340.897" gradientUnits="userSpaceOnUse">
<stop stop-color="#0F1831"/>
<stop offset="1" stop-color="#3246FF"/>
</linearGradient>
<linearGradient id="paint35_linear_101_747" x1="359.693" y1="341.131" x2="390.934" y2="341.113" gradientUnits="userSpaceOnUse">
<stop stop-color="#0F1831"/>
<stop offset="1" stop-color="#3246FF"/>
</linearGradient>
<linearGradient id="paint36_linear_101_747" x1="355.858" y1="341.346" x2="386.19" y2="341.329" gradientUnits="userSpaceOnUse">
<stop stop-color="#0F1831"/>
<stop offset="1" stop-color="#3246FF"/>
</linearGradient>
<linearGradient id="paint37_linear_101_747" x1="352.075" y1="341.54" x2="381.518" y2="341.523" gradientUnits="userSpaceOnUse">
<stop stop-color="#0F1831"/>
<stop offset="1" stop-color="#3246FF"/>
</linearGradient>
<linearGradient id="paint38_linear_101_747" x1="348.19" y1="341.776" x2="376.754" y2="341.761" gradientUnits="userSpaceOnUse">
<stop stop-color="#0F1831"/>
<stop offset="1" stop-color="#3246FF"/>
</linearGradient>
<linearGradient id="paint39_linear_101_747" x1="344.483" y1="341.991" x2="372.162" y2="341.977" gradientUnits="userSpaceOnUse">
<stop stop-color="#0F1831"/>
<stop offset="1" stop-color="#3246FF"/>
</linearGradient>
<linearGradient id="paint40_linear_101_747" x1="340.708" y1="342.195" x2="367.51" y2="342.182" gradientUnits="userSpaceOnUse">
<stop stop-color="#0F1831"/>
<stop offset="1" stop-color="#3246FF"/>
</linearGradient>
<linearGradient id="paint41_linear_101_747" x1="332.557" y1="342.421" x2="360.956" y2="342.406" gradientUnits="userSpaceOnUse">
<stop stop-color="#0F1831"/>
<stop offset="1" stop-color="#3246FF"/>
</linearGradient>
<linearGradient id="paint42_linear_101_747" x1="322.707" y1="342.615" x2="353.689" y2="342.597" gradientUnits="userSpaceOnUse">
<stop stop-color="#0F1831"/>
<stop offset="1" stop-color="#3246FF"/>
</linearGradient>
<linearGradient id="paint43_linear_101_747" x1="312.735" y1="342.83" x2="346.306" y2="342.809" gradientUnits="userSpaceOnUse">
<stop stop-color="#0F1831"/>
<stop offset="1" stop-color="#3246FF"/>
</linearGradient>
<linearGradient id="paint44_linear_101_747" x1="302.814" y1="343.034" x2="339.041" y2="343.009" gradientUnits="userSpaceOnUse">
<stop stop-color="#0F1831"/>
<stop offset="1" stop-color="#3246FF"/>
</linearGradient>
<linearGradient id="paint45_linear_101_747" x1="384" y1="96" x2="384" y2="251" gradientUnits="userSpaceOnUse">
<stop stop-color="white"/>
<stop offset="1" stop-color="white" stop-opacity="0"/>
</linearGradient>
<linearGradient id="paint46_linear_101_747" x1="257.5" y1="611" x2="257.5" y2="766" gradientUnits="userSpaceOnUse">
<stop stop-color="white"/>
<stop offset="1" stop-color="white" stop-opacity="0"/>
</linearGradient>
<linearGradient id="paint47_linear_101_747" x1="1025.5" y1="96" x2="1025.5" y2="251" gradientUnits="userSpaceOnUse">
<stop stop-color="white"/>
<stop offset="1" stop-color="white" stop-opacity="0"/>
</linearGradient>
</defs>
</svg>
