<svg width="38" height="38" viewBox="0 0 38 38" fill="none" xmlns="http://www.w3.org/2000/svg">
<path d="M7.08398 29.7973L19.0007 36.5L26.334 32.375L30.9173 29.7964" stroke="white" stroke-width="3" stroke-linecap="round" stroke-linejoin="round"/>
<path d="M33.6673 25.5V11.75L22.209 5.30493" stroke="white" stroke-width="3" stroke-linecap="round" stroke-linejoin="round"/>
<path d="M15.7923 5.30493L4.33398 11.75V25.5" stroke="white" stroke-width="3" stroke-linecap="round" stroke-linejoin="round"/>
<path d="M16.25 15.1877L13.5 16.7918V23.2085L16.25 24.8127L19 26.4168L21.75 24.8127L24.5 23.2085V16.7918L21.75 15.1877L19 13.5835L16.25 15.1877Z" stroke="white" stroke-width="3" stroke-linecap="round" stroke-linejoin="round"/>
<path d="M19 13.5832V7.1665" stroke="white" stroke-width="3" stroke-linecap="round" stroke-linejoin="round"/>
<path d="M24.5 22.75L30.9167 26.4167" stroke="white" stroke-width="3" stroke-linecap="round" stroke-linejoin="round"/>
<path d="M13.5007 22.75L7.08398 26.4167" stroke="white" stroke-width="3" stroke-linecap="round" stroke-linejoin="round"/>
<path d="M19 7.1665C20.5188 7.1665 21.75 5.93529 21.75 4.4165C21.75 2.89772 20.5188 1.6665 19 1.6665C17.4812 1.6665 16.25 2.89772 16.25 4.4165C16.25 5.93529 17.4812 7.1665 19 7.1665Z" stroke="white" stroke-width="3" stroke-linecap="round" stroke-linejoin="round"/>
<path d="M4.33398 31C5.85277 31 7.08398 29.7688 7.08398 28.25C7.08398 26.7312 5.85277 25.5 4.33398 25.5C2.8152 25.5 1.58398 26.7312 1.58398 28.25C1.58398 29.7688 2.8152 31 4.33398 31Z" stroke="white" stroke-width="3" stroke-linecap="round" stroke-linejoin="round"/>
<path d="M33.668 31C35.1868 31 36.418 29.7688 36.418 28.25C36.418 26.7312 35.1868 25.5 33.668 25.5C32.1492 25.5 30.918 26.7312 30.918 28.25C30.918 29.7688 32.1492 31 33.668 31Z" stroke="white" stroke-width="3" stroke-linecap="round" stroke-linejoin="round"/>
</svg>
