<svg width="290" height="127" viewBox="0 0 290 127" fill="none" xmlns="http://www.w3.org/2000/svg">
<path d="M1.16504 23.7897C1.16504 23.7897 110.395 -19.757 182.907 14.4114C255.418 48.5798 289 36.5127 289 36.5127" stroke="url(#paint0_linear_2_476)" stroke-miterlimit="10"/>
<path d="M1.16504 29.8561C1.16504 29.8561 108.441 -12.1494 177.764 21.1336C247.087 54.4167 286.12 42.8086 286.12 42.8086" stroke="url(#paint1_linear_2_476)" stroke-miterlimit="10"/>
<path d="M1.16504 35.9224C1.16504 35.9224 106.487 -4.54193 172.673 27.8886C238.859 60.319 283.292 49.1372 283.292 49.1372" stroke="url(#paint2_linear_2_476)" stroke-miterlimit="10"/>
<path d="M1.16504 42.0217C1.16504 42.0217 104.533 3.06572 167.582 34.6436C230.631 66.2215 280.412 55.466 280.412 55.466" stroke="url(#paint3_linear_2_476)" stroke-miterlimit="10"/>
<path d="M1.16504 48.0879C1.16504 48.0879 102.63 10.6731 162.49 41.3985C222.351 72.1238 277.583 61.7618 277.583 61.7618" stroke="url(#paint4_linear_2_476)" stroke-miterlimit="10"/>
<path d="M1.16504 54.1542C1.16504 54.1542 100.676 18.2806 157.399 48.1206C214.123 77.9606 274.755 68.0577 274.755 68.0577" stroke="url(#paint5_linear_2_476)" stroke-miterlimit="10"/>
<path d="M1.16504 60.2535C1.16504 60.2535 98.7214 25.8883 152.257 54.9086C205.792 83.9288 271.875 74.4193 271.875 74.4193" stroke="url(#paint6_linear_2_476)" stroke-miterlimit="10"/>
<path d="M1.16504 66.3201C1.16504 66.3201 96.7672 33.4961 147.165 61.6309C197.563 89.7658 268.995 80.7154 268.995 80.7154" stroke="url(#paint7_linear_2_476)" stroke-miterlimit="10"/>
<path d="M1.16504 72.3863C1.16504 72.3863 94.8129 41.1035 142.074 68.353C189.335 95.6024 266.166 87.0111 266.166 87.0111" stroke="url(#paint8_linear_2_476)" stroke-miterlimit="10"/>
<path d="M1.16504 78.4527C1.16504 78.4527 92.8587 48.7111 136.983 75.108C181.107 101.505 263.338 93.3399 263.338 93.3399" stroke="url(#paint9_linear_2_476)" stroke-miterlimit="10"/>
<path d="M1.16504 84.5519C1.16504 84.5519 90.9045 56.3187 131.892 81.863C172.879 107.407 260.51 99.6686 260.51 99.6686" stroke="url(#paint10_linear_2_476)" stroke-miterlimit="10"/>
<path d="M1.16504 90.6179C1.16504 90.6179 88.9503 63.9259 126.749 88.6177C164.548 113.309 257.578 105.997 257.578 105.997" stroke="url(#paint11_linear_2_476)" stroke-miterlimit="10"/>
<path d="M1.16504 96.6846C1.16504 96.6846 86.9961 71.5337 121.658 95.3401C156.319 119.147 254.75 112.26 254.75 112.26" stroke="url(#paint12_linear_2_476)" stroke-miterlimit="10"/>
<path d="M1.16504 102.783C1.16504 102.783 85.0419 79.141 116.566 102.128C148.091 125.114 251.921 118.622 251.921 118.622" stroke="url(#paint13_linear_2_476)" stroke-miterlimit="10"/>
<path d="M1.16504 108.85C1.16504 108.85 83.0877 86.7489 111.475 108.85C139.863 130.951 249.093 124.918 249.093 124.918" stroke="url(#paint14_linear_2_476)" stroke-miterlimit="10"/>
<defs>
<linearGradient id="paint0_linear_2_476" x1="166.68" y1="27.3221" x2="166.674" y2="12.6576" gradientUnits="userSpaceOnUse">
<stop stop-color="#0F1831"/>
<stop offset="1" stop-color="#3246FF"/>
</linearGradient>
<linearGradient id="paint1_linear_2_476" x1="165.023" y1="33.7499" x2="165.018" y2="19.3974" gradientUnits="userSpaceOnUse">
<stop stop-color="#0F1831"/>
<stop offset="1" stop-color="#3246FF"/>
</linearGradient>
<linearGradient id="paint2_linear_2_476" x1="163.397" y1="40.211" x2="163.391" y2="26.1578" gradientUnits="userSpaceOnUse">
<stop stop-color="#0F1831"/>
<stop offset="1" stop-color="#3246FF"/>
</linearGradient>
<linearGradient id="paint3_linear_2_476" x1="161.741" y1="46.6742" x2="161.736" y2="32.9222" gradientUnits="userSpaceOnUse">
<stop stop-color="#0F1831"/>
<stop offset="1" stop-color="#3246FF"/>
</linearGradient>
<linearGradient id="paint4_linear_2_476" x1="160.115" y1="53.1204" x2="160.109" y2="39.6745" gradientUnits="userSpaceOnUse">
<stop stop-color="#0F1831"/>
<stop offset="1" stop-color="#3246FF"/>
</linearGradient>
<linearGradient id="paint5_linear_2_476" x1="158.488" y1="59.5483" x2="158.483" y2="46.4113" gradientUnits="userSpaceOnUse">
<stop stop-color="#0F1831"/>
<stop offset="1" stop-color="#3246FF"/>
</linearGradient>
<linearGradient id="paint6_linear_2_476" x1="156.832" y1="66.0443" x2="156.827" y2="53.1938" gradientUnits="userSpaceOnUse">
<stop stop-color="#0F1831"/>
<stop offset="1" stop-color="#3246FF"/>
</linearGradient>
<linearGradient id="paint7_linear_2_476" x1="155.176" y1="72.4725" x2="155.171" y2="59.9289" gradientUnits="userSpaceOnUse">
<stop stop-color="#0F1831"/>
<stop offset="1" stop-color="#3246FF"/>
</linearGradient>
<linearGradient id="paint8_linear_2_476" x1="153.55" y1="78.9006" x2="153.545" y2="66.6625" gradientUnits="userSpaceOnUse">
<stop stop-color="#0F1831"/>
<stop offset="1" stop-color="#3246FF"/>
</linearGradient>
<linearGradient id="paint9_linear_2_476" x1="151.923" y1="85.3614" x2="151.919" y2="73.4154" gradientUnits="userSpaceOnUse">
<stop stop-color="#0F1831"/>
<stop offset="1" stop-color="#3246FF"/>
</linearGradient>
<linearGradient id="paint10_linear_2_476" x1="150.297" y1="91.8242" x2="150.292" y2="80.1716" gradientUnits="userSpaceOnUse">
<stop stop-color="#0F1831"/>
<stop offset="1" stop-color="#3246FF"/>
</linearGradient>
<linearGradient id="paint11_linear_2_476" x1="148.611" y1="98.2843" x2="148.607" y2="86.9203" gradientUnits="userSpaceOnUse">
<stop stop-color="#0F1831"/>
<stop offset="1" stop-color="#3246FF"/>
</linearGradient>
<linearGradient id="paint12_linear_2_476" x1="146.985" y1="104.697" x2="146.981" y2="93.6406" gradientUnits="userSpaceOnUse">
<stop stop-color="#0F1831"/>
<stop offset="1" stop-color="#3246FF"/>
</linearGradient>
<linearGradient id="paint13_linear_2_476" x1="145.358" y1="111.191" x2="145.354" y2="100.409" gradientUnits="userSpaceOnUse">
<stop stop-color="#0F1831"/>
<stop offset="1" stop-color="#3246FF"/>
</linearGradient>
<linearGradient id="paint14_linear_2_476" x1="143.732" y1="117.619" x2="143.728" y2="107.131" gradientUnits="userSpaceOnUse">
<stop stop-color="#0F1831"/>
<stop offset="1" stop-color="#3246FF"/>
</linearGradient>
</defs>
</svg>
