<svg width="935" height="1025" viewBox="0 0 935 1025" fill="none" xmlns="http://www.w3.org/2000/svg">
<g opacity="0.69">
<path d="M400.537 920.515L312.044 971.274L267.586 945.717L356.22 895.17L400.537 920.515Z" stroke="#3246FF" stroke-width="2"/>
<path d="M311.974 767.671L312.044 971.273L267.586 945.717L267.657 742.327L311.974 767.671Z" stroke="#3246FF" stroke-width="2"/>
<path d="M356.976 844.34L268.413 895.241L224.025 869.684L312.659 818.996L356.976 844.34Z" stroke="#3246FF" stroke-width="2"/>
<path d="M533.095 844.269L444.602 895.17L400.215 869.684L488.778 818.996L533.095 844.269Z" stroke="#3246FF" stroke-width="2"/>
<path d="M311.973 767.671L223.339 818.501L178.951 793.015L267.656 742.327L311.973 767.671Z" stroke="#3246FF" stroke-width="2"/>
<path d="M355.826 997.042L400.143 1022.6V869.613L355.826 844.269V997.042Z" stroke="#3246FF" stroke-width="2"/>
<path d="M488.777 767.812L533.094 793.156V844.269L488.777 818.996V767.812Z" stroke="#3246FF" stroke-width="2"/>
<path d="M179.023 843.986L223.34 869.401V919.273L179.023 893.788V843.986Z" stroke="#3246FF" stroke-width="2"/>
<path d="M267.515 741.902L267.585 945.504L223.127 919.948L223.198 716.558L267.515 741.902Z" stroke="#3246FF" stroke-width="2"/>
<path d="M267.515 741.902L178.952 792.802L134.564 767.246L223.198 716.558L267.515 741.902Z" stroke="#3246FF" stroke-width="2"/>
<path d="M356.148 894.816L267.585 945.646L223.127 920.089L311.831 869.472L356.148 894.816Z" stroke="#3246FF" stroke-width="2"/>
<path d="M444.549 692.386L488.866 717.73V768.843L444.549 743.499V692.386Z" stroke="#3246FF" stroke-width="2"/>
<path d="M443.893 844.128L488.563 869.472V971.273L443.893 945.646V844.128Z" stroke="#3246FF" stroke-width="2"/>
<path d="M666.114 944.704L666.256 842.903L621.797 817.417V919.36L666.114 944.704Z" stroke="#3246FF" stroke-width="2"/>
<path d="M533.32 384.499L577.637 409.56L666.271 358.801L621.954 333.244L533.32 384.499Z" stroke="#3246FF" stroke-width="2"/>
<path d="M666.27 256.645V358.801L621.953 333.244V231.301L666.27 256.645Z" stroke="#3246FF" stroke-width="2"/>
<path d="M754.833 205.957L710.516 180.33L621.953 231.301L666.27 256.645L754.833 205.957Z" stroke="#3246FF" stroke-width="2"/>
<path d="M754.832 205.957L710.516 180.329L710.586 129.5L754.832 154.914V205.957Z" stroke="#3246FF" stroke-width="2"/>
<path d="M799.151 129.429L754.834 103.943L710.588 129.499L754.834 154.914L799.151 129.429Z" stroke="#3246FF" stroke-width="2"/>
<path d="M799.151 129.429L754.834 103.943L754.905 2L799.151 27.4149V129.429Z" stroke="#3246FF" stroke-width="2"/>
<path d="M666.27 103.801L621.953 78.3156L754.904 2L799.15 27.4149L666.27 103.801Z" stroke="#3246FF" stroke-width="2"/>
<path d="M666.187 690.059L577.553 741.243L533.236 715.686L621.87 664.502L666.187 690.059Z" stroke="#3246FF" stroke-width="2"/>
<path d="M754.832 307.758L710.516 282.343L710.657 435.187L754.832 460.602V307.758Z" stroke="#3246FF" stroke-width="2"/>
<path d="M710.504 460.687L754.892 486.244V639.158L710.504 613.672V460.687Z" stroke="#3246FF" stroke-width="2"/>
<path d="M621.867 562.63L666.255 588.187V690.271L621.867 664.786V562.63Z" stroke="#3246FF" stroke-width="2"/>
<path d="M666.113 639.159L710.501 664.715L754.889 639.159L710.501 613.673L666.113 639.159Z" stroke="#3246FF" stroke-width="2"/>
<path d="M621.867 460.758L666.184 486.244V537.145L621.867 511.801V460.758Z" stroke="#3246FF" stroke-width="2"/>
<path d="M533.305 562.701L577.622 588.116L666.184 537.145L621.868 511.801L533.305 562.701Z" stroke="#3246FF" stroke-width="2"/>
<path d="M577.551 792.002L621.797 817.417L710.501 766.375L666.185 741.031L577.551 792.002Z" stroke="#3246FF" stroke-width="2"/>
<path d="M932.103 205.886L843.54 256.787L799.152 231.23L887.786 180.542L932.103 205.886Z" stroke="#3246FF" stroke-width="2"/>
<path d="M799.152 231.23L843.469 256.787V103.802L799.152 78.4575V231.23Z" stroke="#3246FF" stroke-width="2"/>
<path d="M799.152 282.272L843.469 307.829V409.56L799.152 384.145V282.272Z" stroke="#3246FF" stroke-width="2"/>
<path d="M710.446 383.79V485.946L666.129 460.318L666.2 358.375L710.446 383.79Z" stroke="#3246FF" stroke-width="2"/>
<path d="M799.079 333.031L754.762 307.475L666.199 358.375L710.445 383.79L799.079 333.031Z" stroke="#3246FF" stroke-width="2"/>
<path d="M799.079 333.031L754.762 307.475V256.645L799.008 282.06L799.079 333.031Z" stroke="#3246FF" stroke-width="2"/>
<path d="M843.325 256.503L799.079 231.018L754.762 256.645L799.008 282.06L843.325 256.503Z" stroke="#3246FF" stroke-width="2"/>
<path d="M843.328 256.503L799.082 231.018L799.153 129.146L843.399 154.49L843.328 256.503Z" stroke="#3246FF" stroke-width="2"/>
<path d="M710.445 230.947L666.199 205.461L799.15 129.146L843.396 154.49L710.445 230.947Z" stroke="#3246FF" stroke-width="2"/>
<path d="M710.363 817.204L621.729 868.388L577.412 842.761L666.046 791.648L710.363 817.204Z" stroke="#15162D" stroke-width="2"/>
<path d="M621.812 78.1035L666.2 103.66V256.574L621.812 231.018V78.1035Z" stroke="#3246FF" stroke-width="2"/>
<path d="M666.043 689.775L710.431 715.332V817.416L666.043 791.931V689.775Z" stroke="#15162D" stroke-width="2"/>
<path d="M577.496 256.574L621.884 282.131L666.201 256.574L621.813 231.018L577.496 256.574Z" stroke="#3246FF" stroke-width="2"/>
<path d="M666.043 587.904L710.36 613.39V664.219L666.043 638.875V587.904Z" stroke="#15162D" stroke-width="2"/>
<path d="M577.48 689.846L621.797 715.261L710.36 664.219L666.043 638.875L577.48 689.846Z" stroke="#15162D" stroke-width="2"/>
<path d="M621.727 919.147L666.043 944.491L754.677 893.52L710.36 868.176L621.727 919.147Z" stroke="#15162D" stroke-width="2"/>
<path d="M578.118 358.898L533.942 384.455L489.555 358.898L533.801 333.554L578.118 358.898Z" stroke="#3246FF" stroke-width="2"/>
<path d="M533.872 435.356L533.942 384.455L489.555 358.898V410.011L533.872 435.356Z" stroke="#3246FF" stroke-width="2"/>
<path d="M268.435 281.997L179.943 332.756L135.484 307.2L224.118 256.653L268.435 281.997Z" stroke="#3246FF" stroke-width="2"/>
<path d="M445.452 537.299V740.901L401.064 715.416L401.135 511.955L445.452 537.299Z" stroke="#3246FF" stroke-width="2"/>
<path d="M224.876 205.823L136.313 256.723L91.9258 231.167L180.559 180.479L224.876 205.823Z" stroke="#3246FF" stroke-width="2"/>
<path d="M400.993 205.752L312.501 256.653L268.113 231.167L356.676 180.479L400.993 205.752Z" stroke="#3246FF" stroke-width="2"/>
<path d="M489.626 358.596L489.555 283.539L445.238 257.912L445.309 333.252L489.626 358.596Z" stroke="#3246FF" stroke-width="2"/>
<path d="M401.063 511.954V359.111L356.676 333.554V486.398L401.063 511.954Z" stroke="#3246FF" stroke-width="2"/>
<path d="M489.556 282.893L445.31 307.426L400.922 282.893L445.239 258.292L489.556 282.893Z" stroke="#3246FF" stroke-width="2"/>
<path d="M136.288 358.206L136.297 460.557L92.0062 486.158L91.9965 383.807L136.288 358.206Z" stroke="#3246FF" stroke-width="2"/>
<path d="M223.725 358.525L268.041 384.081V231.096L223.725 205.752V358.525Z" stroke="#3246FF" stroke-width="2"/>
<path d="M356.676 129.295L400.993 154.639V205.752L356.676 180.479V129.295Z" stroke="#3246FF" stroke-width="2"/>
<path d="M356.676 129.295L400.993 154.639L489.626 103.809L445.309 78.4648L356.676 129.295Z" stroke="#3246FF" stroke-width="2"/>
<path d="M136.091 667.676L180.408 693.091L91.7739 744.133L47.457 718.506L136.091 667.676Z" stroke="#3246FF" stroke-width="2"/>
<path d="M47.457 718.505L91.7739 744.133V795.175L47.457 769.548V718.505Z" stroke="#3246FF" stroke-width="2"/>
<path d="M91.9258 281.215L136.243 306.771V408.502L91.9258 383.087V281.215Z" stroke="#3246FF" stroke-width="2"/>
<path d="M267.617 78.4648L312.288 103.809V205.681L267.617 180.054V78.4648Z" stroke="#3246FF" stroke-width="2"/>
<path d="M445.309 180.266L489.625 205.681L578.188 154.71L533.872 129.366L445.309 180.266Z" stroke="#3246FF" stroke-width="2"/>
<path d="M46.3867 511.715L90.6328 537.13L179.337 486.087L135.02 460.743L46.3867 511.715Z" stroke="#3246FF" stroke-width="2"/>
<path d="M489.487 409.87L489.558 613.473L445.17 587.916V384.526L489.487 409.87Z" stroke="#3246FF" stroke-width="2"/>
<path d="M136.241 306.736L47.749 357.636L3.36133 332.08L91.995 281.392L136.241 306.736Z" stroke="#15162D" stroke-width="2"/>
<path d="M224.047 256.298L135.484 307.128L91.0254 281.572L179.73 230.954L224.047 256.298Z" stroke="#15162D" stroke-width="2"/>
<path d="M46.3877 664.417L46.3169 511.573L2 485.946V638.789L46.3877 664.417Z" stroke="#15162D" stroke-width="2"/>
<path d="M90.5629 485.946L46.3169 511.573L2 485.946L46.3169 460.389L90.5629 485.946Z" stroke="#15162D" stroke-width="2"/>
<path d="M180.558 563.25L91.9243 614.434L47.6074 588.807L136.241 537.694L180.558 563.25Z" stroke="#3246FF" stroke-width="2"/>
<path d="M312.449 53.8682L356.766 79.2123V130.325L312.449 104.981V53.8682Z" stroke="#15162D" stroke-width="2"/>
<path d="M488.898 103.95L533.215 129.295L621.849 78.4648L577.532 53.1206L488.898 103.95Z" stroke="#15162D" stroke-width="2"/>
<path d="M311.793 205.61L356.464 230.954V332.755L311.793 307.128V205.61Z" stroke="#3246FF" stroke-width="2"/>
<path d="M312.451 410.543V486.216L268.438 461.506V384.032L312.451 410.543Z" stroke="#15162D" stroke-width="2" stroke-miterlimit="10"/>
<path d="M356.463 333.326L180.408 434.995L136.395 409.514L312.45 307.844L356.463 333.326Z" stroke="#15162D" stroke-width="2" stroke-miterlimit="10"/>
<path d="M312.451 540.268V616.198L268.438 591.489V511.698L312.451 540.268Z" stroke="#15162D" stroke-width="2" stroke-miterlimit="10"/>
<path d="M180.406 434.996V486.731L312.448 410.544V486.217L180.406 562.404V616.456L312.448 540.269V616.199L180.406 692.386V739.746L356.461 638.077V333.327L180.406 434.996Z" stroke="#15162D" stroke-width="2" stroke-miterlimit="10"/>
<path d="M136.395 460.992L180.408 486.473V434.995L136.395 409.514V460.992Z" stroke="#15162D" stroke-width="2" stroke-miterlimit="10"/>
<path d="M180.408 562.404L136.395 537.694V591.746L180.408 616.456V562.404Z" stroke="#15162D" stroke-width="2" stroke-miterlimit="10"/>
<path d="M268.436 461.506L312.45 486.216L180.408 562.404L136.395 537.694L268.436 461.506Z" stroke="#15162D" stroke-width="2" stroke-miterlimit="10"/>
<path d="M180.408 692.386L136.395 667.676V715.036L180.408 739.746V692.386Z" stroke="#15162D" stroke-width="2" stroke-miterlimit="10"/>
<path d="M312.45 616.198L180.408 692.385L136.395 667.676L268.436 591.488L312.45 616.198Z" stroke="#15162D" stroke-width="2" stroke-miterlimit="10"/>
<path d="M90.6333 613.304L90.5625 485.946L46.3164 460.389V587.959L90.6333 613.304Z" stroke="#15162D" stroke-width="2"/>
<path d="M444.928 894.246L400.801 868.665V613.279L444.928 638.86V894.246Z" stroke="#15162D" stroke-width="2" stroke-miterlimit="10"/>
<path d="M400.802 664.229L356.461 638.861V587.698L400.802 613.279V664.229Z" stroke="#15162D" stroke-width="2" stroke-miterlimit="10"/>
<path d="M444.929 587.698L400.588 613.279V664.228L444.929 638.86V894.246L489.056 868.665V562.117L444.929 587.698Z" stroke="#15162D" stroke-width="2" stroke-miterlimit="10"/>
<path d="M489.27 562.117L400.802 613.279L356.461 587.698L444.929 536.536L489.27 562.117Z" stroke="#15162D" stroke-width="2" stroke-miterlimit="10"/>
<path d="M578.023 537.145L533.908 513.602V385.711L578.023 409.253V537.145Z" stroke="#15162D" stroke-width="2" stroke-miterlimit="10"/>
<path d="M533.912 334.597L578.027 358.139L489.585 409.254L445.258 385.711L533.912 334.597Z" stroke="#15162D" stroke-width="2" stroke-miterlimit="10"/>
<path d="M622.355 332.688V204.796L578.027 230.46V358.139L489.585 409.253V281.574L445.258 307.025V486.03L489.585 460.367L578.027 409.253V537.145L622.355 511.481V383.802V332.688Z" stroke="#15162D" stroke-width="2" stroke-miterlimit="10"/>
<path d="M622.35 204.797L578.023 181.254L533.908 206.918L578.023 230.46L622.35 204.797Z" stroke="#15162D" stroke-width="2" stroke-miterlimit="10"/>
<path d="M489.585 281.574L445.258 258.032L401.143 283.483L445.258 307.025L489.585 281.574Z" stroke="#15162D" stroke-width="2" stroke-miterlimit="10"/>
<path d="M445.258 486.03L401.143 462.488V283.482L445.258 307.025V486.03Z" stroke="#15162D" stroke-width="2" stroke-miterlimit="10"/>
<path d="M578.023 230.46L533.908 206.917V334.597L578.023 358.139V230.46Z" stroke="#15162D" stroke-width="2" stroke-miterlimit="10"/>
</g>
</svg>
