<svg width="507" height="1270" viewBox="0 0 507 1270" fill="none" xmlns="http://www.w3.org/2000/svg">
<g opacity="0.69">
<path d="M400.537 1150.51L312.044 1201.27L267.586 1175.72L356.22 1125.17L400.537 1150.51Z" stroke="#3246FF" stroke-width="2"/>
<path d="M311.974 997.671L312.044 1201.27L267.586 1175.72L267.657 972.327L311.974 997.671Z" stroke="#3246FF" stroke-width="2"/>
<path d="M356.976 1074.34L268.413 1125.24L224.025 1099.68L312.659 1049L356.976 1074.34Z" stroke="#3246FF" stroke-width="2"/>
<path d="M533.095 1074.27L444.602 1125.17L400.215 1099.68L488.778 1049L533.095 1074.27Z" stroke="#3246FF" stroke-width="2"/>
<path d="M311.973 997.671L223.339 1048.5L178.951 1023.01L267.656 972.327L311.973 997.671Z" stroke="#3246FF" stroke-width="2"/>
<path d="M355.826 1227.04L400.143 1252.6V1099.61L355.826 1074.27V1227.04Z" stroke="#3246FF" stroke-width="2"/>
<path d="M488.777 997.812L533.094 1023.16V1074.27L488.777 1049V997.812Z" stroke="#3246FF" stroke-width="2"/>
<path d="M179.023 1073.99L223.34 1099.4V1149.27L179.023 1123.79V1073.99Z" stroke="#3246FF" stroke-width="2"/>
<path d="M267.515 971.902L267.585 1175.5L223.127 1149.95L223.198 946.558L267.515 971.902Z" stroke="#3246FF" stroke-width="2"/>
<path d="M267.515 971.902L178.952 1022.8L134.564 997.246L223.198 946.558L267.515 971.902Z" stroke="#3246FF" stroke-width="2"/>
<path d="M356.148 1124.82L267.585 1175.65L223.127 1150.09L311.831 1099.47L356.148 1124.82Z" stroke="#3246FF" stroke-width="2"/>
<path d="M444.549 922.386L488.866 947.73V998.843L444.549 973.499V922.386Z" stroke="#3246FF" stroke-width="2"/>
<path d="M443.893 1074.13L488.563 1099.47V1201.27L443.893 1175.65V1074.13Z" stroke="#3246FF" stroke-width="2"/>
<path d="M578.118 588.898L533.942 614.455L489.555 588.898L533.801 563.554L578.118 588.898Z" stroke="#3246FF" stroke-width="2"/>
<path d="M533.872 665.356L533.942 614.455L489.555 588.898V640.011L533.872 665.356Z" stroke="#3246FF" stroke-width="2"/>
<path d="M268.435 511.997L179.943 562.756L135.484 537.2L224.118 486.653L268.435 511.997Z" stroke="#3246FF" stroke-width="2"/>
<path d="M445.452 767.299V970.901L401.064 945.416L401.135 741.955L445.452 767.299Z" stroke="#3246FF" stroke-width="2"/>
<path d="M224.876 435.823L136.313 486.723L91.9258 461.167L180.559 410.479L224.876 435.823Z" stroke="#3246FF" stroke-width="2"/>
<path d="M400.993 435.752L312.501 486.653L268.113 461.167L356.676 410.479L400.993 435.752Z" stroke="#3246FF" stroke-width="2"/>
<path d="M489.626 588.596L489.555 513.539L445.238 487.912L445.309 563.252L489.626 588.596Z" stroke="#3246FF" stroke-width="2"/>
<path d="M401.063 741.954V589.111L356.676 563.554V716.398L401.063 741.954Z" stroke="#3246FF" stroke-width="2"/>
<path d="M489.556 512.893L445.31 537.426L400.922 512.893L445.239 488.292L489.556 512.893Z" stroke="#3246FF" stroke-width="2"/>
<path d="M136.288 588.206L136.297 690.557L92.0062 716.158L91.9965 613.807L136.288 588.206Z" stroke="#3246FF" stroke-width="2"/>
<path d="M223.725 588.525L268.041 614.081V461.096L223.725 435.752V588.525Z" stroke="#3246FF" stroke-width="2"/>
<path d="M356.676 359.295L400.993 384.639V435.752L356.676 410.479V359.295Z" stroke="#3246FF" stroke-width="2"/>
<path d="M356.676 359.295L400.993 384.639L489.626 333.809L445.309 308.465L356.676 359.295Z" stroke="#3246FF" stroke-width="2"/>
<path d="M136.091 897.676L180.408 923.091L91.7739 974.133L47.457 948.506L136.091 897.676Z" stroke="#3246FF" stroke-width="2"/>
<path d="M47.457 948.505L91.7739 974.133V1025.17L47.457 999.548V948.505Z" stroke="#3246FF" stroke-width="2"/>
<path d="M91.9258 511.215L136.243 536.771V638.502L91.9258 613.087V511.215Z" stroke="#3246FF" stroke-width="2"/>
<path d="M267.617 308.465L312.288 333.809V435.681L267.617 410.054V308.465Z" stroke="#3246FF" stroke-width="2"/>
<path d="M445.309 410.266L489.625 435.681L578.188 384.71L533.872 359.366L445.309 410.266Z" stroke="#3246FF" stroke-width="2"/>
<path d="M46.3867 741.715L90.6328 767.13L179.337 716.087L135.02 690.743L46.3867 741.715Z" stroke="#3246FF" stroke-width="2"/>
<path d="M489.487 639.87L489.558 843.473L445.17 817.916V614.526L489.487 639.87Z" stroke="#3246FF" stroke-width="2"/>
<path d="M136.241 536.736L47.749 587.636L3.36133 562.08L91.995 511.392L136.241 536.736Z" stroke="#15162D" stroke-width="2"/>
<path d="M224.047 486.298L135.484 537.128L91.0254 511.572L179.73 460.954L224.047 486.298Z" stroke="#15162D" stroke-width="2"/>
<path d="M46.3877 894.417L46.3169 741.573L2 715.946V868.789L46.3877 894.417Z" stroke="#15162D" stroke-width="2"/>
<path d="M90.5629 715.946L46.3169 741.573L2 715.946L46.3169 690.389L90.5629 715.946Z" stroke="#15162D" stroke-width="2"/>
<path d="M180.558 793.25L91.9243 844.434L47.6074 818.807L136.241 767.694L180.558 793.25Z" stroke="#3246FF" stroke-width="2"/>
<path d="M312.449 283.868L356.766 309.212V360.325L312.449 334.981V283.868Z" stroke="#15162D" stroke-width="2"/>
<path d="M488.898 333.95L533.215 359.295L621.849 308.465L577.532 283.121L488.898 333.95Z" stroke="#15162D" stroke-width="2"/>
<path d="M311.793 435.61L356.464 460.954V562.755L311.793 537.128V435.61Z" stroke="#3246FF" stroke-width="2"/>
<path d="M312.451 640.543V716.216L268.438 691.506V614.032L312.451 640.543Z" stroke="#15162D" stroke-width="2" stroke-miterlimit="10"/>
<path d="M356.463 563.326L180.408 664.995L136.395 639.514L312.45 537.844L356.463 563.326Z" stroke="#15162D" stroke-width="2" stroke-miterlimit="10"/>
<path d="M312.451 770.268V846.198L268.438 821.489V741.698L312.451 770.268Z" stroke="#15162D" stroke-width="2" stroke-miterlimit="10"/>
<path d="M180.406 664.996V716.731L312.448 640.544V716.217L180.406 792.404V846.456L312.448 770.269V846.199L180.406 922.386V969.746L356.461 868.077V563.327L180.406 664.996Z" stroke="#15162D" stroke-width="2" stroke-miterlimit="10"/>
<path d="M136.395 690.992L180.408 716.473V664.995L136.395 639.514V690.992Z" stroke="#15162D" stroke-width="2" stroke-miterlimit="10"/>
<path d="M180.408 792.404L136.395 767.694V821.746L180.408 846.456V792.404Z" stroke="#15162D" stroke-width="2" stroke-miterlimit="10"/>
<path d="M268.436 691.506L312.45 716.216L180.408 792.404L136.395 767.694L268.436 691.506Z" stroke="#15162D" stroke-width="2" stroke-miterlimit="10"/>
<path d="M180.408 922.386L136.395 897.676V945.036L180.408 969.746V922.386Z" stroke="#15162D" stroke-width="2" stroke-miterlimit="10"/>
<path d="M312.45 846.198L180.408 922.385L136.395 897.676L268.436 821.488L312.45 846.198Z" stroke="#15162D" stroke-width="2" stroke-miterlimit="10"/>
<path d="M90.6333 843.304L90.5625 715.946L46.3164 690.389V817.959L90.6333 843.304Z" stroke="#15162D" stroke-width="2"/>
<path d="M444.928 1124.25L400.801 1098.66V843.279L444.928 868.86V1124.25Z" stroke="#15162D" stroke-width="2" stroke-miterlimit="10"/>
<path d="M400.802 894.229L356.461 868.861V817.698L400.802 843.279V894.229Z" stroke="#15162D" stroke-width="2" stroke-miterlimit="10"/>
<path d="M444.929 817.698L400.588 843.279V894.228L444.929 868.86V1124.25L489.056 1098.66V792.117L444.929 817.698Z" stroke="#15162D" stroke-width="2" stroke-miterlimit="10"/>
<path d="M489.27 792.117L400.802 843.279L356.461 817.698L444.929 766.536L489.27 792.117Z" stroke="#15162D" stroke-width="2" stroke-miterlimit="10"/>
<path d="M533.912 564.597L578.027 588.139L489.585 639.254L445.258 615.711L533.912 564.597Z" stroke="#15162D" stroke-width="2" stroke-miterlimit="10"/>
<path d="M622.355 562.688V434.796L578.027 460.46V588.139L489.585 639.253V511.574L445.258 537.025V716.03L489.585 690.367L578.027 639.253V767.145L622.355 741.481V613.802V562.688Z" stroke="#15162D" stroke-width="2" stroke-miterlimit="10"/>
<path d="M489.585 511.574L445.258 488.032L401.143 513.483L445.258 537.025L489.585 511.574Z" stroke="#15162D" stroke-width="2" stroke-miterlimit="10"/>
<path d="M445.258 716.03L401.143 692.488V513.482L445.258 537.025V716.03Z" stroke="#15162D" stroke-width="2" stroke-miterlimit="10"/>
<rect x="192" width="315" height="1270" fill="url(#paint0_linear_43_194)"/>
</g>
<defs>
<linearGradient id="paint0_linear_43_194" x1="192" y1="550.636" x2="507" y2="550.636" gradientUnits="userSpaceOnUse">
<stop stop-color="white" stop-opacity="0"/>
<stop offset="1" stop-color="white"/>
</linearGradient>
</defs>
</svg>
