<svg width="936" height="1025" viewBox="0 0 936 1025" fill="none" xmlns="http://www.w3.org/2000/svg">
<g opacity="0.69">
<path d="M534.566 920.515L623.059 971.274L667.517 945.717L578.883 895.17L534.566 920.515Z" stroke="#2A2D31" stroke-width="2"/>
<path d="M623.129 767.671L623.059 971.273L667.517 945.717L667.446 742.327L623.129 767.671Z" stroke="#2A2D31" stroke-width="2"/>
<path d="M578.127 844.34L666.69 895.241L711.078 869.684L622.444 818.996L578.127 844.34Z" stroke="#2A2D31" stroke-width="2"/>
<path d="M402.008 844.269L490.5 895.17L534.888 869.684L446.325 818.996L402.008 844.269Z" stroke="#2A2D31" stroke-width="2"/>
<path d="M623.13 767.671L711.764 818.501L756.152 793.015L667.447 742.327L623.13 767.671Z" stroke="#2A2D31" stroke-width="2"/>
<path d="M579.277 997.042L534.96 1022.6V869.613L579.277 844.269V997.042Z" stroke="#2A2D31" stroke-width="2"/>
<path d="M446.326 767.812L402.009 793.156V844.269L446.326 818.996V767.812Z" stroke="#2A2D31" stroke-width="2"/>
<path d="M756.079 843.986L711.763 869.401V971.273L756.079 945.788V843.986Z" stroke="#2A2D31" stroke-width="2"/>
<path d="M667.588 741.902L667.518 945.504L711.976 919.948L711.905 716.558L667.588 741.902Z" stroke="#2A2D31" stroke-width="2"/>
<path d="M667.588 741.902L756.151 792.802L800.538 767.246L711.905 716.558L667.588 741.902Z" stroke="#2A2D31" stroke-width="2"/>
<path d="M578.955 894.816L667.518 945.646L711.976 920.089L623.271 869.472L578.955 894.816Z" stroke="#2A2D31" stroke-width="2"/>
<path d="M490.554 692.386L446.237 717.73V768.843L490.554 743.499V692.386Z" stroke="#2A2D31" stroke-width="2"/>
<path d="M800.538 818.288L756.222 843.845V945.504L800.538 920.089V818.288Z" stroke="#2A2D31" stroke-width="2"/>
<path d="M491.21 844.128L446.539 869.472V971.273L491.21 945.646V844.128Z" stroke="#2A2D31" stroke-width="2"/>
<path d="M268.989 944.704L268.847 842.903L313.306 817.417V919.36L268.989 944.704Z" stroke="#2A2D31" stroke-width="2"/>
<path d="M401.783 384.499L357.466 409.56L268.832 358.801L313.149 333.244L401.783 384.499Z" stroke="#2A2D31" stroke-width="2"/>
<path d="M268.833 256.645V358.801L313.15 333.244V231.301L268.833 256.645Z" stroke="#2A2D31" stroke-width="2"/>
<path d="M180.27 205.957L224.587 180.33L313.15 231.301L268.833 256.645L180.27 205.957Z" stroke="#2A2D31" stroke-width="2"/>
<path d="M180.27 205.957L224.587 180.329L224.517 129.5L180.27 154.914V205.957Z" stroke="#2A2D31" stroke-width="2"/>
<path d="M135.952 129.429L180.269 103.943L224.515 129.499L180.269 154.914L135.952 129.429Z" stroke="#2A2D31" stroke-width="2"/>
<path d="M135.952 129.429L180.269 103.943L180.198 2L135.952 27.4149V129.429Z" stroke="#2A2D31" stroke-width="2"/>
<path d="M268.833 103.801L313.15 78.3156L180.199 2L135.953 27.4149L268.833 103.801Z" stroke="#2A2D31" stroke-width="2"/>
<path d="M268.916 690.059L357.55 741.243L401.867 715.686L313.233 664.502L268.916 690.059Z" stroke="#2A2D31" stroke-width="2"/>
<path d="M180.27 307.758L224.587 282.343L224.446 435.187L180.27 460.602V307.758Z" stroke="#2A2D31" stroke-width="2"/>
<path d="M224.599 460.687L180.211 486.244V639.158L224.599 613.672V460.687Z" stroke="#2A2D31" stroke-width="2"/>
<path d="M313.236 562.63L268.848 588.187V690.271L313.236 664.786V562.63Z" stroke="#2A2D31" stroke-width="2"/>
<path d="M268.99 639.159L224.602 664.715L180.214 639.159L224.602 613.673L268.99 639.159Z" stroke="#2A2D31" stroke-width="2"/>
<path d="M313.236 460.758L268.919 486.244V537.145L313.236 511.801V460.758Z" stroke="#2A2D31" stroke-width="2"/>
<path d="M401.798 562.701L357.481 588.116L268.918 537.145L313.235 511.801L401.798 562.701Z" stroke="#2A2D31" stroke-width="2"/>
<path d="M357.552 792.002L313.306 817.417L224.602 766.375L268.918 741.031L357.552 792.002Z" stroke="#2A2D31" stroke-width="2"/>
<path d="M3 205.886L91.5629 256.787L135.951 231.23L47.3168 180.542L3 205.886Z" stroke="#2A2D31" stroke-width="2"/>
<path d="M135.951 231.23L91.6337 256.787V103.802L135.951 78.4575V231.23Z" stroke="#2A2D31" stroke-width="2"/>
<path d="M135.951 282.272L91.6337 307.829V409.56L135.951 384.145V282.272Z" stroke="#2A2D31" stroke-width="2"/>
<path d="M224.657 383.79V485.946L268.974 460.318L268.903 358.375L224.657 383.79Z" stroke="#2A2D31" stroke-width="2"/>
<path d="M136.024 333.031L180.341 307.475L268.904 358.375L224.658 383.79L136.024 333.031Z" stroke="#2A2D31" stroke-width="2"/>
<path d="M136.024 333.031L180.341 307.475V256.645L136.095 282.06L136.024 333.031Z" stroke="#2A2D31" stroke-width="2"/>
<path d="M91.7783 256.503L136.024 231.018L180.341 256.645L136.095 282.06L91.7783 256.503Z" stroke="#2A2D31" stroke-width="2"/>
<path d="M91.7748 256.503L136.021 231.018L135.95 129.146L91.704 154.49L91.7748 256.503Z" stroke="#2A2D31" stroke-width="2"/>
<path d="M224.658 230.947L268.904 205.461L135.953 129.146L91.7071 154.49L224.658 230.947Z" stroke="#2A2D31" stroke-width="2"/>
<path d="M224.74 817.204L313.374 868.388L357.691 842.761L269.057 791.648L224.74 817.204Z" stroke="#627078" stroke-width="2"/>
<path d="M313.29 78.1035L268.903 103.66V256.574L313.29 231.018V78.1035Z" stroke="#2A2D31" stroke-width="2"/>
<path d="M269.06 689.775L224.672 715.332V817.416L269.06 791.931V689.775Z" stroke="#627078" stroke-width="2"/>
<path d="M357.607 256.574L313.219 282.131L268.902 256.574L313.29 231.018L357.607 256.574Z" stroke="#2A2D31" stroke-width="2"/>
<path d="M269.06 587.904L224.743 613.39V664.219L269.06 638.875V587.904Z" stroke="#627078" stroke-width="2"/>
<path d="M357.622 689.846L313.306 715.261L224.743 664.219L269.06 638.875L357.622 689.846Z" stroke="#627078" stroke-width="2"/>
<path d="M313.376 919.147L269.059 944.491L180.426 893.52L224.743 868.176L313.376 919.147Z" stroke="#627078" stroke-width="2"/>
<path d="M356.985 358.898L401.161 384.455L445.548 358.898L401.302 333.554L356.985 358.898Z" stroke="#2A2D31" stroke-width="2"/>
<path d="M401.231 435.356L401.161 384.455L445.548 358.898V410.011L401.231 435.356Z" stroke="#2A2D31" stroke-width="2"/>
<path d="M666.668 281.997L755.16 332.756L799.619 307.2L710.985 256.653L666.668 281.997Z" stroke="#2A2D31" stroke-width="2"/>
<path d="M755.231 129.153L755.16 332.756L799.619 307.199L799.548 103.809L755.231 129.153Z" stroke="#2A2D31" stroke-width="2"/>
<path d="M489.651 537.299V740.901L534.038 715.416L533.968 511.955L489.651 537.299Z" stroke="#2A2D31" stroke-width="2"/>
<path d="M710.227 205.823L798.789 256.723L843.177 231.167L754.543 180.479L710.227 205.823Z" stroke="#2A2D31" stroke-width="2"/>
<path d="M534.11 205.752L622.602 256.653L666.99 231.167L578.427 180.479L534.11 205.752Z" stroke="#2A2D31" stroke-width="2"/>
<path d="M755.23 129.153L843.864 179.983L888.251 154.497L799.547 103.809L755.23 129.153Z" stroke="#2A2D31" stroke-width="2"/>
<path d="M445.477 358.596L445.548 283.539L489.865 257.912L489.794 333.252L445.477 358.596Z" stroke="#2A2D31" stroke-width="2"/>
<path d="M534.039 511.954V359.111L578.427 333.554V486.398L534.039 511.954Z" stroke="#2A2D31" stroke-width="2"/>
<path d="M445.547 282.893L489.793 307.426L534.181 282.893L489.864 258.292L445.547 282.893Z" stroke="#2A2D31" stroke-width="2"/>
<path d="M798.815 358.206L798.806 460.557L843.097 486.158L843.106 383.807L798.815 358.206Z" stroke="#2A2D31" stroke-width="2"/>
<path d="M711.378 358.525L667.061 384.081V231.096L711.378 205.752V358.525Z" stroke="#2A2D31" stroke-width="2"/>
<path d="M578.427 129.295L534.11 154.639V205.752L578.427 180.479V129.295Z" stroke="#2A2D31" stroke-width="2"/>
<path d="M578.427 129.295L534.11 154.639L445.477 103.809L489.793 78.4648L578.427 129.295Z" stroke="#2A2D31" stroke-width="2"/>
<path d="M799.012 667.676L754.695 693.091L843.329 744.133L887.646 718.506L799.012 667.676Z" stroke="#2A2D31" stroke-width="2"/>
<path d="M887.646 718.505L843.329 744.133V795.175L887.646 769.548V718.505Z" stroke="#2A2D31" stroke-width="2"/>
<path d="M888.181 205.469L843.864 230.884V332.756L888.181 307.27V205.469Z" stroke="#2A2D31" stroke-width="2"/>
<path d="M843.177 281.215L798.86 306.771V408.502L843.177 383.087V281.215Z" stroke="#2A2D31" stroke-width="2"/>
<path d="M667.486 78.4648L622.815 103.809V205.681L667.486 180.054V78.4648Z" stroke="#2A2D31" stroke-width="2"/>
<path d="M489.794 180.266L445.477 205.681L356.915 154.71L401.231 129.366L489.794 180.266Z" stroke="#2A2D31" stroke-width="2"/>
<path d="M888.716 511.715L844.47 537.13L755.766 486.087L800.082 460.743L888.716 511.715Z" stroke="#2A2D31" stroke-width="2"/>
<path d="M445.618 409.87L445.547 613.473L489.935 587.916V384.526L445.618 409.87Z" stroke="#2A2D31" stroke-width="2"/>
<path d="M799.69 103.384L799.619 306.987L844.078 281.43L844.007 78.04L799.69 103.384Z" stroke="#627078" stroke-width="2"/>
<path d="M799.689 103.384L888.252 154.285L932.64 128.728L844.006 78.04L799.689 103.384Z" stroke="#627078" stroke-width="2"/>
<path d="M798.862 306.736L887.354 357.636L931.742 332.08L843.108 281.392L798.862 306.736Z" stroke="#627078" stroke-width="2"/>
<path d="M711.056 256.298L799.619 307.128L844.078 281.572L755.373 230.954L711.056 256.298Z" stroke="#627078" stroke-width="2"/>
<path d="M888.715 664.417L888.786 511.573L933.103 485.946V638.789L888.715 664.417Z" stroke="#627078" stroke-width="2"/>
<path d="M844.54 485.946L888.786 511.573L933.103 485.946L888.786 460.389L844.54 485.946Z" stroke="#627078" stroke-width="2"/>
<path d="M754.545 563.25L843.179 614.434L887.495 588.807L798.862 537.694L754.545 563.25Z" stroke="#2A2D31" stroke-width="2"/>
<path d="M622.654 53.8682L578.337 79.2123V130.325L622.654 104.981V53.8682Z" stroke="#627078" stroke-width="2"/>
<path d="M446.204 103.95L401.888 129.295L313.254 78.4648L357.571 53.1206L446.204 103.95Z" stroke="#627078" stroke-width="2"/>
<path d="M932.64 179.771L888.323 205.327V306.987L932.64 281.572V179.771Z" stroke="#627078" stroke-width="2"/>
<path d="M623.31 205.61L578.639 230.954V332.755L623.31 307.128V205.61Z" stroke="#2A2D31" stroke-width="2"/>
<path d="M622.652 410.543V486.216L666.665 461.506V384.032L622.652 410.543Z" stroke="#627078" stroke-width="2" stroke-miterlimit="10"/>
<path d="M578.639 333.326L754.695 434.995L798.708 409.514L622.653 307.844L578.639 333.326Z" stroke="#627078" stroke-width="2" stroke-miterlimit="10"/>
<path d="M622.652 540.268V616.198L666.665 591.489V511.698L622.652 540.268Z" stroke="#627078" stroke-width="2" stroke-miterlimit="10"/>
<path d="M754.697 434.996V486.731L622.655 410.544V486.217L754.697 562.404V616.456L622.655 540.269V616.199L754.697 692.386V739.746L578.642 638.077V333.327L754.697 434.996Z" stroke="#627078" stroke-width="2" stroke-miterlimit="10"/>
<path d="M798.708 460.992L754.695 486.473V434.995L798.708 409.514V460.992Z" stroke="#627078" stroke-width="2" stroke-miterlimit="10"/>
<path d="M754.695 562.404L798.708 537.694V591.746L754.695 616.456V562.404Z" stroke="#627078" stroke-width="2" stroke-miterlimit="10"/>
<path d="M666.667 461.506L622.653 486.216L754.695 562.403L798.708 537.694L666.667 461.506Z" stroke="#627078" stroke-width="2" stroke-miterlimit="10"/>
<path d="M754.695 692.386L798.708 667.676V715.036L754.695 739.746V692.386Z" stroke="#627078" stroke-width="2" stroke-miterlimit="10"/>
<path d="M622.653 616.198L754.695 692.385L798.708 667.676L666.667 591.488L622.653 616.198Z" stroke="#627078" stroke-width="2" stroke-miterlimit="10"/>
<path d="M844.47 613.304L844.54 485.946L888.786 460.389V587.959L844.47 613.304Z" stroke="#627078" stroke-width="2"/>
<path d="M490.175 894.246L534.302 868.665V613.279L490.175 638.86V894.246Z" stroke="#627078" stroke-width="2" stroke-miterlimit="10"/>
<path d="M534.301 664.229L578.642 638.861V587.698L534.301 613.279V664.229Z" stroke="#627078" stroke-width="2" stroke-miterlimit="10"/>
<path d="M490.174 587.698L534.515 613.279V664.228L490.174 638.86V894.246L446.047 868.665V562.117L490.174 587.698Z" stroke="#627078" stroke-width="2" stroke-miterlimit="10"/>
<path d="M445.833 562.117L534.301 613.279L578.642 587.698L490.174 536.536L445.833 562.117Z" stroke="#627078" stroke-width="2" stroke-miterlimit="10"/>
<path d="M357.08 537.145L401.195 513.602V385.711L357.08 409.253V537.145Z" stroke="#627078" stroke-width="2" stroke-miterlimit="10"/>
<path d="M401.191 334.597L357.075 358.139L445.518 409.254L489.845 385.711L401.191 334.597Z" stroke="#627078" stroke-width="2" stroke-miterlimit="10"/>
<path d="M312.748 332.688V204.796L357.075 230.46V358.139L445.518 409.253V281.574L489.845 307.025V486.03L445.518 460.367L357.075 409.253V537.145L312.748 511.481V383.802V332.688Z" stroke="#627078" stroke-width="2" stroke-miterlimit="10"/>
<path d="M312.752 204.797L357.08 181.254L401.195 206.918L357.08 230.46L312.752 204.797Z" stroke="#627078" stroke-width="2" stroke-miterlimit="10"/>
<path d="M445.518 281.574L489.845 258.032L533.96 283.483L489.845 307.025L445.518 281.574Z" stroke="#627078" stroke-width="2" stroke-miterlimit="10"/>
<path d="M489.845 486.03L533.96 462.488V283.482L489.845 307.025V486.03Z" stroke="#627078" stroke-width="2" stroke-miterlimit="10"/>
<path d="M357.08 230.46L401.195 206.917V334.597L357.08 358.139V230.46Z" stroke="#627078" stroke-width="2" stroke-miterlimit="10"/>
</g>
</svg>
