<svg width="213" height="89" viewBox="0 0 213 89" fill="none" xmlns="http://www.w3.org/2000/svg">
<g clip-path="url(#clip0_2_643)">
<path d="M27.6571 20.7725L21.7385 24.0505L28.1123 24.961L28.0212 31.9723L33.9398 28.7854L34.0309 21.6831L27.6571 20.7725Z" fill="#500B06"/>
<path d="M21.1921 26.8731L15.2734 30.1511L21.6473 31.0617L27.5659 27.8748L21.1921 26.8731Z" fill="#500B06"/>
<path d="M33.9398 28.7854L28.0212 31.9723L27.9305 39.0747L33.8491 35.7967L33.9398 28.7854Z" fill="#500B06"/>
<path d="M28.1123 24.9613L28.0212 31.9726L27.9302 39.075L21.5563 38.1644L15.2734 37.2538V30.1515L21.6473 31.0621L21.7384 24.0508L28.1123 24.9613Z" fill="#C22A1D"/>
<path d="M45.8671 23.5044L39.8574 26.7824L46.2313 27.693L52.1499 24.506L45.8671 23.5044Z" fill="#500B06"/>
<path d="M52.1499 24.506L46.2313 27.693L46.1406 34.7954L52.5144 35.7059L52.4234 42.8082L58.433 39.5302V32.4279L52.1503 31.5174L52.1499 24.506Z" fill="#500B06"/>
<path d="M46.2325 27.6928L46.1415 34.7951L52.5154 35.7057L52.4243 42.808L46.1415 41.8064L39.7676 40.8958L39.8586 33.8846V26.7822L46.2325 27.6928Z" fill="#C22A1D"/>
<path d="M45.5046 48.1807L39.5859 51.3676L45.9598 52.2782L52.3336 53.2798L52.2426 60.2911L58.1612 57.1041L58.2522 50.0018L45.5046 48.1807Z" fill="#500B06"/>
<path d="M51.7872 56.1934L45.8686 59.3803L45.7775 66.4827L51.6962 63.2047L51.7872 56.1934Z" fill="#500B06"/>
<path d="M52.3322 53.2794L52.2412 60.2906L45.8673 59.3801L45.7762 66.4824L39.4023 65.5719L39.4934 58.4695L39.5845 51.3672L45.9584 52.2777L52.3322 53.2794Z" fill="#C22A1D"/>
<path d="M21.0104 44.4468L15.0918 47.7248L27.8395 49.5459L27.6573 63.6596L33.5759 60.4726L33.7581 46.2679L21.0104 44.4468Z" fill="#500B06"/>
<path d="M27.8388 49.5462L27.7478 56.6485L27.6567 63.6598L21.2828 62.7493L21.3739 55.738L15 54.7364L15.0911 47.7251L21.4649 48.6357L27.8388 49.5462Z" fill="#C22A1D"/>
</g>
<path d="M74.6738 35.5619H76.3584V51.4966H74.6738V35.5619Z" fill="#181818"/>
<path d="M101.006 35.5619V51.4966H99.6176L89.3738 38.5667V51.4966H87.6893V35.5619H89.0779L99.3444 48.4918V35.5619H101.006Z" fill="#181818"/>
<path d="M125.424 35.5619L118.367 51.4966H116.706L109.649 35.5619H111.47L117.571 49.4023L123.717 35.5619H125.424Z" fill="#181818"/>
<path d="M145.151 50.0397V51.4966H133.883V35.5619H144.81V37.0188H135.568V42.687H143.808V44.1211H135.568V50.0397H145.151Z" fill="#181818"/>
<path d="M171.807 35.5619V51.4966H170.19V38.7488L163.93 49.4706H163.133L156.873 38.8171V51.4966H155.257V35.5619H156.646L163.566 47.3763L170.418 35.5619H171.807Z" fill="#181818"/>
<path d="M190.111 51.6332C188.532 51.6332 187.098 51.2842 185.808 50.5861C184.533 49.8728 183.532 48.9015 182.803 47.6723C182.09 46.443 181.733 45.062 181.733 43.5292C181.733 41.9965 182.09 40.6155 182.803 39.3862C183.532 38.157 184.533 37.1933 185.808 36.4952C187.098 35.7819 188.532 35.4253 190.111 35.4253C191.689 35.4253 193.108 35.7743 194.367 36.4724C195.642 37.1705 196.644 38.1418 197.372 39.3862C198.101 40.6155 198.465 41.9965 198.465 43.5292C198.465 45.062 198.101 46.4506 197.372 47.695C196.644 48.9243 195.642 49.888 194.367 50.5861C193.108 51.2842 191.689 51.6332 190.111 51.6332ZM190.111 50.1308C191.37 50.1308 192.508 49.85 193.525 49.2885C194.542 48.7118 195.339 47.9227 195.915 46.9211C196.492 45.9043 196.78 44.7737 196.78 43.5292C196.78 42.2848 196.492 41.1618 195.915 40.1602C195.339 39.1434 194.542 38.3542 193.525 37.7927C192.508 37.2161 191.37 36.9277 190.111 36.9277C188.851 36.9277 187.705 37.2161 186.673 37.7927C185.656 38.3542 184.852 39.1434 184.26 40.1602C183.683 41.1618 183.395 42.2848 183.395 43.5292C183.395 44.7737 183.683 45.9043 184.26 46.9211C184.852 47.9227 185.656 48.7118 186.673 49.2885C187.705 49.85 188.851 50.1308 190.111 50.1308Z" fill="#181818"/>
<defs>
<clipPath id="clip0_2_643">
<rect width="44.6173" height="48.2595" fill="white" transform="translate(15 20.7725)"/>
</clipPath>
</defs>
</svg>
