<svg width="768" height="747" viewBox="0 0 768 747" fill="none" xmlns="http://www.w3.org/2000/svg">
<g clip-path="url(#clip0_61_15371)">
<g opacity="0.69">
<path d="M449.843 387.499L493.703 412.56L581.423 361.801L537.563 336.244L449.843 387.499Z" stroke="#3246FF" stroke-width="2"/>
<path d="M581.422 259.645V361.801L537.562 336.244V234.301L581.422 259.645Z" stroke="#3246FF" stroke-width="2"/>
<path d="M669.071 208.957L625.211 183.33L537.562 234.301L581.422 259.645L669.071 208.957Z" stroke="#3246FF" stroke-width="2"/>
<path d="M669.071 208.957L625.211 183.329L625.281 132.5L669.071 157.914V208.957Z" stroke="#3246FF" stroke-width="2"/>
<path d="M712.933 132.429L669.073 106.943L625.283 132.499L669.073 157.914L712.933 132.429Z" stroke="#3246FF" stroke-width="2"/>
<path d="M712.933 132.429L669.073 106.943L669.143 5L712.933 30.4149V132.429Z" stroke="#3246FF" stroke-width="2"/>
<path d="M581.421 106.801L537.562 81.3156L669.141 5L712.931 30.4149L581.421 106.801Z" stroke="#3246FF" stroke-width="2"/>
<path d="M669.071 310.758L625.211 285.343L625.351 438.187L669.071 463.602V310.758Z" stroke="#3246FF" stroke-width="2"/>
<path d="M625.199 463.687L669.129 489.244V642.158L625.199 616.672V463.687Z" stroke="#3246FF" stroke-width="2"/>
<path d="M537.477 463.758L581.337 489.244V540.145L537.477 514.801V463.758Z" stroke="#3246FF" stroke-width="2"/>
<path d="M449.827 565.701L493.687 591.116L581.337 540.145L537.477 514.801L449.827 565.701Z" stroke="#3246FF" stroke-width="2"/>
<path d="M844.515 208.886L756.865 259.787L712.935 234.23L800.655 183.542L844.515 208.886Z" stroke="#3246FF" stroke-width="2"/>
<path d="M712.935 234.23L756.795 259.787V106.802L712.935 81.4575V234.23Z" stroke="#3246FF" stroke-width="2"/>
<path d="M712.935 285.272L756.795 310.829V412.56L712.935 387.145V285.272Z" stroke="#3246FF" stroke-width="2"/>
<path d="M625.142 386.79V488.946L581.282 463.318L581.352 361.375L625.142 386.79Z" stroke="#3246FF" stroke-width="2"/>
<path d="M712.861 336.031L669.001 310.475L581.352 361.375L625.141 386.79L712.861 336.031Z" stroke="#3246FF" stroke-width="2"/>
<path d="M712.861 336.031L669.001 310.475V259.645L712.791 285.06L712.861 336.031Z" stroke="#3246FF" stroke-width="2"/>
<path d="M756.651 259.503L712.861 234.018L669.001 259.645L712.791 285.06L756.651 259.503Z" stroke="#3246FF" stroke-width="2"/>
<path d="M756.654 259.503L712.864 234.018L712.934 132.146L756.724 157.49L756.654 259.503Z" stroke="#3246FF" stroke-width="2"/>
<path d="M625.141 233.947L581.352 208.461L712.931 132.146L756.721 157.49L625.141 233.947Z" stroke="#3246FF" stroke-width="2"/>
<path d="M537.423 81.1035L581.353 106.66V259.574L537.423 234.018V81.1035Z" stroke="#3246FF" stroke-width="2"/>
<path d="M493.563 259.574L537.494 285.131L581.354 259.574L537.423 234.018L493.563 259.574Z" stroke="#3246FF" stroke-width="2"/>
<path d="M581.197 590.904L625.057 616.39V667.219L581.197 641.875V590.904Z" stroke="#15162D" stroke-width="2"/>
<path d="M494.178 361.898L450.458 387.455L406.528 361.898L450.318 336.554L494.178 361.898Z" stroke="#3246FF" stroke-width="2"/>
<path d="M450.388 438.356L450.458 387.455L406.528 361.898V413.012L450.388 438.356Z" stroke="#3246FF" stroke-width="2"/>
<path d="M187.688 284.997L100.109 335.756L56.1084 310.2L143.828 259.653L187.688 284.997Z" stroke="#3246FF" stroke-width="2"/>
<path d="M144.579 208.823L56.9291 259.723L12.999 234.167L100.719 183.479L144.579 208.823Z" stroke="#3246FF" stroke-width="2"/>
<path d="M318.88 208.752L231.3 259.653L187.37 234.167L275.02 183.479L318.88 208.752Z" stroke="#3246FF" stroke-width="2"/>
<path d="M406.599 361.596L406.529 286.539L362.669 260.912L362.739 336.252L406.599 361.596Z" stroke="#3246FF" stroke-width="2"/>
<path d="M318.95 514.954V362.111L275.02 336.554V489.398L318.95 514.954Z" stroke="#3246FF" stroke-width="2"/>
<path d="M406.53 285.893L362.74 310.426L318.81 285.893L362.67 261.292L406.53 285.893Z" stroke="#3246FF" stroke-width="2"/>
<path d="M56.9034 361.206L56.9129 463.557L13.0785 489.158L13.069 386.807L56.9034 361.206Z" stroke="#3246FF" stroke-width="2"/>
<path d="M143.438 361.525L187.298 387.081V234.096L143.438 208.752V361.525Z" stroke="#3246FF" stroke-width="2"/>
<path d="M275.02 132.295L318.88 157.639V208.752L275.02 183.479V132.295Z" stroke="#3246FF" stroke-width="2"/>
<path d="M275.02 132.295L318.88 157.639L406.599 106.809L362.739 81.4648L275.02 132.295Z" stroke="#3246FF" stroke-width="2"/>
<path d="M56.7082 670.676L100.568 696.091L12.8483 747.133L-31.0117 721.506L56.7082 670.676Z" stroke="#3246FF" stroke-width="2"/>
<path d="M12.999 284.215L56.859 309.771V411.502L12.999 386.087V284.215Z" stroke="#3246FF" stroke-width="2"/>
<path d="M186.879 81.4648L231.089 106.809V208.681L186.879 183.054V81.4648Z" stroke="#3246FF" stroke-width="2"/>
<path d="M362.738 183.266L406.598 208.681L494.248 157.71L450.388 132.366L362.738 183.266Z" stroke="#3246FF" stroke-width="2"/>
<path d="M-32.0713 514.715L11.7186 540.13L99.5086 489.087L55.6487 463.743L-32.0713 514.715Z" stroke="#3246FF" stroke-width="2"/>
<path d="M406.462 412.87L406.532 616.473L362.602 590.916V387.526L406.462 412.87Z" stroke="#3246FF" stroke-width="2"/>
<path d="M56.8575 309.736L-30.7223 360.636L-74.6523 335.08L13.0676 284.392L56.8575 309.736Z" stroke="#15162D" stroke-width="2"/>
<path d="M143.757 259.298L56.1075 310.128L12.1074 284.572L99.8974 233.954L143.757 259.298Z" stroke="#15162D" stroke-width="2"/>
<path d="M11.6499 488.946L-32.14 514.573L-76 488.946L-32.14 463.389L11.6499 488.946Z" stroke="#15162D" stroke-width="2"/>
<path d="M100.718 566.25L12.9977 617.434L-30.8623 591.807L56.8577 540.694L100.718 566.25Z" stroke="#3246FF" stroke-width="2"/>
<path d="M231.249 56.8682L275.109 82.2123V133.325L231.249 107.981V56.8682Z" stroke="#15162D" stroke-width="2"/>
<path d="M405.879 106.95L449.739 132.295L537.459 81.4647L493.599 56.1206L405.879 106.95Z" stroke="#15162D" stroke-width="2"/>
<path d="M230.6 208.61L274.81 233.954V335.755L230.6 310.128V208.61Z" stroke="#3246FF" stroke-width="2"/>
<path d="M231.25 413.543V489.216L187.69 464.506V387.032L231.25 413.543Z" stroke="#15162D" stroke-width="2" stroke-miterlimit="10"/>
<path d="M274.809 336.326L100.569 437.995L57.0088 412.514L231.249 310.844L274.809 336.326Z" stroke="#15162D" stroke-width="2" stroke-miterlimit="10"/>
<path d="M231.25 543.268V619.198L187.69 594.489V514.698L231.25 543.268Z" stroke="#15162D" stroke-width="2" stroke-miterlimit="10"/>
<path d="M100.566 437.996V489.731L231.246 413.544V489.217L100.566 565.404V619.456L231.246 543.269V619.199L100.566 695.387V742.746L274.807 641.077V336.327L100.566 437.996Z" stroke="#15162D" stroke-width="2" stroke-miterlimit="10"/>
<path d="M57.0088 463.992L100.569 489.473V437.995L57.0088 412.514V463.992Z" stroke="#15162D" stroke-width="2" stroke-miterlimit="10"/>
<path d="M100.569 565.404L57.0088 540.694V594.746L100.569 619.456V565.404Z" stroke="#15162D" stroke-width="2" stroke-miterlimit="10"/>
<path d="M187.689 464.506L231.249 489.216L100.569 565.403L57.0088 540.694L187.689 464.506Z" stroke="#15162D" stroke-width="2" stroke-miterlimit="10"/>
<path d="M100.569 695.386L57.0088 670.676V718.036L100.569 742.746V695.386Z" stroke="#15162D" stroke-width="2" stroke-miterlimit="10"/>
<path d="M231.249 619.198L100.569 695.385L57.0088 670.676L187.689 594.488L231.249 619.198Z" stroke="#15162D" stroke-width="2" stroke-miterlimit="10"/>
<path d="M11.7194 616.304L11.6493 488.946L-32.1406 463.389V590.959L11.7194 616.304Z" stroke="#15162D" stroke-width="2"/>
<path d="M318.69 667.229L274.807 641.861V590.698L318.69 616.279V667.229Z" stroke="#15162D" stroke-width="2" stroke-miterlimit="10"/>
<path d="M406.247 565.117L318.69 616.279L274.807 590.698L362.363 539.536L406.247 565.117Z" stroke="#15162D" stroke-width="2" stroke-miterlimit="10"/>
<path d="M494.084 540.145L450.424 516.602V388.711L494.084 412.253V540.145Z" stroke="#15162D" stroke-width="2" stroke-miterlimit="10"/>
<path d="M450.428 337.597L494.088 361.139L406.558 412.254L362.688 388.711L450.428 337.597Z" stroke="#15162D" stroke-width="2" stroke-miterlimit="10"/>
<path d="M537.959 335.688V207.796L494.088 233.46V361.139L406.558 412.253V284.574L362.688 310.025V489.03L406.558 463.367L494.088 412.253V540.145L537.959 514.481V386.802V335.688Z" stroke="#15162D" stroke-width="2" stroke-miterlimit="10"/>
<path d="M537.954 207.797L494.084 184.254L450.424 209.918L494.084 233.46L537.954 207.797Z" stroke="#15162D" stroke-width="2" stroke-miterlimit="10"/>
<path d="M406.558 284.574L362.688 261.032L319.027 286.483L362.688 310.025L406.558 284.574Z" stroke="#15162D" stroke-width="2" stroke-miterlimit="10"/>
<path d="M362.688 489.03L319.027 465.488V286.482L362.688 310.025V489.03Z" stroke="#15162D" stroke-width="2" stroke-miterlimit="10"/>
<path d="M494.084 233.46L450.424 209.917V337.597L494.084 361.139V233.46Z" stroke="#15162D" stroke-width="2" stroke-miterlimit="10"/>
</g>
</g>
<defs>
<clipPath id="clip0_61_15371">
<rect width="768" height="747" fill="white"/>
</clipPath>
</defs>
</svg>
