<svg width="213" height="89" viewBox="0 0 213 89" fill="none" xmlns="http://www.w3.org/2000/svg">
<path d="M39.4077 32.0349C42.2691 31.8495 45.1856 32.4057 47.7444 33.6506C51.5413 35.4516 54.5678 38.683 55.971 42.4971C56.6038 44.1922 56.934 45.9668 56.934 47.7679V54.4161C56.934 54.6809 56.934 54.9723 56.8789 55.2372C56.7139 55.8993 56.2186 56.5085 55.5583 56.7999C55.0905 57.0118 54.5678 57.0383 54.1001 56.9588C53.0545 56.7734 52.2291 55.8199 52.2291 54.7869C52.2291 52.7209 52.2291 50.655 52.2291 48.589C52.2566 48.0063 52.2566 47.3706 51.9265 46.8674C51.4037 45.9139 50.083 45.4636 49.065 45.8609C48.1846 46.1522 47.5518 47.0263 47.5243 47.9269C47.5243 50.0193 47.5243 52.1117 47.5243 54.2042C47.5243 54.6015 47.5518 54.9988 47.4142 55.3696C47.1941 56.1112 46.5613 56.6939 45.7909 56.9058C44.7729 57.1707 43.6173 56.7469 43.1221 55.8464C42.7644 55.3166 42.7919 54.6545 42.8194 54.0453C42.8194 51.9528 42.8194 49.8869 42.8194 47.7944C42.7919 46.735 41.8839 45.7814 40.8109 45.649C40.0955 45.5431 39.3527 45.7814 38.8299 46.2582C38.3622 46.682 38.1146 47.2912 38.1146 47.9004V53.9658C38.1146 54.4691 38.1696 54.9988 37.977 55.4755C37.6743 56.3496 36.7664 56.9853 35.8034 56.9588C34.8129 57.0118 33.8499 56.3496 33.5473 55.4755C33.3822 55.0253 33.4097 54.575 33.4097 54.0982C33.4097 52.0058 33.4097 49.9134 33.4097 47.8209C33.4097 46.7879 32.5568 45.8344 31.5113 45.649C30.5483 45.4636 29.5028 45.9139 29.0075 46.7614C28.8149 47.1058 28.7049 47.5031 28.7049 47.9004V54.7074C28.7049 55.3696 28.4022 56.0318 27.8794 56.4556C27.0815 57.1177 25.7884 57.1707 24.963 56.5615C24.3577 56.1642 24 55.4755 24 54.7604V47.8739C24 45.2782 24.6878 42.6825 25.981 40.3782C27.0265 38.4976 28.4847 36.8289 30.2181 35.5046C32.7769 33.4387 36.051 32.2203 39.4077 32.0349Z" fill="#5741D9"/>
<path d="M103.707 40.0073H100.131C100.268 37.5971 100.791 35.4252 103.075 34.0479C105.358 32.697 107.862 32.3792 110.476 32.5911C111.879 32.697 113.282 32.9884 114.575 33.5711C116.859 34.5776 117.987 36.2992 117.987 38.7095C117.987 42.9739 117.987 47.2382 117.987 51.5025C117.987 53.0653 118.317 53.3566 119.94 53.1977C120.106 53.1712 120.298 53.1447 120.463 53.1182C120.491 53.1977 120.491 53.2772 120.491 53.3301V55.9258C119.198 56.3496 117.877 56.482 116.584 56.1377C115.621 55.8728 115.016 55.2107 114.685 54.3366C114.52 53.8863 114.41 53.4096 114.273 52.9063C114.135 53.0653 114.025 53.1977 113.887 53.3301C111.054 56.0847 107.697 57.2501 103.735 56.2701C100.928 55.5815 99.0025 53.1182 98.92 50.3106C98.8924 49.4101 98.975 48.5096 99.1951 47.6355C99.7179 45.6225 101.204 44.4041 103.075 43.583C104.395 43.0003 105.826 42.8414 107.257 42.656C108.935 42.4441 110.586 42.2587 112.264 42.0203C113.392 41.8614 113.97 41.2787 114.135 40.1928C114.493 37.9944 113.475 36.5376 111.274 36.0079C109.953 35.69 108.605 35.6371 107.257 35.8754C105.276 36.2198 104.175 37.3057 103.79 39.1863C103.817 39.4511 103.762 39.716 103.707 40.0073ZM114.245 44.2452C112.594 45.0928 110.998 45.3047 109.375 45.5431C108.027 45.7549 106.651 45.9404 105.331 46.3377C103.597 46.8939 102.799 48.2712 102.964 50.1252C103.102 51.6615 104.175 52.9063 105.908 53.1712C108.577 53.595 110.943 52.8799 112.814 50.9728C113.365 50.4166 113.805 49.622 113.915 48.8804C114.163 47.3971 114.135 45.8874 114.245 44.2452ZM165.228 48.695C165.146 49.0658 165.091 49.3836 165.008 49.675C163.467 54.2042 160.331 56.1377 156.534 56.5615C149.958 57.2501 146.189 53.1182 145.226 48.7215C144.455 45.2252 144.565 41.7555 146.161 38.4711C147.674 35.3722 150.096 33.3327 153.7 32.7235C158.02 31.9819 164.128 34.0479 165.146 40.5371C165.421 42.2057 165.476 43.9274 165.641 45.6755H148.912C149.05 48.0593 149.435 50.2842 151.251 52.0058C151.994 52.7209 152.957 53.0653 154.003 53.2507C157.387 53.8334 160.193 52.2707 161.294 49.1187C161.404 48.7744 161.569 48.6685 161.926 48.695C162.999 48.695 164.073 48.695 165.228 48.695ZM149.05 42.603H161.569C161.431 41.1992 161.184 39.9014 160.496 38.683C159.835 37.5176 158.872 36.67 157.552 36.2462C153.232 34.816 148.775 38.1268 149.05 42.603ZM174.225 55.7934H170.428V33.0678H174.033V36.2462C174.308 35.9549 174.473 35.7695 174.638 35.5841C177.224 32.75 180.471 32.0084 184.158 32.8824C186.716 33.4916 188.147 35.2398 188.642 37.6765C188.835 38.683 188.972 39.716 188.972 40.7225C189 45.596 189 50.4696 189 55.3431C189 55.4755 188.972 55.608 188.972 55.7669H185.093V55.1577C185.093 50.602 185.121 46.0463 185.066 41.4906C185.066 40.4841 184.9 39.4511 184.598 38.4711C184.103 36.8819 182.782 36.0344 181.049 35.9549C177.884 35.8489 175.381 37.4646 174.61 40.1663C174.335 41.1463 174.253 42.1793 174.253 43.2122C174.225 47.2117 174.225 51.1847 174.225 55.1312V55.7934ZM124.178 33.0678H127.837V42.709C128.057 42.4971 128.195 42.3911 128.332 42.2587C131.331 39.3187 134.33 36.3522 137.329 33.4122C137.577 33.1473 137.824 33.0414 138.21 33.0414C139.613 33.0678 141.044 33.0414 142.584 33.0414C142.364 33.2533 142.254 33.3857 142.117 33.5181C139.475 36.0608 136.861 38.63 134.193 41.1463C133.89 41.4376 133.89 41.623 134.083 41.9409C136.971 46.3641 139.833 50.7874 142.694 55.2107C142.804 55.3696 142.887 55.5285 143.025 55.7669C142.832 55.7934 142.694 55.7934 142.529 55.7934C141.209 55.7934 139.915 55.7934 138.595 55.7934C138.237 55.7934 138.072 55.661 137.879 55.3961C135.678 51.8469 133.477 48.2977 131.276 44.722C131.166 44.563 131.084 44.4041 130.946 44.2187C129.928 45.1987 128.937 46.1258 127.947 47.1058C127.809 47.2382 127.782 47.4766 127.782 47.662C127.782 50.1517 127.782 52.6415 127.782 55.1312V55.7669C127.067 55.7669 126.351 55.7669 125.663 55.7669C125.168 55.7669 124.48 55.8993 124.205 55.6345C123.957 55.4226 124.095 54.7339 124.095 54.2572V33.677C124.178 33.5446 124.178 33.3327 124.178 33.0678ZM81.944 33.0414C78.9725 35.8754 76.0835 38.6565 73.1671 41.4376C76.3036 46.2582 79.3577 50.9728 82.4667 55.7934C82.2191 55.7934 82.054 55.8199 81.8889 55.8199C80.6233 55.8199 79.3302 55.8199 78.0645 55.8199C77.7069 55.8199 77.4867 55.6874 77.2941 55.3961C75.093 51.8469 72.8919 48.2977 70.6908 44.722C70.6083 44.563 70.4982 44.4306 70.3607 44.2187C69.8104 44.7749 69.3152 45.3841 68.7099 45.8079C67.4717 46.7085 67.1141 47.8209 67.1966 49.3042C67.3342 51.2377 67.2241 53.1977 67.2241 55.1312V55.7669H63.5923V33.0678H67.2241V42.5501C67.3067 42.603 67.3892 42.656 67.4442 42.709C67.5543 42.5501 67.6093 42.3647 67.7194 42.2322C70.6908 39.2922 73.6898 36.3787 76.6613 33.4122C76.9365 33.1473 77.1841 33.0149 77.5968 33.0414C78.8349 33.0678 80.073 33.0414 81.3112 33.0414C81.5038 33.0414 81.6688 33.0414 81.944 33.0414ZM89.2076 36.8289C91.051 34.2333 93.0045 32.0614 96.6363 32.697V36.5906C95.6733 36.6435 94.7104 36.6171 93.8024 36.8025C91.5738 37.2527 89.8404 39.2127 89.4827 41.5965C89.4277 42.0733 89.3727 42.5501 89.3727 43.0268C89.3727 47.0793 89.3727 51.1317 89.3727 55.1842V55.8199H85.6308V33.1208H89.2076C89.2076 34.3127 89.2076 35.5046 89.2076 36.8289Z" fill="#5741D9"/>
</svg>
