<svg width="320" height="207" viewBox="0 0 320 207" fill="none" xmlns="http://www.w3.org/2000/svg">
<path d="M-54.3126 22.348C-54.3126 22.348 -41.1422 32.4082 -16.2397 31.5725C9.48074 30.7204 34.371 84.3519 65.1336 102.113C95.8962 119.873 104.152 116.796 117.307 138.693C129.71 159.337 121.782 179.256 132.472 197.076" stroke="url(#paint0_linear_202_747)" stroke-width="0.391226" stroke-miterlimit="10"/>
<path d="M-55.416 24.2595C-55.416 24.2595 -44.9297 32.4399 -23.4732 32.5199C-21.4458 32.5283 -19.3325 32.5203 -17.1324 32.4568C8.81905 31.6588 33.5301 86.547 63.4015 104.11C92.9467 121.406 101.982 118.871 115.386 140.317C127.737 160.086 121.055 179.55 131.632 197.528" stroke="url(#paint1_linear_202_747)" stroke-width="0.391226" stroke-miterlimit="10"/>
<path d="M-56.5252 26.1809C-56.5252 26.1809 -46.5083 34.2092 -24.3815 33.4877C-22.3305 33.4173 -20.2196 33.3947 -18.0277 33.3263C8.14654 32.5778 32.6808 88.7374 61.6611 106.103C89.9971 122.938 99.8039 120.941 113.457 141.937C125.75 160.84 120.335 179.834 130.786 197.991" stroke="url(#paint2_linear_202_747)" stroke-width="0.391226" stroke-miterlimit="10"/>
<path d="M-57.6348 28.1025C-57.6348 28.1025 -48.0849 35.9933 -25.2959 34.4655C-23.2351 34.3215 -21.1128 34.2791 -18.9266 34.2207C7.47856 33.5262 31.7878 91.0218 59.9227 108.111C86.9956 124.56 97.6136 123.031 111.521 143.566C123.743 161.61 119.602 180.137 129.931 198.448" stroke="url(#paint3_linear_202_747)" stroke-width="0.391226" stroke-miterlimit="10"/>
<path d="M-58.7445 30.0239C-58.7445 30.0239 -49.6729 37.7969 -26.2047 35.4332C-24.1317 35.2302 -22.0086 35.1486 -19.8224 35.0902C6.81375 34.4499 30.9266 93.2318 58.1818 110.103C84.0258 126.107 95.4151 125.116 109.591 145.186C121.728 162.374 118.88 180.421 129.083 198.896" stroke="url(#paint4_linear_202_747)" stroke-width="0.391226" stroke-miterlimit="10"/>
<path d="M-59.8532 31.9454C-59.8532 31.9454 -51.2657 39.6106 -27.1099 36.4157C-25.0272 36.1391 -22.8927 36.0377 -20.7122 35.9892C6.15247 35.3883 30.0689 95.4567 56.4526 112.116C81.0817 127.669 93.2201 127.216 107.673 146.825C119.718 163.169 118.165 180.734 128.245 199.363" stroke="url(#paint5_linear_202_747)" stroke-width="0.391226" stroke-miterlimit="10"/>
<path d="M-60.9627 33.8668C-60.9627 33.8668 -52.8625 41.4488 -28.0184 37.3835C-25.9178 37.038 -23.78 36.912 -21.6078 36.8588C5.48215 36.322 29.2161 97.6716 54.7062 114.118C78.1121 129.216 90.9964 129.326 105.736 148.44C117.681 163.934 117.428 181.008 127.389 199.806" stroke="url(#paint6_linear_202_747)" stroke-width="0.391226" stroke-miterlimit="10"/>
<path d="M-62.0722 35.7884C-62.0722 35.7884 -54.4569 43.3017 -28.9327 38.3613C-26.8199 37.9568 -24.6814 37.7917 -22.5148 37.7483C4.80608 37.2656 28.355 99.8819 52.9597 116.121C75.1425 130.764 88.7588 131.441 103.8 150.07C115.635 164.733 116.695 181.311 126.542 200.269" stroke="url(#paint7_linear_202_747)" stroke-width="0.391226" stroke-miterlimit="10"/>
<path d="M-63.1815 37.7098C-63.1815 37.7098 -56.0428 45.1592 -29.8411 39.329C-27.7103 38.8557 -25.5686 38.666 -23.402 38.6226C4.14988 38.1941 27.5139 102.077 51.2356 118.123C72.2092 132.306 86.5378 133.566 101.887 151.699C113.606 165.543 115.99 181.604 125.71 200.726" stroke="url(#paint8_linear_202_747)" stroke-width="0.391226" stroke-miterlimit="10"/>
<path d="M-64.2853 39.6213C-64.2853 39.6213 -57.6264 47.0313 -30.7496 40.2968C-28.6148 39.7597 -26.4641 39.5355 -24.3033 39.5021C3.4878 39.1324 26.6586 104.277 49.4949 120.116C69.2568 133.823 84.2864 135.687 99.9497 153.314C111.537 166.343 115.255 181.893 124.854 201.169" stroke="url(#paint9_linear_202_747)" stroke-width="0.391226" stroke-miterlimit="10"/>
<path d="M-65.3942 41.5428C-65.3942 41.5428 -59.2128 48.9282 -31.6576 41.2646C-29.5106 40.6686 -27.3509 40.41 -25.1958 40.3865C2.80986 40.0614 25.8235 106.462 47.749 122.119C66.2993 135.351 82.0126 137.847 98.015 154.943C109.461 167.177 114.529 182.187 124 201.626" stroke="url(#paint10_linear_202_747)" stroke-width="0.391226" stroke-miterlimit="10"/>
<path d="M-66.504 43.4643C-66.504 43.4643 -60.7975 50.8396 -32.5639 42.2471C-30.399 41.5822 -28.2361 41.2991 -26.0892 41.2708C2.14747 40.9998 24.9876 108.648 46.0162 124.116C63.363 136.878 79.7379 140.007 96.0934 156.568C107.389 168.002 113.81 182.485 123.153 202.089" stroke="url(#paint11_linear_202_747)" stroke-width="0.391226" stroke-miterlimit="10"/>
<path d="M-67.6138 45.3858C-67.6138 45.3858 -62.3797 52.7657 -33.4727 43.215C-31.2956 42.4911 -29.1319 42.1688 -26.9826 42.1552C1.48508 41.9383 24.1574 110.823 44.2777 126.124C60.4186 138.401 77.4544 142.202 94.1718 158.192C105.314 168.851 113.089 182.769 122.321 202.546" stroke="url(#paint12_linear_202_747)" stroke-width="0.391226" stroke-miterlimit="10"/>
<path d="M-68.7218 47.3072C-68.7218 47.3072 -63.952 54.6963 -34.3855 44.1926C-32.1881 43.4144 -30.0236 43.053 -27.8824 43.0346C0.816213 42.8719 23.3632 112.939 42.5466 128.121C57.524 139.859 75.1529 144.411 92.2437 159.812C103.219 169.701 112.363 183.062 121.473 202.994" stroke="url(#paint13_linear_202_747)" stroke-width="0.391226" stroke-miterlimit="10"/>
<path d="M-69.8315 49.2284C-69.8315 49.2284 -65.5235 56.6415 -35.2943 45.1602C-3.17541 32.9607 21.1674 114.035 40.8 130.124C63.0696 148.383 97.0925 150.845 120.619 203.451" stroke="url(#paint14_linear_202_747)" stroke-width="0.391226" stroke-miterlimit="10"/>
<path d="M149.727 171.695C149.727 171.695 167.648 159.888 174.639 156.016C181.63 152.145 192.274 132.956 182.8 106.024C173.326 79.0918 183.813 41.2739 195.185 35" stroke="url(#paint15_linear_202_747)" stroke-width="0.391226" stroke-miterlimit="10"/>
<path d="M190.005 35C185.239 37.6312 180.203 47.3671 177.834 58.9696C175.437 70.6744 175.751 84.7275 177.492 98.3289C177.834 100.984 178.462 103.561 179.247 106.036C183.713 120.185 185.068 131.667 182.514 140.753C180.217 148.628 176.079 153.939 172.641 155.962C165.721 160.026 148.5 171.346 148.514 171.809" stroke="url(#paint16_linear_202_747)" stroke-width="0.391226" stroke-miterlimit="10"/>
<path d="M184.812 35C180.418 37.4265 175.296 47.6381 173.584 59.0359C171.843 70.536 173.569 84.1615 174.311 98.335C174.454 101.008 174.982 103.585 175.695 106.048C179.662 120.269 183.015 131.276 180.461 140.681C178.363 148.436 174.183 153.716 170.63 155.914C163.767 160.159 147.245 170.996 147.288 171.936" stroke="url(#paint17_linear_202_747)" stroke-width="0.391226" stroke-miterlimit="10"/>
<path d="M179.633 35C175.609 37.2278 170.401 47.909 169.331 59.1141C168.247 70.4095 170.444 83.6016 171.129 98.353C171.258 101.038 171.529 103.615 172.128 106.066C175.681 120.354 180.888 130.885 178.392 140.608C176.437 148.237 172.256 153.493 168.604 155.866C161.798 160.291 145.989 170.653 146.046 172.056" stroke="url(#paint18_linear_202_747)" stroke-width="0.391226" stroke-miterlimit="10"/>
<path d="M174.453 35C170.786 37.0231 165.493 48.174 165.093 59.1804C164.665 70.265 169.302 83.0235 167.961 98.353C167.718 101.056 168.075 103.627 168.589 106.072C171.671 120.426 178.79 130.481 176.351 140.524C174.539 148.032 170.358 153.253 166.62 155.805C159.857 160.405 144.776 170.292 144.847 172.164" stroke="url(#paint19_linear_202_747)" stroke-width="0.391226" stroke-miterlimit="10"/>
<path d="M169.274 35C165.978 36.8183 160.599 48.4449 160.842 59.2526C161.07 70.1326 167.219 82.4576 164.78 98.365C164.366 101.081 164.594 103.658 165.036 106.084C167.633 120.51 176.665 130.084 174.311 140.452C172.627 147.834 168.461 153.03 164.623 155.757C157.903 160.538 143.549 169.949 143.649 172.285" stroke="url(#paint20_linear_202_747)" stroke-width="0.391226" stroke-miterlimit="10"/>
<path d="M164.08 35C161.141 36.6196 155.691 48.7158 156.59 59.3249C157.474 70.0001 165.165 81.8856 161.598 98.3771C161.013 101.105 161.127 103.682 161.484 106.102C163.595 120.601 174.539 129.692 172.256 140.38C170.701 147.635 166.534 152.801 162.611 155.709C155.919 160.658 142.308 169.6 142.422 172.405" stroke="url(#paint21_linear_202_747)" stroke-width="0.391226" stroke-miterlimit="10"/>
<path d="M158.901 35C156.333 36.4149 150.797 48.9808 152.352 59.3971C153.893 69.8676 163.153 81.3196 158.43 98.3831C157.674 101.129 157.674 103.706 157.945 106.108C159.572 120.673 172.427 129.289 170.216 140.295C168.789 147.43 164.637 152.56 160.613 155.649C153.95 160.773 141.081 169.244 141.209 172.514" stroke="url(#paint22_linear_202_747)" stroke-width="0.391226" stroke-miterlimit="10"/>
<path d="M153.722 35C151.525 36.2162 145.903 49.2517 148.101 59.4694C150.298 69.7352 161.141 80.7476 155.234 98.3952C154.307 101.153 154.179 103.73 154.364 106.126C155.506 120.763 170.259 128.898 168.133 140.229C166.82 147.238 162.682 152.337 158.573 155.607C151.939 160.905 139.811 168.901 139.954 172.646" stroke="url(#paint23_linear_202_747)" stroke-width="0.391226" stroke-miterlimit="10"/>
<path d="M148.543 35C146.717 36.0115 141.009 49.5227 143.863 59.5416C146.702 69.6027 159.187 80.1876 152.067 98.4072C150.983 101.183 150.726 103.76 150.826 106.144C151.468 120.854 168.133 128.506 166.107 140.157C164.908 147.039 160.77 152.109 156.604 155.559C149.984 161.026 138.612 168.558 138.769 172.767" stroke="url(#paint24_linear_202_747)" stroke-width="0.391226" stroke-miterlimit="10"/>
<path d="M143.35 35C141.88 35.8068 136.101 49.7876 139.611 59.6139C143.107 69.4703 157.246 79.6277 148.885 98.4192C147.644 101.213 147.245 103.784 147.273 106.156C147.416 120.932 165.978 128.109 164.052 140.079C162.968 146.834 158.844 151.868 154.593 155.504C147.987 161.14 137.371 168.203 137.557 172.881" stroke="url(#paint25_linear_202_747)" stroke-width="0.391226" stroke-miterlimit="10"/>
<path d="M138.17 35C137.072 35.6081 131.193 50.0585 135.36 59.6861C139.511 69.3438 155.335 79.0737 145.704 98.4313C144.305 101.237 143.778 103.808 143.721 106.174C143.35 121.022 163.81 127.717 161.998 140.012C161.013 146.641 156.918 151.645 152.581 155.462C145.989 161.272 136.13 167.865 136.33 173.007" stroke="url(#paint26_linear_202_747)" stroke-width="0.391226" stroke-miterlimit="10"/>
<path d="M132.991 35C132.263 35.4034 126.299 50.3295 131.122 59.7584C135.93 69.2053 153.451 78.5198 142.536 98.4373C140.995 101.261 140.31 103.832 140.182 106.18C139.24 121.1 161.655 127.314 159.957 139.928C159.087 146.437 154.992 151.404 150.583 155.402C144.005 161.381 134.903 167.504 135.117 173.116" stroke="url(#paint27_linear_202_747)" stroke-width="0.391226" stroke-miterlimit="10"/>
<path d="M127.797 35C127.426 35.2047 121.391 50.5944 126.856 59.8306C132.32 69.0729 151.553 77.9719 139.34 98.4493C137.642 101.291 136.815 103.856 136.601 106.198C135.16 121.185 159.401 126.917 157.874 139.856C157.075 146.238 153.009 151.169 148.543 155.354C141.937 161.495 133.619 167.161 133.861 173.236" stroke="url(#paint28_linear_202_747)" stroke-width="0.391226" stroke-miterlimit="10"/>
<path d="M122.617 35C122.617 35 116.497 50.8653 122.617 59.9029C128.738 68.9404 149.726 77.43 136.172 98.4554C122.403 119.83 157.488 124.466 155.847 139.778C154.207 155.089 132.248 162.284 132.676 173.351" stroke="url(#paint29_linear_202_747)" stroke-width="0.391226" stroke-miterlimit="10"/>
<path d="M417.689 42.173C417.689 42.173 395.263 55.697 369.572 68.422C330.486 87.7808 339.686 64.2858 296.828 100.524C255.471 135.502 261.122 160.962 242.342 167.079C223.561 173.196 216.287 169.083 205.175 194.349" stroke="url(#paint30_linear_202_747)" stroke-width="0.391226" stroke-miterlimit="10"/>
<path d="M415.905 39.1973C415.905 39.1973 393.739 55.0453 367.688 66.7079C329.31 83.8908 336.731 63.6221 295.872 98.8891C256.411 132.983 260.486 158.619 241.424 164.401C222.362 170.183 214.966 169.204 204.561 193.63" stroke="url(#paint31_linear_202_747)" stroke-width="0.391226" stroke-miterlimit="10"/>
<path d="M414.134 36.2263C414.134 36.2263 392.256 54.4084 365.818 64.9987C328.196 80.0695 333.782 62.9679 294.931 97.259C257.364 130.468 259.873 156.276 240.521 161.728C221.166 167.195 213.659 169.329 203.953 192.921" stroke="url(#paint32_linear_202_747)" stroke-width="0.391226" stroke-miterlimit="10"/>
<path d="M412.357 33.2607C412.357 33.2607 390.806 53.8064 363.941 63.2946C327.126 76.3028 330.829 62.3043 293.977 95.6244C258.314 127.944 259.247 153.929 239.61 159.06C219.974 164.192 212.346 169.46 203.346 192.212" stroke="url(#paint33_linear_202_747)" stroke-width="0.391226" stroke-miterlimit="10"/>
<path d="M410.58 30.2801C410.58 30.2801 389.382 53.2142 362.072 61.5855C326.116 72.6047 327.88 61.6502 293.044 93.9897C259.275 125.425 258.641 151.581 238.715 156.383C218.789 161.184 211.055 169.577 202.745 191.498" stroke="url(#paint34_linear_202_747)" stroke-width="0.391226" stroke-miterlimit="10"/>
<path d="M408.803 27.3139C408.803 27.3139 387.98 52.6757 360.203 59.8762C325.141 68.9654 324.94 60.9912 292.104 92.3596C260.23 122.911 258.021 149.243 237.813 153.71C217.605 158.176 209.75 169.702 202.147 190.783" stroke="url(#paint35_linear_202_747)" stroke-width="0.391226" stroke-miterlimit="10"/>
<path d="M407.031 24.3432C407.031 24.3432 386.62 52.177 358.332 58.1672C324.21 65.405 321.99 60.3372 291.156 90.72C261.177 120.386 257.4 146.89 236.908 151.037C216.417 155.183 208.436 169.819 201.537 190.074" stroke="url(#paint36_linear_202_747)" stroke-width="0.391226" stroke-miterlimit="10"/>
<path d="M405.26 21.3727C405.26 21.3727 385.285 51.7177 356.468 56.4681C323.317 61.9279 319.055 59.6884 290.221 89.1001C262.145 117.877 256.793 144.558 236.011 148.374C215.229 152.19 207.135 169.955 200.948 189.38" stroke="url(#paint37_linear_202_747)" stroke-width="0.391226" stroke-miterlimit="10"/>
<path d="M403.476 18.3967C403.476 18.3967 383.952 51.3215 354.585 54.7538C322.421 58.5042 316.093 59.0292 289.274 87.4603C263.093 115.353 256.174 142.205 235.102 145.691C214.03 149.177 205.831 170.066 200.334 188.661" stroke="url(#paint38_linear_202_747)" stroke-width="0.391226" stroke-miterlimit="10"/>
<path d="M401.706 15.4261C401.706 15.4261 382.644 51.0039 352.724 53.04C321.564 55.1639 313.155 58.3559 288.336 85.8159C264.05 112.824 255.555 139.852 234.208 143.014C212.852 146.18 204.533 170.187 199.743 187.942" stroke="url(#paint39_linear_202_747)" stroke-width="0.391226" stroke-miterlimit="10"/>
<path d="M399.928 12.4603C399.928 12.4603 381.344 50.7595 350.846 51.3359C320.706 51.9018 310.198 57.7068 287.387 84.191C264.995 110.314 254.934 137.515 233.296 140.346C211.659 143.177 203.218 170.318 199.127 187.237" stroke="url(#paint40_linear_202_747)" stroke-width="0.391226" stroke-miterlimit="10"/>
<path d="M398.151 9.47965C398.151 9.47965 380.045 50.5929 348.976 49.6267C319.85 48.7175 307.258 57.0479 286.445 82.561C265.957 107.795 254.32 135.172 232.393 137.673C210.465 140.174 201.919 170.439 198.527 186.523" stroke="url(#paint41_linear_202_747)" stroke-width="0.391226" stroke-miterlimit="10"/>
<path d="M396.374 6.51361C396.374 6.51361 378.732 50.553 347.099 47.9223C318.97 45.5866 304.31 56.3938 285.499 80.9212C266.906 105.271 253.702 132.819 231.49 135C209.279 137.181 200.606 170.57 197.92 185.814" stroke="url(#paint42_linear_202_747)" stroke-width="0.391226" stroke-miterlimit="10"/>
<path d="M394.603 3.54306C394.603 3.54306 377.41 50.596 345.23 46.2134C318.07 42.519 301.361 55.74 284.558 79.2915C267.86 102.757 253.08 130.481 230.579 132.332C208.077 134.183 199.299 170.696 197.311 185.105" stroke="url(#paint43_linear_202_747)" stroke-width="0.391226" stroke-miterlimit="10"/>
<path d="M392.824 0.577135C392.824 0.577135 376.04 50.7457 343.36 44.5044C317.127 39.4898 298.421 55.0812 283.617 77.6617C268.814 100.242 252.467 128.139 229.675 129.659C206.884 131.18 197.986 170.812 196.703 184.395" stroke="url(#paint44_linear_202_747)" stroke-width="0.391226" stroke-miterlimit="10"/>
<rect x="-1" y="31" width="317" height="87" fill="url(#paint45_linear_202_747)"/>
<defs>
<linearGradient id="paint0_linear_202_747" x1="51.6933" y1="125.249" x2="65.8779" y2="100.629" gradientUnits="userSpaceOnUse">
<stop stop-color="#0F1831"/>
<stop offset="1" stop-color="#3246FF"/>
</linearGradient>
<linearGradient id="paint1_linear_202_747" x1="50.9686" y1="125.928" x2="65.0633" y2="101.464" gradientUnits="userSpaceOnUse">
<stop stop-color="#0F1831"/>
<stop offset="1" stop-color="#3246FF"/>
</linearGradient>
<linearGradient id="paint2_linear_202_747" x1="50.2419" y1="126.61" x2="64.2517" y2="102.294" gradientUnits="userSpaceOnUse">
<stop stop-color="#0F1831"/>
<stop offset="1" stop-color="#3246FF"/>
</linearGradient>
<linearGradient id="paint3_linear_202_747" x1="49.5063" y1="127.296" x2="63.4264" y2="103.136" gradientUnits="userSpaceOnUse">
<stop stop-color="#0F1831"/>
<stop offset="1" stop-color="#3246FF"/>
</linearGradient>
<linearGradient id="paint4_linear_202_747" x1="48.7791" y1="127.968" x2="62.613" y2="103.957" gradientUnits="userSpaceOnUse">
<stop stop-color="#0F1831"/>
<stop offset="1" stop-color="#3246FF"/>
</linearGradient>
<linearGradient id="paint5_linear_202_747" x1="48.0561" y1="128.655" x2="61.8028" y2="104.796" gradientUnits="userSpaceOnUse">
<stop stop-color="#0F1831"/>
<stop offset="1" stop-color="#3246FF"/>
</linearGradient>
<linearGradient id="paint6_linear_202_747" x1="47.3246" y1="129.323" x2="60.9854" y2="105.614" gradientUnits="userSpaceOnUse">
<stop stop-color="#0F1831"/>
<stop offset="1" stop-color="#3246FF"/>
</linearGradient>
<linearGradient id="paint7_linear_202_747" x1="46.5962" y1="130.008" x2="60.1703" y2="106.449" gradientUnits="userSpaceOnUse">
<stop stop-color="#0F1831"/>
<stop offset="1" stop-color="#3246FF"/>
</linearGradient>
<linearGradient id="paint8_linear_202_747" x1="45.8805" y1="130.682" x2="59.3705" y2="107.269" gradientUnits="userSpaceOnUse">
<stop stop-color="#0F1831"/>
<stop offset="1" stop-color="#3246FF"/>
</linearGradient>
<linearGradient id="paint9_linear_202_747" x1="45.1491" y1="131.35" x2="58.5531" y2="108.086" gradientUnits="userSpaceOnUse">
<stop stop-color="#0F1831"/>
<stop offset="1" stop-color="#3246FF"/>
</linearGradient>
<linearGradient id="paint10_linear_202_747" x1="44.4193" y1="132.027" x2="57.7402" y2="108.908" gradientUnits="userSpaceOnUse">
<stop stop-color="#0F1831"/>
<stop offset="1" stop-color="#3246FF"/>
</linearGradient>
<linearGradient id="paint11_linear_202_747" x1="43.6937" y1="132.706" x2="56.9318" y2="109.731" gradientUnits="userSpaceOnUse">
<stop stop-color="#0F1831"/>
<stop offset="1" stop-color="#3246FF"/>
</linearGradient>
<linearGradient id="paint12_linear_202_747" x1="42.9771" y1="133.381" x2="56.1305" y2="110.553" gradientUnits="userSpaceOnUse">
<stop stop-color="#0F1831"/>
<stop offset="1" stop-color="#3246FF"/>
</linearGradient>
<linearGradient id="paint13_linear_202_747" x1="42.2534" y1="134.049" x2="55.323" y2="111.367" gradientUnits="userSpaceOnUse">
<stop stop-color="#0F1831"/>
<stop offset="1" stop-color="#3246FF"/>
</linearGradient>
<linearGradient id="paint14_linear_202_747" x1="41.524" y1="134.724" x2="54.5119" y2="112.183" gradientUnits="userSpaceOnUse">
<stop stop-color="#0F1831"/>
<stop offset="1" stop-color="#3246FF"/>
</linearGradient>
<linearGradient id="paint15_linear_202_747" x1="163.464" y1="113.604" x2="181.358" y2="113.585" gradientUnits="userSpaceOnUse">
<stop stop-color="#0F1831"/>
<stop offset="1" stop-color="#3246FF"/>
</linearGradient>
<linearGradient id="paint16_linear_202_747" x1="161.053" y1="113.67" x2="177.385" y2="113.654" gradientUnits="userSpaceOnUse">
<stop stop-color="#0F1831"/>
<stop offset="1" stop-color="#3246FF"/>
</linearGradient>
<linearGradient id="paint17_linear_202_747" x1="158.628" y1="113.742" x2="173.399" y2="113.73" gradientUnits="userSpaceOnUse">
<stop stop-color="#0F1831"/>
<stop offset="1" stop-color="#3246FF"/>
</linearGradient>
<linearGradient id="paint18_linear_202_747" x1="156.196" y1="113.812" x2="169.417" y2="113.802" gradientUnits="userSpaceOnUse">
<stop stop-color="#0F1831"/>
<stop offset="1" stop-color="#3246FF"/>
</linearGradient>
<linearGradient id="paint19_linear_202_747" x1="154.518" y1="113.874" x2="167.116" y2="113.865" gradientUnits="userSpaceOnUse">
<stop stop-color="#0F1831"/>
<stop offset="1" stop-color="#3246FF"/>
</linearGradient>
<linearGradient id="paint20_linear_202_747" x1="153.032" y1="113.943" x2="165.254" y2="113.935" gradientUnits="userSpaceOnUse">
<stop stop-color="#0F1831"/>
<stop offset="1" stop-color="#3246FF"/>
</linearGradient>
<linearGradient id="paint21_linear_202_747" x1="151.531" y1="114.013" x2="163.398" y2="114.004" gradientUnits="userSpaceOnUse">
<stop stop-color="#0F1831"/>
<stop offset="1" stop-color="#3246FF"/>
</linearGradient>
<linearGradient id="paint22_linear_202_747" x1="150.051" y1="114.075" x2="161.57" y2="114.067" gradientUnits="userSpaceOnUse">
<stop stop-color="#0F1831"/>
<stop offset="1" stop-color="#3246FF"/>
</linearGradient>
<linearGradient id="paint23_linear_202_747" x1="148.532" y1="114.151" x2="159.707" y2="114.144" gradientUnits="userSpaceOnUse">
<stop stop-color="#0F1831"/>
<stop offset="1" stop-color="#3246FF"/>
</linearGradient>
<linearGradient id="paint24_linear_202_747" x1="147.081" y1="114.22" x2="157.91" y2="114.213" gradientUnits="userSpaceOnUse">
<stop stop-color="#0F1831"/>
<stop offset="1" stop-color="#3246FF"/>
</linearGradient>
<linearGradient id="paint25_linear_202_747" x1="145.604" y1="114.286" x2="156.09" y2="114.28" gradientUnits="userSpaceOnUse">
<stop stop-color="#0F1831"/>
<stop offset="1" stop-color="#3246FF"/>
</linearGradient>
<linearGradient id="paint26_linear_202_747" x1="142.416" y1="114.359" x2="153.526" y2="114.352" gradientUnits="userSpaceOnUse">
<stop stop-color="#0F1831"/>
<stop offset="1" stop-color="#3246FF"/>
</linearGradient>
<linearGradient id="paint27_linear_202_747" x1="138.561" y1="114.421" x2="150.683" y2="114.413" gradientUnits="userSpaceOnUse">
<stop stop-color="#0F1831"/>
<stop offset="1" stop-color="#3246FF"/>
</linearGradient>
<linearGradient id="paint28_linear_202_747" x1="134.661" y1="114.49" x2="147.795" y2="114.48" gradientUnits="userSpaceOnUse">
<stop stop-color="#0F1831"/>
<stop offset="1" stop-color="#3246FF"/>
</linearGradient>
<linearGradient id="paint29_linear_202_747" x1="130.778" y1="114.556" x2="144.951" y2="114.544" gradientUnits="userSpaceOnUse">
<stop stop-color="#0F1831"/>
<stop offset="1" stop-color="#3246FF"/>
</linearGradient>
<linearGradient id="paint30_linear_202_747" x1="287.413" y1="115.695" x2="295.034" y2="128.881" gradientUnits="userSpaceOnUse">
<stop stop-color="#0F1831"/>
<stop offset="1" stop-color="#3246FF"/>
</linearGradient>
<linearGradient id="paint31_linear_202_747" x1="286.38" y1="114.153" x2="294.262" y2="127.789" gradientUnits="userSpaceOnUse">
<stop stop-color="#0F1831"/>
<stop offset="1" stop-color="#3246FF"/>
</linearGradient>
<linearGradient id="paint32_linear_202_747" x1="285.344" y1="112.597" x2="293.493" y2="126.695" gradientUnits="userSpaceOnUse">
<stop stop-color="#0F1831"/>
<stop offset="1" stop-color="#3246FF"/>
</linearGradient>
<linearGradient id="paint33_linear_202_747" x1="284.289" y1="111.014" x2="292.715" y2="125.591" gradientUnits="userSpaceOnUse">
<stop stop-color="#0F1831"/>
<stop offset="1" stop-color="#3246FF"/>
</linearGradient>
<linearGradient id="paint34_linear_202_747" x1="283.232" y1="109.412" x2="291.94" y2="124.476" gradientUnits="userSpaceOnUse">
<stop stop-color="#0F1831"/>
<stop offset="1" stop-color="#3246FF"/>
</linearGradient>
<linearGradient id="paint35_linear_202_747" x1="282.16" y1="107.79" x2="291.157" y2="123.353" gradientUnits="userSpaceOnUse">
<stop stop-color="#0F1831"/>
<stop offset="1" stop-color="#3246FF"/>
</linearGradient>
<linearGradient id="paint36_linear_202_747" x1="281.076" y1="106.152" x2="290.367" y2="122.224" gradientUnits="userSpaceOnUse">
<stop stop-color="#0F1831"/>
<stop offset="1" stop-color="#3246FF"/>
</linearGradient>
<linearGradient id="paint37_linear_202_747" x1="279.998" y1="104.513" x2="289.59" y2="121.104" gradientUnits="userSpaceOnUse">
<stop stop-color="#0F1831"/>
<stop offset="1" stop-color="#3246FF"/>
</linearGradient>
<linearGradient id="paint38_linear_202_747" x1="278.892" y1="102.844" x2="288.786" y2="119.956" gradientUnits="userSpaceOnUse">
<stop stop-color="#0F1831"/>
<stop offset="1" stop-color="#3246FF"/>
</linearGradient>
<linearGradient id="paint39_linear_202_747" x1="277.8" y1="101.168" x2="287.999" y2="118.808" gradientUnits="userSpaceOnUse">
<stop stop-color="#0F1831"/>
<stop offset="1" stop-color="#3246FF"/>
</linearGradient>
<linearGradient id="paint40_linear_202_747" x1="276.69" y1="99.5034" x2="287.194" y2="117.669" gradientUnits="userSpaceOnUse">
<stop stop-color="#0F1831"/>
<stop offset="1" stop-color="#3246FF"/>
</linearGradient>
<linearGradient id="paint41_linear_202_747" x1="275.592" y1="97.8305" x2="286.401" y2="116.523" gradientUnits="userSpaceOnUse">
<stop stop-color="#0F1831"/>
<stop offset="1" stop-color="#3246FF"/>
</linearGradient>
<linearGradient id="paint42_linear_202_747" x1="274.485" y1="96.1565" x2="285.6" y2="115.379" gradientUnits="userSpaceOnUse">
<stop stop-color="#0F1831"/>
<stop offset="1" stop-color="#3246FF"/>
</linearGradient>
<linearGradient id="paint43_linear_202_747" x1="273.161" y1="94.1031" x2="284.707" y2="114.068" gradientUnits="userSpaceOnUse">
<stop stop-color="#0F1831"/>
<stop offset="1" stop-color="#3246FF"/>
</linearGradient>
<linearGradient id="paint44_linear_202_747" x1="271.709" y1="91.8348" x2="283.756" y2="112.665" gradientUnits="userSpaceOnUse">
<stop stop-color="#0F1831"/>
<stop offset="1" stop-color="#3246FF"/>
</linearGradient>
<linearGradient id="paint45_linear_202_747" x1="157.5" y1="31" x2="157.5" y2="118" gradientUnits="userSpaceOnUse">
<stop offset="0.494792" stop-color="white"/>
<stop offset="1" stop-color="white" stop-opacity="0"/>
</linearGradient>
</defs>
</svg>
