<svg width="911" height="639" viewBox="0 0 911 639" fill="none" xmlns="http://www.w3.org/2000/svg">
<path d="M827.971 345.192C827.971 345.192 756.454 299.386 733.004 281.516C709.554 263.646 593.325 236.44 430.196 260.656C267.067 284.872 38.0014 258.066 0 229" stroke="url(#paint0_linear_106_113)" stroke-miterlimit="10"/>
<path d="M0 242.238C15.9372 254.419 74.9087 267.293 145.186 273.347C216.083 279.474 301.203 278.672 383.588 274.222C399.671 273.347 415.28 271.742 430.269 269.737C515.973 258.322 585.521 254.857 640.553 261.385C688.256 267.257 720.422 277.833 732.676 286.622C757.293 304.31 825.856 348.329 828.664 348.292" stroke="url(#paint1_linear_106_113)" stroke-miterlimit="10"/>
<path d="M0 255.514C14.6973 266.746 76.5498 279.839 145.587 284.215C215.244 288.664 297.775 284.252 383.624 282.355C399.817 281.991 415.426 280.641 430.342 278.818C516.483 268.679 583.15 260.109 640.116 266.637C687.089 271.998 719.073 282.683 732.384 291.764C758.095 309.306 823.74 351.538 829.43 351.429" stroke="url(#paint2_linear_106_113)" stroke-miterlimit="10"/>
<path d="M0 268.752C13.4938 279.036 78.191 292.348 146.061 295.083C214.478 297.855 294.383 292.238 383.734 290.488C399.999 290.16 415.608 289.467 430.452 287.935C516.994 278.854 580.779 265.543 639.678 271.925C685.885 276.921 717.723 287.607 732.092 296.943C758.897 314.339 821.662 354.747 830.159 354.602" stroke="url(#paint3_linear_106_113)" stroke-miterlimit="10"/>
<path d="M0 281.99C12.2538 291.363 79.7956 304.893 146.462 305.915C213.603 307.009 290.882 295.156 383.734 298.584C400.109 299.204 415.681 298.292 430.488 296.98C517.432 289.102 578.336 270.904 639.167 277.14C684.645 281.772 716.264 292.457 731.727 302.012C759.59 319.299 819.473 357.847 830.816 357.665" stroke="url(#paint4_linear_106_113)" stroke-miterlimit="10"/>
<path d="M0 295.229C11.0138 303.653 81.4368 317.402 146.9 316.782C212.801 316.199 287.454 300.481 383.807 306.717C400.255 307.774 415.864 307.191 430.561 306.06C517.942 299.423 575.929 276.338 638.73 282.355C683.442 286.659 714.915 297.308 731.436 307.118C760.393 324.295 817.395 360.984 831.545 360.728" stroke="url(#paint5_linear_106_113)" stroke-miterlimit="10"/>
<path d="M0 308.504C9.81034 316.017 83.0779 329.948 147.337 327.65C211.998 325.389 283.989 305.732 383.88 314.85C400.401 316.345 416.01 316.053 430.67 315.141C518.489 309.744 573.559 281.772 638.292 287.607C682.238 291.582 713.529 302.231 731.144 312.26C761.122 329.364 815.279 364.157 832.274 363.865" stroke="url(#paint6_linear_106_113)" stroke-miterlimit="10"/>
<path d="M0 321.742C8.57037 328.307 84.6826 342.457 147.775 338.482C211.196 334.543 280.561 310.874 383.916 322.946C400.546 324.879 416.155 324.879 430.707 324.186C518.927 320.028 571.115 287.169 637.782 292.822C680.998 296.469 712.07 307.082 730.779 317.366C761.815 334.397 813.128 367.293 832.931 366.965" stroke="url(#paint7_linear_106_113)" stroke-miterlimit="10"/>
<path d="M0 334.981C7.36687 340.597 86.3237 354.966 148.213 349.35C210.394 343.733 277.097 316.017 383.989 331.115C400.692 333.486 416.301 333.814 430.816 333.34C519.474 330.422 568.745 292.712 637.38 298.146C679.831 301.502 710.721 312.078 730.524 322.581C762.617 339.539 811.049 370.539 833.733 370.174" stroke="url(#paint8_linear_106_113)" stroke-miterlimit="10"/>
<path d="M0 348.219C6.1269 352.887 87.9649 367.475 148.65 360.181C209.591 352.924 273.705 321.013 384.062 339.211C400.875 341.983 416.484 342.639 430.926 342.384C520.021 340.743 566.374 298.146 636.943 303.325C678.628 306.389 709.335 316.965 730.232 327.614C763.347 344.536 808.97 373.602 834.462 373.201" stroke="url(#paint9_linear_106_113)" stroke-miterlimit="10"/>
<path d="M0 361.494C4.88694 365.251 89.5695 380.021 149.088 371.049C208.789 362.114 270.313 325.973 384.135 347.344C401.057 350.517 416.63 351.538 430.999 351.465C520.495 351.1 563.967 303.653 636.469 308.577C677.388 311.349 707.876 321.888 729.904 332.756C764.04 349.642 806.819 376.775 835.155 376.301" stroke="url(#paint10_linear_106_113)" stroke-miterlimit="10"/>
<path d="M0 374.733C3.68344 377.541 91.2106 392.566 149.526 381.917C208.023 371.305 266.958 330.86 384.208 355.477C401.203 359.051 416.775 360.4 431.108 360.546C521.042 361.494 561.596 309.197 636.068 313.828C676.221 316.345 706.527 326.812 729.649 337.898C764.842 354.747 804.776 379.948 835.921 379.437" stroke="url(#paint11_linear_106_113)" stroke-miterlimit="10"/>
<path d="M0 387.971C2.44347 389.831 92.8518 405.076 149.963 392.749C207.184 380.459 263.603 335.674 384.244 363.573C401.349 367.512 416.921 369.262 431.144 369.591C521.516 371.998 559.153 314.704 635.557 319.044C674.981 321.268 705.068 331.735 729.284 343.004C765.498 359.817 802.588 383.084 836.578 382.537" stroke="url(#paint12_linear_106_113)" stroke-miterlimit="10"/>
<path d="M0 401.246C1.23997 402.194 94.4564 417.621 150.401 403.653C206.382 389.685 260.284 340.524 384.317 371.742C401.531 376.082 417.067 378.197 431.254 378.744C522.027 382.428 556.746 320.466 635.119 324.368C673.777 326.41 703.646 336.804 728.992 348.219C766.191 365.105 800.509 386.367 837.307 385.747" stroke="url(#paint13_linear_106_113)" stroke-miterlimit="10"/>
<path d="M0 414.485C0 414.485 96.0976 430.13 150.839 414.485C205.58 398.839 257.002 345.192 384.354 379.839C513.821 415.032 541.903 325.353 634.645 329.547C727.388 333.741 770.969 389.868 838 388.774" stroke="url(#paint14_linear_106_113)" stroke-miterlimit="10"/>
<path d="M0 41.5338C0 41.5338 56.4749 47.5812 129.141 10.1263C204.214 -28.5315 370.42 68.1294 492.473 68.1294C614.527 68.1294 633.807 48.8167 710.57 84.0282C782.943 117.224 793.575 177.535 856 206.212" stroke="url(#paint15_linear_106_113)" stroke-miterlimit="10"/>
<path d="M0 47.8089C0 47.8089 45.258 53.0435 109.243 22.7414C115.291 19.8803 121.566 16.8566 128.003 13.5728C203.856 -25.2802 371.688 74.7296 490.75 75.5099C608.382 76.0951 630.913 57.01 707.644 90.7584C778.359 121.873 791.917 179.291 854.277 208.52" stroke="url(#paint16_linear_106_113)" stroke-miterlimit="10"/>
<path d="M0 54.1161C0 54.1161 43.5998 59.6433 108.203 26.4151C114.185 23.3264 120.428 20.2702 126.833 16.9864C203.433 -22.0616 372.923 81.3295 488.994 82.8901C602.237 84.0605 627.987 65.203 704.685 97.4884C773.742 126.555 790.259 181.014 852.554 210.861" stroke="url(#paint17_linear_106_113)" stroke-miterlimit="10"/>
<path d="M0 60.4238C0 60.4238 41.9742 66.2762 107.163 30.1218C113.047 26.838 119.29 23.7167 125.695 20.4655C203.076 -18.7776 374.191 88.2224 487.271 90.3032C596.092 92.319 625.061 73.4615 701.726 104.251C769.093 131.302 788.601 182.802 850.798 213.202" stroke="url(#paint18_linear_106_113)" stroke-miterlimit="10"/>
<path d="M0 66.7315C0 66.7315 40.3485 72.974 106.122 33.7959C111.942 30.3495 118.119 27.1307 124.524 23.8795C202.685 -15.5587 375.427 94.8877 485.515 97.6838C589.914 100.35 622.102 81.7199 698.768 110.982C764.411 136.049 786.943 184.526 849.042 215.511" stroke="url(#paint19_linear_106_113)" stroke-miterlimit="10"/>
<path d="M0 73.0389C0 73.0389 38.7229 79.7041 105.114 37.5023C110.837 33.8609 117.014 30.5771 123.419 27.3583C202.328 -12.3075 376.695 101.585 483.825 105.097C583.834 108.38 619.176 90.0107 695.874 117.744C759.794 140.861 785.35 186.314 847.352 217.851" stroke="url(#paint20_linear_106_113)" stroke-miterlimit="10"/>
<path d="M0 79.3465C0 79.3465 37.1298 86.4993 104.074 41.1763C109.731 37.3398 115.876 33.9909 122.249 30.7722C201.938 -9.05615 377.963 108.25 482.069 112.51C577.657 116.411 616.185 98.3665 692.883 124.474C755.047 145.64 783.626 188.037 845.563 220.16" stroke="url(#paint21_linear_106_113)" stroke-miterlimit="10"/>
<path d="M0 85.6538C0 85.6538 35.5691 93.3269 103.033 44.8826C108.626 40.8835 114.706 37.4372 121.078 34.2509C201.548 -5.77249 379.198 114.915 480.313 119.922C571.479 124.442 613.161 106.755 689.924 131.237C750.333 150.517 781.968 189.825 843.84 222.501" stroke="url(#paint22_linear_106_113)" stroke-miterlimit="10"/>
<path d="M0 91.9613C0 91.9613 34.041 100.155 101.993 48.5566C107.52 44.3624 113.568 40.851 119.94 37.6648C201.19 -2.5537 380.466 121.516 478.623 127.303C565.4 132.407 610.202 115.143 687.03 137.967C745.684 155.394 780.375 191.548 842.15 224.809" stroke="url(#paint23_linear_106_113)" stroke-miterlimit="10"/>
<path d="M0 98.2361C0 98.2361 32.5454 107.015 100.953 52.2303C106.382 47.8736 112.397 44.2646 118.77 41.1109C200.832 0.69734 381.702 128.148 476.867 134.683C559.222 140.34 607.146 123.564 684.039 144.697C740.904 160.303 778.684 193.304 840.361 227.117" stroke="url(#paint24_linear_106_113)" stroke-miterlimit="10"/>
<path d="M0 104.544C0 104.544 31.0824 113.94 99.9122 55.9045C105.277 51.3852 111.259 47.6787 117.632 44.5575C200.41 3.94886 382.97 134.716 475.111 142.096C553.045 148.306 604.09 132.115 681.08 151.46C736.157 165.31 777.026 195.06 838.606 229.458" stroke="url(#paint25_linear_106_113)" stroke-miterlimit="10"/>
<path d="M0 110.851C0 110.851 29.6518 120.898 98.9043 59.6109C104.204 54.8965 110.154 51.125 116.494 48.0038C200.052 7.20009 384.238 141.283 473.388 149.477C546.932 156.239 601.034 140.666 678.154 158.19C731.41 170.285 775.4 196.815 836.882 231.799" stroke="url(#paint26_linear_106_113)" stroke-miterlimit="10"/>
<path d="M0 117.159C0 117.159 28.2537 127.888 97.8639 63.2851C103.098 58.4082 108.983 54.5391 115.356 51.4504C199.694 10.4516 385.506 147.819 471.665 156.89C540.787 164.173 598.01 149.314 675.228 164.92C726.696 175.325 773.742 198.539 835.192 234.108" stroke="url(#paint27_linear_106_113)" stroke-miterlimit="10"/>
<path d="M0 123.466C0 123.466 26.8882 134.878 96.8235 66.9915C102.026 61.952 107.845 57.9854 114.185 54.8967C199.304 13.7028 386.774 154.159 469.942 164.27C534.675 171.878 594.954 158.028 672.27 171.651C721.917 180.397 772.084 200.294 833.436 236.416" stroke="url(#paint28_linear_106_113)" stroke-miterlimit="10"/>
<path d="M0 129.774C0 129.774 25.5552 141.901 95.783 70.6652C170.4 -5.0249 382.124 159.978 468.186 171.683C565.822 184.981 671.294 142.681 831.68 238.757" stroke="url(#paint29_linear_106_113)" stroke-miterlimit="10"/>
<g opacity="0.4">
<path d="M0 496.608C0 496.608 90.7747 495.15 189.964 500.484C340.869 508.6 272.523 554.617 464.011 525.53C648.807 497.436 675.974 424.75 742.961 436.709C809.949 448.669 824.659 469.706 901.817 422" stroke="url(#paint30_linear_106_113)" stroke-miterlimit="10"/>
<path d="M0.19873 506.745C0.19873 506.745 94.2201 499.026 192.648 507.573C337.655 520.163 280.242 560.614 464.044 531.062C641.618 502.438 673.82 431.608 741.073 444.826C808.326 458.045 828.833 471.33 902.413 424.717" stroke="url(#paint31_linear_106_113)" stroke-miterlimit="10"/>
<path d="M0.36438 516.85C0.36438 516.85 97.5662 502.803 195.298 514.63C334.376 531.46 287.961 566.577 464.044 536.562C634.396 507.408 671.6 438.432 739.151 452.91C806.735 467.354 832.974 472.92 903.01 427.4" stroke="url(#paint32_linear_106_113)" stroke-miterlimit="10"/>
<path d="M0.563232 526.954C0.563232 526.954 100.879 506.447 197.982 521.687C331.063 542.558 295.68 572.573 464.077 542.094C627.174 512.41 669.414 445.29 737.263 460.993C805.112 476.697 837.148 474.51 903.606 430.084" stroke="url(#paint33_linear_106_113)" stroke-miterlimit="10"/>
<path d="M0.728882 537.092C0.728882 537.092 104.126 510.025 200.632 528.743C327.684 553.392 303.4 578.537 464.044 547.594C619.918 517.38 667.161 452.115 735.308 469.077C803.456 486.039 841.223 476.101 904.169 432.767" stroke="url(#paint34_linear_106_113)" stroke-miterlimit="10"/>
<path d="M0.927612 547.196C0.927612 547.196 107.406 513.437 203.282 535.8C324.304 564.026 311.086 584.5 464.044 553.093C612.696 522.349 664.974 458.939 733.387 477.161C801.799 495.382 845.364 477.691 904.732 435.451" stroke="url(#paint35_linear_106_113)" stroke-miterlimit="10"/>
<path d="M1.09338 557.301C1.09338 557.301 110.619 516.684 205.933 542.856C320.925 574.396 318.805 590.463 464.044 558.626C605.474 527.352 662.755 465.797 731.465 485.244C800.176 504.691 849.506 479.314 905.329 438.134" stroke="url(#paint36_linear_106_113)" stroke-miterlimit="10"/>
<path d="M1.25891 567.405C1.25891 567.405 113.833 519.798 208.583 549.88C317.579 584.5 326.491 596.394 464.044 564.092C598.219 532.288 660.535 472.589 729.544 493.295C798.553 514.001 853.647 480.871 905.892 440.751" stroke="url(#paint37_linear_106_113)" stroke-miterlimit="10"/>
<path d="M1.45764 577.543C1.45764 577.543 117.146 522.747 211.267 556.97C314.332 594.472 334.243 602.39 464.044 569.625C590.996 537.291 658.315 479.447 727.622 501.412C796.929 523.376 857.755 482.495 906.488 443.468" stroke="url(#paint38_linear_106_113)" stroke-miterlimit="10"/>
<path d="M1.62329 587.648C1.62329 587.648 120.525 525.464 213.884 564.026C311.119 604.179 341.896 608.387 464.011 575.158C583.741 542.293 656.096 486.305 725.668 509.495C795.273 532.686 861.863 484.085 907.018 446.152" stroke="url(#paint39_linear_106_113)" stroke-miterlimit="10"/>
<path d="M1.82214 597.752C1.82214 597.752 124.004 527.981 216.567 571.083C308.038 613.687 349.648 614.35 464.044 580.657C576.552 547.263 653.909 493.129 723.779 517.579C793.649 542.028 866.037 485.675 907.648 448.835" stroke="url(#paint40_linear_106_113)" stroke-miterlimit="10"/>
<path d="M1.98779 607.89C1.98779 607.89 127.615 530.301 219.218 578.139C305.089 622.997 357.334 620.313 464.044 586.157C569.297 552.232 651.69 499.954 721.858 525.662C792.026 551.371 870.145 487.265 908.211 451.519" stroke="url(#paint41_linear_106_113)" stroke-miterlimit="10"/>
<path d="M2.18652 617.994C2.18652 617.994 131.491 532.321 221.901 585.196C302.306 632.207 365.054 626.277 464.044 591.689C562.074 557.235 649.47 506.812 719.936 533.746C790.403 560.68 874.32 488.856 908.807 454.202" stroke="url(#paint42_linear_106_113)" stroke-miterlimit="10"/>
<path d="M2.35217 628.098C2.35217 628.098 135.533 534.143 224.551 592.252C299.689 641.284 372.773 632.239 464.044 597.188C554.852 562.204 647.283 513.636 718.048 541.829C788.812 570.022 878.461 490.445 909.404 456.885" stroke="url(#paint43_linear_106_113)" stroke-miterlimit="10"/>
<path d="M2.55103 638.203C2.55103 638.203 139.906 535.766 227.202 599.309C297.271 650.328 380.459 638.203 464.044 602.688C547.63 567.173 645.064 520.461 716.127 549.913C787.189 579.365 882.602 492.069 910 459.569" stroke="url(#paint44_linear_106_113)" stroke-miterlimit="10"/>
</g>
<defs>
<linearGradient id="paint0_linear_106_113" x1="476.11" y1="310.079" x2="476.09" y2="264.342" gradientUnits="userSpaceOnUse">
<stop stop-color="#0F1831"/>
<stop offset="1" stop-color="#3246FF"/>
</linearGradient>
<linearGradient id="paint1_linear_106_113" x1="476.509" y1="316.243" x2="476.492" y2="274.496" gradientUnits="userSpaceOnUse">
<stop stop-color="#0F1831"/>
<stop offset="1" stop-color="#3246FF"/>
</linearGradient>
<linearGradient id="paint2_linear_106_113" x1="476.949" y1="322.443" x2="476.935" y2="284.688" gradientUnits="userSpaceOnUse">
<stop stop-color="#0F1831"/>
<stop offset="1" stop-color="#3246FF"/>
</linearGradient>
<linearGradient id="paint3_linear_106_113" x1="477.368" y1="328.658" x2="477.357" y2="294.865" gradientUnits="userSpaceOnUse">
<stop stop-color="#0F1831"/>
<stop offset="1" stop-color="#3246FF"/>
</linearGradient>
<linearGradient id="paint4_linear_106_113" x1="477.746" y1="332.944" x2="477.736" y2="300.744" gradientUnits="userSpaceOnUse">
<stop stop-color="#0F1831"/>
<stop offset="1" stop-color="#3246FF"/>
</linearGradient>
<linearGradient id="paint5_linear_106_113" x1="478.165" y1="336.745" x2="478.156" y2="305.504" gradientUnits="userSpaceOnUse">
<stop stop-color="#0F1831"/>
<stop offset="1" stop-color="#3246FF"/>
</linearGradient>
<linearGradient id="paint6_linear_106_113" x1="478.585" y1="340.58" x2="478.576" y2="310.248" gradientUnits="userSpaceOnUse">
<stop stop-color="#0F1831"/>
<stop offset="1" stop-color="#3246FF"/>
</linearGradient>
<linearGradient id="paint7_linear_106_113" x1="478.962" y1="344.363" x2="478.954" y2="314.921" gradientUnits="userSpaceOnUse">
<stop stop-color="#0F1831"/>
<stop offset="1" stop-color="#3246FF"/>
</linearGradient>
<linearGradient id="paint8_linear_106_113" x1="479.424" y1="348.248" x2="479.416" y2="319.684" gradientUnits="userSpaceOnUse">
<stop stop-color="#0F1831"/>
<stop offset="1" stop-color="#3246FF"/>
</linearGradient>
<linearGradient id="paint9_linear_106_113" x1="479.843" y1="351.955" x2="479.836" y2="324.277" gradientUnits="userSpaceOnUse">
<stop stop-color="#0F1831"/>
<stop offset="1" stop-color="#3246FF"/>
</linearGradient>
<linearGradient id="paint10_linear_106_113" x1="480.242" y1="355.731" x2="480.235" y2="328.929" gradientUnits="userSpaceOnUse">
<stop stop-color="#0F1831"/>
<stop offset="1" stop-color="#3246FF"/>
</linearGradient>
<linearGradient id="paint11_linear_106_113" x1="480.682" y1="363.881" x2="480.674" y2="335.482" gradientUnits="userSpaceOnUse">
<stop stop-color="#0F1831"/>
<stop offset="1" stop-color="#3246FF"/>
</linearGradient>
<linearGradient id="paint12_linear_106_113" x1="481.059" y1="373.732" x2="481.05" y2="342.749" gradientUnits="userSpaceOnUse">
<stop stop-color="#0F1831"/>
<stop offset="1" stop-color="#3246FF"/>
</linearGradient>
<linearGradient id="paint13_linear_106_113" x1="481.479" y1="383.703" x2="481.468" y2="350.132" gradientUnits="userSpaceOnUse">
<stop stop-color="#0F1831"/>
<stop offset="1" stop-color="#3246FF"/>
</linearGradient>
<linearGradient id="paint14_linear_106_113" x1="481.877" y1="393.625" x2="481.865" y2="357.397" gradientUnits="userSpaceOnUse">
<stop stop-color="#0F1831"/>
<stop offset="1" stop-color="#3246FF"/>
</linearGradient>
<linearGradient id="paint15_linear_106_113" x1="492.228" y1="144.196" x2="492.167" y2="63.4183" gradientUnits="userSpaceOnUse">
<stop stop-color="#0F1831"/>
<stop offset="1" stop-color="#3246FF"/>
</linearGradient>
<linearGradient id="paint16_linear_106_113" x1="491.237" y1="146.899" x2="491.177" y2="66.633" gradientUnits="userSpaceOnUse">
<stop stop-color="#0F1831"/>
<stop offset="1" stop-color="#3246FF"/>
</linearGradient>
<linearGradient id="paint17_linear_106_113" x1="490.246" y1="149.611" x2="490.186" y2="69.8296" gradientUnits="userSpaceOnUse">
<stop stop-color="#0F1831"/>
<stop offset="1" stop-color="#3246FF"/>
</linearGradient>
<linearGradient id="paint18_linear_106_113" x1="489.237" y1="152.345" x2="489.177" y2="73.0752" gradientUnits="userSpaceOnUse">
<stop stop-color="#0F1831"/>
<stop offset="1" stop-color="#3246FF"/>
</linearGradient>
<linearGradient id="paint19_linear_106_113" x1="488.227" y1="155.031" x2="488.168" y2="76.2526" gradientUnits="userSpaceOnUse">
<stop stop-color="#0F1831"/>
<stop offset="1" stop-color="#3246FF"/>
</linearGradient>
<linearGradient id="paint20_linear_106_113" x1="487.255" y1="157.753" x2="487.197" y2="79.4709" gradientUnits="userSpaceOnUse">
<stop stop-color="#0F1831"/>
<stop offset="1" stop-color="#3246FF"/>
</linearGradient>
<linearGradient id="paint21_linear_106_113" x1="486.227" y1="160.437" x2="486.169" y2="82.6452" gradientUnits="userSpaceOnUse">
<stop stop-color="#0F1831"/>
<stop offset="1" stop-color="#3246FF"/>
</linearGradient>
<linearGradient id="paint22_linear_106_113" x1="485.236" y1="163.158" x2="485.179" y2="85.86" gradientUnits="userSpaceOnUse">
<stop stop-color="#0F1831"/>
<stop offset="1" stop-color="#3246FF"/>
</linearGradient>
<linearGradient id="paint23_linear_106_113" x1="484.263" y1="165.834" x2="484.207" y2="89.0158" gradientUnits="userSpaceOnUse">
<stop stop-color="#0F1831"/>
<stop offset="1" stop-color="#3246FF"/>
</linearGradient>
<linearGradient id="paint24_linear_106_113" x1="483.235" y1="168.518" x2="483.18" y2="92.1899" gradientUnits="userSpaceOnUse">
<stop stop-color="#0F1831"/>
<stop offset="1" stop-color="#3246FF"/>
</linearGradient>
<linearGradient id="paint25_linear_106_113" x1="482.226" y1="171.223" x2="482.171" y2="95.3688" gradientUnits="userSpaceOnUse">
<stop stop-color="#0F1831"/>
<stop offset="1" stop-color="#3246FF"/>
</linearGradient>
<linearGradient id="paint26_linear_106_113" x1="481.235" y1="173.927" x2="481.18" y2="98.5442" gradientUnits="userSpaceOnUse">
<stop stop-color="#0F1831"/>
<stop offset="1" stop-color="#3246FF"/>
</linearGradient>
<linearGradient id="paint27_linear_106_113" x1="480.263" y1="176.606" x2="480.209" y2="101.706" gradientUnits="userSpaceOnUse">
<stop stop-color="#0F1831"/>
<stop offset="1" stop-color="#3246FF"/>
</linearGradient>
<linearGradient id="paint28_linear_106_113" x1="479.253" y1="179.281" x2="479.2" y2="104.859" gradientUnits="userSpaceOnUse">
<stop stop-color="#0F1831"/>
<stop offset="1" stop-color="#3246FF"/>
</linearGradient>
<linearGradient id="paint29_linear_106_113" x1="478.243" y1="181.979" x2="478.191" y2="108.023" gradientUnits="userSpaceOnUse">
<stop stop-color="#0F1831"/>
<stop offset="1" stop-color="#3246FF"/>
</linearGradient>
<linearGradient id="paint30_linear_106_113" x1="518.574" y1="500.893" x2="518.557" y2="456.389" gradientUnits="userSpaceOnUse">
<stop stop-color="#0F1831"/>
<stop offset="1" stop-color="#3246FF"/>
</linearGradient>
<linearGradient id="paint31_linear_106_113" x1="519.002" y1="506.303" x2="518.983" y2="460.28" gradientUnits="userSpaceOnUse">
<stop stop-color="#0F1831"/>
<stop offset="1" stop-color="#3246FF"/>
</linearGradient>
<linearGradient id="paint32_linear_106_113" x1="519.415" y1="511.755" x2="519.395" y2="464.17" gradientUnits="userSpaceOnUse">
<stop stop-color="#0F1831"/>
<stop offset="1" stop-color="#3246FF"/>
</linearGradient>
<linearGradient id="paint33_linear_106_113" x1="519.842" y1="517.303" x2="519.821" y2="468.102" gradientUnits="userSpaceOnUse">
<stop stop-color="#0F1831"/>
<stop offset="1" stop-color="#3246FF"/>
</linearGradient>
<linearGradient id="paint34_linear_106_113" x1="520.237" y1="522.902" x2="520.214" y2="472.056" gradientUnits="userSpaceOnUse">
<stop stop-color="#0F1831"/>
<stop offset="1" stop-color="#3246FF"/>
</linearGradient>
<linearGradient id="paint35_linear_106_113" x1="520.645" y1="528.572" x2="520.62" y2="476.042" gradientUnits="userSpaceOnUse">
<stop stop-color="#0F1831"/>
<stop offset="1" stop-color="#3246FF"/>
</linearGradient>
<linearGradient id="paint36_linear_106_113" x1="521.058" y1="534.301" x2="521.032" y2="480.052" gradientUnits="userSpaceOnUse">
<stop stop-color="#0F1831"/>
<stop offset="1" stop-color="#3246FF"/>
</linearGradient>
<linearGradient id="paint37_linear_106_113" x1="521.452" y1="540.024" x2="521.425" y2="484.024" gradientUnits="userSpaceOnUse">
<stop stop-color="#0F1831"/>
<stop offset="1" stop-color="#3246FF"/>
</linearGradient>
<linearGradient id="paint38_linear_106_113" x1="521.88" y1="545.863" x2="521.85" y2="488.101" gradientUnits="userSpaceOnUse">
<stop stop-color="#0F1831"/>
<stop offset="1" stop-color="#3246FF"/>
</linearGradient>
<linearGradient id="paint39_linear_106_113" x1="522.255" y1="551.7" x2="522.224" y2="492.159" gradientUnits="userSpaceOnUse">
<stop stop-color="#0F1831"/>
<stop offset="1" stop-color="#3246FF"/>
</linearGradient>
<linearGradient id="paint40_linear_106_113" x1="522.701" y1="557.535" x2="522.668" y2="496.217" gradientUnits="userSpaceOnUse">
<stop stop-color="#0F1831"/>
<stop offset="1" stop-color="#3246FF"/>
</linearGradient>
<linearGradient id="paint41_linear_106_113" x1="523.096" y1="563.371" x2="523.061" y2="500.274" gradientUnits="userSpaceOnUse">
<stop stop-color="#0F1831"/>
<stop offset="1" stop-color="#3246FF"/>
</linearGradient>
<linearGradient id="paint42_linear_106_113" x1="523.523" y1="569.227" x2="523.486" y2="504.341" gradientUnits="userSpaceOnUse">
<stop stop-color="#0F1831"/>
<stop offset="1" stop-color="#3246FF"/>
</linearGradient>
<linearGradient id="paint43_linear_106_113" x1="523.936" y1="576.357" x2="523.896" y2="508.962" gradientUnits="userSpaceOnUse">
<stop stop-color="#0F1831"/>
<stop offset="1" stop-color="#3246FF"/>
</linearGradient>
<linearGradient id="paint44_linear_106_113" x1="524.364" y1="584.219" x2="524.32" y2="513.903" gradientUnits="userSpaceOnUse">
<stop stop-color="#0F1831"/>
<stop offset="1" stop-color="#3246FF"/>
</linearGradient>
</defs>
</svg>
