<svg width="196" height="431" viewBox="0 0 196 431" fill="none" xmlns="http://www.w3.org/2000/svg">
<path d="M76.9814 425.094C76.9814 425.094 122.787 388.431 140.657 376.409C158.528 364.387 185.734 304.803 161.518 221.175C137.302 137.547 164.108 20.1166 193.174 0.635254" stroke="url(#paint0_linear_119_782)" stroke-miterlimit="10"/>
<path d="M179.936 0.635315C167.755 8.80553 154.881 39.0372 148.827 75.0646C142.7 111.41 143.502 155.047 147.952 197.281C148.827 205.526 150.432 213.528 152.437 221.212C163.852 265.148 167.317 300.802 160.789 329.014C154.917 353.469 144.341 369.959 135.552 376.241C117.864 388.861 73.8453 424.009 73.8817 425.449" stroke="url(#paint1_linear_119_782)" stroke-miterlimit="10"/>
<path d="M166.66 0.635254C155.427 8.1698 142.335 39.8784 137.959 75.2702C133.509 110.98 137.922 153.289 139.818 197.3C140.183 205.601 141.533 213.603 143.356 221.25C153.495 265.41 162.065 299.587 155.537 328.79C150.176 352.871 139.49 369.267 130.409 376.091C112.867 389.272 70.6355 422.925 70.7449 425.842" stroke="url(#paint2_linear_119_782)" stroke-miterlimit="10"/>
<path d="M153.422 0.635254C143.137 7.55282 129.826 40.7198 127.091 75.5133C124.319 110.587 129.935 151.55 131.686 197.356C132.014 205.695 132.707 213.696 134.239 221.306C143.32 265.672 156.631 298.371 150.249 328.566C145.253 352.254 134.567 368.575 125.231 375.942C107.835 389.683 67.4264 421.859 67.5723 426.215" stroke="url(#paint3_linear_119_782)" stroke-miterlimit="10"/>
<path d="M140.183 0.635315C130.81 6.91722 117.28 41.5425 116.259 75.719C115.165 110.139 127.017 149.756 123.589 197.356C122.969 205.751 123.881 213.734 125.194 221.325C133.071 265.896 151.27 297.119 145.033 328.304C140.402 351.618 129.716 367.828 120.161 375.755C102.874 390.039 64.326 420.738 64.5084 426.552" stroke="url(#paint4_linear_119_782)" stroke-miterlimit="10"/>
<path d="M126.945 0.635253C118.52 6.28149 104.771 42.3837 105.391 75.9433C105.975 109.727 121.693 147.998 115.457 197.393C114.399 205.825 114.983 213.827 116.113 221.362C122.751 266.158 145.836 295.885 139.819 328.079C135.515 351.001 124.866 367.136 115.056 375.605C97.8786 390.45 61.1901 419.672 61.4454 426.926" stroke="url(#paint5_linear_119_782)" stroke-miterlimit="10"/>
<path d="M113.67 0.635253C106.157 5.66451 92.2258 43.2251 94.5234 76.1677C96.7845 109.316 116.442 146.222 107.324 197.431C105.829 205.9 106.121 213.902 107.032 221.418C112.43 266.438 140.402 294.669 134.567 327.855C130.592 350.384 119.943 366.425 109.914 375.455C92.8093 390.824 58.0172 418.587 58.309 427.3" stroke="url(#paint6_linear_119_782)" stroke-miterlimit="10"/>
<path d="M100.432 0.635253C93.8671 5.02884 79.7169 44.0477 83.6921 76.392C87.6308 108.905 111.3 144.465 99.2282 197.45C97.2953 205.975 97.2953 213.977 97.9882 221.437C102.146 266.663 135.005 293.417 129.352 327.593C125.705 349.748 115.092 365.677 104.808 375.268C87.7767 391.179 54.881 417.484 55.2093 427.636" stroke="url(#paint7_linear_119_782)" stroke-miterlimit="10"/>
<path d="M87.1935 0.635252C81.5771 4.41187 67.2081 44.889 72.8244 76.6164C78.4408 108.493 106.158 142.689 91.0593 197.487C88.6887 206.05 88.3605 214.052 88.8346 221.493C91.7522 266.943 129.462 292.202 124.028 327.388C120.673 349.15 110.096 364.986 99.5931 375.138C82.6348 391.59 51.6355 416.419 52.0002 428.048" stroke="url(#paint8_linear_119_782)" stroke-miterlimit="10"/>
<path d="M73.9547 0.635252C69.2865 3.7762 54.6987 45.7303 61.9926 76.8407C69.2501 108.082 101.161 140.95 82.9627 197.524C80.191 206.143 79.5345 214.145 79.7898 221.549C81.4309 267.224 124.028 290.986 118.849 327.163C115.785 348.533 105.209 364.275 94.56 374.988C77.6381 391.964 48.5717 415.353 48.9729 428.422" stroke="url(#paint9_linear_119_782)" stroke-miterlimit="10"/>
<path d="M60.6794 0.635252C56.923 3.14053 42.1528 46.553 51.1243 77.0651C60.0594 107.671 96.2008 139.211 74.8296 197.562C71.6567 206.237 70.6356 214.22 70.7085 221.586C71.0732 267.467 118.52 289.752 113.597 326.92C110.825 347.897 100.285 363.527 89.4174 374.82C72.532 392.319 45.3985 414.25 45.8726 428.777" stroke="url(#paint10_linear_119_782)" stroke-miterlimit="10"/>
<path d="M47.4409 0.635251C44.6327 2.52356 29.6072 47.3943 40.2564 77.2894C50.869 107.278 91.3139 137.491 66.6969 197.599C63.1228 206.312 61.7735 214.295 61.6276 221.642C60.6794 267.747 112.977 288.537 108.345 326.715C105.829 347.299 95.362 362.836 84.2752 374.689C67.4262 392.731 42.2257 413.203 42.7363 429.169" stroke="url(#paint11_linear_119_782)" stroke-miterlimit="10"/>
<path d="M34.2028 0.635251C32.3428 1.88789 17.0985 48.2356 29.4252 77.5138C41.7155 106.848 86.5003 135.771 58.601 197.618C54.6623 206.386 52.9117 214.37 52.5835 221.661C50.1765 267.99 107.47 287.284 103.13 326.453C100.906 346.663 90.439 362.088 79.1699 374.502C62.3573 393.067 39.0897 412.081 39.6367 429.506" stroke="url(#paint12_linear_119_782)" stroke-miterlimit="10"/>
<path d="M20.9274 0.635251C19.9792 1.27092 4.55248 49.0583 18.5204 77.7381C32.4882 106.437 81.6494 134.07 50.4313 197.655C46.0914 206.48 43.9762 214.444 43.4292 221.717C39.7457 268.252 101.708 286.051 97.8054 326.229C95.7631 346.046 85.3693 361.359 73.9543 374.352C57.0688 393.422 35.807 411.016 36.427 429.88" stroke="url(#paint13_linear_119_782)" stroke-miterlimit="10"/>
<path d="M7.6886 0.63525C7.6886 0.63525 -7.95689 49.8996 7.6886 77.9625C23.3341 106.025 76.981 132.387 42.3348 197.674C7.14155 264.045 96.8205 278.441 92.6264 325.985C88.4324 373.53 32.3056 395.872 33.3997 430.235" stroke="url(#paint14_linear_119_782)" stroke-miterlimit="10"/>
<rect x="0.250977" y="0.635254" width="194.772" height="152.264" fill="white"/>
<defs>
<linearGradient id="paint0_linear_119_782" x1="112.095" y1="244.713" x2="157.832" y2="244.673" gradientUnits="userSpaceOnUse">
<stop stop-color="#0F1831"/>
<stop offset="1" stop-color="#3246FF"/>
</linearGradient>
<linearGradient id="paint1_linear_119_782" x1="105.931" y1="244.917" x2="147.678" y2="244.884" gradientUnits="userSpaceOnUse">
<stop stop-color="#0F1831"/>
<stop offset="1" stop-color="#3246FF"/>
</linearGradient>
<linearGradient id="paint2_linear_119_782" x1="99.7305" y1="245.143" x2="137.486" y2="245.116" gradientUnits="userSpaceOnUse">
<stop stop-color="#0F1831"/>
<stop offset="1" stop-color="#3246FF"/>
</linearGradient>
<linearGradient id="paint3_linear_119_782" x1="93.5158" y1="245.358" x2="127.309" y2="245.336" gradientUnits="userSpaceOnUse">
<stop stop-color="#0F1831"/>
<stop offset="1" stop-color="#3246FF"/>
</linearGradient>
<linearGradient id="paint4_linear_119_782" x1="89.229" y1="245.551" x2="121.43" y2="245.532" gradientUnits="userSpaceOnUse">
<stop stop-color="#0F1831"/>
<stop offset="1" stop-color="#3246FF"/>
</linearGradient>
<linearGradient id="paint5_linear_119_782" x1="85.4284" y1="245.766" x2="116.669" y2="245.748" gradientUnits="userSpaceOnUse">
<stop stop-color="#0F1831"/>
<stop offset="1" stop-color="#3246FF"/>
</linearGradient>
<linearGradient id="paint6_linear_119_782" x1="81.5936" y1="245.981" x2="111.926" y2="245.964" gradientUnits="userSpaceOnUse">
<stop stop-color="#0F1831"/>
<stop offset="1" stop-color="#3246FF"/>
</linearGradient>
<linearGradient id="paint7_linear_119_782" x1="77.8106" y1="246.175" x2="107.253" y2="246.159" gradientUnits="userSpaceOnUse">
<stop stop-color="#0F1831"/>
<stop offset="1" stop-color="#3246FF"/>
</linearGradient>
<linearGradient id="paint8_linear_119_782" x1="73.9264" y1="246.411" x2="102.491" y2="246.396" gradientUnits="userSpaceOnUse">
<stop stop-color="#0F1831"/>
<stop offset="1" stop-color="#3246FF"/>
</linearGradient>
<linearGradient id="paint9_linear_119_782" x1="70.2185" y1="246.626" x2="97.8974" y2="246.612" gradientUnits="userSpaceOnUse">
<stop stop-color="#0F1831"/>
<stop offset="1" stop-color="#3246FF"/>
</linearGradient>
<linearGradient id="paint10_linear_119_782" x1="66.443" y1="246.831" x2="93.2449" y2="246.817" gradientUnits="userSpaceOnUse">
<stop stop-color="#0F1831"/>
<stop offset="1" stop-color="#3246FF"/>
</linearGradient>
<linearGradient id="paint11_linear_119_782" x1="58.2925" y1="247.056" x2="86.6915" y2="247.041" gradientUnits="userSpaceOnUse">
<stop stop-color="#0F1831"/>
<stop offset="1" stop-color="#3246FF"/>
</linearGradient>
<linearGradient id="paint12_linear_119_782" x1="48.442" y1="247.25" x2="79.4246" y2="247.232" gradientUnits="userSpaceOnUse">
<stop stop-color="#0F1831"/>
<stop offset="1" stop-color="#3246FF"/>
</linearGradient>
<linearGradient id="paint13_linear_119_782" x1="38.4708" y1="247.465" x2="72.0417" y2="247.444" gradientUnits="userSpaceOnUse">
<stop stop-color="#0F1831"/>
<stop offset="1" stop-color="#3246FF"/>
</linearGradient>
<linearGradient id="paint14_linear_119_782" x1="28.548" y1="247.669" x2="64.7758" y2="247.645" gradientUnits="userSpaceOnUse">
<stop stop-color="#0F1831"/>
<stop offset="1" stop-color="#3246FF"/>
</linearGradient>
</defs>
</svg>
