<svg width="909" height="1270" viewBox="0 0 909 1270" fill="none" xmlns="http://www.w3.org/2000/svg">
<path d="M-2 450.534C-2 450.534 54.4749 456.581 127.141 419.126C202.214 380.468 368.42 477.129 490.473 477.129C612.527 477.129 631.807 457.817 708.57 493.028C780.943 526.224 791.575 586.535 854 615.212" stroke="url(#paint0_linear_105_194)" stroke-miterlimit="10"/>
<path d="M-2 456.809C-2 456.809 43.258 462.043 107.243 431.741C113.291 428.88 119.566 425.857 126.003 422.573C201.856 383.72 369.688 483.73 488.75 484.51C606.382 485.095 628.913 466.01 705.644 499.758C776.359 530.873 789.917 588.291 852.277 617.52" stroke="url(#paint1_linear_105_194)" stroke-miterlimit="10"/>
<path d="M-2 463.116C-2 463.116 41.5998 468.643 106.203 435.415C112.185 432.326 118.428 429.27 124.833 425.986C201.433 386.938 370.923 490.329 486.994 491.89C600.237 493.061 625.987 474.203 702.685 506.488C771.742 535.555 788.259 590.014 850.554 619.861" stroke="url(#paint2_linear_105_194)" stroke-miterlimit="10"/>
<path d="M-2 469.424C-2 469.424 39.9742 475.276 105.163 439.122C111.047 435.838 117.29 432.717 123.695 429.465C201.076 390.222 372.191 497.222 485.271 499.303C594.092 501.319 623.061 482.462 699.726 513.251C767.093 540.302 786.601 591.802 848.798 622.202" stroke="url(#paint3_linear_105_194)" stroke-miterlimit="10"/>
<path d="M-2 475.731C-2 475.731 38.3485 481.974 104.122 442.796C109.942 439.35 116.119 436.131 122.524 432.879C200.685 393.441 373.427 503.888 483.515 506.684C587.914 509.35 620.102 490.72 696.768 519.982C762.411 545.049 784.943 593.526 847.042 624.511" stroke="url(#paint4_linear_105_194)" stroke-miterlimit="10"/>
<path d="M-2 482.039C-2 482.039 36.7229 488.704 103.114 446.502C108.837 442.861 115.014 439.577 121.419 436.358C200.328 396.693 374.695 510.585 481.825 514.097C581.834 517.38 617.176 499.011 693.874 526.744C757.794 549.861 783.35 595.314 845.352 626.851" stroke="url(#paint5_linear_105_194)" stroke-miterlimit="10"/>
<path d="M-2 488.346C-2 488.346 35.1298 495.499 102.074 450.176C107.731 446.34 113.876 442.991 120.249 439.772C199.938 399.944 375.963 517.25 480.069 521.51C575.657 525.411 614.185 507.367 690.883 533.474C753.047 554.64 781.626 597.037 843.563 629.16" stroke="url(#paint6_linear_105_194)" stroke-miterlimit="10"/>
<path d="M-2 494.654C-2 494.654 33.5691 502.327 101.033 453.883C106.626 449.884 112.706 446.437 119.078 443.251C199.548 403.228 377.198 523.915 478.313 528.922C569.479 533.442 611.161 515.755 687.924 540.237C748.333 559.517 779.968 598.825 841.84 631.501" stroke="url(#paint7_linear_105_194)" stroke-miterlimit="10"/>
<path d="M-2 500.961C-2 500.961 32.041 509.155 99.993 457.557C105.52 453.362 111.568 449.851 117.94 446.665C199.19 406.446 378.466 530.516 476.623 536.303C563.4 541.407 608.202 524.143 685.03 546.967C743.684 564.394 778.375 600.548 840.15 633.809" stroke="url(#paint8_linear_105_194)" stroke-miterlimit="10"/>
<path d="M-2 507.236C-2 507.236 30.5454 516.015 98.9526 461.23C104.382 456.874 110.397 453.265 116.77 450.111C198.832 409.697 379.702 537.148 474.867 543.683C557.222 549.34 605.146 532.564 682.039 553.697C738.904 569.303 776.684 602.304 838.361 636.117" stroke="url(#paint9_linear_105_194)" stroke-miterlimit="10"/>
<path d="M-2 513.544C-2 513.544 29.0824 522.94 97.9122 464.904C103.277 460.385 109.259 456.679 115.632 453.557C198.41 412.949 380.97 543.716 473.111 551.096C551.045 557.306 602.09 541.115 679.08 560.46C734.157 574.31 775.026 604.06 836.606 638.458" stroke="url(#paint10_linear_105_194)" stroke-miterlimit="10"/>
<path d="M-2 519.851C-2 519.851 27.6518 529.898 96.9043 468.611C102.204 463.897 108.154 460.125 114.494 457.004C198.052 416.2 382.238 550.283 471.388 558.477C544.932 565.239 599.034 549.666 676.154 567.19C729.41 579.285 773.4 605.815 834.882 640.799" stroke="url(#paint11_linear_105_194)" stroke-miterlimit="10"/>
<path d="M-2 526.159C-2 526.159 26.2537 536.888 95.8639 472.285C101.098 467.408 106.983 463.539 113.356 460.45C197.694 419.452 383.506 556.819 469.665 565.89C538.787 573.173 596.01 558.314 673.228 573.92C724.696 584.325 771.742 607.539 833.192 643.108" stroke="url(#paint12_linear_105_194)" stroke-miterlimit="10"/>
<path d="M-2 532.466C-2 532.466 24.8882 543.878 94.8235 475.991C100.026 470.952 105.845 466.985 112.185 463.897C197.304 422.703 384.774 563.159 467.942 573.27C532.675 580.878 592.954 567.028 670.27 580.651C719.917 589.397 770.084 609.294 831.436 645.416" stroke="url(#paint13_linear_105_194)" stroke-miterlimit="10"/>
<path d="M-2 538.774C-2 538.774 23.5552 550.901 93.783 479.665C168.4 403.975 380.124 568.978 466.186 580.683C563.822 593.981 669.294 551.681 829.68 647.757" stroke="url(#paint14_linear_105_194)" stroke-miterlimit="10"/>
<path d="M-2 905.608C-2 905.608 88.7747 904.15 187.964 909.484C338.869 917.6 270.523 963.617 462.011 934.53C646.807 906.436 673.974 833.75 740.961 845.709C807.949 857.669 822.659 878.706 899.817 831" stroke="url(#paint15_linear_105_194)" stroke-miterlimit="10"/>
<path d="M-1.80127 915.745C-1.80127 915.745 92.2201 908.026 190.648 916.573C335.655 929.163 278.242 969.614 462.044 940.062C639.618 911.438 671.82 840.608 739.073 853.826C806.326 867.045 826.833 880.33 900.413 833.717" stroke="url(#paint16_linear_105_194)" stroke-miterlimit="10"/>
<path d="M-1.63574 925.85C-1.63574 925.85 95.5661 911.803 193.298 923.63C332.375 940.46 285.961 975.577 462.044 945.562C632.396 916.408 669.6 847.432 737.151 861.91C804.735 876.354 830.974 881.92 901.009 836.4" stroke="url(#paint17_linear_105_194)" stroke-miterlimit="10"/>
<path d="M-1.43701 935.954C-1.43701 935.954 98.879 915.447 195.981 930.687C329.062 951.558 293.68 981.573 462.077 951.094C625.174 921.41 667.414 854.29 735.263 869.993C803.112 885.697 835.148 883.51 901.606 839.084" stroke="url(#paint18_linear_105_194)" stroke-miterlimit="10"/>
<path d="M-1.271 946.092C-1.271 946.092 102.126 919.025 198.632 937.743C325.684 962.392 301.4 987.537 462.044 956.594C617.919 926.38 665.161 861.115 733.309 878.077C801.456 895.039 839.223 885.101 902.169 841.767" stroke="url(#paint19_linear_105_194)" stroke-miterlimit="10"/>
<path d="M-1.07227 956.196C-1.07227 956.196 105.406 922.437 201.282 944.8C322.304 973.026 309.086 993.5 462.044 962.093C610.696 931.349 662.975 867.939 731.387 886.161C799.799 904.382 843.364 886.691 902.732 844.451" stroke="url(#paint20_linear_105_194)" stroke-miterlimit="10"/>
<path d="M-0.906738 966.301C-0.906738 966.301 108.619 925.684 203.933 951.856C318.925 983.396 316.805 999.463 462.044 967.626C603.474 936.352 660.755 874.797 729.465 894.244C798.176 913.691 847.506 888.314 903.329 847.134" stroke="url(#paint21_linear_105_194)" stroke-miterlimit="10"/>
<path d="M-0.741211 976.405C-0.741211 976.405 111.833 928.798 206.583 958.88C315.579 993.5 324.491 1005.39 462.044 973.092C596.218 941.288 658.535 881.589 727.544 902.295C796.552 923.001 851.647 889.871 903.892 849.751" stroke="url(#paint22_linear_105_194)" stroke-miterlimit="10"/>
<path d="M-0.54248 986.543C-0.54248 986.543 115.146 931.747 209.266 965.97C312.332 1003.47 332.243 1011.39 462.044 978.625C588.996 946.291 656.315 888.447 725.622 910.412C794.929 932.376 855.755 891.495 904.488 852.468" stroke="url(#paint23_linear_105_194)" stroke-miterlimit="10"/>
<path d="M-0.376465 996.648C-0.376465 996.648 118.525 934.464 211.884 973.026C309.119 1013.18 339.896 1017.39 462.011 984.158C581.741 951.293 654.096 895.305 723.668 918.495C793.273 941.686 859.863 893.085 905.019 855.152" stroke="url(#paint24_linear_105_194)" stroke-miterlimit="10"/>
<path d="M-0.177734 1006.75C-0.177734 1006.75 122.004 936.981 214.567 980.083C306.038 1022.69 347.648 1023.35 462.044 989.657C574.552 956.263 651.909 902.129 721.779 926.579C791.649 951.028 864.037 894.675 905.648 857.835" stroke="url(#paint25_linear_105_194)" stroke-miterlimit="10"/>
<path d="M-0.012207 1016.89C-0.012207 1016.89 125.615 939.301 217.218 987.139C303.089 1032 355.334 1029.31 462.044 995.157C567.297 961.232 649.69 908.954 719.858 934.662C790.026 960.371 868.145 896.265 906.211 860.519" stroke="url(#paint26_linear_105_194)" stroke-miterlimit="10"/>
<path d="M0.186523 1026.99C0.186523 1026.99 129.491 941.321 219.901 994.196C300.306 1041.21 363.054 1035.28 462.044 1000.69C560.074 966.235 647.47 915.812 717.936 942.746C788.403 969.68 872.32 897.856 906.807 863.202" stroke="url(#paint27_linear_105_194)" stroke-miterlimit="10"/>
<path d="M0.352051 1037.1C0.352051 1037.1 133.532 943.143 222.551 1001.25C297.689 1050.28 370.773 1041.24 462.044 1006.19C552.852 971.204 645.283 922.636 716.048 950.829C786.812 979.022 876.461 899.445 907.403 865.885" stroke="url(#paint28_linear_105_194)" stroke-miterlimit="10"/>
<path d="M0.55127 1047.2C0.55127 1047.2 137.906 944.766 225.202 1008.31C295.271 1059.33 378.459 1047.2 462.045 1011.69C545.63 976.173 643.064 929.461 714.127 958.913C785.189 988.365 880.602 901.069 908 868.569" stroke="url(#paint29_linear_105_194)" stroke-miterlimit="10"/>
<path d="M825.971 754.192C825.971 754.192 754.454 708.386 731.004 690.516C707.554 672.646 591.325 645.44 428.196 669.656C265.067 693.872 36.0014 667.066 -2 638" stroke="url(#paint30_linear_105_194)" stroke-miterlimit="10"/>
<path d="M-2 651.238C13.9372 663.419 72.9087 676.293 143.186 682.347C214.083 688.474 299.203 687.672 381.588 683.222C397.671 682.347 413.28 680.742 428.269 678.737C513.973 667.322 583.521 663.857 638.553 670.385C686.256 676.257 718.422 686.833 730.676 695.622C755.293 713.31 823.856 757.329 826.664 757.292" stroke="url(#paint31_linear_105_194)" stroke-miterlimit="10"/>
<path d="M-2 664.514C12.6973 675.746 74.5498 688.839 143.587 693.215C213.244 697.664 295.775 693.252 381.624 691.355C397.817 690.991 413.426 689.641 428.342 687.818C514.483 677.679 581.15 669.109 638.116 675.637C685.089 680.998 717.073 691.683 730.384 700.764C756.095 718.306 821.74 760.538 827.43 760.429" stroke="url(#paint32_linear_105_194)" stroke-miterlimit="10"/>
<path d="M-2 677.752C11.4938 688.036 76.191 701.348 144.061 704.083C212.478 706.855 292.383 701.238 381.734 699.488C397.999 699.16 413.608 698.467 428.452 696.935C514.994 687.854 578.779 674.543 637.678 680.925C683.885 685.921 715.723 696.607 730.092 705.943C756.897 723.339 819.662 763.747 828.159 763.602" stroke="url(#paint33_linear_105_194)" stroke-miterlimit="10"/>
<path d="M-2 690.99C10.2538 700.363 77.7956 713.893 144.462 714.915C211.603 716.009 288.882 704.156 381.734 707.584C398.109 708.204 413.681 707.292 428.488 705.98C515.432 698.102 576.336 679.904 637.167 686.14C682.645 690.772 714.264 701.457 729.727 711.012C757.59 728.299 817.473 766.847 828.816 766.665" stroke="url(#paint34_linear_105_194)" stroke-miterlimit="10"/>
<path d="M-2 704.229C9.01384 712.653 79.4368 726.402 144.9 725.782C210.801 725.199 285.454 709.481 381.807 715.717C398.255 716.774 413.864 716.191 428.561 715.06C515.942 708.423 573.929 685.338 636.73 691.355C681.442 695.659 712.915 706.308 729.436 716.118C758.393 733.295 815.395 769.984 829.545 769.728" stroke="url(#paint35_linear_105_194)" stroke-miterlimit="10"/>
<path d="M-2 717.504C7.81034 725.017 81.0779 738.948 145.337 736.65C209.998 734.389 281.989 714.732 381.88 723.85C398.401 725.345 414.01 725.053 428.67 724.141C516.489 718.744 571.559 690.772 636.292 696.607C680.238 700.582 711.529 711.231 729.144 721.26C759.122 738.364 813.279 773.157 830.274 772.865" stroke="url(#paint36_linear_105_194)" stroke-miterlimit="10"/>
<path d="M-2 730.742C6.57037 737.307 82.6826 751.457 145.775 747.482C209.196 743.543 278.561 719.874 381.916 731.946C398.546 733.879 414.155 733.879 428.707 733.186C516.927 729.028 569.115 696.169 635.782 701.822C678.998 705.469 710.07 716.082 728.779 726.366C759.815 743.397 811.128 776.293 830.931 775.965" stroke="url(#paint37_linear_105_194)" stroke-miterlimit="10"/>
<path d="M-2 743.981C5.36687 749.597 84.3237 763.966 146.213 758.35C208.394 752.733 275.097 725.017 381.989 740.115C398.692 742.486 414.301 742.814 428.816 742.34C517.474 739.422 566.745 701.712 635.38 707.146C677.831 710.502 708.721 721.078 728.524 731.581C760.617 748.539 809.049 779.539 831.733 779.174" stroke="url(#paint38_linear_105_194)" stroke-miterlimit="10"/>
<path d="M-2 757.219C4.1269 761.887 85.9649 776.475 146.65 769.181C207.591 761.924 271.705 730.013 382.062 748.211C398.875 750.983 414.484 751.639 428.926 751.384C518.021 749.743 564.374 707.146 634.943 712.325C676.628 715.389 707.335 725.965 728.232 736.614C761.347 753.536 806.97 782.602 832.462 782.201" stroke="url(#paint39_linear_105_194)" stroke-miterlimit="10"/>
<path d="M-2 770.494C2.88694 774.251 87.5695 789.021 147.088 780.049C206.789 771.114 268.313 734.973 382.135 756.344C399.057 759.517 414.63 760.538 428.999 760.465C518.495 760.1 561.967 712.653 634.469 717.577C675.388 720.349 705.876 730.888 727.904 741.756C762.04 758.642 804.819 785.775 833.155 785.301" stroke="url(#paint40_linear_105_194)" stroke-miterlimit="10"/>
<path d="M-2 783.733C1.68344 786.541 89.2106 801.566 147.526 790.917C206.023 780.305 264.958 739.86 382.208 764.477C399.203 768.051 414.775 769.4 429.108 769.546C519.042 770.494 559.596 718.197 634.068 722.828C674.221 725.345 704.527 735.812 727.649 746.898C762.842 763.747 802.776 788.948 833.921 788.437" stroke="url(#paint41_linear_105_194)" stroke-miterlimit="10"/>
<path d="M-2 796.971C0.443468 798.831 90.8518 814.076 147.963 801.749C205.184 789.459 261.603 744.674 382.244 772.573C399.349 776.512 414.921 778.262 429.144 778.591C519.516 780.998 557.153 723.704 633.557 728.044C672.981 730.268 703.068 740.735 727.284 752.004C763.498 768.817 800.588 792.084 834.578 791.537" stroke="url(#paint42_linear_105_194)" stroke-miterlimit="10"/>
<path d="M-2 810.246C-0.760031 811.194 92.4564 826.621 148.401 812.653C204.382 798.685 258.284 749.524 382.317 780.742C399.531 785.082 415.067 787.197 429.254 787.744C520.027 791.428 554.746 729.466 633.119 733.368C671.777 735.41 701.646 745.804 726.992 757.219C764.191 774.105 798.509 795.367 835.307 794.747" stroke="url(#paint43_linear_105_194)" stroke-miterlimit="10"/>
<path d="M-2 823.485C-2 823.485 94.0976 839.13 148.839 823.485C203.58 807.839 255.002 754.192 382.354 788.839C511.821 824.032 539.903 734.353 632.645 738.547C725.388 742.741 768.969 798.868 836 797.774" stroke="url(#paint44_linear_105_194)" stroke-miterlimit="10"/>
<rect width="315" height="1270" fill="url(#paint45_linear_105_194)"/>
<defs>
<linearGradient id="paint0_linear_105_194" x1="490.228" y1="553.196" x2="490.167" y2="472.418" gradientUnits="userSpaceOnUse">
<stop stop-color="#0F1831"/>
<stop offset="1" stop-color="#3246FF"/>
</linearGradient>
<linearGradient id="paint1_linear_105_194" x1="489.237" y1="555.899" x2="489.177" y2="475.633" gradientUnits="userSpaceOnUse">
<stop stop-color="#0F1831"/>
<stop offset="1" stop-color="#3246FF"/>
</linearGradient>
<linearGradient id="paint2_linear_105_194" x1="488.246" y1="558.611" x2="488.186" y2="478.83" gradientUnits="userSpaceOnUse">
<stop stop-color="#0F1831"/>
<stop offset="1" stop-color="#3246FF"/>
</linearGradient>
<linearGradient id="paint3_linear_105_194" x1="487.237" y1="561.345" x2="487.177" y2="482.075" gradientUnits="userSpaceOnUse">
<stop stop-color="#0F1831"/>
<stop offset="1" stop-color="#3246FF"/>
</linearGradient>
<linearGradient id="paint4_linear_105_194" x1="486.227" y1="564.031" x2="486.168" y2="485.253" gradientUnits="userSpaceOnUse">
<stop stop-color="#0F1831"/>
<stop offset="1" stop-color="#3246FF"/>
</linearGradient>
<linearGradient id="paint5_linear_105_194" x1="485.255" y1="566.753" x2="485.197" y2="488.471" gradientUnits="userSpaceOnUse">
<stop stop-color="#0F1831"/>
<stop offset="1" stop-color="#3246FF"/>
</linearGradient>
<linearGradient id="paint6_linear_105_194" x1="484.227" y1="569.437" x2="484.169" y2="491.645" gradientUnits="userSpaceOnUse">
<stop stop-color="#0F1831"/>
<stop offset="1" stop-color="#3246FF"/>
</linearGradient>
<linearGradient id="paint7_linear_105_194" x1="483.236" y1="572.158" x2="483.179" y2="494.86" gradientUnits="userSpaceOnUse">
<stop stop-color="#0F1831"/>
<stop offset="1" stop-color="#3246FF"/>
</linearGradient>
<linearGradient id="paint8_linear_105_194" x1="482.263" y1="574.834" x2="482.207" y2="498.016" gradientUnits="userSpaceOnUse">
<stop stop-color="#0F1831"/>
<stop offset="1" stop-color="#3246FF"/>
</linearGradient>
<linearGradient id="paint9_linear_105_194" x1="481.235" y1="577.518" x2="481.18" y2="501.19" gradientUnits="userSpaceOnUse">
<stop stop-color="#0F1831"/>
<stop offset="1" stop-color="#3246FF"/>
</linearGradient>
<linearGradient id="paint10_linear_105_194" x1="480.226" y1="580.223" x2="480.171" y2="504.369" gradientUnits="userSpaceOnUse">
<stop stop-color="#0F1831"/>
<stop offset="1" stop-color="#3246FF"/>
</linearGradient>
<linearGradient id="paint11_linear_105_194" x1="479.235" y1="582.927" x2="479.18" y2="507.544" gradientUnits="userSpaceOnUse">
<stop stop-color="#0F1831"/>
<stop offset="1" stop-color="#3246FF"/>
</linearGradient>
<linearGradient id="paint12_linear_105_194" x1="478.263" y1="585.606" x2="478.209" y2="510.706" gradientUnits="userSpaceOnUse">
<stop stop-color="#0F1831"/>
<stop offset="1" stop-color="#3246FF"/>
</linearGradient>
<linearGradient id="paint13_linear_105_194" x1="477.253" y1="588.281" x2="477.2" y2="513.859" gradientUnits="userSpaceOnUse">
<stop stop-color="#0F1831"/>
<stop offset="1" stop-color="#3246FF"/>
</linearGradient>
<linearGradient id="paint14_linear_105_194" x1="476.243" y1="590.979" x2="476.191" y2="517.023" gradientUnits="userSpaceOnUse">
<stop stop-color="#0F1831"/>
<stop offset="1" stop-color="#3246FF"/>
</linearGradient>
<linearGradient id="paint15_linear_105_194" x1="516.574" y1="909.893" x2="516.557" y2="865.389" gradientUnits="userSpaceOnUse">
<stop stop-color="#0F1831"/>
<stop offset="1" stop-color="#3246FF"/>
</linearGradient>
<linearGradient id="paint16_linear_105_194" x1="517.002" y1="915.303" x2="516.983" y2="869.28" gradientUnits="userSpaceOnUse">
<stop stop-color="#0F1831"/>
<stop offset="1" stop-color="#3246FF"/>
</linearGradient>
<linearGradient id="paint17_linear_105_194" x1="517.415" y1="920.755" x2="517.395" y2="873.17" gradientUnits="userSpaceOnUse">
<stop stop-color="#0F1831"/>
<stop offset="1" stop-color="#3246FF"/>
</linearGradient>
<linearGradient id="paint18_linear_105_194" x1="517.842" y1="926.303" x2="517.821" y2="877.102" gradientUnits="userSpaceOnUse">
<stop stop-color="#0F1831"/>
<stop offset="1" stop-color="#3246FF"/>
</linearGradient>
<linearGradient id="paint19_linear_105_194" x1="518.237" y1="931.902" x2="518.214" y2="881.056" gradientUnits="userSpaceOnUse">
<stop stop-color="#0F1831"/>
<stop offset="1" stop-color="#3246FF"/>
</linearGradient>
<linearGradient id="paint20_linear_105_194" x1="518.645" y1="937.572" x2="518.62" y2="885.042" gradientUnits="userSpaceOnUse">
<stop stop-color="#0F1831"/>
<stop offset="1" stop-color="#3246FF"/>
</linearGradient>
<linearGradient id="paint21_linear_105_194" x1="519.058" y1="943.301" x2="519.032" y2="889.052" gradientUnits="userSpaceOnUse">
<stop stop-color="#0F1831"/>
<stop offset="1" stop-color="#3246FF"/>
</linearGradient>
<linearGradient id="paint22_linear_105_194" x1="519.452" y1="949.024" x2="519.425" y2="893.024" gradientUnits="userSpaceOnUse">
<stop stop-color="#0F1831"/>
<stop offset="1" stop-color="#3246FF"/>
</linearGradient>
<linearGradient id="paint23_linear_105_194" x1="519.88" y1="954.863" x2="519.85" y2="897.101" gradientUnits="userSpaceOnUse">
<stop stop-color="#0F1831"/>
<stop offset="1" stop-color="#3246FF"/>
</linearGradient>
<linearGradient id="paint24_linear_105_194" x1="520.255" y1="960.7" x2="520.224" y2="901.159" gradientUnits="userSpaceOnUse">
<stop stop-color="#0F1831"/>
<stop offset="1" stop-color="#3246FF"/>
</linearGradient>
<linearGradient id="paint25_linear_105_194" x1="520.702" y1="966.535" x2="520.668" y2="905.217" gradientUnits="userSpaceOnUse">
<stop stop-color="#0F1831"/>
<stop offset="1" stop-color="#3246FF"/>
</linearGradient>
<linearGradient id="paint26_linear_105_194" x1="521.096" y1="972.371" x2="521.061" y2="909.274" gradientUnits="userSpaceOnUse">
<stop stop-color="#0F1831"/>
<stop offset="1" stop-color="#3246FF"/>
</linearGradient>
<linearGradient id="paint27_linear_105_194" x1="521.523" y1="978.227" x2="521.486" y2="913.341" gradientUnits="userSpaceOnUse">
<stop stop-color="#0F1831"/>
<stop offset="1" stop-color="#3246FF"/>
</linearGradient>
<linearGradient id="paint28_linear_105_194" x1="521.936" y1="985.357" x2="521.896" y2="917.962" gradientUnits="userSpaceOnUse">
<stop stop-color="#0F1831"/>
<stop offset="1" stop-color="#3246FF"/>
</linearGradient>
<linearGradient id="paint29_linear_105_194" x1="522.364" y1="993.219" x2="522.32" y2="922.903" gradientUnits="userSpaceOnUse">
<stop stop-color="#0F1831"/>
<stop offset="1" stop-color="#3246FF"/>
</linearGradient>
<linearGradient id="paint30_linear_105_194" x1="474.11" y1="719.079" x2="474.09" y2="673.342" gradientUnits="userSpaceOnUse">
<stop stop-color="#0F1831"/>
<stop offset="1" stop-color="#3246FF"/>
</linearGradient>
<linearGradient id="paint31_linear_105_194" x1="474.509" y1="725.243" x2="474.492" y2="683.496" gradientUnits="userSpaceOnUse">
<stop stop-color="#0F1831"/>
<stop offset="1" stop-color="#3246FF"/>
</linearGradient>
<linearGradient id="paint32_linear_105_194" x1="474.949" y1="731.443" x2="474.935" y2="693.688" gradientUnits="userSpaceOnUse">
<stop stop-color="#0F1831"/>
<stop offset="1" stop-color="#3246FF"/>
</linearGradient>
<linearGradient id="paint33_linear_105_194" x1="475.368" y1="737.658" x2="475.357" y2="703.865" gradientUnits="userSpaceOnUse">
<stop stop-color="#0F1831"/>
<stop offset="1" stop-color="#3246FF"/>
</linearGradient>
<linearGradient id="paint34_linear_105_194" x1="475.746" y1="741.944" x2="475.736" y2="709.744" gradientUnits="userSpaceOnUse">
<stop stop-color="#0F1831"/>
<stop offset="1" stop-color="#3246FF"/>
</linearGradient>
<linearGradient id="paint35_linear_105_194" x1="476.165" y1="745.745" x2="476.156" y2="714.504" gradientUnits="userSpaceOnUse">
<stop stop-color="#0F1831"/>
<stop offset="1" stop-color="#3246FF"/>
</linearGradient>
<linearGradient id="paint36_linear_105_194" x1="476.585" y1="749.58" x2="476.576" y2="719.248" gradientUnits="userSpaceOnUse">
<stop stop-color="#0F1831"/>
<stop offset="1" stop-color="#3246FF"/>
</linearGradient>
<linearGradient id="paint37_linear_105_194" x1="476.962" y1="753.363" x2="476.954" y2="723.921" gradientUnits="userSpaceOnUse">
<stop stop-color="#0F1831"/>
<stop offset="1" stop-color="#3246FF"/>
</linearGradient>
<linearGradient id="paint38_linear_105_194" x1="477.424" y1="757.248" x2="477.416" y2="728.684" gradientUnits="userSpaceOnUse">
<stop stop-color="#0F1831"/>
<stop offset="1" stop-color="#3246FF"/>
</linearGradient>
<linearGradient id="paint39_linear_105_194" x1="477.843" y1="760.955" x2="477.836" y2="733.277" gradientUnits="userSpaceOnUse">
<stop stop-color="#0F1831"/>
<stop offset="1" stop-color="#3246FF"/>
</linearGradient>
<linearGradient id="paint40_linear_105_194" x1="478.242" y1="764.731" x2="478.235" y2="737.929" gradientUnits="userSpaceOnUse">
<stop stop-color="#0F1831"/>
<stop offset="1" stop-color="#3246FF"/>
</linearGradient>
<linearGradient id="paint41_linear_105_194" x1="478.682" y1="772.881" x2="478.674" y2="744.482" gradientUnits="userSpaceOnUse">
<stop stop-color="#0F1831"/>
<stop offset="1" stop-color="#3246FF"/>
</linearGradient>
<linearGradient id="paint42_linear_105_194" x1="479.059" y1="782.732" x2="479.05" y2="751.749" gradientUnits="userSpaceOnUse">
<stop stop-color="#0F1831"/>
<stop offset="1" stop-color="#3246FF"/>
</linearGradient>
<linearGradient id="paint43_linear_105_194" x1="479.479" y1="792.703" x2="479.468" y2="759.132" gradientUnits="userSpaceOnUse">
<stop stop-color="#0F1831"/>
<stop offset="1" stop-color="#3246FF"/>
</linearGradient>
<linearGradient id="paint44_linear_105_194" x1="479.877" y1="802.625" x2="479.865" y2="766.397" gradientUnits="userSpaceOnUse">
<stop stop-color="#0F1831"/>
<stop offset="1" stop-color="#3246FF"/>
</linearGradient>
<linearGradient id="paint45_linear_105_194" x1="-7.91175e-06" y1="550.636" x2="315" y2="550.636" gradientUnits="userSpaceOnUse">
<stop stop-color="white"/>
<stop offset="1" stop-color="white" stop-opacity="0"/>
</linearGradient>
</defs>
</svg>
