<svg width="44" height="44" viewBox="0 0 44 44" fill="none" xmlns="http://www.w3.org/2000/svg">
<path d="M37.083 13.4482C37.0551 13.1665 36.9562 12.8964 36.7955 12.6632C36.6348 12.4301 36.4176 12.2416 36.1641 12.1153L22.7505 5.40846C22.5176 5.29189 22.2607 5.2312 22.0002 5.2312C21.7397 5.2312 21.4828 5.29189 21.2499 5.40846L7.83627 12.1153C7.58354 12.2423 7.36698 12.4311 7.20665 12.6641C7.04632 12.8971 6.94742 13.1668 6.91911 13.4482C6.90067 13.6277 5.3078 31.5013 21.3203 38.6222C21.5343 38.7188 21.7663 38.7687 22.001 38.7687C22.2358 38.7687 22.4678 38.7188 22.6818 38.6222C38.6943 31.5013 37.1014 13.6293 37.083 13.4482ZM22.001 35.2403C10.6514 29.7542 10.1149 18.0458 10.2071 14.6806L22.001 8.78366L33.7866 14.6773C33.8486 18.0122 33.2366 29.7978 22.001 35.2403Z" fill="white"/>
<path d="M20.3244 22.9819L16.4797 19.1373L14.1089 21.5081L20.3244 27.7236L29.8933 18.1547L27.5225 15.7838L20.3244 22.9819Z" fill="white"/>
</svg>
