<svg width="26" height="25" viewBox="0 0 26 25" fill="none" xmlns="http://www.w3.org/2000/svg">
<path fill-rule="evenodd" clip-rule="evenodd" d="M0.814453 2.08864C0.814453 1.5347 1.03451 1.00345 1.4262 0.61175C1.8179 0.220055 2.34915 2.78445e-06 2.90309 2.78445e-06H23.7235C23.9981 -0.00044557 24.27 0.0532561 24.5237 0.158033C24.7774 0.26281 25.008 0.416605 25.2022 0.610612C25.3965 0.804619 25.5505 1.03503 25.6556 1.28865C25.7606 1.54227 25.8146 1.81412 25.8144 2.08864V22.9091C25.8147 23.1837 25.7609 23.4556 25.656 23.7093C25.5511 23.9631 25.3972 24.1936 25.2031 24.3879C25.009 24.5821 24.7785 24.7361 24.5248 24.8411C24.2712 24.9462 23.9992 25.0001 23.7247 25H2.90309C2.62871 25 2.35702 24.9459 2.10354 24.8409C1.85006 24.7359 1.61976 24.5819 1.4258 24.3879C1.23184 24.1938 1.07801 23.9634 0.973115 23.7099C0.868218 23.4563 0.814304 23.1846 0.814453 22.9102V2.08864ZM10.7099 9.53182H14.0951V11.2318C14.5838 10.2545 15.8338 9.375 17.7122 9.375C21.3133 9.375 22.1667 11.3216 22.1667 14.8932V21.5091H18.5224V15.7068C18.5224 13.6727 18.0338 12.525 16.7929 12.525C15.0713 12.525 14.3554 13.7625 14.3554 15.7068V21.5091H10.7099V9.53182ZM4.45991 21.3534H8.10536V9.375H4.45991V21.3523V21.3534ZM8.62695 5.46818C8.63383 5.78031 8.57828 6.09067 8.46359 6.38104C8.34889 6.67141 8.17735 6.93595 7.95903 7.15913C7.74072 7.38231 7.48002 7.55963 7.19224 7.68069C6.90447 7.80175 6.59541 7.86411 6.2832 7.86411C5.971 7.86411 5.66194 7.80175 5.37416 7.68069C5.08639 7.55963 4.82569 7.38231 4.60737 7.15913C4.38905 6.93595 4.21751 6.67141 4.10282 6.38104C3.98812 6.09067 3.93258 5.78031 3.93945 5.46818C3.95294 4.85552 4.2058 4.27249 4.64387 3.84396C5.08194 3.41544 5.67039 3.17548 6.2832 3.17548C6.89602 3.17548 7.48447 3.41544 7.92254 3.84396C8.36061 4.27249 8.61346 4.85552 8.62695 5.46818Z" fill="white"/>
</svg>
