<svg width="216" height="32" viewBox="0 0 216 32" fill="none" xmlns="http://www.w3.org/2000/svg">
<path d="M78.5097 11.1262C78.5097 5.32624 76.4787 2.99986 71.1046 2.99986H55.4819V25.1164H61.2623V8.13063H69.9485C72.2294 8.13063 72.5731 8.83173 72.5731 11.1262C72.5731 13.9625 72.2294 14.313 69.9485 14.313H63.4856L65.454 19.4438H71.1046C77.1661 19.4438 78.5097 17.3405 78.5097 11.1262Z" fill="black"/>
<path d="M85.5496 25.1164V2.99986H80.5816V25.1164H85.5496Z" fill="black"/>
<path d="M124.367 16.2251V11.5724C124.367 5.29437 121.68 2.99986 115.65 2.99986H99.6208V25.1164H105.401V8.13063H115.493C117.524 8.13063 118.399 8.73613 118.399 11.5724V16.2251C118.399 18.5515 117.618 19.9856 115.493 19.9856H107.624L109.593 25.1164H116.431C122.461 25.1164 124.367 22.2482 124.367 16.2251Z" fill="black"/>
<path d="M132.066 6.88777V2.99986H127.098V6.88777H132.066ZM132.066 25.1164V9.62843H127.098V25.1164H132.066Z" fill="black"/>
<path d="M155.914 24.4471V9.62843H150.946V21.2284H142.135C140.011 21.2284 139.573 20.6548 139.573 17.468C139.573 13.8988 139.823 13.5163 142.135 13.5163H148.723L147.036 9.62843H140.448C135.261 9.62843 134.605 12.4328 134.605 17.468C134.605 21.8339 135.105 25.1164 140.448 25.1164H150.946V25.7856C150.946 27.9526 150.478 28.3032 148.353 28.3032H135.386C135.918 31.5537 137.73 31.9999 142.323 31.9999H148.509C154.383 31.9999 155.914 30.2153 155.914 24.4471Z" fill="black"/>
<path d="M163.707 6.88777V2.99986H158.739V6.88777H163.707ZM163.707 25.1164V9.62843H158.739V25.1164H163.707Z" fill="black"/>
<path d="M185.088 20.6867H173.277C172.371 20.6867 172.152 20.3043 172.152 19.3801V14.0581H183.336L184.908 9.62843H172.152V6.37788H167.184V9.62843H165.341V14.0581H167.184V20.8142C167.184 24.7021 169.84 25.1164 172.996 25.1164H179.558C183.151 25.1164 184.744 23.6823 185.088 20.6867Z" fill="black"/>
<path d="M207.637 25.1164V9.62843H192.358C188.671 9.62843 186.609 11.7636 186.609 15.8427V17.9779C186.609 22.6944 188.171 25.1164 192.358 25.1164H198.977L200.445 20.6867H194.295C192.264 20.6867 191.577 20.7185 191.577 17.3724C191.577 14.5043 191.67 14.0581 194.295 14.0581H202.669V25.1164H207.637Z" fill="black"/>
<path d="M216 25.1164V0.928589H211.032V25.1164H216Z" fill="black"/>
<path d="M39.3023 2.99988L45.2912 13.9757L39.3023 24.9516H32.7455L32.7693 24.9081L26.1964 24.8601L29.4748 18.9519L35.9933 18.9994L38.7345 13.9757L35.9752 8.91889L3.2784 8.99953L0 2.99988H39.3023Z" fill="black"/>
<path d="M12.5457 13.9757H5.98893L0 24.9516H6.55677L12.5457 13.9757Z" fill="black"/>
<path d="M19.0871 13.9757H25.6439L19.655 24.9516H13.0982L19.0871 13.9757Z" fill="black"/>
</svg>
