<svg width="216" height="32" viewBox="0 0 216 32" fill="none" xmlns="http://www.w3.org/2000/svg">
<path d="M78.5097 11.1264C78.5097 5.32636 76.4787 2.99999 71.1046 2.99999H55.4819V25.1165H61.2623V8.13075H69.9485C72.2294 8.13075 72.5731 8.83185 72.5731 11.1264C72.5731 13.9626 72.2294 14.3132 69.9485 14.3132H63.4856L65.454 19.4439H71.1046C77.1661 19.4439 78.5097 17.3406 78.5097 11.1264Z" fill="white"/>
<path d="M85.5496 25.1165V2.99999H80.5816V25.1165H85.5496Z" fill="white"/>
<path d="M124.367 16.2252V11.5725C124.367 5.29449 121.68 2.99999 115.65 2.99999H99.6208V25.1165H105.401V8.13075H115.493C117.524 8.13075 118.399 8.73625 118.399 11.5725V16.2252C118.399 18.5516 117.618 19.9857 115.493 19.9857H107.624L109.593 25.1165H116.431C122.461 25.1165 124.367 22.2483 124.367 16.2252Z" fill="white"/>
<path d="M132.066 6.88789V2.99999H127.098V6.88789H132.066ZM132.066 25.1165V9.62855H127.098V25.1165H132.066Z" fill="white"/>
<path d="M155.914 24.4473V9.62855H150.946V21.2286H142.135C140.011 21.2286 139.573 20.6549 139.573 17.4681C139.573 13.8989 139.823 13.5165 142.135 13.5165H148.723L147.036 9.62855H140.448C135.261 9.62855 134.605 12.4329 134.605 17.4681C134.605 21.834 135.105 25.1165 140.448 25.1165H150.946V25.7857C150.946 27.9527 150.478 28.3033 148.353 28.3033H135.386C135.918 31.5538 137.73 32 142.323 32H148.509C154.383 32 155.914 30.2154 155.914 24.4473Z" fill="white"/>
<path d="M163.707 6.88789V2.99999H158.739V6.88789H163.707ZM163.707 25.1165V9.62855H158.739V25.1165H163.707Z" fill="white"/>
<path d="M185.088 20.6868H173.277C172.371 20.6868 172.152 20.3044 172.152 19.3802V14.0582H183.336L184.908 9.62855H172.152V6.378H167.184V9.62855H165.341V14.0582H167.184V20.8143C167.184 24.7022 169.84 25.1165 172.996 25.1165H179.558C183.151 25.1165 184.744 23.6824 185.088 20.6868Z" fill="white"/>
<path d="M207.637 25.1165V9.62855H192.358C188.671 9.62855 186.609 11.7637 186.609 15.8428V17.978C186.609 22.6945 188.171 25.1165 192.358 25.1165H198.977L200.445 20.6868H194.295C192.264 20.6868 191.577 20.7187 191.577 17.3725C191.577 14.5044 191.67 14.0582 194.295 14.0582H202.669V25.1165H207.637Z" fill="white"/>
<path d="M216 25.1165V0.928711H211.032V25.1165H216Z" fill="white"/>
<path d="M39.3023 3L45.2912 13.9758L39.3023 24.9517H32.7455L32.7693 24.9082L26.1964 24.8603L29.4748 18.952L35.9933 18.9995L38.7345 13.9758L35.9752 8.91901L3.2784 8.99965L0 3H39.3023Z" fill="#4FA0FF"/>
<path d="M12.5457 13.9758H5.98893L0 24.9517H6.55677L12.5457 13.9758Z" fill="#4FA0FF"/>
<path d="M19.0871 13.9758H25.6439L19.655 24.9517H13.0982L19.0871 13.9758Z" fill="#4FA0FF"/>
</svg>
