<svg width="853" height="250" viewBox="0 0 853 250" fill="none" xmlns="http://www.w3.org/2000/svg">
<path d="M120.722 163.734L120.77 129.424L105.786 120.834V155.192L120.722 163.734Z" stroke="#3246FF" stroke-width="0.35"/>
<path d="M120.722 163.734L105.833 172.348L90.873 163.734L105.785 155.192L120.722 163.734Z" stroke="#3246FF" stroke-width="0.35"/>
<path d="M105.809 189.503L105.833 172.347L90.873 163.734V180.961L105.809 189.503Z" stroke="#3246FF" stroke-width="0.35"/>
<path d="M105.81 189.574L75.9849 206.682L61.001 198.068L90.8733 181.032L105.81 189.574Z" stroke="#3246FF" stroke-width="0.35"/>
<path d="M75.961 138.061L75.9849 206.682L61.001 198.068L61.0248 129.519L75.961 138.061Z" stroke="#3246FF" stroke-width="0.35"/>
<path d="M46.0889 86.5241V155.145L31.1289 146.555L31.1528 77.9823L46.0889 86.5241Z" stroke="#3246FF" stroke-width="0.35"/>
<path d="M46.0888 86.5241L16.2403 103.679L1.28027 95.0659L31.1526 77.9823L46.0888 86.5241Z" stroke="#3246FF" stroke-width="0.35"/>
<path d="M61.0249 43.5765L31.2003 60.7317L16.2402 52.1422L46.0887 35.0586L61.0249 43.5765Z" stroke="#3246FF" stroke-width="0.35"/>
<path d="M75.9613 138.061L46.089 155.192L31.1289 146.603L61.0251 129.519L75.9613 138.061Z" stroke="#3246FF" stroke-width="0.35"/>
<path d="M120.746 146.722L135.682 155.169L165.555 138.061L150.618 129.448L120.746 146.722Z" stroke="#3246FF" stroke-width="0.35"/>
<path d="M165.554 103.631V138.061L150.618 129.448V95.0897L165.554 103.631Z" stroke="#3246FF" stroke-width="0.35"/>
<path d="M195.403 86.5479L180.467 77.9106L150.618 95.0896L165.554 103.631L195.403 86.5479Z" stroke="#3246FF" stroke-width="0.35"/>
<path d="M195.403 86.5479L180.467 77.9107L180.491 60.7794L195.403 69.3451V86.5479Z" stroke="#3246FF" stroke-width="0.35"/>
<path d="M210.339 60.7555L195.403 52.166L180.49 60.7794L195.403 69.345L210.339 60.7555Z" stroke="#3246FF" stroke-width="0.35"/>
<path d="M210.34 60.7556L195.403 52.1661L195.427 17.8081L210.34 26.3737V60.7556Z" stroke="#3246FF" stroke-width="0.35"/>
<path d="M165.554 52.1184L150.618 43.5289L195.427 17.8081L210.339 26.3737L165.554 52.1184Z" stroke="#3246FF" stroke-width="0.35"/>
<path d="M90.8975 95.0898L90.8737 60.7556L75.9375 52.1184L75.9614 86.548L90.8975 95.0898Z" stroke="#3246FF" stroke-width="0.35"/>
<path d="M75.961 120.882V69.369L61.001 60.7556V112.269L75.961 120.882Z" stroke="#3246FF" stroke-width="0.35"/>
<path d="M90.8733 60.7556L75.961 69.369L61.001 60.7556L75.9372 52.1184L90.8733 60.7556Z" stroke="#3246FF" stroke-width="0.35"/>
<path d="M120.746 77.9107L90.8737 95.1613L75.9375 86.5479L105.81 69.2974L120.746 77.9107Z" stroke="#3246FF" stroke-width="0.35"/>
<path d="M195.403 120.858L180.467 112.293L180.515 163.806L195.403 172.371V120.858Z" stroke="#3246FF" stroke-width="0.35"/>
<path d="M165.554 189.503L150.618 180.937L180.514 163.806L195.403 172.371L165.554 189.503Z" stroke="#3246FF" stroke-width="0.35"/>
<path d="M165.554 189.503L150.618 180.937V198.116L165.53 206.682L165.554 189.503Z" stroke="#3246FF" stroke-width="0.35"/>
<path d="M135.682 0.605225L150.642 9.21858V60.7556L135.682 52.1661V0.605225Z" stroke="#3246FF" stroke-width="0.35"/>
<path d="M105.811 34.9633L120.771 43.5766V77.9823L105.811 69.3928V34.9633Z" stroke="#3246FF" stroke-width="0.35"/>
<path d="M120.722 60.7555L135.682 69.3689L150.642 60.7555L135.682 52.166L120.722 60.7555Z" stroke="#3246FF" stroke-width="0.35"/>
<path d="M1.28027 95.0658L16.2165 103.679V52.1183L1.28027 43.5765V95.0658Z" stroke="#3246FF" stroke-width="0.35"/>
<path d="M46.0889 17.8081L61.0251 26.3499V43.5766L46.0889 35.0587V17.8081Z" stroke="#3246FF" stroke-width="0.35"/>
<path d="M46.0889 17.808L61.025 26.3498L90.8974 9.21854L75.9612 0.676758L46.0889 17.808Z" stroke="#3246FF" stroke-width="0.35"/>
<path d="M31.1526 163.782L46.0888 172.348L16.2165 189.55L1.28027 180.913L31.1526 163.782Z" stroke="#3246FF" stroke-width="0.35"/>
<path d="M1.28027 180.913L16.2165 189.55V206.753L1.28027 198.116V180.913Z" stroke="#3246FF" stroke-width="0.35"/>
<path d="M31.1533 163.782L46.0895 172.348V206.682L31.1533 198.092V163.782Z" stroke="#3246FF" stroke-width="0.35"/>
<path d="M1.28027 112.269L16.2165 120.882V155.168L1.28027 146.603V112.269Z" stroke="#3246FF" stroke-width="0.35"/>
<path d="M16.0732 0.676758L31.1287 9.21854V43.5527L16.0732 34.9155V0.676758Z" stroke="#3246FF" stroke-width="0.35"/>
<path d="M105.811 0.62915L120.747 9.21865V26.3738L105.811 17.832V0.62915Z" stroke="#3246FF" stroke-width="0.35"/>
<path d="M75.9609 34.987L90.8971 43.5527L120.746 26.3737L105.809 17.8319L75.9609 34.987Z" stroke="#3246FF" stroke-width="0.35"/>
<path d="M90.873 112.269L105.785 120.834L135.682 103.631L120.745 95.0897L90.873 112.269Z" stroke="#3246FF" stroke-width="0.35"/>
<path d="M329.78 163.734L329.828 129.424L314.868 120.834V155.216L329.78 163.734Z" stroke="#3246FF" stroke-width="0.35"/>
<path d="M329.781 163.734L314.893 172.347L299.933 163.734L314.869 155.216L329.781 163.734Z" stroke="#3246FF" stroke-width="0.35"/>
<path d="M314.869 189.503L314.893 172.347L299.933 163.734V180.961L314.869 189.503Z" stroke="#3246FF" stroke-width="0.35"/>
<path d="M314.868 189.574L285.043 206.682L270.083 198.068L299.932 181.032L314.868 189.574Z" stroke="#3246FF" stroke-width="0.35"/>
<path d="M285.019 138.061L285.043 206.682L270.083 198.068V129.519L285.019 138.061Z" stroke="#3246FF" stroke-width="0.35"/>
<path d="M255.148 86.5241V155.145L240.188 146.555L240.211 77.9823L255.148 86.5241Z" stroke="#3246FF" stroke-width="0.35"/>
<path d="M255.147 86.5241L225.299 103.679L210.339 95.0659L240.211 77.9823L255.147 86.5241Z" stroke="#3246FF" stroke-width="0.35"/>
<path d="M270.084 43.5765L240.259 60.7317L225.299 52.1422L255.147 35.0586L270.084 43.5765Z" stroke="#3246FF" stroke-width="0.35"/>
<path d="M285.02 138.061L255.148 155.192L240.188 146.603L270.084 129.519L285.02 138.061Z" stroke="#3246FF" stroke-width="0.35"/>
<path d="M329.805 146.722L344.741 155.169L374.613 138.061L359.677 129.448L329.805 146.722Z" stroke="#3246FF" stroke-width="0.35"/>
<path d="M374.613 103.631V138.061L359.677 129.448V95.0897L374.613 103.631Z" stroke="#3246FF" stroke-width="0.35"/>
<path d="M404.461 86.5479L389.549 77.9106L359.677 95.0896L374.613 103.631L404.461 86.5479Z" stroke="#3246FF" stroke-width="0.35"/>
<path d="M404.461 86.5479L389.549 77.9107V60.7794L404.461 69.3451V86.5479Z" stroke="#3246FF" stroke-width="0.35"/>
<path d="M419.397 60.7555L404.461 52.166L389.549 60.7794L404.461 69.345L419.397 60.7555Z" stroke="#3246FF" stroke-width="0.35"/>
<path d="M419.397 60.7556L404.461 52.1661L404.485 17.8081L419.421 26.3737L419.397 60.7556Z" stroke="#3246FF" stroke-width="0.35"/>
<path d="M374.613 52.1184L359.677 43.5289L404.485 17.8081L419.422 26.3737L374.613 52.1184Z" stroke="#3246FF" stroke-width="0.35"/>
<path d="M299.956 95.0898L299.932 60.7556L284.996 52.1184L285.02 86.548L299.956 95.0898Z" stroke="#3246FF" stroke-width="0.35"/>
<path d="M285.019 120.882V69.369L270.083 60.7556V112.269L285.019 120.882Z" stroke="#3246FF" stroke-width="0.35"/>
<path d="M299.932 60.7556L285.019 69.369L270.083 60.7556L284.995 52.1184L299.932 60.7556Z" stroke="#3246FF" stroke-width="0.35"/>
<path d="M329.805 77.9107L299.932 95.1613L284.996 86.5479L314.868 69.2974L329.805 77.9107Z" stroke="#3246FF" stroke-width="0.35"/>
<path d="M404.461 120.858L389.549 112.293L389.573 163.806L404.461 172.371V120.858Z" stroke="#3246FF" stroke-width="0.35"/>
<path d="M374.613 189.503L359.677 180.937L389.573 163.806L404.461 172.371L374.613 189.503Z" stroke="#3246FF" stroke-width="0.35"/>
<path d="M374.613 189.503L359.677 180.937V198.116L374.589 206.682L374.613 189.503Z" stroke="#3246FF" stroke-width="0.35"/>
<path d="M344.741 0.605225L359.701 9.21858V60.7556L344.741 52.1661V0.605225Z" stroke="#3246FF" stroke-width="0.35"/>
<path d="M314.868 34.9633L329.828 43.5766V77.9823L314.868 69.3928V34.9633Z" stroke="#3246FF" stroke-width="0.35"/>
<path d="M329.781 60.7555L344.765 69.3689L359.701 60.7555L344.741 52.166L329.781 60.7555Z" stroke="#3246FF" stroke-width="0.35"/>
<path d="M210.339 95.0658L225.275 103.679V52.1183L210.339 43.5765V95.0658Z" stroke="#3246FF" stroke-width="0.35"/>
<path d="M255.147 17.8081L270.084 26.3499V43.5766L255.147 35.0587V17.8081Z" stroke="#3246FF" stroke-width="0.35"/>
<path d="M255.147 17.808L270.084 26.3498L299.956 9.21854L285.02 0.676758L255.147 17.808Z" stroke="#3246FF" stroke-width="0.35"/>
<path d="M240.211 163.782L255.147 172.348L225.275 189.55L210.339 180.913L240.211 163.782Z" stroke="#3246FF" stroke-width="0.35"/>
<path d="M210.339 180.913L225.275 189.55V206.753L210.339 198.14V180.913Z" stroke="#3246FF" stroke-width="0.35"/>
<path d="M240.212 163.782L255.148 172.348V206.682L240.212 198.092V163.782Z" stroke="#3246FF" stroke-width="0.35"/>
<path d="M210.339 112.269L225.275 120.882V155.168L210.339 146.603V112.269Z" stroke="#3246FF" stroke-width="0.35"/>
<path d="M225.132 0.676758L240.187 9.21854V43.5527L225.132 34.9155V0.676758Z" stroke="#3246FF" stroke-width="0.35"/>
<path d="M314.868 0.62915L329.804 9.21865V26.3738L314.868 17.832V0.62915Z" stroke="#3246FF" stroke-width="0.35"/>
<path d="M285.021 34.987L299.957 43.5527L329.805 26.3737L314.869 17.8319L285.021 34.987Z" stroke="#3246FF" stroke-width="0.35"/>
<path d="M299.933 112.269L314.869 120.834L344.741 103.631L329.805 95.0897L299.933 112.269Z" stroke="#3246FF" stroke-width="0.35"/>
<path d="M135.634 206.586L135.658 172.276L120.698 163.663V198.044L135.634 206.586Z" stroke="#15162D" stroke-width="0.35"/>
<path d="M135.634 206.586L120.722 215.2L105.762 206.586L120.698 198.044L135.634 206.586Z" stroke="#15162D" stroke-width="0.35"/>
<path d="M120.698 232.355L120.722 215.2L105.762 206.586V223.813L120.698 232.355Z" stroke="#15162D" stroke-width="0.35"/>
<path d="M120.699 232.426L90.8741 249.534L75.9141 240.92L105.763 223.884L120.699 232.426Z" stroke="#15162D" stroke-width="0.35"/>
<path d="M90.8502 180.913L90.8741 249.534L75.9141 240.92V172.371L90.8502 180.913Z" stroke="#15162D" stroke-width="0.35"/>
<path d="M60.9766 129.376L61.0005 197.997L46.0166 189.383L46.0405 120.834L60.9766 129.376Z" stroke="#15162D" stroke-width="0.35"/>
<path d="M60.9775 129.376L31.129 146.531L16.1689 137.918L46.0413 120.834L60.9775 129.376Z" stroke="#15162D" stroke-width="0.35"/>
<path d="M75.9136 86.4286L46.0889 103.584L31.1289 94.9704L61.0013 77.8868L75.9136 86.4286Z" stroke="#15162D" stroke-width="0.35"/>
<path d="M90.849 180.913L61.0005 198.044L46.0166 189.431L75.9128 172.371L90.849 180.913Z" stroke="#15162D" stroke-width="0.35"/>
<path d="M135.634 189.574L150.57 197.997L180.442 180.913L165.506 172.276L135.634 189.574Z" stroke="#15162D" stroke-width="0.35"/>
<path d="M180.443 146.483V180.913L165.507 172.276L165.531 137.918L180.443 146.483Z" stroke="#15162D" stroke-width="0.35"/>
<path d="M210.316 129.376L195.38 120.763L165.531 137.918L180.444 146.483L210.316 129.376Z" stroke="#15162D" stroke-width="0.35"/>
<path d="M210.315 129.376L195.379 120.763V103.631L210.291 112.197L210.315 129.376Z" stroke="#15162D" stroke-width="0.35"/>
<path d="M225.227 103.584L210.315 94.9943L195.379 103.631L210.291 112.197L225.227 103.584Z" stroke="#15162D" stroke-width="0.35"/>
<path d="M225.228 103.584L210.315 94.9943L210.339 60.6602L225.252 69.2019L225.228 103.584Z" stroke="#15162D" stroke-width="0.35"/>
<path d="M180.444 94.9704L165.531 86.3809L210.34 60.6602L225.252 69.2019L180.444 94.9704Z" stroke="#15162D" stroke-width="0.35"/>
<path d="M105.786 137.918L105.762 103.584L90.8496 94.9703V129.376L105.786 137.918Z" stroke="#15162D" stroke-width="0.35"/>
<path d="M90.8741 163.734L90.8502 112.221L75.9141 103.584V155.097L90.8741 163.734Z" stroke="#15162D" stroke-width="0.35"/>
<path d="M105.763 103.584L90.8503 112.221L75.9141 103.584L90.8503 94.9703L105.763 103.584Z" stroke="#15162D" stroke-width="0.35"/>
<path d="M135.635 120.763L105.762 138.013L90.8262 129.376L120.699 112.149L135.635 120.763Z" stroke="#15162D" stroke-width="0.35"/>
<path d="M210.315 163.686L195.379 155.145L195.403 206.658L210.315 215.223V163.686Z" stroke="#15162D" stroke-width="0.35"/>
<path d="M180.444 232.355L165.531 223.789L195.404 206.658L210.316 215.223L180.444 232.355Z" stroke="#15162D" stroke-width="0.35"/>
<path d="M180.444 232.355L165.531 223.789V240.968L180.42 249.534L180.444 232.355Z" stroke="#15162D" stroke-width="0.35"/>
<path d="M150.571 43.4573L165.531 52.0706V103.608L150.571 94.9943V43.4573Z" stroke="#15162D" stroke-width="0.35"/>
<path d="M120.698 77.8152L135.658 86.4285V120.834L120.698 112.245V77.8152Z" stroke="#15162D" stroke-width="0.35"/>
<path d="M135.634 103.608L150.594 112.221L165.53 103.608L150.57 94.9943L135.634 103.608Z" stroke="#15162D" stroke-width="0.35"/>
<path d="M16.1689 137.918L31.1051 146.531V94.9704L16.1689 86.4286V137.918Z" stroke="#15162D" stroke-width="0.35"/>
<path d="M60.9775 60.6602L75.9137 69.2019V86.4287L60.9775 77.8869V60.6602Z" stroke="#15162D" stroke-width="0.35"/>
<path d="M60.9775 60.6601L75.9137 69.2019L105.786 52.0706L90.8499 43.5288L60.9775 60.6601Z" stroke="#15162D" stroke-width="0.35"/>
<path d="M46.0413 206.634L60.9775 215.2L31.1051 232.379L16.1689 223.765L46.0413 206.634Z" stroke="#15162D" stroke-width="0.35"/>
<path d="M16.1689 223.765L31.1051 232.378V249.605L16.1689 240.968V223.765Z" stroke="#15162D" stroke-width="0.35"/>
<path d="M46.041 206.634L60.9772 215.2V249.534L46.041 240.944V206.634Z" stroke="#15162D" stroke-width="0.35"/>
<path d="M16.1689 155.121L31.1051 163.734V197.997L16.1689 189.431V155.121Z" stroke="#15162D" stroke-width="0.35"/>
<path d="M30.9619 43.5288L46.0174 52.0706V86.3809L30.9619 77.7436V43.5288Z" stroke="#15162D" stroke-width="0.35"/>
<path d="M120.698 43.4811L135.634 52.0706V69.2019L120.698 60.6601V43.4811Z" stroke="#15162D" stroke-width="0.35"/>
<path d="M90.8496 77.8392L105.786 86.4048L135.634 69.2019L120.698 60.6602L90.8496 77.8392Z" stroke="#15162D" stroke-width="0.35"/>
<path d="M105.762 155.121L120.698 163.663L150.57 146.484L135.634 137.942L105.762 155.121Z" stroke="#15162D" stroke-width="0.35"/>
<path d="M344.694 206.586L344.718 172.276L329.758 163.663V198.044L344.694 206.586Z" stroke="#15162D" stroke-width="0.35"/>
<path d="M344.694 206.586L329.781 215.2L314.821 206.586L329.757 198.044L344.694 206.586Z" stroke="#15162D" stroke-width="0.35"/>
<path d="M329.781 232.355V215.2L314.821 206.586L314.845 223.813L329.781 232.355Z" stroke="#15162D" stroke-width="0.35"/>
<path d="M329.757 232.426L299.933 249.534L284.973 240.92L314.845 223.884L329.757 232.426Z" stroke="#15162D" stroke-width="0.35"/>
<path d="M299.909 180.913L299.933 249.534L284.973 240.92L284.997 172.371L299.909 180.913Z" stroke="#15162D" stroke-width="0.35"/>
<path d="M270.036 129.376L270.06 197.997L255.1 189.383V120.834L270.036 129.376Z" stroke="#15162D" stroke-width="0.35"/>
<path d="M270.036 129.376L240.211 146.531L225.228 137.918L255.1 120.834L270.036 129.376Z" stroke="#15162D" stroke-width="0.35"/>
<path d="M284.996 86.4286L255.148 103.584L240.188 94.9704L270.06 77.8868L284.996 86.4286Z" stroke="#15162D" stroke-width="0.35"/>
<path d="M299.909 180.913L270.06 198.044L255.076 189.431L284.996 172.371L299.909 180.913Z" stroke="#15162D" stroke-width="0.35"/>
<path d="M344.693 189.574L359.63 197.997L389.502 180.913L374.566 172.276L344.693 189.574Z" stroke="#15162D" stroke-width="0.35"/>
<path d="M389.502 146.483V180.913L374.565 172.276L374.589 137.918L389.502 146.483Z" stroke="#15162D" stroke-width="0.35"/>
<path d="M419.374 129.376L404.437 120.763L374.589 137.918L389.501 146.483L419.374 129.376Z" stroke="#15162D" stroke-width="0.35"/>
<path d="M419.374 129.376L404.438 120.763V103.631L419.35 112.197L419.374 129.376Z" stroke="#15162D" stroke-width="0.35"/>
<path d="M434.31 103.584L419.374 94.9943L404.438 103.631L419.35 112.197L434.31 103.584Z" stroke="#15162D" stroke-width="0.35"/>
<path d="M434.311 103.584L419.375 94.9943L419.399 60.6602L434.311 69.2019V103.584Z" stroke="#15162D" stroke-width="0.35"/>
<path d="M389.525 94.9704L374.589 86.3809L419.397 60.6602L434.31 69.2019L389.525 94.9704Z" stroke="#15162D" stroke-width="0.35"/>
<path d="M314.844 137.918V103.584L299.908 94.9703V129.376L314.844 137.918Z" stroke="#15162D" stroke-width="0.35"/>
<path d="M299.933 163.734L299.909 112.221L284.973 103.584V155.097L299.933 163.734Z" stroke="#15162D" stroke-width="0.35"/>
<path d="M314.845 103.584L299.909 112.221L284.973 103.584L299.909 94.9703L314.845 103.584Z" stroke="#15162D" stroke-width="0.35"/>
<path d="M344.693 120.763L314.821 138.013L299.885 129.376L329.757 112.149L344.693 120.763Z" stroke="#15162D" stroke-width="0.35"/>
<path d="M419.374 163.686L404.438 155.145L404.461 206.658L419.374 215.223V163.686Z" stroke="#15162D" stroke-width="0.35"/>
<path d="M389.525 232.355L374.589 223.789L404.461 206.658L419.374 215.223L389.525 232.355Z" stroke="#15162D" stroke-width="0.35"/>
<path d="M389.525 232.355L374.589 223.789V240.968L389.477 249.534L389.525 232.355Z" stroke="#15162D" stroke-width="0.35"/>
<path d="M359.629 43.4573L374.589 52.0706V103.608L359.629 94.9943V43.4573Z" stroke="#15162D" stroke-width="0.35"/>
<path d="M329.758 77.8152L344.742 86.4285V120.834L329.758 112.245V77.8152Z" stroke="#15162D" stroke-width="0.35"/>
<path d="M344.693 103.608L359.653 112.221L374.59 103.608L359.63 94.9943L344.693 103.608Z" stroke="#15162D" stroke-width="0.35"/>
<path d="M225.228 137.918L240.164 146.531V94.9704L225.228 86.4286V137.918Z" stroke="#15162D" stroke-width="0.35"/>
<path d="M270.036 60.6602L284.996 69.2019V86.4287L270.036 77.8869V60.6602Z" stroke="#15162D" stroke-width="0.35"/>
<path d="M270.036 60.6601L284.996 69.2019L314.869 52.0706L299.908 43.5288L270.036 60.6601Z" stroke="#15162D" stroke-width="0.35"/>
<path d="M255.1 206.634L270.036 215.2L240.164 232.379L225.228 223.765L255.1 206.634Z" stroke="#15162D" stroke-width="0.35"/>
<path d="M225.228 223.765L240.164 232.378V249.605L225.228 240.968V223.765Z" stroke="#15162D" stroke-width="0.35"/>
<path d="M255.1 206.634L270.036 215.2V249.534L255.1 240.944V206.634Z" stroke="#15162D" stroke-width="0.35"/>
<path d="M225.228 155.121L240.164 163.734V197.997L225.228 189.431V155.121Z" stroke="#15162D" stroke-width="0.35"/>
<path d="M240.045 43.5288L255.1 52.0706V86.3809L240.045 77.7436V43.5288Z" stroke="#15162D" stroke-width="0.35"/>
<path d="M329.758 43.4811L344.694 52.0706V69.2019L329.758 60.6601V43.4811Z" stroke="#15162D" stroke-width="0.35"/>
<path d="M299.908 77.8392L314.844 86.4048L344.693 69.2019L329.757 60.6602L299.908 77.8392Z" stroke="#15162D" stroke-width="0.35"/>
<path d="M314.845 155.121L329.757 163.663L359.629 146.484L344.693 137.942L314.845 155.121Z" stroke="#15162D" stroke-width="0.35"/>
<path d="M538.864 163.734L538.912 129.424L523.928 120.834V155.192L538.864 163.734Z" stroke="#3246FF" stroke-width="0.35"/>
<path d="M538.863 163.734L523.975 172.348L509.015 163.734L523.927 155.192L538.863 163.734Z" stroke="#3246FF" stroke-width="0.35"/>
<path d="M523.951 189.503L523.975 172.347L509.015 163.734V180.961L523.951 189.503Z" stroke="#3246FF" stroke-width="0.35"/>
<path d="M523.951 189.574L494.126 206.682L479.143 198.068L509.015 181.032L523.951 189.574Z" stroke="#3246FF" stroke-width="0.35"/>
<path d="M494.103 138.061L494.126 206.682L479.143 198.068L479.166 129.519L494.103 138.061Z" stroke="#3246FF" stroke-width="0.35"/>
<path d="M464.231 86.5241V155.145L449.271 146.555L449.294 77.9823L464.231 86.5241Z" stroke="#3246FF" stroke-width="0.35"/>
<path d="M464.23 86.5241L434.382 103.679L419.422 95.0659L449.294 77.9823L464.23 86.5241Z" stroke="#3246FF" stroke-width="0.35"/>
<path d="M479.167 43.5765L449.342 60.7317L434.382 52.1422L464.23 35.0586L479.167 43.5765Z" stroke="#3246FF" stroke-width="0.35"/>
<path d="M494.103 138.061L464.231 155.192L449.271 146.603L479.167 129.519L494.103 138.061Z" stroke="#3246FF" stroke-width="0.35"/>
<path d="M538.888 146.722L553.824 155.169L583.696 138.061L568.76 129.448L538.888 146.722Z" stroke="#3246FF" stroke-width="0.35"/>
<path d="M583.696 103.631V138.061L568.76 129.448V95.0897L583.696 103.631Z" stroke="#3246FF" stroke-width="0.35"/>
<path d="M613.544 86.5479L598.608 77.9106L568.76 95.0896L583.696 103.631L613.544 86.5479Z" stroke="#3246FF" stroke-width="0.35"/>
<path d="M613.544 86.5479L598.607 77.9107L598.631 60.7794L613.544 69.3451V86.5479Z" stroke="#3246FF" stroke-width="0.35"/>
<path d="M628.48 60.7555L613.544 52.166L598.632 60.7794L613.544 69.345L628.48 60.7555Z" stroke="#3246FF" stroke-width="0.35"/>
<path d="M628.481 60.7556L613.545 52.1661L613.569 17.8081L628.481 26.3737V60.7556Z" stroke="#3246FF" stroke-width="0.35"/>
<path d="M583.696 52.1184L568.76 43.5289L613.568 17.8081L628.481 26.3737L583.696 52.1184Z" stroke="#3246FF" stroke-width="0.35"/>
<path d="M509.039 95.0898L509.015 60.7556L494.079 52.1184L494.103 86.548L509.039 95.0898Z" stroke="#3246FF" stroke-width="0.35"/>
<path d="M494.103 120.882V69.369L479.143 60.7556V112.269L494.103 120.882Z" stroke="#3246FF" stroke-width="0.35"/>
<path d="M509.015 60.7556L494.103 69.369L479.143 60.7556L494.079 52.1184L509.015 60.7556Z" stroke="#3246FF" stroke-width="0.35"/>
<path d="M538.888 77.9107L509.015 95.1613L494.079 86.5479L523.951 69.2974L538.888 77.9107Z" stroke="#3246FF" stroke-width="0.35"/>
<path d="M613.544 120.858L598.607 112.293L598.655 163.806L613.544 172.371V120.858Z" stroke="#3246FF" stroke-width="0.35"/>
<path d="M583.696 189.503L568.76 180.937L598.656 163.806L613.544 172.371L583.696 189.503Z" stroke="#3246FF" stroke-width="0.35"/>
<path d="M583.696 189.503L568.76 180.937V198.116L583.672 206.682L583.696 189.503Z" stroke="#3246FF" stroke-width="0.35"/>
<path d="M553.823 0.605225L568.783 9.21858V60.7556L553.823 52.1661V0.605225Z" stroke="#3246FF" stroke-width="0.35"/>
<path d="M523.952 34.9633L538.912 43.5766V77.9823L523.952 69.3928V34.9633Z" stroke="#3246FF" stroke-width="0.35"/>
<path d="M538.863 60.7555L553.823 69.3689L568.783 60.7555L553.823 52.166L538.863 60.7555Z" stroke="#3246FF" stroke-width="0.35"/>
<path d="M419.422 95.0658L434.358 103.679V52.1183L419.422 43.5765V95.0658Z" stroke="#3246FF" stroke-width="0.35"/>
<path d="M464.23 17.8081L479.167 26.3499V43.5766L464.23 35.0587V17.8081Z" stroke="#3246FF" stroke-width="0.35"/>
<path d="M464.23 17.808L479.167 26.3498L509.039 9.21854L494.103 0.676758L464.23 17.808Z" stroke="#3246FF" stroke-width="0.35"/>
<path d="M449.294 163.782L464.23 172.348L434.358 189.55L419.422 180.913L449.294 163.782Z" stroke="#3246FF" stroke-width="0.35"/>
<path d="M419.422 180.913L434.358 189.55V206.753L419.422 198.116V180.913Z" stroke="#3246FF" stroke-width="0.35"/>
<path d="M449.295 163.782L464.231 172.348V206.682L449.295 198.092V163.782Z" stroke="#3246FF" stroke-width="0.35"/>
<path d="M419.422 112.269L434.358 120.882V155.168L419.422 146.603V112.269Z" stroke="#3246FF" stroke-width="0.35"/>
<path d="M434.215 0.676758L449.27 9.21854V43.5527L434.215 34.9155V0.676758Z" stroke="#3246FF" stroke-width="0.35"/>
<path d="M523.952 0.62915L538.888 9.21865V26.3738L523.952 17.832V0.62915Z" stroke="#3246FF" stroke-width="0.35"/>
<path d="M494.103 34.987L509.039 43.5527L538.887 26.3737L523.951 17.8319L494.103 34.987Z" stroke="#3246FF" stroke-width="0.35"/>
<path d="M509.015 112.269L523.927 120.834L553.823 103.631L538.887 95.0897L509.015 112.269Z" stroke="#3246FF" stroke-width="0.35"/>
<path d="M747.922 163.734L747.97 129.424L733.01 120.834V155.216L747.922 163.734Z" stroke="#3246FF" stroke-width="0.35"/>
<path d="M747.923 163.734L733.034 172.347L718.074 163.734L733.01 155.216L747.923 163.734Z" stroke="#3246FF" stroke-width="0.35"/>
<path d="M733.01 189.503L733.034 172.347L718.074 163.734V180.961L733.01 189.503Z" stroke="#3246FF" stroke-width="0.35"/>
<path d="M733.009 189.574L703.185 206.682L688.225 198.068L718.073 181.032L733.009 189.574Z" stroke="#3246FF" stroke-width="0.35"/>
<path d="M703.161 138.061L703.185 206.682L688.225 198.068V129.519L703.161 138.061Z" stroke="#3246FF" stroke-width="0.35"/>
<path d="M673.289 86.5241V155.145L658.329 146.555L658.353 77.9823L673.289 86.5241Z" stroke="#3246FF" stroke-width="0.35"/>
<path d="M673.289 86.5241L643.441 103.679L628.48 95.0659L658.353 77.9823L673.289 86.5241Z" stroke="#3246FF" stroke-width="0.35"/>
<path d="M688.225 43.5765L658.4 60.7317L643.44 52.1422L673.289 35.0586L688.225 43.5765Z" stroke="#3246FF" stroke-width="0.35"/>
<path d="M703.162 138.061L673.289 155.192L658.329 146.603L688.225 129.519L703.162 138.061Z" stroke="#3246FF" stroke-width="0.35"/>
<path d="M747.946 146.722L762.882 155.169L792.755 138.061L777.819 129.448L747.946 146.722Z" stroke="#3246FF" stroke-width="0.35"/>
<path d="M792.755 103.631V138.061L777.818 129.448V95.0897L792.755 103.631Z" stroke="#3246FF" stroke-width="0.35"/>
<path d="M822.603 86.5479L807.691 77.9106L777.818 95.0896L792.755 103.631L822.603 86.5479Z" stroke="#3246FF" stroke-width="0.35"/>
<path d="M822.603 86.5479L807.69 77.9107V60.7794L822.603 69.3451V86.5479Z" stroke="#3246FF" stroke-width="0.35"/>
<path d="M837.539 60.7555L822.603 52.166L807.69 60.7794L822.603 69.345L837.539 60.7555Z" stroke="#3246FF" stroke-width="0.35"/>
<path d="M837.539 60.7556L822.603 52.1661L822.626 17.8081L837.563 26.3737L837.539 60.7556Z" stroke="#3246FF" stroke-width="0.35"/>
<path d="M792.755 52.1184L777.818 43.5289L822.627 17.8081L837.563 26.3737L792.755 52.1184Z" stroke="#3246FF" stroke-width="0.35"/>
<path d="M718.098 95.0898L718.074 60.7556L703.138 52.1184L703.162 86.548L718.098 95.0898Z" stroke="#3246FF" stroke-width="0.35"/>
<path d="M703.161 120.882V69.369L688.225 60.7556V112.269L703.161 120.882Z" stroke="#3246FF" stroke-width="0.35"/>
<path d="M718.073 60.7556L703.161 69.369L688.225 60.7556L703.137 52.1184L718.073 60.7556Z" stroke="#3246FF" stroke-width="0.35"/>
<path d="M747.946 77.9107L718.074 95.1613L703.138 86.5479L733.01 69.2974L747.946 77.9107Z" stroke="#3246FF" stroke-width="0.35"/>
<path d="M822.603 120.858L807.69 112.293L807.714 163.806L822.603 172.371V120.858Z" stroke="#3246FF" stroke-width="0.35"/>
<path d="M792.755 189.503L777.818 180.937L807.715 163.806L822.603 172.371L792.755 189.503Z" stroke="#3246FF" stroke-width="0.35"/>
<path d="M792.755 189.503L777.818 180.937V198.116L792.731 206.682L792.755 189.503Z" stroke="#3246FF" stroke-width="0.35"/>
<path d="M762.883 0.605225L777.843 9.21858V60.7556L762.883 52.1661V0.605225Z" stroke="#3246FF" stroke-width="0.35"/>
<path d="M733.01 34.9633L747.97 43.5766V77.9823L733.01 69.3928V34.9633Z" stroke="#3246FF" stroke-width="0.35"/>
<path d="M747.923 60.7555L762.907 69.3689L777.843 60.7555L762.883 52.166L747.923 60.7555Z" stroke="#3246FF" stroke-width="0.35"/>
<path d="M628.48 95.0658L643.417 103.679V52.1183L628.48 43.5765V95.0658Z" stroke="#3246FF" stroke-width="0.35"/>
<path d="M673.289 17.8081L688.225 26.3499V43.5766L673.289 35.0587V17.8081Z" stroke="#3246FF" stroke-width="0.35"/>
<path d="M673.289 17.808L688.225 26.3498L718.098 9.21854L703.161 0.676758L673.289 17.808Z" stroke="#3246FF" stroke-width="0.35"/>
<path d="M658.353 163.782L673.289 172.348L643.417 189.55L628.48 180.913L658.353 163.782Z" stroke="#3246FF" stroke-width="0.35"/>
<path d="M628.48 180.913L643.417 189.55V206.753L628.48 198.14V180.913Z" stroke="#3246FF" stroke-width="0.35"/>
<path d="M658.354 163.782L673.29 172.348V206.682L658.354 198.092V163.782Z" stroke="#3246FF" stroke-width="0.35"/>
<path d="M628.48 112.269L643.417 120.882V155.168L628.48 146.603V112.269Z" stroke="#3246FF" stroke-width="0.35"/>
<path d="M643.273 0.676758L658.329 9.21854V43.5527L643.273 34.9155V0.676758Z" stroke="#3246FF" stroke-width="0.35"/>
<path d="M733.01 0.62915L747.946 9.21865V26.3738L733.01 17.832V0.62915Z" stroke="#3246FF" stroke-width="0.35"/>
<path d="M703.162 34.987L718.098 43.5527L747.947 26.3737L733.011 17.8319L703.162 34.987Z" stroke="#3246FF" stroke-width="0.35"/>
<path d="M718.074 112.269L733.01 120.834L762.883 103.631L747.947 95.0897L718.074 112.269Z" stroke="#3246FF" stroke-width="0.35"/>
<path d="M553.776 206.586L553.8 172.276L538.84 163.663V198.044L553.776 206.586Z" stroke="#15162D" stroke-width="0.35"/>
<path d="M553.776 206.586L538.863 215.2L523.903 206.586L538.84 198.044L553.776 206.586Z" stroke="#15162D" stroke-width="0.35"/>
<path d="M538.84 232.355L538.863 215.2L523.903 206.586V223.813L538.84 232.355Z" stroke="#15162D" stroke-width="0.35"/>
<path d="M538.84 232.426L509.016 249.534L494.056 240.92L523.904 223.884L538.84 232.426Z" stroke="#15162D" stroke-width="0.35"/>
<path d="M508.992 180.913L509.016 249.534L494.056 240.92V172.371L508.992 180.913Z" stroke="#15162D" stroke-width="0.35"/>
<path d="M479.118 129.376L479.142 197.997L464.158 189.383L464.182 120.834L479.118 129.376Z" stroke="#15162D" stroke-width="0.35"/>
<path d="M479.119 129.376L449.271 146.531L434.311 137.918L464.183 120.834L479.119 129.376Z" stroke="#15162D" stroke-width="0.35"/>
<path d="M494.055 86.4286L464.231 103.584L449.271 94.9704L479.143 77.8868L494.055 86.4286Z" stroke="#15162D" stroke-width="0.35"/>
<path d="M508.991 180.913L479.142 198.044L464.158 189.431L494.054 172.371L508.991 180.913Z" stroke="#15162D" stroke-width="0.35"/>
<path d="M553.775 189.574L568.712 197.997L598.584 180.913L583.648 172.276L553.775 189.574Z" stroke="#15162D" stroke-width="0.35"/>
<path d="M598.585 146.483V180.913L583.648 172.276L583.672 137.918L598.585 146.483Z" stroke="#15162D" stroke-width="0.35"/>
<path d="M628.458 129.376L613.521 120.763L583.673 137.918L598.585 146.483L628.458 129.376Z" stroke="#15162D" stroke-width="0.35"/>
<path d="M628.457 129.376L613.521 120.763V103.631L628.433 112.197L628.457 129.376Z" stroke="#15162D" stroke-width="0.35"/>
<path d="M643.369 103.584L628.457 94.9943L613.521 103.631L628.433 112.197L643.369 103.584Z" stroke="#15162D" stroke-width="0.35"/>
<path d="M643.369 103.584L628.457 94.9943L628.481 60.6602L643.393 69.2019L643.369 103.584Z" stroke="#15162D" stroke-width="0.35"/>
<path d="M598.585 94.9704L583.673 86.3809L628.481 60.6602L643.394 69.2019L598.585 94.9704Z" stroke="#15162D" stroke-width="0.35"/>
<path d="M523.927 137.918L523.904 103.584L508.991 94.9703V129.376L523.927 137.918Z" stroke="#15162D" stroke-width="0.35"/>
<path d="M509.016 163.734L508.992 112.221L494.056 103.584V155.097L509.016 163.734Z" stroke="#15162D" stroke-width="0.35"/>
<path d="M523.904 103.584L508.992 112.221L494.056 103.584L508.992 94.9703L523.904 103.584Z" stroke="#15162D" stroke-width="0.35"/>
<path d="M553.776 120.763L523.904 138.013L508.968 129.376L538.84 112.149L553.776 120.763Z" stroke="#15162D" stroke-width="0.35"/>
<path d="M628.457 163.686L613.521 155.145L613.544 206.658L628.457 215.223V163.686Z" stroke="#15162D" stroke-width="0.35"/>
<path d="M598.585 232.355L583.673 223.789L613.545 206.658L628.458 215.223L598.585 232.355Z" stroke="#15162D" stroke-width="0.35"/>
<path d="M598.585 232.355L583.673 223.789V240.968L598.561 249.534L598.585 232.355Z" stroke="#15162D" stroke-width="0.35"/>
<path d="M568.713 43.4573L583.673 52.0706V103.608L568.713 94.9943V43.4573Z" stroke="#15162D" stroke-width="0.35"/>
<path d="M538.84 77.8152L553.8 86.4285V120.834L538.84 112.245V77.8152Z" stroke="#15162D" stroke-width="0.35"/>
<path d="M553.775 103.608L568.735 112.221L583.672 103.608L568.712 94.9943L553.775 103.608Z" stroke="#15162D" stroke-width="0.35"/>
<path d="M434.311 137.918L449.247 146.531V94.9704L434.311 86.4286V137.918Z" stroke="#15162D" stroke-width="0.35"/>
<path d="M479.119 60.6602L494.055 69.2019V86.4287L479.119 77.8869V60.6602Z" stroke="#15162D" stroke-width="0.35"/>
<path d="M479.119 60.6601L494.055 69.2019L523.928 52.0706L508.992 43.5288L479.119 60.6601Z" stroke="#15162D" stroke-width="0.35"/>
<path d="M464.183 206.634L479.119 215.2L449.247 232.379L434.311 223.765L464.183 206.634Z" stroke="#15162D" stroke-width="0.35"/>
<path d="M434.311 223.765L449.247 232.378V249.605L434.311 240.968V223.765Z" stroke="#15162D" stroke-width="0.35"/>
<path d="M464.183 206.634L479.119 215.2V249.534L464.183 240.944V206.634Z" stroke="#15162D" stroke-width="0.35"/>
<path d="M434.311 155.121L449.247 163.734V197.997L434.311 189.431V155.121Z" stroke="#15162D" stroke-width="0.35"/>
<path d="M449.104 43.5288L464.159 52.0706V86.3809L449.104 77.7436V43.5288Z" stroke="#15162D" stroke-width="0.35"/>
<path d="M538.84 43.4811L553.776 52.0706V69.2019L538.84 60.6601V43.4811Z" stroke="#15162D" stroke-width="0.35"/>
<path d="M508.991 77.8392L523.927 86.4048L553.776 69.2019L538.84 60.6602L508.991 77.8392Z" stroke="#15162D" stroke-width="0.35"/>
<path d="M523.903 155.121L538.84 163.663L568.712 146.484L553.776 137.942L523.903 155.121Z" stroke="#15162D" stroke-width="0.35"/>
<path d="M762.836 206.586L762.859 172.276L747.899 163.663V198.044L762.836 206.586Z" stroke="#15162D" stroke-width="0.35"/>
<path d="M762.835 206.586L747.923 215.2L732.963 206.586L747.899 198.044L762.835 206.586Z" stroke="#15162D" stroke-width="0.35"/>
<path d="M747.923 232.355V215.2L732.963 206.586L732.987 223.813L747.923 232.355Z" stroke="#15162D" stroke-width="0.35"/>
<path d="M747.899 232.426L718.074 249.534L703.114 240.92L732.987 223.884L747.899 232.426Z" stroke="#15162D" stroke-width="0.35"/>
<path d="M718.05 180.913L718.074 249.534L703.114 240.92L703.138 172.371L718.05 180.913Z" stroke="#15162D" stroke-width="0.35"/>
<path d="M688.177 129.376L688.201 197.997L673.241 189.383V120.834L688.177 129.376Z" stroke="#15162D" stroke-width="0.35"/>
<path d="M688.178 129.376L658.353 146.531L643.369 137.918L673.242 120.834L688.178 129.376Z" stroke="#15162D" stroke-width="0.35"/>
<path d="M703.138 86.4286L673.289 103.584L658.329 94.9704L688.201 77.8868L703.138 86.4286Z" stroke="#15162D" stroke-width="0.35"/>
<path d="M718.05 180.913L688.202 198.044L673.218 189.431L703.138 172.371L718.05 180.913Z" stroke="#15162D" stroke-width="0.35"/>
<path d="M762.835 189.574L777.771 197.997L807.643 180.913L792.707 172.276L762.835 189.574Z" stroke="#15162D" stroke-width="0.35"/>
<path d="M807.643 146.483V180.913L792.707 172.276L792.731 137.918L807.643 146.483Z" stroke="#15162D" stroke-width="0.35"/>
<path d="M837.515 129.376L822.579 120.763L792.73 137.918L807.643 146.483L837.515 129.376Z" stroke="#15162D" stroke-width="0.35"/>
<path d="M837.515 129.376L822.579 120.763V103.631L837.491 112.197L837.515 129.376Z" stroke="#15162D" stroke-width="0.35"/>
<path d="M852.451 103.584L837.515 94.9943L822.579 103.631L837.491 112.197L852.451 103.584Z" stroke="#15162D" stroke-width="0.35"/>
<path d="M852.453 103.584L837.517 94.9943L837.54 60.6602L852.453 69.2019V103.584Z" stroke="#15162D" stroke-width="0.35"/>
<path d="M807.667 94.9704L792.73 86.3809L837.539 60.6602L852.451 69.2019L807.667 94.9704Z" stroke="#15162D" stroke-width="0.35"/>
<path d="M732.986 137.918V103.584L718.05 94.9703V129.376L732.986 137.918Z" stroke="#15162D" stroke-width="0.35"/>
<path d="M718.074 163.734L718.05 112.221L703.114 103.584V155.097L718.074 163.734Z" stroke="#15162D" stroke-width="0.35"/>
<path d="M732.987 103.584L718.05 112.221L703.114 103.584L718.05 94.9703L732.987 103.584Z" stroke="#15162D" stroke-width="0.35"/>
<path d="M762.835 120.763L732.963 138.013L718.026 129.376L747.899 112.149L762.835 120.763Z" stroke="#15162D" stroke-width="0.35"/>
<path d="M837.515 163.686L822.579 155.145L822.603 206.658L837.515 215.223V163.686Z" stroke="#15162D" stroke-width="0.35"/>
<path d="M807.667 232.355L792.73 223.789L822.603 206.658L837.515 215.223L807.667 232.355Z" stroke="#15162D" stroke-width="0.35"/>
<path d="M807.667 232.355L792.73 223.789V240.968L807.619 249.534L807.667 232.355Z" stroke="#15162D" stroke-width="0.35"/>
<path d="M777.771 43.4573L792.731 52.0706V103.608L777.771 94.9943V43.4573Z" stroke="#15162D" stroke-width="0.35"/>
<path d="M747.899 77.8152L762.883 86.4285V120.834L747.899 112.245V77.8152Z" stroke="#15162D" stroke-width="0.35"/>
<path d="M762.835 103.608L777.795 112.221L792.731 103.608L777.771 94.9943L762.835 103.608Z" stroke="#15162D" stroke-width="0.35"/>
<path d="M643.369 137.918L658.305 146.531V94.9704L643.369 86.4286V137.918Z" stroke="#15162D" stroke-width="0.35"/>
<path d="M688.178 60.6602L703.138 69.2019V86.4287L688.178 77.8869V60.6602Z" stroke="#15162D" stroke-width="0.35"/>
<path d="M688.178 60.6601L703.138 69.2019L733.01 52.0706L718.05 43.5288L688.178 60.6601Z" stroke="#15162D" stroke-width="0.35"/>
<path d="M673.242 206.634L688.178 215.2L658.305 232.379L643.369 223.765L673.242 206.634Z" stroke="#15162D" stroke-width="0.35"/>
<path d="M643.369 223.765L658.305 232.378V249.605L643.369 240.968V223.765Z" stroke="#15162D" stroke-width="0.35"/>
<path d="M673.241 206.634L688.177 215.2V249.534L673.241 240.944V206.634Z" stroke="#15162D" stroke-width="0.35"/>
<path d="M643.369 155.121L658.305 163.734V197.997L643.369 189.431V155.121Z" stroke="#15162D" stroke-width="0.35"/>
<path d="M658.187 43.5288L673.242 52.0706V86.3809L658.187 77.7436V43.5288Z" stroke="#15162D" stroke-width="0.35"/>
<path d="M747.899 43.4811L762.836 52.0706V69.2019L747.899 60.6601V43.4811Z" stroke="#15162D" stroke-width="0.35"/>
<path d="M718.05 77.8392L732.986 86.4048L762.835 69.2019L747.898 60.6602L718.05 77.8392Z" stroke="#15162D" stroke-width="0.35"/>
<path d="M732.986 155.121L747.899 163.663L777.771 146.484L762.835 137.942L732.986 155.121Z" stroke="#15162D" stroke-width="0.35"/>
</svg>
