<svg width="30" height="34" viewBox="0 0 30 34" fill="none" xmlns="http://www.w3.org/2000/svg">
<path d="M12.9993 18.8333V11.5C12.9993 10.4917 12.1743 9.66667 11.166 9.66667H3.83268V6H12.9993V2.33333H8.41602V0.5H4.74935V2.33333H1.99935C0.991016 2.33333 0.166016 3.15833 0.166016 4.16667V11.5C0.166016 12.5083 0.991016 13.3333 1.99935 13.3333H9.33268V17H0.166016V20.6667H4.74935V22.5H8.41602V20.6667H11.166C12.1743 20.6667 12.9993 19.8417 12.9993 18.8333ZM26.9144 17.9533L16.5377 28.3117L11.3493 23.1233L8.76435 25.7267L16.5377 33.5L29.4993 20.5383L26.9144 17.9533Z" fill="white"/>
</svg>
