<svg width="2159" height="1186" id='svg1' viewBox="0 0 2159 1186" fill="none" xmlns="http://www.w3.org/2000/svg">
<g filter="url(#filter0_d_34_157)">
<path id="path1" d="M369.338 764.592C386.73 712.017 399.567 657.786 418.615 606.039V605.625C419.029 603.969 420.271 601.899 421.099 599.829C422.341 597.759 423.584 596.104 424.826 594.034C427.311 590.308 430.623 586.996 433.522 583.684C439.733 577.061 446.773 570.851 454.226 565.055C469.134 553.878 485.283 543.943 501.433 535.249C534.56 517.448 569.343 503.373 604.955 490.954C622.761 484.744 640.567 478.948 658.787 473.567C677.007 468.185 695.227 463.217 713.447 458.25C749.887 448.314 786.327 437.551 821.524 423.89C839.33 417.266 856.722 409.814 873.7 401.949C890.677 394.083 907.655 385.39 924.633 377.11C958.174 360.551 993.786 347.304 1030.64 341.922C1048.86 339.439 1067.91 338.611 1086.13 340.267C1104.76 341.922 1122.98 345.648 1141.2 349.788C1159.42 354.342 1177.64 359.723 1195.86 364.277C1214.08 368.831 1232.72 372.971 1251.76 375.04C1289.45 380.008 1328.37 377.938 1365.64 370.487C1402.91 363.035 1439.35 351.03 1474.13 336.541C1491.52 329.503 1508.91 321.224 1525.89 313.772C1543.28 306.32 1560.67 299.697 1578.48 294.315C1614.09 283.138 1650.95 275.272 1688.21 270.719C1762.75 261.611 1838.53 264.509 1912.65 276.1C1949.92 281.896 1986.36 289.761 2022.8 299.697C2058.83 309.632 2094.85 321.224 2129.22 335.713L2132.53 327.847C2097.34 312.944 2061.31 301.353 2024.87 291.417C1988.43 281.482 1951.16 273.616 1913.89 267.821C1838.94 256.229 1762.75 253.332 1687.39 262.853C1649.7 267.407 1612.44 275.686 1576.41 286.864C1558.19 292.659 1540.38 299.283 1522.99 306.734C1505.6 314.6 1488.62 322.466 1471.23 329.503C1436.45 343.992 1400.84 355.584 1363.98 363.035C1327.13 370.073 1289.45 372.143 1252.59 367.589C1233.96 365.105 1215.74 361.379 1197.52 356.826C1179.3 352.272 1161.08 346.89 1142.86 342.336C1124.64 337.783 1105.59 334.057 1086.54 332.401C1067.49 330.745 1048.03 331.159 1029.4 334.057C991.301 339.439 955.275 353.1 921.32 369.659C904.342 378.352 887.779 386.632 870.801 394.497C853.823 402.363 836.432 409.814 819.04 416.438C783.842 430.099 747.816 440.863 711.376 450.798C693.156 455.766 674.936 460.733 656.716 466.115C638.496 471.497 620.691 477.292 602.885 483.502C567.273 496.335 532.075 510.411 498.534 528.211C481.97 537.319 465.407 547.254 450.5 558.846C443.046 564.641 435.592 570.851 428.967 577.889C425.654 581.2 422.341 584.926 419.857 589.066C418.615 591.136 416.958 593.206 415.716 595.276C414.474 597.345 413.231 599.415 412.403 602.313V601.899C393.355 654.06 380.518 708.291 363.541 760.452C354.845 786.532 345.735 812.613 332.898 836.623C326.273 848.629 318.819 860.22 308.467 868.914C305.982 870.983 303.084 873.053 300.599 874.709C297.7 876.365 294.388 877.607 291.489 878.849L272.441 887.542C247.181 899.134 222.336 911.139 198.319 925.214C174.302 939.289 151.113 955.02 130.822 974.063C110.532 993.106 93.1399 1016.29 84.444 1042.78C79.889 1056.03 77.4045 1070.11 77.4045 1083.77C76.9904 1097.01 78.6468 1110.26 81.9595 1123.09C70.365 1111.5 59.5986 1099.5 50.4886 1086.25C40.9646 1072.59 32.6828 1057.27 30.1982 1040.71C28.956 1032.43 28.956 1024.15 30.6123 1015.87C32.2687 1007.6 35.5814 1000.14 39.7223 992.692C48.0041 978.203 60.0127 965.784 72.4354 955.02C98.109 933.08 127.095 915.693 156.91 899.134C171.817 890.854 186.724 883.403 202.046 875.537C217.367 868.086 232.274 858.978 245.525 848.215C259.19 837.451 270.785 824.618 280.723 810.543C285.692 803.505 289.833 796.054 293.559 788.188C297.286 780.323 300.599 772.457 303.912 764.592C315.506 732.302 322.546 699.183 332.07 666.479C336.625 650.334 342.008 634.189 348.219 618.458C354.431 602.727 361.884 587.824 370.994 573.749C389.214 545.599 413.232 521.174 440.976 502.131C468.305 482.674 498.948 467.771 530.419 456.18C561.89 444.174 594.603 435.067 627.73 427.615C644.294 423.89 660.857 420.578 677.421 415.61C693.984 411.056 710.134 405.675 726.284 399.879C758.168 388.288 789.639 374.626 820.282 360.137C850.925 345.648 881.567 330.745 912.624 317.498C943.681 304.251 975.566 292.659 1008.28 285.622C1040.99 278.998 1074.95 277.342 1108.07 282.724C1141.2 288.106 1173.09 299.697 1202.9 314.6L1203.32 315.014H1203.73C1223.61 319.568 1243.07 322.466 1263.36 324.949C1283.23 327.019 1303.53 327.847 1323.4 327.433C1343.69 327.019 1363.57 324.949 1383.44 320.396C1403.32 315.842 1422.37 308.804 1439.76 298.041C1443.9 295.143 1448.46 292.245 1452.18 289.348C1455.91 286.45 1460.05 283.552 1464.19 280.654C1472.06 275.272 1480.76 270.305 1489.45 265.337C1506.84 255.815 1524.65 247.95 1543.28 240.912C1580.14 226.837 1618.65 216.902 1657.57 210.278C1677.03 206.552 1696.91 204.482 1716.37 202.413C1736.25 200.757 1755.71 199.515 1775.59 199.515C1815.34 199.101 1854.68 201.171 1894.02 206.552C1972.69 216.902 2049.72 237.601 2123.42 266.579L2127.15 257.057C2052.61 228.079 1974.76 206.966 1895.26 197.031C1855.51 192.063 1815.34 189.579 1775.59 190.407C1755.71 190.407 1735.42 192.063 1715.54 193.719C1695.67 195.789 1675.79 198.273 1655.92 201.585C1616.58 208.622 1577.65 218.558 1539.97 233.047C1521.34 240.084 1502.7 248.364 1485.31 257.885C1476.61 262.853 1467.92 267.821 1459.64 273.616C1455.5 276.514 1451.36 279.412 1447.21 282.724C1443.49 285.622 1439.35 288.52 1435.21 291.003C1418.64 301.353 1400.42 307.976 1381.37 312.53C1362.33 317.084 1342.86 319.154 1322.99 319.568C1303.11 319.982 1283.65 319.154 1263.77 317.084C1244.31 315.014 1224.85 312.116 1205.8 307.562C1175.57 292.245 1142.86 280.654 1108.9 275.272C1074.95 269.891 1039.75 271.547 1006.21 278.584C972.667 285.622 940.368 297.627 908.897 310.874C877.426 324.535 847.198 339.439 816.555 353.928C785.913 368.417 754.856 382.078 723.385 393.669C707.65 399.465 691.5 404.847 675.35 409.4C659.201 413.954 642.637 417.68 626.074 421.406C592.947 429.271 560.233 438.379 528.349 450.798C496.464 462.803 465.407 478.12 437.663 497.991C409.505 517.448 385.073 542.287 366.439 571.265C357.329 585.754 349.462 601.071 343.25 617.216C337.039 632.947 331.656 649.506 326.687 665.651C317.163 698.356 310.123 731.474 298.529 763.35C295.63 771.215 292.317 779.081 288.59 786.532C284.864 793.984 280.723 801.435 276.168 808.059C266.644 821.72 255.463 834.14 242.212 844.489C228.961 854.838 214.882 863.946 199.561 871.397C184.24 878.849 169.332 886.714 154.425 894.994C125.025 911.553 95.6245 929.768 69.9509 952.123C61.6691 959.574 53.8014 967.44 46.7618 976.547C53.8014 960.402 62.0832 944.257 71.6072 929.768C74.9199 924.8 78.2327 920.246 81.9595 915.693L82.3736 916.107C84.0299 913.623 85.6863 911.553 87.3426 909.069C96.0385 899.134 105.563 890.026 115.915 882.161C133.307 868.5 151.941 856.908 170.161 843.661C188.381 830.828 204.944 815.511 219.023 798.124C234.759 780.737 246.767 760.866 257.12 740.167C267.472 719.468 275.754 697.942 282.793 676.001C289.419 654.06 294.388 631.291 298.529 608.523C302.669 586.168 312.608 565.469 325.03 546.84C337.867 527.798 353.188 510.825 369.752 495.507C386.316 480.19 404.536 466.115 423.584 453.282C461.68 428.029 503.089 407.745 546.983 394.911C557.749 391.599 568.929 389.53 580.11 387.046C591.29 384.976 602.471 382.492 614.065 380.008C636.426 375.04 658.787 369.245 680.734 362.621C725.041 349.374 767.693 331.987 809.516 312.53C830.22 302.595 850.925 292.245 871.215 281.482C891.505 270.719 911.796 260.369 932.914 251.262C954.033 242.154 975.152 234.289 997.098 228.493C1007.86 225.595 1019.05 223.525 1030.23 222.283C1035.61 221.869 1041.41 221.869 1046.79 221.869C1052.17 222.283 1057.97 223.111 1063.77 223.939C1086.54 226.837 1109.32 228.907 1132.09 232.633C1154.45 235.945 1176.81 241.326 1198.76 247.536C1242.65 261.197 1288.62 271.961 1335.41 269.477C1358.6 268.235 1382.2 263.267 1403.73 253.332C1414.5 248.364 1424.44 241.74 1433.55 234.289C1435.62 232.219 1438.1 230.149 1440.17 228.493C1442.25 226.423 1444.32 224.353 1446.39 222.283C1450.11 218.144 1454.25 214.418 1458.39 210.692C1475.37 196.617 1496.08 186.268 1517.2 177.988C1538.31 169.709 1560.26 163.913 1582.62 158.945C1627.34 149.424 1672.89 144.042 1718.44 141.972C1763.99 139.902 1809.96 140.73 1855.51 145.284C1901.06 149.424 1946.61 155.219 1991.74 163.085C2014.1 167.225 2036.88 171.778 2058.83 176.746C2070.01 179.23 2080.77 182.542 2091.95 185.44C2102.72 188.751 2113.49 192.477 2123.42 197.031L2128.39 187.096C2117.21 182.128 2106.45 178.402 2095.27 175.09C2084.08 171.778 2072.9 168.881 2061.72 165.983C2039.36 160.601 2016.59 156.047 1993.81 152.322C1948.26 144.456 1902.71 139.074 1856.75 134.935C1810.79 130.795 1764.41 129.967 1718.44 132.037C1672.48 134.521 1626.52 139.488 1580.97 149.424C1558.19 154.391 1535.83 160.601 1514.3 169.295C1492.76 177.988 1471.65 188.337 1453.01 203.655C1448.46 207.38 1444.32 211.52 1440.17 216.074C1438.1 218.144 1436.45 220.214 1434.38 221.869C1432.31 223.525 1430.24 225.595 1428.17 227.251C1419.88 234.289 1410.36 240.498 1400.42 245.466C1380.13 254.988 1358.18 259.955 1335.41 261.197C1313.05 262.439 1290.27 260.369 1267.91 256.643C1245.55 252.918 1223.61 246.708 1201.66 240.084C1179.3 233.875 1156.94 228.493 1133.75 225.181C1110.97 221.869 1088.2 219.386 1065.42 216.902C1059.63 216.074 1054.24 215.246 1048.03 214.832C1042.23 214.418 1036.02 214.832 1030.23 215.246C1018.63 216.488 1007.04 218.558 995.856 221.869C973.495 227.665 951.549 235.945 930.43 245.466C909.311 254.574 888.607 265.337 868.316 276.1C848.026 286.864 827.736 297.213 807.031 307.148C765.622 327.019 723.385 344.406 679.491 357.24C657.545 363.863 635.598 369.659 613.237 375.04C602.057 377.524 590.876 380.008 579.696 382.078C568.515 384.148 556.921 386.632 545.74 389.944C523.379 396.567 501.847 404.847 481.142 414.782C460.438 424.718 440.147 436.309 421.099 449.142C402.051 461.975 383.417 476.051 366.439 491.782C349.462 507.513 333.726 524.9 320.889 544.357C317.163 550.152 313.436 555.948 310.123 562.158C313.022 550.566 316.334 539.389 320.475 528.211C327.515 509.583 336.211 492.196 346.563 475.223C367.682 441.691 396.254 413.54 429.795 392.841C446.359 382.492 464.579 374.213 482.799 367.175C501.433 360.137 520.481 355.998 539.529 350.616C577.625 340.267 616.136 329.089 653.404 316.256C672.038 310.046 690.672 303.009 709.306 295.971C727.94 288.52 746.16 280.654 763.966 272.375C799.992 255.815 835.189 237.601 870.801 219.8C906.413 202.413 942.853 187.096 980.949 176.332C999.997 170.95 1019.05 166.811 1038.51 164.741C1043.48 164.327 1048.45 163.913 1053 163.499C1057.97 163.499 1062.94 163.085 1067.49 163.085L1074.95 163.499L1081.99 164.327C1086.54 164.741 1091.93 165.569 1095.65 166.811H1096.07C1139.13 177.16 1182.61 186.268 1226.5 193.719C1237.68 195.375 1248.45 197.031 1259.63 198.273C1270.81 199.101 1281.58 199.929 1292.76 200.757C1303.94 201.999 1314.71 203.241 1326.3 203.241C1337.48 203.241 1349.07 201.999 1360.26 199.515C1382.62 194.133 1402.91 182.956 1421.54 170.95C1431.06 164.741 1439.76 157.703 1448.87 151.494L1462.54 144.042C1467.09 141.144 1472.06 138.246 1476.61 135.763C1479.1 134.521 1481.17 132.865 1483.65 131.623L1491.11 127.897L1505.6 120.445L1520.92 114.236C1525.89 112.166 1530.86 110.096 1536.24 108.44C1556.95 101.403 1578.07 95.6069 1599.6 91.0531L1615.75 88.1553C1621.13 87.3274 1626.52 86.0854 1631.9 85.2575L1664.61 81.1177C1675.38 80.2898 1686.56 79.4618 1697.74 78.6339C1708.92 77.8059 1719.69 77.8059 1730.87 77.3919H1747.43H1755.71C1758.61 77.3919 1761.09 77.3919 1763.99 77.8059L1797.12 79.0478C1808.3 79.0478 1819.07 80.7038 1830.25 81.5317L1863.37 84.4295C1951.16 94.365 2038.12 112.994 2123.42 135.763L2125.49 127.483C2039.78 103.886 1952.4 85.6715 1864.2 75.3221L1831.08 72.4242C1819.9 71.5963 1809.13 70.3544 1797.95 69.9404L1764.41 68.6985C1761.51 68.6985 1759.02 68.2845 1756.13 68.2845H1747.84H1731.28C1720.1 68.2845 1708.92 68.2845 1697.74 69.5264C1686.56 70.3544 1675.38 70.7683 1664.2 72.0103L1631.07 76.15C1625.69 76.564 1619.89 78.2199 1614.51 79.0478L1597.94 81.9457C1576 86.4994 1554.46 92.2951 1533.34 99.7466C1527.96 101.403 1522.99 103.886 1517.61 105.542L1501.87 111.752L1486.97 119.203L1479.51 122.929C1477.03 124.171 1474.54 125.827 1472.06 127.069C1467.09 129.967 1462.54 132.865 1457.57 135.763L1443.9 145.698C1434.79 152.322 1426.51 158.945 1416.99 164.741C1398.77 176.746 1379.3 187.096 1358.6 192.063C1348.25 194.547 1337.48 195.789 1326.71 195.789C1315.95 195.789 1305.18 194.547 1294 193.719C1282.82 192.477 1271.64 192.063 1260.87 191.235C1250.11 189.993 1238.93 188.751 1228.16 187.096C1184.68 180.472 1141.2 171.364 1098.14 161.429H1098.55C1093.17 159.773 1088.2 159.359 1083.23 158.531L1075.78 158.117H1068.32C1063.35 158.117 1058.38 158.531 1053.41 158.531C1048.45 158.945 1043.48 159.359 1038.51 159.773C1018.63 162.257 999.169 166.811 979.707 172.192C941.196 183.37 904.342 199.101 869.145 216.902C833.533 234.703 798.749 253.332 762.724 269.477C744.918 277.756 726.698 285.622 708.064 293.073C689.844 300.525 671.21 307.148 652.161 313.772C614.893 326.605 576.797 337.783 538.287 348.132C519.239 353.514 499.776 357.654 481.142 364.691C462.508 371.729 444.288 380.008 427.311 390.772C393.355 411.884 363.955 440.449 342.836 474.395C332.07 491.368 323.374 509.169 316.334 527.797C313.022 537.319 309.709 546.84 307.224 556.362C305.982 561.33 304.74 565.883 303.912 570.851C303.498 572.921 303.084 575.405 302.669 577.475C298.529 587.41 295.216 598.173 293.145 608.937C289.004 631.705 284.864 654.06 278.238 676.001C271.613 697.942 263.331 719.468 253.393 739.753C248.01 750.102 243.04 760.038 236.829 769.559C230.618 779.081 223.992 788.602 216.539 796.882C202.46 813.855 185.896 828.344 168.09 841.177C150.284 854.01 131.236 865.602 113.844 879.677C110.532 882.575 106.805 885.473 103.492 888.37C125.439 857.322 146.143 825.446 166.02 792.742C178.857 771.215 191.279 749.688 202.46 727.334C213.64 704.979 224.406 682.624 233.516 659.028C238.071 647.436 242.212 635.431 245.525 623.426C248.838 611.421 251.736 599.001 253.393 586.582C256.705 562.157 262.917 538.147 272.027 515.378C289.833 469.427 319.233 428.443 354.431 394.083C372.237 377.11 391.699 361.793 411.989 347.718C432.694 334.057 454.226 322.052 477.001 312.116C499.776 302.181 522.965 293.901 546.983 288.106C558.991 285.208 571 282.31 583.422 279.826C595.431 276.928 607.854 274.03 619.862 270.719C667.897 257.885 715.517 240.912 760.653 219.386C805.789 197.859 848.854 173.02 891.505 147.354C915.523 136.176 940.782 127.069 966.042 119.617C991.715 112.166 1017.8 106.784 1044.3 105.128C1057.56 104.3 1070.81 104.3 1083.64 105.542C1090.27 106.37 1096.48 107.198 1103.11 108.854C1106.42 109.682 1109.32 110.51 1112.63 111.338L1122.15 114.236C1147.83 122.101 1173.91 128.725 1200.42 134.107C1226.92 139.488 1253.42 143.628 1280.34 144.87C1294 145.284 1307.67 145.284 1321.33 143.214C1327.96 141.972 1335 139.902 1341.21 137.004C1347.42 134.107 1353.63 131.209 1359.43 127.897C1406.63 102.23 1452.18 74.0801 1500.22 51.3115C1524.23 40.1341 1548.67 29.3708 1574.34 23.5751C1600.43 17.7794 1626.52 13.6397 1653.02 10.7419C1706.02 4.9462 1759.44 3.70427 1812.86 7.01608C1919.28 13.2257 2024.87 36.8223 2124.25 75.3221L2126.74 68.6985C2025.7 31.0267 1919.69 7.43005 1812.44 0.80644C1758.61 -2.50537 1704.78 -1.26344 1651.36 4.53222C1624.44 7.43005 1597.94 11.5698 1571.86 17.3655C1558.6 20.2633 1545.77 24.4031 1532.93 29.3708C1520.51 34.3385 1508.09 39.7202 1496.08 45.5158C1447.63 68.6985 1401.66 96.8488 1354.87 122.101C1349.07 125.413 1343.28 128.311 1337.07 130.795C1331.27 133.693 1325.06 135.349 1318.85 136.59C1306.01 138.66 1292.76 139.074 1279.51 138.246C1253.01 137.004 1226.5 132.865 1200.42 127.897C1174.33 122.515 1148.24 115.892 1122.98 108.44L1113.46 105.542C1110.15 104.714 1106.83 103.472 1103.52 103.058C1096.89 101.403 1090.27 100.575 1083.23 99.7466C1069.56 98.0907 1055.9 98.0907 1042.65 99.3327C1015.73 101.403 988.817 106.784 963.143 114.236C937.055 121.687 911.796 130.795 887.365 142.386C844.713 168.053 801.648 192.891 756.926 214.004C712.205 235.117 665.412 252.09 617.378 264.923C605.369 268.235 593.361 271.133 581.352 274.03C569.343 276.928 557.335 279.412 544.912 282.31C520.481 288.52 496.878 296.799 473.689 306.734C450.914 316.67 428.553 329.089 407.848 342.75C387.144 356.826 367.267 372.557 349.462 389.944C313.436 424.718 284.035 466.943 265.815 513.722C256.705 536.905 250.494 561.744 247.181 586.582C245.525 598.587 242.626 610.593 239.314 622.598C235.587 634.603 231.86 646.195 227.305 657.786C218.609 680.969 207.843 703.323 196.662 725.264C185.482 747.205 173.059 769.145 160.637 790.258C135.377 832.898 108.047 874.295 78.6468 914.451L79.0608 914.865C75.334 919.419 72.0213 924.386 68.7086 929.354C62.9113 938.875 57.5282 948.397 52.5591 958.746C48.8323 967.026 45.5196 975.305 42.2068 983.999C40.1364 986.897 38.0659 989.794 36.4096 993.106C32.2687 1000.56 28.956 1008.84 27.2996 1017.12C25.6432 1025.81 25.6432 1034.5 26.8855 1042.78C29.7841 1059.76 38.48 1075.49 48.4182 1089.15C58.3563 1102.81 69.9509 1114.82 81.9595 1126.41V1126.82H82.3736L82.7877 1126.41L83.6158 1126.82C98.5231 1097.43 117.571 1070.11 139.104 1045.27C161.051 1020.84 186.724 998.902 216.953 986.483C232.274 980.273 248.424 976.961 264.573 976.961C281.137 976.547 296.872 981.101 311.779 987.311C322.96 991.864 333.726 996.832 344.493 1002.63C345.321 1003.04 346.563 1003.87 347.391 1004.28C350.29 1005.94 353.188 1007.18 356.087 1008.84C370.58 1016.7 385.073 1024.98 399.152 1033.26C456.297 1066.79 513.027 1101.57 574.727 1127.23C605.369 1140.07 637.254 1150.42 670.381 1155.8C703.509 1161.18 737.464 1162.01 770.591 1154.56C787.155 1151.24 802.89 1145.86 818.212 1138.83C833.533 1131.37 847.612 1122.27 860.449 1111.5C867.074 1106.12 873.286 1100.33 879.083 1094.53C884.88 1088.32 890.677 1082.53 896.475 1077.14C908.483 1065.97 921.32 1055.62 934.571 1046.1C987.988 1008.01 1052.59 985.241 1118.01 981.929C1150.73 980.273 1183.85 983.171 1216.15 989.794C1232.3 993.106 1248.87 996.418 1265.43 998.074C1281.99 1000.14 1298.56 1000.97 1315.53 1000.56C1349.07 1000.14 1382.2 995.59 1414.5 986.069C1430.65 981.515 1446.39 975.719 1461.29 968.682C1476.61 961.644 1491.11 953.779 1504.77 943.429L1513.05 938.461C1515.95 936.805 1518.85 935.15 1521.75 933.494L1530.45 928.526L1539.56 923.972C1545.35 921.074 1551.56 918.591 1557.78 915.693C1563.99 913.209 1570.2 910.725 1576.41 908.655C1601.67 899.962 1627.76 893.752 1654.26 890.026C1707.26 882.575 1761.51 883.817 1814.93 890.44C1868.34 897.064 1920.93 909.069 1972.28 924.386C1997.95 932.252 2023.63 940.531 2048.89 950.053C2074.15 959.16 2098.99 969.51 2123.84 979.859L2124.25 978.617C2099.41 967.854 2074.56 957.918 2049.3 948.397C2024.04 938.875 1998.37 930.182 1972.69 922.316C1920.93 906.585 1868.34 894.166 1814.93 887.128C1761.51 880.091 1706.85 878.435 1653.02 885.473C1599.19 892.51 1546.6 909.069 1500.22 938.461C1487.38 947.983 1472.89 955.848 1457.98 962.886C1443.07 969.924 1427.75 975.305 1412.02 979.859C1380.55 988.966 1347.83 993.934 1314.71 993.934C1298.14 993.934 1281.99 993.106 1265.43 991.45C1248.87 989.794 1233.13 986.483 1216.57 983.171C1183.85 976.547 1150.31 973.235 1117.18 975.305C1050.52 978.203 985.09 1001.8 930.43 1040.71C916.765 1050.23 903.928 1061 891.505 1072.18C885.294 1077.97 879.497 1083.77 873.7 1089.98C867.902 1095.77 862.105 1101.15 855.48 1106.54C830.22 1127.23 799.577 1140.9 767.693 1147.93C735.808 1154.97 702.68 1154.56 670.381 1149.59C638.082 1144.21 606.612 1134.27 575.969 1121.85C532.075 1103.64 490.252 1080.87 448.843 1057.27C517.582 1064.72 587.149 1056.03 653.818 1039.47C689.43 1030.36 724.627 1019.19 758.583 1005.11C792.538 991.036 825.665 975.305 857.55 956.676C861.691 954.193 865.418 952.123 869.559 949.639L881.153 942.187C889.021 937.219 896.475 932.252 904.342 927.284C920.078 918.177 936.641 910.311 953.619 903.687C987.574 891.268 1024.01 884.231 1060.45 886.3C1078.67 887.128 1096.89 889.612 1114.29 894.58C1122.98 896.65 1132.09 899.548 1140.79 902.032C1149.48 904.515 1158.59 906.585 1167.29 908.655C1202.9 916.935 1239.34 923.558 1276.2 925.214C1313.05 927.284 1349.9 925.628 1385.93 918.177C1421.95 911.139 1457.15 898.306 1489.04 879.677L1512.64 866.016C1516.37 863.532 1520.92 861.876 1524.65 859.806C1528.79 857.736 1532.93 856.08 1537.07 854.424C1554.05 847.801 1571.44 842.419 1589.25 838.693C1624.86 830.414 1661.3 826.688 1697.74 825.032C1734.18 823.376 1771.03 823.79 1807.47 826.274C1843.91 828.758 1880.35 832.898 1916.38 839.107C1952.4 845.317 1988.02 853.596 2023.21 864.36C2031.91 866.844 2040.61 870.155 2049.3 873.053C2058 876.365 2066.28 879.677 2074.56 883.403C2091.12 890.854 2107.69 899.134 2122.59 909.483L2123.84 907.413C2108.93 896.65 2092.37 888.37 2075.39 880.919C2067.11 877.193 2058.41 873.881 2049.72 870.569C2041.02 867.672 2032.32 864.36 2023.63 861.876C1988.84 850.699 1952.82 842.419 1916.79 836.209C1880.77 830 1844.33 825.446 1807.47 822.962C1771.03 820.478 1734.18 819.65 1697.32 821.306C1660.88 823.376 1624.03 826.688 1588 834.967C1570.2 839.107 1552.39 844.075 1535.42 851.113C1531.27 852.768 1526.72 854.424 1522.58 856.494C1518.44 858.564 1514.3 860.22 1510.16 862.704L1486.14 876.365C1454.67 894.58 1419.88 906.999 1384.27 914.037C1348.66 921.074 1311.81 922.73 1275.37 920.661C1238.93 918.591 1202.9 912.381 1167.29 903.687C1158.18 901.618 1149.48 899.134 1140.79 897.064C1132.09 894.58 1123.4 892.096 1114.29 889.612C1096.48 884.645 1078.26 882.161 1059.63 881.333C1022.77 879.677 985.504 886.3 951.134 899.134C933.743 905.343 917.179 913.623 901.03 922.73C893.162 927.284 885.294 932.666 877.841 937.633L866.246 945.085C862.519 947.569 858.378 949.639 854.651 952.123C823.181 970.752 790.053 986.483 756.512 1000.14C722.557 1013.8 687.773 1025.4 652.576 1034.09C616.964 1042.78 580.938 1049.41 544.912 1052.3L531.247 1053.13C526.692 1053.55 522.137 1053.96 517.582 1053.96C508.472 1053.96 499.362 1054.37 490.252 1053.96C481.142 1053.55 472.032 1053.13 462.922 1052.3L449.257 1050.65L442.632 1049.82L439.319 1049.41C438.491 1049.41 438.077 1049.41 437.249 1048.99C425.24 1041.96 413.231 1034.92 401.223 1027.88C391.699 1022.08 381.761 1016.7 372.237 1011.32C382.175 1012.98 392.113 1013.8 402.051 1013.39C419.443 1012.56 436.421 1007.6 451.328 998.902C464.993 992.278 478.244 985.241 491.909 978.203C508.058 969.924 524.622 962.058 542.013 956.262C558.991 950.467 577.211 946.741 595.017 948.397C599.572 948.811 603.713 949.225 608.268 950.053L614.893 951.709C617.378 952.123 619.862 952.537 621.933 952.537C631.457 952.951 640.567 951.709 649.677 950.053C667.897 946.741 685.703 942.187 703.095 937.22C720.9 932.252 738.292 926.87 755.684 920.661C790.468 908.655 824.837 895.822 857.964 880.505C866.246 876.779 874.528 872.639 882.395 868.086C886.536 866.016 890.263 863.118 893.99 860.634C897.717 858.15 901.858 855.666 905.585 853.596C921.32 844.489 937.884 837.037 954.861 830.828C988.817 818.408 1025.26 812.199 1061.7 813.855C1079.92 814.683 1097.72 817.581 1115.11 822.548C1132.51 827.516 1150.31 832.484 1168.12 836.623C1203.73 844.903 1240.17 851.113 1277.02 853.182C1313.46 855.252 1350.73 853.596 1386.76 846.145C1422.78 838.693 1457.98 825.86 1489.87 807.645L1501.46 800.608C1505.19 798.124 1509.33 796.054 1513.05 793.57C1520.92 789.43 1529.2 785.704 1537.49 781.979C1554.46 775.355 1571.86 770.387 1589.66 766.248C1625.27 758.382 1661.71 754.656 1698.15 752.586C1771.03 749.275 1844.33 754.656 1916.38 767.076C1952.4 773.285 1988.02 781.565 2022.8 792.328C2040.19 797.71 2057.17 803.919 2074.15 811.371C2090.71 818.822 2106.86 827.102 2121.77 837.451L2124.25 834.14C2108.93 823.376 2092.78 815.097 2075.8 807.645C2058.83 800.194 2041.85 793.984 2024.04 788.188C1988.84 777.011 1953.23 768.731 1917.21 762.522C1845.15 750.102 1771.45 744.721 1698.15 748.033C1661.71 749.688 1624.86 753.828 1588.83 761.694C1571.03 765.834 1553.22 770.801 1535.83 777.425C1527.13 780.737 1518.85 784.462 1510.57 789.016C1506.43 791.086 1502.7 793.57 1498.56 796.054L1486.97 803.091C1455.5 821.306 1421.13 834.14 1385.51 841.177C1349.9 848.215 1313.05 850.285 1277.02 848.215C1240.58 846.145 1204.56 840.349 1168.95 831.656C1151.14 827.516 1133.75 822.548 1115.94 817.581C1098.14 812.613 1079.92 809.715 1061.28 808.887C1024.43 807.231 987.16 813.441 952.791 826.274C935.399 832.484 918.835 840.349 902.686 849.457C898.545 851.94 894.818 854.01 890.677 856.494C886.95 858.978 883.224 861.462 879.083 863.532C871.215 868.086 862.933 872.225 854.651 875.951C821.524 891.268 787.155 904.101 752.785 916.107C735.394 921.902 718.002 927.284 700.61 932.252C683.218 937.219 665.412 941.773 647.606 944.671C638.496 945.913 629.801 947.569 620.691 947.155C618.62 947.155 616.136 946.741 614.479 946.327L607.854 944.671C603.299 943.843 598.744 943.015 593.775 942.601C575.141 941.359 556.507 945.085 539.115 950.881C513.855 959.16 490.666 971.993 467.477 983.999C473.689 977.789 478.658 970.752 482.799 963.3C482.799 962.886 483.213 962.472 483.213 962.058C484.455 959.574 485.697 956.676 486.94 954.193C489.424 949.639 492.737 945.499 496.464 941.773C502.675 935.564 509.714 930.596 517.582 926.456C532.904 918.177 550.295 912.381 567.273 907.413C601.642 897.478 637.254 890.44 672.038 880.919C706.821 871.811 741.605 861.048 775.146 847.801C808.688 834.554 841.815 819.236 873.286 801.435C881.153 796.882 889.021 792.328 896.475 787.774C904.342 783.221 912.21 779.081 920.078 775.355C936.227 767.489 952.791 760.866 969.768 755.484C1003.72 745.135 1040.16 740.167 1075.36 744.307C1084.06 745.135 1093.17 746.791 1101.86 748.447C1110.56 750.102 1119.26 753 1127.95 755.484C1145.34 760.452 1162.73 765.006 1180.54 768.731C1215.74 776.597 1251.76 781.565 1288.2 782.807C1324.23 784.049 1361.08 781.151 1396.28 772.871C1431.48 764.592 1465.85 750.93 1496.49 731.888C1526.31 712.017 1561.09 701.253 1596.29 693.802C1631.48 686.764 1667.51 683.038 1703.12 681.796C1775.17 679.313 1847.23 684.694 1918.03 697.114C1953.65 703.323 1988.43 711.603 2022.8 722.366C2039.78 727.748 2056.75 733.957 2073.32 741.409C2089.88 748.861 2105.62 757.14 2120.11 767.076L2122.59 763.764C2107.69 753.414 2091.54 744.721 2074.97 737.269C2058.41 729.818 2041.43 723.608 2024.04 718.226C1989.67 707.049 1954.47 699.183 1918.86 692.56C1847.64 680.141 1775.17 674.345 1703.12 677.243C1667.1 678.485 1631.07 682.21 1595.46 689.248C1577.65 692.974 1560.26 697.528 1542.87 703.737C1534.17 707.049 1525.89 710.361 1517.61 714.087C1509.33 717.812 1501.46 722.78 1494.01 727.334C1463.36 745.963 1429.82 759.624 1395.04 767.903C1360.26 776.183 1324.23 778.667 1288.2 777.425C1252.18 776.183 1216.57 771.215 1181.37 763.35C1163.98 759.624 1146.58 755.07 1129.19 750.102C1120.5 747.619 1111.8 745.135 1103.11 743.065C1094 740.995 1085.3 739.753 1076.19 738.511C1039.75 734.371 1002.9 739.339 968.112 750.102C950.72 755.484 933.743 762.108 917.593 769.973C909.311 774.113 901.444 778.253 893.576 782.807C885.708 787.36 878.255 791.914 870.387 796.468C839.33 814.269 806.617 829.586 773.076 842.419C739.534 855.252 705.165 866.016 670.381 875.123C635.598 884.231 600.4 891.682 565.617 901.618C548.225 906.585 530.833 912.381 514.684 921.074C507.23 925.214 500.19 930.182 493.979 935.978L497.292 926.456C498.12 923.972 498.948 921.902 499.776 919.419L502.675 912.381C504.745 907.827 506.402 903.273 508.886 898.72L512.613 892.096C513.855 890.026 515.098 887.542 516.34 885.886C527.106 868.914 540.357 854.01 556.093 842.005C571.828 829.586 589.22 820.064 607.854 812.613L614.893 809.715L621.933 807.231C626.488 805.575 631.457 804.333 636.426 803.091C645.95 800.607 655.888 798.538 665.826 796.882C685.703 793.156 705.579 789.016 725.455 784.049C745.332 779.081 764.794 773.285 783.842 767.076C803.304 760.452 821.938 753.414 840.986 745.549C859.621 737.683 878.669 728.99 895.232 717.812C912.21 707.049 930.016 698.356 948.65 690.904C985.918 676.415 1026.08 669.377 1065.84 671.861L1080.74 673.517C1085.71 673.931 1090.68 675.173 1095.65 676.001C1100.62 676.829 1105.18 678.071 1110.15 679.313C1115.11 680.555 1119.67 681.796 1124.64 683.038C1144.1 688.42 1163.98 693.388 1183.85 697.942L1198.76 700.839L1213.67 703.323C1223.61 705.393 1233.96 706.221 1243.9 707.877C1264.19 709.947 1284.48 711.603 1304.77 711.189C1345.35 711.189 1386.34 705.807 1425.27 693.388L1439.76 688.006L1446.8 685.522C1449.28 684.694 1451.77 683.866 1453.84 682.624L1467.5 676.001C1472.06 673.931 1477.03 671.861 1481.17 668.963C1498.98 659.028 1515.54 647.85 1534.17 640.399C1552.81 632.947 1571.86 627.152 1591.73 623.012C1611.19 618.872 1631.07 615.56 1651.36 613.49C1671.24 611.421 1691.53 609.765 1711.82 609.351C1732.11 608.523 1751.98 608.937 1772.27 609.351C1812.44 611.007 1852.61 614.318 1892.78 620.528C1932.53 626.324 1972.28 634.603 2010.79 646.195C2030.25 651.99 2048.89 658.614 2067.52 666.479C2086.16 674.345 2103.96 683.452 2120.52 694.63L2123.84 690.076C2106.86 678.485 2088.64 668.963 2070.01 661.098C2051.37 653.232 2031.91 646.609 2012.45 640.813C1973.52 629.222 1933.77 620.942 1893.6 614.732C1853.44 608.523 1812.86 605.211 1772.69 603.555C1752.4 602.727 1732.11 602.727 1711.82 603.555C1691.53 603.969 1671.24 605.625 1650.95 607.695C1630.66 609.765 1610.78 613.077 1590.9 617.216C1571.03 621.356 1551.15 627.152 1532.52 635.017C1527.55 636.673 1522.99 639.157 1518.44 641.227C1515.95 642.469 1513.88 643.297 1511.4 644.539L1504.77 648.264L1478.69 663.582C1474.54 666.065 1469.99 668.135 1465.43 670.205L1451.77 676.415C1449.7 677.657 1447.21 678.485 1444.73 679.313L1437.69 681.796L1423.61 687.178C1385.51 699.597 1345.35 704.565 1305.18 704.565C1285.31 704.979 1265.01 703.323 1245.14 701.253C1235.2 699.597 1225.26 698.769 1215.32 696.7L1200.42 694.216L1185.51 691.318C1165.63 687.178 1146.17 682.211 1126.71 676.415C1121.74 675.173 1117.18 673.517 1111.8 672.275C1106.83 671.033 1101.86 669.377 1096.89 668.963C1091.93 668.135 1086.96 666.893 1081.57 666.479L1066.25 664.823C1025.26 661.926 984.262 669.377 945.751 683.866C926.703 691.318 908.483 700.425 891.091 711.189C874.528 722.366 856.308 730.646 837.674 738.511C819.04 746.377 799.992 753.414 780.943 759.624C761.895 765.834 742.433 771.629 722.971 776.597C703.509 781.565 683.632 785.704 663.756 789.43C653.818 791.086 643.88 793.156 633.941 795.64C628.972 796.882 624.003 798.124 619.034 800.194L611.581 802.677L604.541 805.575C585.493 813.027 567.273 823.376 551.123 836.209C534.974 849.043 520.895 864.36 510.129 881.747C498.948 899.134 491.494 918.591 485.697 938.047C484.455 942.187 483.213 945.913 481.556 950.053C479.9 953.365 478.244 956.676 476.587 959.988C470.79 970.338 463.336 979.445 454.226 986.483C438.905 998.488 419.443 1004.7 399.567 1005.94C380.518 1007.18 360.642 1003.46 343.664 995.59C332.898 990.208 322.132 984.827 310.537 980.687C302.669 977.789 294.802 974.891 286.52 973.235C278.238 971.166 269.956 970.338 261.26 970.752C260.432 970.752 260.018 970.752 259.19 970.752C264.573 968.682 270.37 967.026 275.754 964.956C288.176 959.988 300.185 954.607 312.194 948.397C335.797 935.978 358.572 921.488 378.862 904.101C387.144 897.064 395.426 890.026 402.879 882.161L422.341 864.774C436.835 852.354 452.156 840.349 467.063 827.93C498.12 804.747 529.177 781.979 563.546 764.178L569.758 760.866L573.07 759.21L576.383 757.554L589.634 751.758L602.885 745.963L616.55 740.995L630.215 736.027L644.294 731.888C648.849 730.646 653.404 728.99 658.373 728.162L672.452 724.85C681.976 722.366 691.5 720.71 700.61 718.64L729.182 712.431C738.706 710.361 747.816 707.877 757.34 705.393C766.864 702.909 775.974 699.597 785.084 697.114C821.938 685.108 857.136 667.307 890.677 648.678C924.219 629.635 959.83 614.318 997.513 606.453C1016.15 602.727 1035.61 600.657 1054.66 600.657C1059.63 601.071 1064.18 600.657 1069.15 601.071L1083.64 602.313L1097.72 604.797C1102.28 605.625 1106.83 606.867 1111.8 608.109C1149.07 618.458 1186.75 628.394 1225.26 633.775C1263.77 639.571 1302.7 641.641 1341.62 638.329C1346.59 638.329 1351.15 637.501 1356.11 636.673L1370.61 634.603C1380.13 632.947 1389.66 630.878 1399.18 628.808C1408.7 625.91 1417.81 623.84 1427.34 620.942L1441 615.974C1445.56 614.318 1450.11 612.663 1454.67 610.593L1467.92 604.383C1472.47 602.313 1477.03 600.243 1481.17 597.759L1506.43 583.27C1522.99 573.749 1540.8 566.297 1559.02 560.502C1577.24 555.12 1596.29 550.566 1615.33 547.254C1634.38 544.357 1653.43 541.873 1672.89 540.217C1749.91 534.421 1827.35 538.975 1903.54 550.98C1941.64 557.19 1979.32 565.469 2016.17 576.647C2034.81 582.028 2052.61 588.652 2070.42 596.518C2088.23 603.969 2105.2 613.076 2120.94 623.84L2124.25 619.286C2108.1 608.109 2090.71 599.001 2072.9 591.55C2055.1 584.098 2036.88 577.061 2018.24 571.679C1980.98 560.088 1942.88 552.222 1904.78 546.012C1828.18 534.007 1750.33 529.453 1672.89 535.249C1653.43 536.491 1634.38 539.389 1614.92 542.287C1595.87 545.598 1576.82 549.738 1558.19 555.534C1539.56 561.33 1521.34 568.781 1504.36 578.717L1479.51 593.206C1475.37 595.69 1470.82 597.759 1466.68 599.829L1453.43 606.039C1449.28 608.109 1444.32 609.765 1440.17 611.421L1426.51 616.388C1417.4 619.286 1407.88 621.77 1398.77 624.254C1389.24 626.324 1380.13 628.394 1370.61 630.049L1356.11 632.119C1351.15 632.533 1346.59 633.361 1341.62 633.775C1303.11 637.087 1264.6 635.017 1226.5 629.222C1188.41 623.84 1151.14 613.904 1113.46 603.555C1108.9 602.313 1103.93 601.071 1099.38 600.243L1084.89 597.759L1070.39 596.104C1065.42 595.69 1060.45 595.69 1055.9 595.69C1036.44 595.276 1016.97 597.345 997.927 601.485C959.83 609.351 923.39 625.082 889.849 644.539C856.308 663.168 821.524 680.555 785.084 692.974C775.974 695.872 766.864 698.77 757.34 701.253C747.816 703.737 738.706 706.221 729.182 708.291L701.024 714.501C691.5 716.57 681.976 718.64 672.452 720.71L658.373 724.022C653.818 725.264 648.849 726.506 644.294 728.162L630.215 732.302L616.55 737.269L602.885 742.237L589.634 748.033L576.383 754.242L573.07 755.898L569.758 757.554L563.546 760.866C528.763 778.667 497.706 801.849 466.649 825.032C453.812 835.795 440.976 846.145 428.553 856.494C433.108 851.113 437.249 845.731 440.976 839.935C459.195 821.306 476.587 801.849 493.151 781.565C511.371 760.038 528.763 737.683 548.639 717.812C558.577 707.877 568.929 698.356 580.524 690.49C592.118 682.21 604.541 676.415 617.792 671.447C643.88 661.512 671.624 655.302 699.368 650.748C729.182 642.055 758.583 632.947 787.983 622.598C802.476 617.63 816.969 612.249 831.462 606.453C845.956 600.657 860.035 594.448 874.114 587.41C877.426 585.754 881.153 583.684 884.466 581.614C887.779 579.544 891.091 577.475 894.404 575.405C901.03 571.265 907.655 567.539 914.28 563.813C927.945 556.776 942.024 550.152 956.518 545.184C985.504 534.835 1016.15 528.625 1046.79 528.211C1050.52 527.798 1054.66 528.211 1058.38 528.211C1062.11 528.211 1066.25 528.211 1069.98 528.625C1077.43 529.453 1085.3 529.867 1092.75 531.523C1096.48 532.351 1100.21 532.765 1103.93 533.593L1115.11 536.491C1122.57 538.147 1130.02 540.631 1137.47 542.701C1167.29 550.98 1197.52 557.604 1228.16 562.158C1258.8 566.711 1289.86 569.195 1320.92 567.953C1351.97 566.711 1383.03 562.572 1412.84 554.292L1424.03 550.98C1427.75 550.152 1431.48 548.496 1435.21 547.254L1445.97 543.115L1451.36 541.045C1453.01 540.217 1455.08 539.389 1456.74 538.561L1477.86 528.625L1498.15 517.034C1524.23 500.475 1553.22 489.712 1583.04 482.674C1612.85 475.637 1643.49 471.497 1674.14 469.013C1704.78 466.529 1735.83 466.115 1766.48 466.943C1828.18 468.599 1889.46 475.637 1949.92 488.47C1980.15 495.093 2009.96 502.959 2038.95 512.894C2053.44 517.862 2067.52 523.658 2081.6 530.281C2095.27 536.905 2108.93 544.357 2121.35 553.05L2125.08 547.668C2112.24 538.975 2098.16 531.109 2084.08 524.486C2070.01 518.276 2055.51 512.066 2040.61 507.099C2011.2 496.749 1980.98 488.884 1950.75 482.674C1889.88 470.255 1828.18 463.217 1766.06 461.561C1735.01 460.733 1703.95 461.147 1672.89 463.631C1641.84 466.115 1611.19 470.255 1580.97 477.706C1573.51 479.362 1566.06 481.846 1558.6 483.916C1551.15 486.4 1543.7 488.47 1536.66 491.782C1532.93 493.438 1529.2 494.679 1525.89 496.335L1515.13 501.303C1508.09 505.029 1501.46 509.169 1494.83 512.894L1474.96 524.486L1454.25 534.421C1452.6 535.249 1450.94 536.077 1448.87 536.905L1443.49 538.975L1432.72 543.115C1428.99 544.357 1425.68 546.012 1421.95 546.84L1410.77 550.152C1381.37 558.432 1350.73 562.985 1319.67 563.813C1289.03 565.055 1257.98 562.571 1227.75 558.018C1197.1 553.464 1167.29 546.84 1137.47 538.561C1130.02 536.491 1122.57 534.421 1115.11 532.351L1103.93 529.453C1100.21 528.625 1096.07 528.211 1092.34 527.384C1084.89 525.728 1077.02 525.314 1069.15 524.486C1065.42 524.072 1061.28 524.072 1057.56 524.072C1053.83 524.072 1049.69 523.658 1045.96 524.072C1014.9 524.486 983.848 530.695 954.447 541.459C939.954 546.84 925.461 553.05 911.796 560.502C898.131 567.539 885.294 577.061 871.629 583.684C857.964 590.722 843.885 596.931 829.392 602.727C814.899 608.523 800.406 613.904 785.913 618.872C756.926 629.222 727.526 638.329 697.711 647.023C669.967 651.576 642.223 658.2 615.721 668.135C602.471 673.103 589.634 679.313 578.039 687.592C566.445 695.872 556.093 705.393 545.74 715.328C525.864 735.613 508.472 757.554 490.252 779.081C476.587 795.64 462.922 811.785 448.429 827.102C459.195 810.957 468.305 793.57 475.759 775.769C486.111 750.93 496.049 726.506 508.472 703.323C520.895 680.141 535.802 657.786 554.85 639.571C573.898 621.77 596.673 607.281 621.519 599.001C646.364 590.308 672.452 584.098 698.54 579.958C728.354 571.265 757.754 562.158 787.155 551.808C816.555 541.459 845.541 530.695 873.286 516.62C880.325 513.308 886.951 508.755 893.576 504.615C900.201 500.475 906.827 496.749 913.452 493.024C927.117 485.986 941.196 479.362 955.275 474.395C984.262 464.045 1014.49 457.836 1045.13 457.422C1060.45 457.008 1075.78 458.25 1090.68 460.733C1105.59 463.217 1120.5 467.771 1135.4 471.911C1165.22 480.19 1195.86 487.228 1226.5 491.782C1257.15 496.335 1288.62 498.819 1319.67 497.577C1350.73 496.749 1381.79 492.196 1412.02 483.916C1442.25 475.223 1471.23 463.217 1497.73 446.658C1523.41 429.685 1552.39 419.336 1582.21 412.298C1612.02 405.261 1642.66 401.121 1673.31 398.637C1703.95 396.153 1735.01 395.739 1765.65 396.567C1827.35 398.223 1888.63 405.261 1949.09 418.094C1979.32 424.304 2009.13 432.583 2038.12 442.519C2067.11 452.868 2095.27 464.873 2120.11 482.26L2125.08 475.223C2098.99 457.008 2070.01 445.002 2040.61 434.653C2011.2 424.304 1980.98 416.438 1950.75 410.228C1889.88 397.395 1828.18 390.772 1766.06 389.116C1735.01 388.288 1703.95 388.702 1672.89 391.186C1641.84 393.669 1611.19 397.809 1580.55 405.261C1565.23 408.986 1550.32 413.54 1535.83 419.336C1528.38 422.234 1521.34 425.546 1514.3 428.857C1510.98 430.513 1507.26 432.583 1503.94 434.653L1494.01 440.863C1467.92 457.008 1439.76 469.013 1410.36 477.292C1380.96 485.572 1350.32 489.712 1319.67 490.954C1289.03 492.196 1258.39 489.712 1227.75 485.158C1197.1 480.604 1167.29 473.981 1137.47 465.701C1122.57 461.561 1107.66 457.008 1092.34 454.524C1077.02 452.04 1061.28 450.798 1045.55 451.212C1014.08 451.626 983.019 457.836 954.033 468.599C939.54 473.981 925.047 480.19 911.382 487.642C904.342 491.368 897.717 495.093 891.091 499.647C884.466 503.787 878.255 507.927 871.215 511.238C843.885 525.314 814.899 536.077 785.913 546.426C756.926 556.776 727.526 565.883 697.711 574.577C671.21 579.13 645.122 584.926 620.277 594.034C607.854 598.587 595.431 603.969 583.837 611.421C572.242 618.458 561.476 626.738 551.952 635.845C532.489 654.474 517.168 677.243 504.745 700.839C492.323 724.436 482.385 749.275 472.032 773.699C455.469 813.855 430.209 850.285 399.152 880.919L389.214 889.612L383.831 894.58L380.932 897.064L379.69 898.306C379.276 898.72 379.276 898.72 378.862 899.134C378.448 899.548 378.448 899.548 378.034 899.962C357.743 916.935 335.383 931.424 312.194 943.843C300.599 950.053 288.59 955.434 276.168 960.402C269.956 962.886 263.745 964.956 257.534 967.026C254.221 968.268 251.322 969.096 248.01 969.924L243.04 971.166L241.798 971.579C232.274 973.235 222.75 976.133 214.054 979.859C182.997 992.692 156.91 1015.46 135.377 1040.3C124.611 1052.72 114.673 1066.38 105.563 1080.04C96.8667 1093.29 88.999 1106.95 81.9595 1121.02C79.4749 1108.19 77.8186 1095.36 78.2327 1082.53C78.6468 1068.86 81.1313 1055.2 86.1004 1042.37C95.2104 1016.7 112.188 993.934 132.478 975.305C152.769 956.676 175.544 941.359 199.561 927.698C223.578 914.037 248.424 902.032 273.683 890.854L292.731 882.575C296.044 881.333 298.943 880.091 302.255 878.021C305.568 876.365 308.467 874.295 311.365 871.811C311.779 871.397 312.194 870.983 312.608 870.983C320.889 866.43 328.757 861.048 336.625 856.08C354.431 843.661 371.822 830 387.558 815.097L399.152 803.505C403.293 799.366 406.192 794.812 409.091 790.258C414.888 780.737 418.615 770.387 422.341 760.038C428.967 739.339 433.522 717.812 438.905 696.7C444.288 675.587 450.5 654.888 460.852 636.259C463.336 631.705 466.235 627.152 469.548 622.598C471.204 620.528 472.86 618.458 474.517 616.388C476.173 614.318 478.244 612.663 480.314 611.007C488.182 603.969 497.292 597.759 506.402 591.964C542.842 568.781 583.422 552.222 624.003 537.319C634.356 533.593 644.294 530.281 654.646 526.97C664.998 523.658 675.35 520.346 685.703 517.448C706.407 511.238 727.526 505.029 748.23 498.405C768.935 491.782 789.639 484.744 809.93 477.292C830.22 469.841 850.511 461.561 870.387 452.04C875.356 449.556 880.325 447.072 884.88 444.174C889.849 441.277 893.99 438.379 898.545 435.481C907.655 429.685 917.179 424.718 927.117 420.164C946.579 410.642 966.87 403.605 987.988 398.223C1029.81 387.874 1074.12 387.874 1115.94 399.051C1157.77 411.056 1200 421.406 1243.48 426.787C1286.55 432.169 1330.85 432.583 1373.92 425.546C1416.99 418.508 1459.22 404.019 1496.91 381.25C1532.93 357.24 1575.58 345.648 1617.82 338.197C1660.47 330.745 1703.95 328.261 1747.02 328.261C1790.49 328.261 1833.56 331.159 1876.63 336.541C1919.69 341.922 1962.34 349.788 2003.75 361.379C2024.46 367.175 2045.16 373.799 2065.04 382.078C2084.91 390.358 2104.38 399.879 2121.77 412.298L2126.74 405.261C2108.52 392.427 2088.64 382.906 2068.35 374.626C2048.06 366.347 2026.94 359.723 2006.24 353.928C1964 342.336 1920.93 334.885 1877.87 329.503C1834.39 324.121 1790.91 321.638 1747.43 321.638C1703.95 322.052 1660.06 324.949 1616.99 332.401C1595.46 336.127 1574.34 341.094 1553.22 348.132C1542.87 351.858 1532.52 355.584 1522.58 360.551C1517.61 363.035 1512.64 365.519 1508.09 368.417L1494.01 377.11C1457.15 399.465 1415.74 413.954 1373.09 420.992C1330.44 428.029 1286.96 427.615 1243.9 422.234C1200.83 417.266 1158.59 406.917 1116.77 394.911C1074.53 383.32 1028.98 383.734 986.746 394.083C965.628 399.051 944.923 406.917 925.047 416.024C915.109 420.578 905.585 425.96 896.06 431.755C891.505 434.653 886.95 437.551 882.395 440.449C877.84 443.346 872.871 445.83 868.316 447.9C848.854 457.422 828.564 465.287 808.273 473.153C787.983 480.604 767.279 487.642 746.574 494.265C725.87 500.889 705.165 507.099 684.461 513.308C674.108 516.62 663.756 519.518 653.404 522.83C643.052 526.142 632.699 529.453 622.347 533.593C581.352 548.496 541.185 565.055 503.917 588.652C494.807 594.448 485.697 600.657 477.415 608.109C475.345 610.179 473.275 611.835 471.618 613.904C469.548 615.974 467.891 618.458 466.235 620.528C462.922 625.082 460.024 629.636 457.125 634.603C446.359 654.06 440.147 675.173 434.764 696.286C429.381 717.398 424.826 738.511 418.615 759.21C415.302 769.559 411.575 779.495 405.778 788.602C402.879 793.156 399.981 797.71 396.254 801.435L384.659 812.613C365.611 830.828 344.493 846.973 322.132 861.462C327.929 854.424 332.484 846.559 337.039 839.107C351.118 817.167 360.642 790.672 369.338 764.592Z" fill="white"/>
</g>
<defs>
<filter id="filter0_d_34_157" x="0" y="-27" width="2158.53" height="1212.99" filterUnits="userSpaceOnUse" color-interpolation-filters="sRGB">
<feFlood flood-opacity="0" result="BackgroundImageFix"/>
<feColorMatrix in="SourceAlpha" type="matrix" values="0 0 0 0 0 0 0 0 0 0 0 0 0 0 0 0 0 0 127 0" result="hardAlpha"/>
<feOffset/>
<feGaussianBlur stdDeviation="13"/>
<feComposite in2="hardAlpha" operator="out"/>
<feColorMatrix type="matrix" values="0 0 0 0 0.441667 0 0 0 0 0.799 0 0 0 0 1 0 0 0 1 0"/>
<feBlend mode="normal" in2="BackgroundImageFix" result="effect1_dropShadow_34_157"/>
<feBlend mode="normal" in="SourceGraphic" in2="effect1_dropShadow_34_157" result="shape"/>
</filter>
</defs>
</svg>
