<svg width="42" height="36" viewBox="0 0 42 36" fill="none" xmlns="http://www.w3.org/2000/svg">
<path d="M40.5 0.5625H1.5C0.670312 0.5625 0 1.23281 0 2.0625V25.3125C0 26.1422 0.670312 26.8125 1.5 26.8125H19.3125V32.0625H11.25C10.8375 32.0625 10.5 32.4 10.5 32.8125V35.0625C10.5 35.2687 10.6687 35.4375 10.875 35.4375H31.125C31.3312 35.4375 31.5 35.2687 31.5 35.0625V32.8125C31.5 32.4 31.1625 32.0625 30.75 32.0625H22.6875V26.8125H40.5C41.3297 26.8125 42 26.1422 42 25.3125V2.0625C42 1.23281 41.3297 0.5625 40.5 0.5625ZM38.625 23.4375H3.375V3.9375H38.625V23.4375Z" fill="white"/>
</svg>
