<svg width="1362" height="774" viewBox="0 0 1362 774" fill="none" xmlns="http://www.w3.org/2000/svg">
<g filter="url(#filter0_d_2_846)">
<path d="M239.477 502.022C250.291 469.332 258.272 435.613 270.116 403.438V403.181C270.373 402.151 271.146 400.864 271.661 399.577C272.433 398.29 273.205 397.261 273.978 395.974C275.523 393.657 277.582 391.598 279.385 389.539C283.247 385.421 287.624 381.56 292.258 377.956C301.527 371.006 311.568 364.829 321.61 359.423C342.207 348.355 363.834 339.604 385.977 331.882C397.048 328.021 408.119 324.417 419.448 321.071C430.776 317.725 442.105 314.636 453.433 311.547C476.091 305.37 498.748 298.678 520.633 290.183C531.704 286.065 542.518 281.432 553.074 276.541C563.63 271.651 574.186 266.245 584.742 261.098C605.597 250.802 627.74 242.565 650.654 239.219C661.983 237.674 673.827 237.16 685.155 238.189C696.741 239.219 708.07 241.535 719.398 244.109C730.727 246.941 742.056 250.287 753.384 253.118C764.713 255.95 776.299 258.524 788.143 259.811C811.572 262.899 835.774 261.612 858.946 256.979C882.119 252.346 904.776 244.881 926.403 235.873C937.217 231.497 948.031 226.349 958.587 221.716C969.4 217.083 980.214 212.964 991.285 209.618C1013.43 202.668 1036.34 197.778 1059.51 194.946C1105.86 189.284 1152.98 191.085 1199.06 198.293C1222.23 201.896 1244.89 206.787 1267.55 212.964C1289.95 219.142 1312.35 226.349 1333.72 235.358L1335.78 230.467C1313.89 221.201 1291.49 213.994 1268.84 207.816C1246.18 201.639 1223.01 196.748 1199.83 193.145C1153.23 185.937 1105.86 184.136 1059 190.056C1035.57 192.887 1012.4 198.035 989.998 204.985C978.669 208.588 967.598 212.707 956.785 217.34C945.971 222.231 935.415 227.121 924.601 231.497C902.974 240.506 880.831 247.713 857.917 252.346C835.002 256.722 811.572 258.009 788.657 255.177C777.071 253.633 765.743 251.316 754.414 248.485C743.086 245.654 731.757 242.308 720.428 239.476C709.1 236.645 697.256 234.328 685.413 233.299C673.569 232.269 661.468 232.526 649.882 234.328C626.195 237.674 603.795 246.168 582.683 256.464C572.126 261.87 561.828 267.018 551.272 271.908C540.715 276.799 529.902 281.432 519.088 285.55C497.203 294.044 474.803 300.737 452.146 306.914C440.818 310.003 429.489 313.092 418.16 316.438C406.832 319.784 395.76 323.388 384.689 327.249C362.547 335.228 340.662 343.98 319.807 355.048C309.509 360.71 299.21 366.888 289.941 374.095C285.306 377.699 280.672 381.56 276.553 385.935C274.493 387.994 272.433 390.311 270.888 392.885C270.116 394.172 269.086 395.459 268.314 396.746C267.541 398.033 266.769 399.32 266.254 401.122V400.864C254.41 433.296 246.429 467.016 235.873 499.448C230.466 515.664 224.801 531.88 216.82 546.809C212.7 554.273 208.066 561.48 201.629 566.886C200.084 568.173 198.282 569.46 196.737 570.489C194.935 571.519 192.875 572.291 191.073 573.063L179.229 578.469C163.524 585.676 148.076 593.14 133.143 601.892C118.209 610.643 103.791 620.424 91.1752 632.265C78.5592 644.105 67.7455 658.519 62.3387 674.993C59.5066 683.229 57.9617 691.981 57.9617 700.475C57.7043 708.712 58.7342 716.949 60.7939 724.928C53.5848 717.721 46.8906 710.256 41.2263 702.02C35.3045 693.525 30.1551 684.002 28.6103 673.706C27.8379 668.558 27.8379 663.41 28.8678 658.262C29.8977 653.114 31.9574 648.481 34.5321 643.848C39.6815 634.839 47.1481 627.117 54.8721 620.424C70.8352 606.782 88.858 595.972 107.396 585.676C116.665 580.528 125.933 575.895 135.46 571.004C144.986 566.371 154.255 560.708 162.494 554.016C170.99 547.324 178.2 539.344 184.379 530.593C187.468 526.217 190.043 521.584 192.36 516.693C194.678 511.803 196.737 506.912 198.797 502.022C206.006 481.945 210.383 461.353 216.305 441.018C219.137 430.98 222.484 420.941 226.346 411.16C230.208 401.379 234.843 392.113 240.507 383.361C251.836 365.858 266.769 350.672 284.019 338.832C301.012 326.734 320.065 317.468 339.632 310.26C359.2 302.796 379.54 297.133 400.137 292.5C410.436 290.183 420.735 288.124 431.034 285.035C441.332 282.204 451.374 278.858 461.415 275.254C481.24 268.047 500.808 259.553 519.86 250.544C538.913 241.535 557.966 232.269 577.276 224.032C596.586 215.796 616.411 208.588 636.751 204.213C657.091 200.094 678.203 199.065 698.801 202.411C719.398 205.757 739.224 212.964 757.761 222.23L758.019 222.488H758.276C770.635 225.319 782.736 227.121 795.352 228.665C807.71 229.952 820.326 230.467 832.685 230.21C845.301 229.952 857.659 228.665 870.018 225.834C882.376 223.003 894.22 218.627 905.033 211.935C907.608 210.133 910.44 208.331 912.757 206.529C915.075 204.727 917.649 202.926 920.224 201.124C925.116 197.778 930.523 194.689 935.93 191.6C946.743 185.68 957.814 180.79 969.4 176.414C992.315 167.662 1016.26 161.485 1040.46 157.366C1052.56 155.05 1064.92 153.763 1077.02 152.476C1089.38 151.446 1101.48 150.674 1113.84 150.674C1138.56 150.417 1163.02 151.704 1187.48 155.05C1236.4 161.485 1284.28 174.355 1330.11 192.372L1332.43 186.452C1286.09 168.434 1237.68 155.307 1188.25 149.13C1163.53 146.041 1138.56 144.496 1113.84 145.011C1101.48 145.011 1088.87 146.041 1076.51 147.07C1064.15 148.357 1051.79 149.902 1039.43 151.961C1014.97 156.337 990.77 162.514 967.341 171.523C955.755 175.899 944.169 181.047 933.355 186.967C927.948 190.056 922.541 193.145 917.392 196.748C914.817 198.55 912.242 200.352 909.668 202.411C907.35 204.213 904.776 206.014 902.201 207.559C891.902 213.994 880.574 218.112 868.73 220.944C856.887 223.775 844.786 225.062 832.427 225.319C820.069 225.577 807.968 225.062 795.609 223.775C783.508 222.488 771.407 220.686 759.564 217.855C740.768 208.331 720.428 201.124 699.316 197.778C678.204 194.432 656.319 195.461 635.464 199.837C614.609 204.213 594.526 211.677 574.959 219.914C555.391 228.408 536.596 237.674 517.543 246.683C498.49 255.692 479.18 264.186 459.613 271.393C449.829 274.997 439.788 278.343 429.746 281.175C419.705 284.006 409.406 286.322 399.108 288.639C378.51 293.53 358.17 299.192 338.345 306.914C318.52 314.379 299.21 323.903 281.959 336.258C264.452 348.355 249.261 363.799 237.675 381.817C232.01 390.826 227.119 400.35 223.257 410.388C219.395 420.169 216.047 430.465 212.958 440.504C207.036 460.838 202.659 481.43 195.45 501.249C193.648 506.14 191.588 511.03 189.271 515.664C186.953 520.297 184.379 524.93 181.547 529.048C175.625 537.542 168.673 545.264 160.434 551.699C152.195 558.134 143.441 563.797 133.915 568.43C124.389 573.063 115.12 577.954 105.851 583.102C87.5706 593.398 69.2904 604.723 53.3273 618.623C48.1779 623.256 43.286 628.146 38.9091 633.809C43.286 623.771 48.4354 613.732 54.3572 604.723C56.4169 601.634 58.4767 598.803 60.7939 595.972L61.0514 596.229C62.0812 594.685 63.1111 593.398 64.141 591.853C69.5478 585.676 75.4696 580.013 81.9063 575.122C92.72 566.628 104.306 559.421 115.635 551.185C126.963 543.205 137.262 533.681 146.016 522.871C155.8 512.06 163.266 499.705 169.703 486.835C176.14 473.965 181.289 460.581 185.666 446.939C189.786 433.296 192.875 419.14 195.45 404.983C198.025 391.083 204.204 378.213 211.928 366.631C219.909 354.79 229.436 344.237 239.735 334.713C250.033 325.19 261.362 316.438 273.205 308.459C296.893 292.757 322.639 280.145 349.931 272.166C356.625 270.106 363.577 268.819 370.529 267.275C377.48 265.988 384.432 264.444 391.641 262.899C405.544 259.811 419.448 256.207 433.093 252.089C460.643 243.852 487.162 233.041 513.166 220.944C526.04 214.766 538.913 208.331 551.529 201.639C564.145 194.946 576.761 188.511 589.892 182.849C603.023 177.186 616.154 172.295 629.799 168.692C636.494 166.89 643.445 165.603 650.397 164.831C653.744 164.573 657.349 164.573 660.696 164.573C664.043 164.831 667.647 165.346 671.252 165.86C685.413 167.662 699.573 168.949 713.734 171.266C727.638 173.325 741.541 176.671 755.187 180.532C782.478 189.026 811.057 195.719 840.151 194.174C854.569 193.402 869.245 190.313 882.634 184.136C889.328 181.047 895.507 176.929 901.171 172.295C902.459 171.008 904.003 169.721 905.291 168.692C906.578 167.405 907.865 166.118 909.153 164.831C911.47 162.257 914.045 159.94 916.619 157.624C927.176 148.872 940.049 142.437 953.18 137.289C966.311 132.141 979.957 128.538 993.86 125.449C1021.67 119.529 1049.99 116.183 1078.31 114.896C1106.63 113.609 1135.21 114.124 1163.53 116.955C1191.85 119.529 1220.17 123.132 1248.24 128.023C1262.14 130.597 1276.3 133.428 1289.95 136.517C1296.9 138.062 1303.59 140.121 1310.55 141.922C1317.24 143.982 1323.93 146.298 1330.11 149.13L1333.2 142.952C1326.25 139.863 1319.56 137.547 1312.61 135.488C1305.65 133.428 1298.7 131.627 1291.75 129.825C1277.85 126.479 1263.69 123.647 1249.53 121.331C1221.2 116.44 1192.88 113.094 1164.3 110.52C1135.73 107.946 1106.89 107.431 1078.31 108.718C1049.73 110.263 1021.15 113.351 992.83 119.529C978.669 122.618 964.766 126.479 951.378 131.884C937.989 137.289 924.858 143.724 913.272 153.248C910.44 155.565 907.865 158.139 905.291 160.97C904.003 162.257 902.974 163.544 901.686 164.573C900.399 165.603 899.112 166.89 897.824 167.92C892.675 172.295 886.753 176.156 880.574 179.245C867.958 185.165 854.312 188.254 840.151 189.026C826.248 189.798 812.087 188.511 798.184 186.195C784.281 183.878 770.635 180.017 756.989 175.899C743.086 172.038 729.182 168.692 714.764 166.633C700.603 164.573 686.443 163.029 672.282 161.485C668.677 160.97 665.33 160.455 661.468 160.198C657.863 159.94 654.001 160.198 650.397 160.455C643.188 161.227 635.979 162.514 629.027 164.573C615.124 168.177 601.478 173.325 588.347 179.245C575.216 184.908 562.343 191.6 549.727 198.293C537.111 204.985 524.495 211.42 511.621 217.597C485.874 229.952 459.613 240.763 432.321 248.742C418.675 252.861 405.029 256.464 391.126 259.811C384.174 261.355 377.223 262.899 370.271 264.186C363.319 265.473 356.11 267.018 349.159 269.077C335.255 273.195 321.867 278.343 308.994 284.521C296.12 290.698 283.504 297.905 271.661 305.885C259.817 313.864 248.231 322.616 237.675 332.397C227.119 342.178 217.335 352.988 209.353 365.086C207.036 368.69 204.719 372.293 202.659 376.154C204.461 368.947 206.521 361.997 209.096 355.048C213.473 343.465 218.88 332.654 225.316 322.101C238.447 301.252 256.213 283.748 277.067 270.879C287.366 264.444 298.695 259.296 310.023 254.92C321.61 250.544 333.453 247.97 345.297 244.624C368.984 238.189 392.928 231.239 416.101 223.26C427.687 219.399 439.273 215.023 450.859 210.648C462.445 206.014 473.773 201.124 484.845 195.976C507.244 185.68 529.129 174.355 551.272 163.286C573.414 152.476 596.071 142.952 619.758 136.26C631.602 132.914 643.445 130.34 655.546 129.053C658.636 128.795 661.726 128.538 664.558 128.28C667.647 128.28 670.737 128.023 673.569 128.023L678.203 128.28L682.58 128.795C685.413 129.053 688.76 129.567 691.077 130.34H691.334C718.111 136.775 745.145 142.437 772.437 147.07C779.389 148.1 786.083 149.13 793.034 149.902C799.986 150.417 806.68 150.931 813.632 151.446C820.584 152.218 827.278 152.991 834.487 152.991C841.439 152.991 848.648 152.218 855.599 150.674C869.503 147.328 882.119 140.378 893.705 132.914C899.626 129.053 905.033 124.677 910.698 120.816L919.194 116.183C922.026 114.381 925.116 112.579 927.948 111.035C929.493 110.263 930.78 109.233 932.325 108.461L936.959 106.144L945.971 101.511L955.497 97.6501C958.587 96.3631 961.676 95.0761 965.023 94.0465C977.897 89.6708 991.028 86.0672 1004.42 83.2358L1014.46 81.4341C1017.8 80.9193 1021.15 80.1471 1024.5 79.6323L1044.84 77.0583C1051.53 76.5435 1058.48 76.0287 1065.44 75.5139C1072.39 74.9991 1079.08 74.9991 1086.03 74.7417H1096.33H1101.48C1103.28 74.7417 1104.83 74.7417 1106.63 74.9991L1127.23 75.7713C1134.18 75.7713 1140.87 76.8009 1147.83 77.3157L1168.42 79.1175C1223.01 85.295 1277.08 96.8779 1330.11 111.035L1331.4 105.887C1278.11 91.2152 1223.78 79.8897 1168.94 73.4547L1148.34 71.653C1141.39 71.1382 1134.7 70.366 1127.74 70.1086L1106.89 69.3364C1105.09 69.3364 1103.54 69.079 1101.74 69.079H1096.59H1086.29C1079.34 69.079 1072.39 69.079 1065.44 69.8512C1058.48 70.366 1051.53 70.6234 1044.58 71.3956L1023.98 73.9695C1020.64 74.2269 1017.03 75.2565 1013.69 75.7713L1003.39 77.5731C989.74 80.4045 976.352 84.008 963.221 88.6412C959.874 89.6708 956.784 91.2152 953.437 92.2448L943.654 96.1057L934.385 100.739L929.75 103.055C928.205 103.828 926.661 104.857 925.116 105.629C922.026 107.431 919.194 109.233 916.104 111.035L907.608 117.212C901.944 121.331 896.794 125.449 890.873 129.053C879.544 136.517 867.443 142.952 854.569 146.041C848.133 147.585 841.439 148.357 834.744 148.357C828.05 148.357 821.356 147.585 814.404 147.07C807.453 146.298 800.501 146.041 793.807 145.526C787.113 144.754 780.161 143.982 773.467 142.952C746.433 138.834 719.398 133.171 692.622 126.993H692.879C689.532 125.964 686.442 125.706 683.353 125.192L678.718 124.934H674.084C670.994 124.934 667.905 125.192 664.815 125.192C661.726 125.449 658.636 125.706 655.546 125.964C643.188 127.508 631.087 130.34 618.986 133.686C595.041 140.635 572.126 150.417 550.242 161.485C528.099 172.553 506.472 184.136 484.072 194.174C473.001 199.322 461.672 204.213 450.086 208.846C438.758 213.479 427.172 217.597 415.328 221.716C392.156 229.695 368.469 236.645 344.524 243.08C332.681 246.426 320.58 249 308.994 253.376C297.407 257.751 286.079 262.899 275.523 269.592C254.41 282.719 236.13 300.479 222.999 321.586C216.305 332.139 210.898 343.207 206.521 354.79C204.461 360.71 202.402 366.631 200.857 372.551C200.084 375.639 199.312 378.471 198.797 381.56C198.54 382.847 198.282 384.391 198.025 385.678C195.45 391.855 193.39 398.548 192.103 405.24C189.528 419.397 186.953 433.296 182.834 446.939C178.715 460.581 173.565 473.965 167.386 486.578C164.039 493.013 160.949 499.19 157.087 505.11C153.225 511.031 149.106 516.951 144.471 522.099C135.717 532.652 125.419 541.661 114.347 549.64C103.276 557.619 91.4327 564.827 80.619 573.578C78.5592 575.38 76.242 577.182 74.1823 578.983C87.8281 559.679 100.702 539.859 113.06 519.525C121.042 506.14 128.766 492.755 135.717 478.856C142.669 464.956 149.363 451.057 155.027 436.385C157.86 429.178 160.434 421.714 162.494 414.249C164.554 406.785 166.356 399.063 167.386 391.341C169.446 376.154 173.308 361.225 178.972 347.068C190.043 318.497 208.323 293.015 230.208 271.651C241.279 261.098 253.38 251.574 265.996 242.822C278.87 234.328 292.258 226.864 306.419 220.686C320.58 214.509 334.998 209.361 349.931 205.757C357.398 203.955 364.864 202.153 372.588 200.609C380.055 198.807 387.779 197.006 395.246 194.946C425.112 186.967 454.721 176.414 482.785 163.029C510.849 149.644 537.626 134.201 564.145 118.242C579.078 111.292 594.784 105.629 610.489 100.996C626.452 96.3631 642.673 93.017 659.151 91.9874C667.39 91.4726 675.629 91.4726 683.61 92.2448C687.73 92.7596 691.592 93.2743 695.711 94.3039C697.771 94.8187 699.573 95.3335 701.633 95.8483L707.555 97.6501C723.518 102.541 739.739 106.659 756.217 110.005C772.695 113.351 789.172 115.925 805.908 116.698C814.404 116.955 822.901 116.955 831.397 115.668C835.517 114.896 839.894 113.609 843.756 111.807C847.618 110.005 851.48 108.203 855.084 106.144C884.436 90.1856 912.757 72.6825 942.624 58.5257C957.557 51.576 972.748 44.8836 988.711 41.2801C1004.93 37.6765 1021.15 35.1025 1037.63 33.3007C1070.59 29.6972 1103.8 28.925 1137.01 30.9842C1203.18 34.8451 1268.84 49.5168 1330.63 73.4547L1332.17 69.3364C1269.35 45.9132 1203.44 31.2415 1136.76 27.1232C1103.28 25.064 1069.81 25.8362 1036.6 29.4398C1019.86 31.2415 1003.39 33.8155 987.166 37.4191C978.927 39.2209 970.945 41.7948 962.964 44.8836C955.24 47.9724 947.516 51.3186 940.049 54.9221C909.925 69.3364 881.346 86.8394 852.252 102.541C848.648 104.6 845.043 106.402 841.181 107.946C837.577 109.748 833.714 110.777 829.852 111.55C821.871 112.837 813.632 113.094 805.393 112.579C788.915 111.807 772.437 109.233 756.217 106.144C739.996 102.798 723.775 98.6797 708.07 94.0465L702.148 92.2448C700.088 91.73 698.029 90.9578 695.969 90.7004C691.849 89.6708 687.73 89.156 683.353 88.6412C674.856 87.6116 666.36 87.6116 658.121 88.3838C641.386 89.6708 624.65 93.0169 608.687 97.6501C592.466 102.283 576.761 107.946 561.57 115.153C535.051 131.112 508.274 146.556 480.468 159.683C452.661 172.81 423.567 183.363 393.701 191.343C386.234 193.402 378.768 195.204 371.301 197.006C363.834 198.807 356.368 200.352 348.644 202.153C333.453 206.014 318.777 211.162 304.359 217.34C290.198 223.517 276.295 231.239 263.422 239.734C250.548 248.485 238.19 258.266 227.119 269.077C204.719 290.698 186.439 316.953 175.11 346.039C169.446 360.453 165.584 375.897 163.524 391.341C162.494 398.805 160.692 406.27 158.632 413.734C156.315 421.199 153.998 428.406 151.165 435.613C145.759 450.027 139.064 463.927 132.113 477.569C125.161 491.211 117.437 504.853 109.713 517.98C94.0073 544.492 77.0144 570.232 58.7342 595.2L58.9916 595.457C56.6744 598.288 54.6147 601.377 52.5549 604.466C48.9503 610.386 45.6033 616.306 42.5136 622.741C40.1964 627.889 38.1367 633.037 36.0769 638.442C34.7896 640.244 33.5022 642.046 32.4724 644.105C29.8977 648.738 27.8379 653.886 26.808 659.034C25.7782 664.439 25.7782 669.845 26.5506 674.993C28.3529 685.546 33.7597 695.327 39.9389 703.821C46.1182 712.315 53.3273 719.78 60.7939 726.987V727.244H61.0514L61.3088 726.987L61.8238 727.244C71.0926 708.969 82.9362 691.981 96.3246 676.537C109.97 661.351 125.933 647.709 144.729 639.987C154.255 636.126 164.296 634.067 174.338 634.067C184.636 633.809 194.42 636.64 203.689 640.501C210.641 643.333 217.335 646.422 224.029 650.025C224.544 650.283 225.316 650.797 225.831 651.055C227.634 652.084 229.436 652.857 231.238 653.886C240.249 658.777 249.261 663.925 258.015 669.073C293.545 689.922 328.819 711.543 367.182 727.502C386.234 735.481 406.059 741.916 426.657 745.262C447.254 748.608 468.367 749.123 488.964 744.49C499.263 742.431 509.047 739.085 518.573 734.709C528.099 730.076 536.853 724.413 544.835 717.721C548.954 714.375 552.816 710.771 556.421 707.167C560.025 703.306 563.63 699.703 567.235 696.357C574.701 689.407 582.683 682.972 590.922 677.052C624.135 653.371 664.3 639.214 704.98 637.155C725.32 636.126 745.918 637.927 766 642.046C776.042 644.105 786.34 646.164 796.639 647.194C806.938 648.481 817.237 648.996 827.793 648.738C848.648 648.481 869.245 645.649 889.328 639.729C899.369 636.898 909.153 633.294 918.422 628.919C927.948 624.543 936.959 619.652 945.456 613.217L950.605 610.129C952.408 609.099 954.21 608.069 956.012 607.04L961.419 603.951L967.083 601.12C970.688 599.318 974.55 597.773 978.412 595.972C982.274 594.427 986.136 592.883 989.998 591.596C1005.7 586.191 1021.92 582.33 1038.4 580.013C1071.36 575.38 1105.09 576.152 1138.3 580.27C1171.51 584.389 1204.21 591.853 1236.14 601.377C1252.1 606.268 1268.06 611.416 1283.77 617.336C1299.48 622.998 1314.92 629.433 1330.37 635.868L1330.63 635.096C1315.18 628.404 1299.73 622.226 1284.03 616.306C1268.32 610.386 1252.36 604.981 1236.4 600.09C1204.21 590.309 1171.51 582.587 1138.3 578.211C1105.09 573.835 1071.1 572.806 1037.63 577.182C1004.16 581.557 971.46 591.853 942.624 610.129C934.642 616.049 925.631 620.939 916.362 625.315C907.093 629.691 897.567 633.037 887.783 635.868C868.215 641.531 847.875 644.62 827.278 644.62C816.979 644.62 806.938 644.105 796.639 643.075C786.34 642.046 776.557 639.987 766.258 637.927C745.918 633.809 725.063 631.75 704.465 633.037C663.013 634.839 622.333 649.51 588.347 673.706C579.851 679.626 571.869 686.318 564.145 693.268C560.283 696.872 556.678 700.475 553.074 704.336C549.469 707.94 545.865 711.286 541.745 714.632C526.04 727.502 506.987 735.996 487.162 740.372C467.337 744.747 446.739 744.49 426.657 741.401C406.574 738.055 387.007 731.878 367.954 724.156C340.662 712.83 314.658 698.673 288.911 684.002C331.651 688.635 374.906 683.229 416.358 672.934C438.5 667.271 460.385 660.321 481.498 651.57C502.61 642.818 523.207 633.037 543.033 621.454C545.607 619.91 547.924 618.623 550.499 617.078L557.708 612.445C562.6 609.356 567.235 606.268 572.126 603.179C581.91 597.516 592.209 592.626 602.765 588.507C623.878 580.785 646.535 576.409 669.192 577.696C680.521 578.211 691.849 579.756 702.663 582.844C708.07 584.131 713.734 585.933 719.141 587.478C724.548 589.022 730.212 590.309 735.619 591.596C757.761 596.744 780.419 600.862 803.333 601.892C826.248 603.179 849.163 602.149 871.562 597.516C893.962 593.14 915.847 585.161 935.672 573.578L950.348 565.084C952.665 563.54 955.497 562.51 957.814 561.223C960.389 559.936 962.964 558.906 965.538 557.877C976.095 553.759 986.908 550.412 997.979 548.096C1020.12 542.948 1042.78 540.631 1065.44 539.602C1088.09 538.572 1111.01 538.829 1133.67 540.374C1156.32 541.918 1178.98 544.492 1201.38 548.353C1223.78 552.214 1245.92 557.362 1267.81 564.054C1273.21 565.599 1278.62 567.658 1284.03 569.46C1289.43 571.519 1294.58 573.578 1299.73 575.895C1310.03 580.528 1320.33 585.676 1329.6 592.111L1330.37 590.824C1321.1 584.131 1310.8 578.983 1300.25 574.35C1295.1 572.034 1289.69 569.975 1284.28 567.915C1278.88 566.114 1273.47 564.054 1268.06 562.51C1246.44 555.56 1224.04 550.412 1201.64 546.551C1179.24 542.69 1156.58 539.859 1133.67 538.315C1111.01 536.77 1088.09 536.255 1065.18 537.285C1042.52 538.572 1019.61 540.631 997.207 545.779C986.136 548.353 975.065 551.442 964.509 555.818C961.934 556.847 959.102 557.877 956.527 559.164C953.952 560.451 951.378 561.48 948.803 563.025L933.87 571.519C914.302 582.844 892.675 590.566 870.533 594.942C848.39 599.318 825.475 600.347 802.818 599.06C780.161 597.773 757.761 593.912 735.619 588.507C729.955 587.22 724.548 585.676 719.141 584.389C713.734 582.844 708.327 581.3 702.663 579.756C691.592 576.667 680.263 575.122 668.677 574.608C645.762 573.578 622.59 577.696 601.22 585.676C590.407 589.537 580.108 594.685 570.067 600.347C565.175 603.179 560.283 606.525 555.648 609.614L548.439 614.247C546.122 615.791 543.547 617.078 541.23 618.623C521.663 630.206 501.065 639.987 480.21 648.481C459.098 656.975 437.47 664.182 415.586 669.587C393.443 674.993 371.044 679.111 348.644 680.913L340.147 681.428C337.315 681.685 334.483 681.942 331.651 681.942C325.987 681.942 320.322 682.2 314.658 681.942C308.994 681.685 303.329 681.428 297.665 680.913L289.169 679.883L285.049 679.368L282.989 679.111C282.474 679.111 282.217 679.111 281.702 678.854C274.235 674.478 266.769 670.102 259.302 665.726C253.38 662.123 247.201 658.777 241.279 655.431C247.459 656.46 253.638 656.975 259.817 656.717C270.631 656.203 281.187 653.114 290.456 647.709C298.952 643.59 307.191 639.214 315.688 634.839C325.729 629.691 336.028 624.8 346.841 621.197C357.398 617.593 368.726 615.276 379.797 616.306C382.63 616.563 385.204 616.821 388.036 617.336L392.156 618.365C393.701 618.623 395.246 618.88 396.533 618.88C402.455 619.137 408.119 618.365 413.783 617.336C425.112 615.276 436.183 612.445 446.997 609.356C458.068 606.268 468.882 602.921 479.695 599.06C501.323 591.596 522.693 583.617 543.29 574.093C548.439 571.776 553.589 569.202 558.481 566.371C561.055 565.084 563.373 563.282 565.69 561.738C568.007 560.193 570.582 558.649 572.899 557.362C582.683 551.699 592.981 547.066 603.538 543.205C624.65 535.483 647.307 531.622 669.965 532.652C681.293 533.167 692.364 534.968 703.178 538.057C713.992 541.146 725.063 544.235 736.134 546.809C758.276 551.957 780.933 555.818 803.848 557.105C826.505 558.392 849.678 557.362 872.077 552.729C894.477 548.096 916.362 540.116 936.187 528.791L943.396 524.415C945.713 522.871 948.288 521.584 950.605 520.039C955.497 517.465 960.647 515.149 965.796 512.832C976.352 508.714 987.166 505.625 998.237 503.051C1020.38 498.161 1043.04 495.844 1065.69 494.557C1111.01 492.498 1156.58 495.844 1201.38 503.566C1223.78 507.427 1245.92 512.575 1267.55 519.267C1278.36 522.613 1288.92 526.474 1299.48 531.107C1309.77 535.741 1319.82 540.889 1329.08 547.324L1330.63 545.264C1321.1 538.572 1311.06 533.424 1300.51 528.791C1289.95 524.158 1279.39 520.297 1268.32 516.693C1246.44 509.744 1224.29 504.596 1201.89 500.735C1157.09 493.013 1111.27 489.666 1065.69 491.726C1043.04 492.755 1020.12 495.329 997.722 500.22C986.651 502.794 975.58 505.883 964.766 510.001C959.359 512.06 954.21 514.377 949.06 517.208C946.486 518.495 944.169 520.039 941.594 521.584L934.385 525.96C914.817 537.285 893.447 545.264 871.305 549.64C849.163 554.016 826.248 555.303 803.848 554.016C781.191 552.729 758.791 549.125 736.649 543.72C725.578 541.146 714.764 538.057 703.693 534.968C692.622 531.88 681.293 530.078 669.707 529.563C646.792 528.534 623.62 532.395 602.25 540.374C591.437 544.235 581.138 549.125 571.097 554.788C568.522 556.332 566.205 557.619 563.63 559.164C561.313 560.708 558.996 562.253 556.421 563.54C551.529 566.371 546.38 568.945 541.23 571.262C520.633 580.785 499.263 588.765 477.893 596.229C467.079 599.833 456.266 603.179 445.452 606.268C434.638 609.356 423.567 612.188 412.496 613.989C406.832 614.762 401.425 615.791 395.76 615.534C394.473 615.534 392.928 615.276 391.898 615.019L387.779 613.989C384.947 613.475 382.115 612.96 379.025 612.703C367.439 611.93 355.853 614.247 345.039 617.85C329.334 622.998 314.915 630.978 300.497 638.442C304.359 634.581 307.449 630.206 310.023 625.572C310.023 625.315 310.281 625.058 310.281 624.8C311.053 623.256 311.826 621.454 312.598 619.91C314.143 617.078 316.203 614.504 318.52 612.188C322.382 608.327 326.759 605.238 331.651 602.664C341.177 597.516 351.991 593.912 362.547 590.824C383.917 584.646 406.059 580.27 427.687 574.35C449.314 568.688 470.941 561.995 491.796 553.758C512.651 545.522 533.249 535.998 552.816 524.93C557.708 522.099 562.6 519.267 567.235 516.436C572.126 513.604 577.018 511.031 581.91 508.714C591.952 503.823 602.25 499.705 612.806 496.359C633.919 489.924 656.576 486.835 678.461 489.409C683.868 489.924 689.532 490.953 694.939 491.983C700.346 493.013 705.753 494.814 711.16 496.359C721.973 499.448 732.787 502.279 743.858 504.596C765.743 509.486 788.143 512.575 810.8 513.347C833.2 514.119 856.114 512.317 877.999 507.17C899.884 502.022 921.254 493.527 940.307 481.687C958.844 469.332 980.472 462.64 1002.36 458.007C1024.24 453.631 1046.64 451.314 1068.78 450.542C1113.58 448.998 1158.38 452.344 1202.41 460.066C1224.55 463.927 1246.18 469.075 1267.55 475.767C1278.11 479.113 1288.66 482.974 1298.96 487.607C1309.26 492.24 1319.04 497.388 1328.05 503.566L1329.6 501.507C1320.33 495.072 1310.29 489.667 1299.99 485.033C1289.69 480.4 1279.14 476.539 1268.32 473.193C1246.95 466.243 1225.07 461.353 1202.92 457.234C1158.64 449.512 1113.58 445.909 1068.78 447.711C1046.38 448.483 1023.98 450.799 1001.84 455.175C990.77 457.492 979.957 460.323 969.143 464.184C963.736 466.243 958.587 468.303 953.437 470.619C948.288 472.936 943.396 476.024 938.762 478.856C919.709 490.439 898.854 498.933 877.227 504.081C855.599 509.229 833.2 510.773 810.8 510.001C788.4 509.229 766.258 506.14 744.373 501.249C733.559 498.933 722.746 496.101 711.932 493.013C706.525 491.468 701.118 489.924 695.711 488.637C690.047 487.35 684.64 486.578 678.976 485.806C656.319 483.232 633.404 486.32 611.777 493.013C600.963 496.359 590.407 500.477 580.365 505.368C575.216 507.942 570.324 510.516 565.432 513.347C560.54 516.178 555.906 519.01 551.014 521.841C531.704 532.909 511.364 542.433 490.509 550.412C469.654 558.392 448.284 565.084 426.657 570.747C405.029 576.409 383.145 581.043 361.517 587.22C350.703 590.309 339.89 593.912 329.849 599.318C325.214 601.892 320.837 604.981 316.975 608.584L319.035 602.664C319.55 601.12 320.065 599.833 320.58 598.288L322.382 593.913C323.669 591.081 324.699 588.25 326.244 585.418L328.561 581.3C329.334 580.013 330.106 578.469 330.878 577.439C337.573 566.886 345.812 557.619 355.595 550.155C365.379 542.433 376.193 536.513 387.779 531.88L392.156 530.078L396.533 528.534C399.365 527.504 402.455 526.732 405.544 525.96C411.466 524.415 417.645 523.128 423.825 522.099C436.183 519.782 448.542 517.208 460.9 514.119C473.259 511.031 485.36 507.427 497.203 503.566C509.304 499.448 520.89 495.072 532.734 490.181C544.32 485.291 556.163 479.885 566.462 472.936C577.018 466.243 588.09 460.838 599.676 456.205C622.848 447.196 647.822 442.82 672.539 444.365L681.808 445.394C684.898 445.652 687.987 446.424 691.077 446.939C694.167 447.453 696.999 448.226 700.088 448.998C703.178 449.77 706.01 450.542 709.1 451.314C721.201 454.66 733.559 457.749 745.918 460.581L755.187 462.382L764.455 463.927C770.635 465.214 777.071 465.729 783.251 466.758C795.867 468.045 808.483 469.075 821.099 468.817C846.33 468.817 871.82 465.471 896.022 457.749L905.033 454.403L909.41 452.859C910.955 452.344 912.5 451.829 913.787 451.057L922.284 446.939C925.116 445.652 928.205 444.365 930.78 442.563C941.851 436.385 952.15 429.435 963.736 424.802C975.322 420.169 987.166 416.566 999.524 413.992C1011.63 411.418 1023.98 409.358 1036.6 408.071C1048.96 406.784 1061.57 405.755 1074.19 405.498C1086.81 404.983 1099.16 405.24 1111.78 405.498C1136.75 406.527 1161.73 408.586 1186.7 412.447C1211.42 416.051 1236.14 421.199 1260.08 428.406C1272.18 432.009 1283.77 436.128 1295.36 441.018C1306.94 445.909 1318.01 451.572 1328.31 458.521L1330.37 455.69C1319.82 448.483 1308.49 442.563 1296.9 437.672C1285.31 432.782 1273.21 428.663 1261.11 425.06C1236.91 417.853 1212.19 412.705 1187.22 408.844C1162.24 404.983 1137.01 402.924 1112.04 401.894C1099.42 401.379 1086.81 401.379 1074.19 401.894C1061.57 402.151 1048.96 403.181 1036.34 404.468C1023.73 405.755 1011.37 407.814 999.009 410.388C986.651 412.962 974.292 416.566 962.706 421.456C959.617 422.486 956.784 424.03 953.952 425.317C952.408 426.089 951.12 426.604 949.575 427.376L945.456 429.693L929.235 439.217C926.661 440.761 923.829 442.048 920.996 443.335L912.5 447.196C911.213 447.968 909.668 448.483 908.123 448.998L903.746 450.542L894.992 453.888C871.305 461.61 846.33 464.699 821.356 464.699C808.998 464.956 796.382 463.927 784.023 462.64C777.844 461.61 771.665 461.095 765.485 459.808L756.217 458.264L746.948 456.462C734.589 453.888 722.488 450.799 710.387 447.196C707.297 446.424 704.465 445.394 701.118 444.622C698.029 443.85 694.939 442.82 691.849 442.563C688.76 442.048 685.67 441.276 682.323 441.018L672.797 439.989C647.307 438.187 621.818 442.82 597.873 451.829C586.03 456.462 574.701 462.125 563.887 468.817C553.589 475.767 542.26 480.915 530.674 485.806C519.088 490.696 507.244 495.072 495.401 498.933C483.557 502.794 471.456 506.397 459.355 509.486C447.254 512.575 434.896 515.149 422.537 517.465C416.358 518.495 410.179 519.782 403.999 521.326C400.91 522.099 397.82 522.871 394.731 524.158L390.096 525.702L385.719 527.504C373.876 532.137 362.547 538.572 352.506 546.551C342.464 554.531 333.711 564.054 327.016 574.865C320.065 585.676 315.43 597.773 311.826 609.871C311.053 612.445 310.281 614.762 309.251 617.336C308.221 619.395 307.191 621.454 306.161 623.513C302.557 629.948 297.922 635.611 292.258 639.987C282.732 647.451 270.631 651.312 258.272 652.084C246.429 652.857 234.07 650.54 223.514 645.649C216.82 642.303 210.126 638.957 202.917 636.383C198.025 634.581 193.133 632.78 187.983 631.75C182.834 630.463 177.685 629.948 172.278 630.206C171.763 630.206 171.505 630.206 170.99 630.206C174.338 628.919 177.942 627.889 181.289 626.602C189.013 623.513 196.48 620.167 203.946 616.306C218.622 608.584 232.783 599.575 245.399 588.765C250.548 584.389 255.698 580.013 260.332 575.122L272.433 564.312C281.444 556.59 290.971 549.125 300.24 541.403C319.55 526.989 338.86 512.832 360.23 501.764L364.092 499.705L366.152 498.675L368.211 497.646L376.45 494.042L384.689 490.439L393.186 487.35L401.682 484.261L410.436 481.687C413.268 480.915 416.101 479.885 419.19 479.371L427.944 477.311C433.866 475.767 439.788 474.737 445.452 473.45L463.217 469.59C469.139 468.303 474.803 466.758 480.725 465.214C486.647 463.669 492.311 461.61 497.976 460.066C520.89 452.601 542.775 441.533 563.63 429.95C584.485 418.11 606.627 408.586 630.057 403.696C641.643 401.379 653.744 400.092 665.588 400.092C668.677 400.35 671.509 400.092 674.599 400.35L683.61 401.122L692.364 402.666C695.196 403.181 698.029 403.953 701.118 404.725C724.29 411.16 747.72 417.338 771.665 420.684C795.609 424.288 819.811 425.575 844.013 423.515C847.103 423.515 849.935 423.001 853.025 422.486L862.036 421.199C867.958 420.169 873.88 418.882 879.801 417.595C885.723 415.793 891.387 414.506 897.309 412.705L905.806 409.616C908.638 408.586 911.47 407.557 914.302 406.27L922.541 402.409C925.373 401.122 928.205 399.835 930.78 398.29L946.486 389.281C956.785 383.361 967.856 378.728 979.184 375.125C990.513 371.778 1002.36 368.947 1014.2 366.888C1026.04 365.086 1037.89 363.542 1049.99 362.512C1097.88 358.909 1146.02 361.74 1193.4 369.204C1217.09 373.065 1240.51 378.213 1263.43 385.163C1275.02 388.509 1286.09 392.628 1297.16 397.518C1308.23 402.151 1318.79 407.814 1328.57 414.506L1330.63 411.675C1320.59 404.725 1309.77 399.063 1298.7 394.429C1287.63 389.796 1276.3 385.421 1264.72 382.074C1241.54 374.867 1217.86 369.977 1194.17 366.116C1146.54 358.651 1098.13 355.82 1049.99 359.423C1037.89 360.196 1026.04 361.997 1013.94 363.799C1002.1 365.858 990.255 368.432 978.669 372.036C967.083 375.639 955.755 380.273 945.198 386.45L929.75 395.459C927.176 397.003 924.343 398.29 921.769 399.577L913.53 403.438C910.955 404.725 907.865 405.755 905.291 406.784L896.794 409.873C891.13 411.675 885.208 413.219 879.544 414.764C873.622 416.051 867.958 417.338 862.036 418.367L853.025 419.654C849.935 419.912 847.103 420.427 844.013 420.684C820.069 422.743 796.124 421.456 772.437 417.853C748.75 414.506 725.578 408.329 702.148 401.894C699.316 401.122 696.226 400.35 693.394 399.835L684.383 398.29L675.371 397.261C672.282 397.003 669.192 397.003 666.36 397.003C654.259 396.746 642.158 398.033 630.314 400.607C606.627 405.498 583.97 415.279 563.115 427.376C542.26 438.959 520.633 449.77 497.976 457.492C492.311 459.294 486.647 461.095 480.725 462.64C474.803 464.184 469.139 465.729 463.217 467.016L445.709 470.876C439.788 472.163 433.866 473.45 427.944 474.737L419.19 476.797C416.358 477.569 413.268 478.341 410.436 479.371L401.682 481.945L393.186 485.033L384.689 488.122L376.45 491.726L368.211 495.587L366.152 496.616L364.092 497.646L360.23 499.705C338.602 510.773 319.292 525.187 299.982 539.602C292.001 546.294 284.019 552.729 276.295 559.164C279.127 555.818 281.702 552.472 284.019 548.868C295.348 537.285 306.161 525.187 316.46 512.575C327.789 499.19 338.602 485.291 350.961 472.936C357.14 466.758 363.577 460.838 370.786 455.947C377.995 450.799 385.719 447.196 393.958 444.107C410.179 437.93 427.429 434.069 444.68 431.237C463.217 425.832 481.498 420.169 499.778 413.734C508.789 410.645 517.801 407.299 526.812 403.696C535.823 400.092 544.577 396.231 553.331 391.855C555.391 390.826 557.708 389.539 559.768 388.252C561.828 386.965 563.887 385.678 565.947 384.391C570.067 381.817 574.186 379.5 578.306 377.184C586.802 372.808 595.556 368.69 604.568 365.601C622.59 359.166 641.643 355.305 660.696 355.048C663.013 354.79 665.588 355.048 667.905 355.048C670.222 355.048 672.797 355.048 675.114 355.305C679.748 355.82 684.64 356.077 689.275 357.107C691.592 357.622 693.909 357.879 696.226 358.394L703.178 360.196C707.812 361.225 712.447 362.77 717.081 364.057C735.619 369.204 754.414 373.323 773.467 376.154C792.52 378.986 811.83 380.53 831.14 379.758C850.45 378.986 869.76 376.412 888.298 371.264L895.25 369.204C897.567 368.69 899.884 367.66 902.201 366.888L908.895 364.314L912.242 363.027C913.272 362.512 914.56 361.997 915.59 361.483L928.72 355.305L941.336 348.098C957.557 337.802 975.58 331.11 994.117 326.734C1012.66 322.358 1031.71 319.784 1050.76 318.24C1069.81 316.695 1089.12 316.438 1108.18 316.953C1146.54 317.982 1184.64 322.358 1222.23 330.337C1241.03 334.456 1259.57 339.346 1277.59 345.524C1286.6 348.613 1295.36 352.216 1304.11 356.335C1312.61 360.453 1321.1 365.086 1328.83 370.491L1331.14 367.145C1323.16 361.74 1314.41 356.849 1305.65 352.731C1296.9 348.87 1287.89 345.009 1278.62 341.92C1260.34 335.485 1241.54 330.595 1222.75 326.734C1184.9 319.012 1146.54 314.636 1107.92 313.607C1088.61 313.092 1069.3 313.349 1049.99 314.894C1030.68 316.438 1011.63 319.012 992.83 323.645C988.196 324.675 983.561 326.219 978.927 327.506C974.292 329.05 969.658 330.337 965.281 332.397C962.964 333.426 960.646 334.198 958.587 335.228L951.893 338.317C947.516 340.633 943.396 343.207 939.277 345.524L926.918 352.731L914.045 358.909C913.015 359.423 911.985 359.938 910.698 360.453L907.351 361.74L900.656 364.314C898.339 365.086 896.279 366.116 893.962 366.631L887.011 368.69C868.73 373.838 849.678 376.669 830.367 377.184C811.315 377.956 792.005 376.412 773.209 373.58C754.157 370.749 735.619 366.631 717.081 361.483C712.447 360.196 707.812 358.909 703.178 357.622L696.226 355.82C693.909 355.305 691.334 355.048 689.017 354.533C684.383 353.503 679.491 353.246 674.599 352.731C672.282 352.474 669.707 352.474 667.39 352.474C665.073 352.474 662.498 352.216 660.181 352.474C640.871 352.731 621.56 356.592 603.28 363.284C594.269 366.63 585.257 370.491 576.761 375.125C568.264 379.5 560.283 385.421 551.786 389.539C543.29 393.915 534.536 397.776 525.525 401.379C516.513 404.983 507.502 408.329 498.49 411.418C480.468 417.853 462.187 423.515 443.65 428.921C426.399 431.752 409.149 435.87 392.671 442.048C384.432 445.137 376.45 448.998 369.241 454.146C362.032 459.294 355.595 465.214 349.159 471.391C336.8 484.004 325.986 497.646 314.658 511.03C306.161 521.326 297.665 531.365 288.654 540.889C295.348 530.85 301.012 520.039 305.646 508.971C312.083 493.527 318.262 478.341 325.987 463.927C333.711 449.513 342.979 435.613 354.823 424.288C366.667 413.219 380.827 404.211 396.275 399.063C411.724 393.657 427.944 389.796 444.165 387.222C462.702 381.817 480.983 376.154 499.263 369.719C517.543 363.284 535.566 356.592 552.816 347.84C557.193 345.781 561.313 342.95 565.432 340.376C569.552 337.802 573.671 335.485 577.791 333.169C586.287 328.793 595.041 324.675 603.795 321.586C621.818 315.151 640.613 311.29 659.666 311.033C669.192 310.775 678.718 311.547 687.987 313.092C697.256 314.636 706.525 317.468 715.794 320.042C734.332 325.189 753.384 329.565 772.437 332.397C791.49 335.228 811.057 336.772 830.367 336C849.678 335.485 868.988 332.654 887.783 327.506C906.578 322.101 924.601 314.636 941.079 304.34C957.042 293.787 975.065 287.352 993.602 282.976C1012.14 278.601 1031.19 276.027 1050.25 274.482C1069.3 272.938 1088.61 272.68 1107.66 273.195C1146.02 274.225 1184.13 278.601 1221.72 286.58C1240.51 290.441 1259.05 295.589 1277.08 301.766C1295.1 308.201 1312.61 315.666 1328.05 326.476L1331.14 322.101C1314.92 310.775 1296.9 303.311 1278.62 296.876C1260.34 290.441 1241.54 285.55 1222.75 281.689C1184.9 273.71 1146.54 269.592 1107.92 268.562C1088.61 268.047 1069.3 268.305 1049.99 269.849C1030.68 271.393 1011.63 273.967 992.573 278.601C983.046 280.917 973.777 283.749 964.766 287.352C960.132 289.154 955.755 291.213 951.378 293.272C949.318 294.302 947.001 295.589 944.941 296.876L938.762 300.737C922.541 310.775 905.033 318.24 886.753 323.388C868.473 328.536 849.42 331.11 830.367 331.882C811.315 332.654 792.262 331.11 773.209 328.278C754.157 325.447 735.619 321.329 717.081 316.181C707.812 313.607 698.544 310.775 689.017 309.231C679.491 307.686 669.707 306.914 659.923 307.172C640.356 307.429 621.045 311.29 603.023 317.982C594.011 321.329 585 325.189 576.503 329.823C572.126 332.139 568.007 334.456 563.887 337.287C559.768 339.861 555.906 342.435 551.529 344.494C534.536 353.246 516.513 359.938 498.49 366.373C480.468 372.808 462.187 378.471 443.65 383.876C427.172 386.708 410.951 390.311 395.503 395.974C387.779 398.805 380.055 402.151 372.846 406.784C365.637 411.16 358.942 416.308 353.021 421.971C340.92 433.554 331.393 447.711 323.669 462.382C315.945 477.054 309.766 492.498 303.329 507.684C293.031 532.652 277.325 555.303 258.015 574.35L251.836 579.756L248.488 582.844L246.686 584.389L245.914 585.161C245.656 585.418 245.656 585.418 245.399 585.676C245.141 585.933 245.141 585.933 244.884 586.191C232.268 596.744 218.365 605.753 203.946 613.475C196.737 617.336 189.271 620.682 181.547 623.771C177.685 625.315 173.823 626.602 169.961 627.889C167.901 628.661 166.099 629.176 164.039 629.691L160.949 630.463L160.177 630.72C154.255 631.75 148.333 633.552 142.926 635.868C123.616 643.848 107.396 658.004 94.0073 673.448C87.3132 681.17 81.1339 689.664 75.4696 698.159C70.0628 706.395 65.1709 714.889 60.7939 723.641C59.2491 715.662 58.2192 707.682 58.4767 699.703C58.7342 691.209 60.279 682.715 63.3686 674.735C69.0329 658.777 79.5891 644.62 92.2051 633.037C104.821 621.454 118.982 611.93 133.915 603.436C148.848 594.942 164.296 587.478 180.002 580.528L191.845 575.38C193.905 574.608 195.707 573.836 197.767 572.549C199.827 571.519 201.629 570.232 203.431 568.688C203.689 568.43 203.946 568.173 204.204 568.173C209.353 565.341 214.245 561.995 219.137 558.906C230.208 551.185 241.022 542.69 250.806 533.424L258.015 526.217C260.589 523.643 262.392 520.812 264.194 517.98C267.799 512.06 270.116 505.625 272.433 499.19C276.553 486.32 279.385 472.936 282.732 459.808C286.079 446.681 289.941 433.811 296.378 422.228C297.922 419.397 299.725 416.566 301.784 413.734C302.814 412.447 303.844 411.16 304.874 409.873C305.904 408.586 307.191 407.557 308.479 406.527C313.371 402.151 319.035 398.29 324.699 394.687C347.356 380.273 372.588 369.977 397.82 360.71C404.257 358.394 410.436 356.335 416.873 354.275C423.31 352.216 429.746 350.157 436.183 348.355C449.056 344.494 462.187 340.633 475.061 336.515C487.934 332.397 500.808 328.021 513.424 323.388C526.04 318.755 538.656 313.607 551.014 307.686C554.104 306.142 557.193 304.598 560.025 302.796C563.115 300.994 565.69 299.192 568.522 297.391C574.186 293.787 580.108 290.698 586.287 287.867C598.388 281.947 611.004 277.571 624.135 274.225C650.139 267.79 677.689 267.79 703.693 274.74C729.697 282.204 755.959 288.639 782.993 291.985C809.77 295.331 837.319 295.589 864.096 291.213C890.873 286.837 917.134 277.828 940.564 263.672C962.964 248.742 989.483 241.535 1015.74 236.902C1042.26 232.269 1069.3 230.725 1096.08 230.725C1123.11 230.725 1149.89 232.526 1176.66 235.873C1203.44 239.219 1229.96 244.109 1255.71 251.316C1268.58 254.92 1281.45 259.038 1293.81 264.186C1306.17 269.334 1318.27 275.254 1329.08 282.976L1332.17 278.601C1320.85 270.621 1308.49 264.701 1295.87 259.553C1283.25 254.405 1270.12 250.287 1257.25 246.683C1230.99 239.476 1204.21 234.843 1177.44 231.497C1150.4 228.151 1123.37 226.606 1096.33 226.606C1069.3 226.864 1042.01 228.665 1015.23 233.299C1001.84 235.615 988.711 238.704 975.58 243.08C969.143 245.396 962.706 247.713 956.527 250.802C953.437 252.346 950.348 253.89 947.516 255.692L938.762 261.098C915.847 274.997 890.1 284.006 863.581 288.382C837.062 292.757 810.027 292.5 783.251 289.154C756.474 286.065 730.212 279.63 704.208 272.166C677.946 264.958 649.625 265.216 623.363 271.651C610.232 274.74 597.358 279.63 585 285.293C578.821 288.124 572.899 291.47 566.977 295.074C564.145 296.876 561.313 298.678 558.481 300.479C555.648 302.281 552.559 303.826 549.727 305.112C537.626 311.033 525.01 315.923 512.394 320.814C499.778 325.447 486.904 329.823 474.031 333.941C461.158 338.059 448.284 341.92 435.411 345.781C428.974 347.84 422.537 349.642 416.101 351.701C409.664 353.761 403.227 355.82 396.79 358.394C371.301 367.66 346.327 377.956 323.154 392.628C317.49 396.231 311.826 400.092 306.676 404.725C305.389 406.012 304.102 407.042 303.072 408.329C301.784 409.616 300.755 411.16 299.725 412.447C297.665 415.279 295.863 418.11 294.06 421.199C287.366 433.296 283.504 446.424 280.157 459.551C276.81 472.678 273.978 485.806 270.116 498.675C268.056 505.11 265.739 511.288 262.134 516.951C260.332 519.782 258.53 522.613 256.213 524.93L249.003 531.88C237.16 543.205 224.029 553.244 210.126 562.253C213.73 557.877 216.562 552.986 219.395 548.353C228.148 534.711 234.07 518.238 239.477 502.022Z" fill="white"/>
</g>
<defs>
<filter id="filter0_d_2_846" x="0" y="0" width="1361.78" height="773.869" filterUnits="userSpaceOnUse" color-interpolation-filters="sRGB">
<feFlood flood-opacity="0" result="BackgroundImageFix"/>
<feColorMatrix in="SourceAlpha" type="matrix" values="0 0 0 0 0 0 0 0 0 0 0 0 0 0 0 0 0 0 127 0" result="hardAlpha"/>
<feOffset/>
<feGaussianBlur stdDeviation="13"/>
<feComposite in2="hardAlpha" operator="out"/>
<feColorMatrix type="matrix" values="0 0 0 0 0.441667 0 0 0 0 0.799 0 0 0 0 1 0 0 0 1 0"/>
<feBlend mode="normal" in2="BackgroundImageFix" result="effect1_dropShadow_2_846"/>
<feBlend mode="normal" in="SourceGraphic" in2="effect1_dropShadow_2_846" result="shape"/>
</filter>
</defs>
</svg>
