<svg width="36" height="36" viewBox="0 0 36 36" fill="none" xmlns="http://www.w3.org/2000/svg">
<path d="M31.415 26.0739C30.3394 24.9975 29.0827 24.119 27.7024 23.4785C29.6489 21.9016 30.8907 19.4953 30.8907 16.7969C30.8907 12.036 26.9204 8.13011 22.1595 8.20316C17.4716 8.2762 13.6946 12.0961 13.6946 16.7969C13.6946 19.4953 14.9407 21.9016 16.8829 23.4785C15.5024 24.1185 14.2456 24.9971 13.1704 26.0739C10.8243 28.4242 9.4923 31.5266 9.40636 34.8352C9.40521 34.881 9.41325 34.9267 9.43002 34.9694C9.44678 35.0121 9.47192 35.051 9.50395 35.0838C9.53598 35.1167 9.57427 35.1428 9.61654 35.1606C9.65882 35.1784 9.70423 35.1875 9.75011 35.1875H12.1564C12.3411 35.1875 12.4958 35.0414 12.5001 34.8567C12.5817 32.3645 13.5915 30.0313 15.3661 28.261C16.2742 27.348 17.3544 26.6243 18.5441 26.1316C19.7337 25.6389 21.0093 25.3871 22.297 25.3907C24.9138 25.3907 27.3759 26.409 29.2278 28.261C30.9982 30.0313 32.0079 32.3645 32.0939 34.8567C32.0982 35.0414 32.2528 35.1875 32.4376 35.1875H34.8439C34.8897 35.1875 34.9351 35.1784 34.9774 35.1606C35.0197 35.1428 35.058 35.1167 35.09 35.0838C35.1221 35.051 35.1472 35.0121 35.1639 34.9694C35.1807 34.9267 35.1888 34.881 35.1876 34.8352C35.1017 31.5266 33.7696 28.4242 31.415 26.0739ZM22.297 22.2969C20.8275 22.2969 19.4439 21.7254 18.4083 20.6856C17.8886 20.17 17.4781 19.555 17.2013 18.8773C16.9244 18.1996 16.7869 17.473 16.797 16.741C16.8099 15.3317 17.3728 13.9696 18.3567 12.9598C19.388 11.9028 20.7673 11.3141 22.2411 11.2969C23.6978 11.284 25.1114 11.8512 26.1513 12.8696C27.2169 13.9137 27.8013 15.3102 27.8013 16.7969C27.8013 18.2664 27.2298 19.6457 26.19 20.6856C25.6798 21.1982 25.0731 21.6045 24.4048 21.8811C23.7366 22.1577 23.0202 22.299 22.297 22.2969ZM11.5333 17.9313C11.4946 17.5575 11.4732 17.1793 11.4732 16.7969C11.4732 16.1137 11.5376 15.4477 11.6579 14.7989C11.688 14.6442 11.6064 14.4852 11.4646 14.4207C10.8802 14.1586 10.3431 13.7977 9.87901 13.3422C9.33219 12.812 8.9019 12.1736 8.61558 11.4678C8.32927 10.7621 8.19322 10.0043 8.21612 9.243C8.25479 7.8637 8.80909 6.55316 9.77589 5.56488C10.8372 4.47777 12.2638 3.8848 13.7806 3.90198C15.1513 3.91488 16.4747 4.44339 17.4759 5.38011C17.8153 5.69808 18.1075 6.05042 18.3525 6.42855C18.4384 6.56175 18.606 6.61761 18.7521 6.56605C19.5083 6.30394 20.3075 6.11917 21.1282 6.03323C21.3689 6.00745 21.5064 5.74964 21.3989 5.5348C20.0025 2.77191 17.1493 0.864094 13.8493 0.812532C9.08409 0.739485 5.11378 4.64534 5.11378 9.40199C5.11378 12.1004 6.35558 14.5067 8.30206 16.0836C6.93565 16.7153 5.67667 17.5875 4.58526 18.6789C2.23058 21.0293 0.898545 24.1317 0.812607 27.4446C0.811461 27.4904 0.819504 27.536 0.836265 27.5787C0.853026 27.6215 0.878165 27.6604 0.9102 27.6932C0.942235 27.726 0.980519 27.7521 1.02279 27.7699C1.06507 27.7878 1.11048 27.7969 1.15636 27.7969H3.5669C3.75167 27.7969 3.90636 27.6508 3.91065 27.466C3.9923 24.9739 5.00206 22.6407 6.77667 20.8703C8.03995 19.6071 9.58683 18.7305 11.2755 18.3051C11.4431 18.2621 11.5548 18.1032 11.5333 17.9313Z" fill="white"/>
</svg>
